%TF.GenerationSoftware,KiCad,Pcbnew,8.0.8*%
%TF.CreationDate,2025-10-28T14:51:58+08:00*%
%TF.ProjectId,adaptor_dual_LVPMSM,61646170-746f-4725-9f64-75616c5f4c56,rev?*%
%TF.SameCoordinates,Original*%
%TF.FileFunction,Copper,L2,Bot*%
%TF.FilePolarity,Positive*%
%FSLAX46Y46*%
G04 Gerber Fmt 4.6, Leading zero omitted, Abs format (unit mm)*
G04 Created by KiCad (PCBNEW 8.0.8) date 2025-10-28 14:51:58*
%MOMM*%
%LPD*%
G01*
G04 APERTURE LIST*
%TA.AperFunction,ComponentPad*%
%ADD10R,1.700000X1.700000*%
%TD*%
%TA.AperFunction,ComponentPad*%
%ADD11O,1.700000X1.700000*%
%TD*%
%TA.AperFunction,ComponentPad*%
%ADD12R,1.350000X1.350000*%
%TD*%
%TA.AperFunction,ComponentPad*%
%ADD13O,1.350000X1.350000*%
%TD*%
%TA.AperFunction,ViaPad*%
%ADD14C,0.800000*%
%TD*%
%TA.AperFunction,Conductor*%
%ADD15C,0.250000*%
%TD*%
%TA.AperFunction,Conductor*%
%ADD16C,0.200000*%
%TD*%
%TA.AperFunction,Conductor*%
%ADD17C,2.000000*%
%TD*%
G04 APERTURE END LIST*
D10*
%TO.P,J4_M2,1,Pin_1*%
%TO.N,unconnected-(J4_M2-Pin_1-Pad1)*%
X151119600Y-67873400D03*
D11*
%TO.P,J4_M2,2,Pin_2*%
%TO.N,unconnected-(J4_M2-Pin_2-Pad2)*%
X148579600Y-67873400D03*
%TO.P,J4_M2,3,Pin_3*%
%TO.N,unconnected-(J4_M2-Pin_3-Pad3)*%
X151119600Y-70413400D03*
%TO.P,J4_M2,4,Pin_4*%
%TO.N,unconnected-(J4_M2-Pin_4-Pad4)*%
X148579600Y-70413400D03*
%TO.P,J4_M2,5,Pin_5*%
%TO.N,unconnected-(J4_M2-Pin_5-Pad5)*%
X151119600Y-72953400D03*
%TO.P,J4_M2,6,Pin_6*%
%TO.N,unconnected-(J4_M2-Pin_6-Pad6)*%
X148579600Y-72953400D03*
%TO.P,J4_M2,7,Pin_7*%
%TO.N,unconnected-(J4_M2-Pin_7-Pad7)*%
X151119600Y-75493400D03*
%TO.P,J4_M2,8,Pin_8*%
%TO.N,unconnected-(J4_M2-Pin_8-Pad8)*%
X148579600Y-75493400D03*
%TO.P,J4_M2,9,Pin_9*%
%TO.N,unconnected-(J4_M2-Pin_9-Pad9)*%
X151119600Y-78033400D03*
%TO.P,J4_M2,10,Pin_10*%
%TO.N,unconnected-(J4_M2-Pin_10-Pad10)*%
X148579600Y-78033400D03*
%TO.P,J4_M2,11,Pin_11*%
%TO.N,unconnected-(J4_M2-Pin_11-Pad11)*%
X151119600Y-80573400D03*
%TO.P,J4_M2,12,Pin_12*%
%TO.N,unconnected-(J4_M2-Pin_12-Pad12)*%
X148579600Y-80573400D03*
%TD*%
D10*
%TO.P,J3_M2,1,Pin_1*%
%TO.N,ENC_B_M2*%
X151128000Y-44997000D03*
D11*
%TO.P,J3_M2,2,Pin_2*%
%TO.N,unconnected-(J3_M2-Pin_2-Pad2)*%
X148588000Y-44997000D03*
%TO.P,J3_M2,3,Pin_3*%
%TO.N,ENC_A_M2*%
X151128000Y-47537000D03*
%TO.P,J3_M2,4,Pin_4*%
%TO.N,+3V3*%
X148588000Y-47537000D03*
%TO.P,J3_M2,5,Pin_5*%
%TO.N,M2_PWM_B2*%
X151128000Y-50077000D03*
%TO.P,J3_M2,6,Pin_6*%
%TO.N,unconnected-(J3_M2-Pin_6-Pad6)*%
X148588000Y-50077000D03*
%TO.P,J3_M2,7,Pin_7*%
%TO.N,M2_PWM_A2*%
X151128000Y-52617000D03*
%TO.P,J3_M2,8,Pin_8*%
%TO.N,+3V3*%
X148588000Y-52617000D03*
%TO.P,J3_M2,9,Pin_9*%
%TO.N,M2_PWM_B1*%
X151128000Y-55157000D03*
%TO.P,J3_M2,10,Pin_10*%
%TO.N,unconnected-(J3_M2-Pin_10-Pad10)*%
X148588000Y-55157000D03*
%TO.P,J3_M2,11,Pin_11*%
%TO.N,M2_PWM_A1*%
X151128000Y-57697000D03*
%TO.P,J3_M2,12,Pin_12*%
%TO.N,GND*%
X148588000Y-57697000D03*
%TO.P,J3_M2,13,Pin_13*%
%TO.N,M2_PWM_B0*%
X151128000Y-60237000D03*
%TO.P,J3_M2,14,Pin_14*%
%TO.N,GND*%
X148588000Y-60237000D03*
%TO.P,J3_M2,15,Pin_15*%
%TO.N,M2_PWM_A0*%
X151128000Y-62777000D03*
%TO.P,J3_M2,16,Pin_16*%
%TO.N,5V_M2*%
X148588000Y-62777000D03*
%TD*%
D12*
%TO.P,J2,1,Pin_1*%
%TO.N,5V_M3*%
X96288800Y-92963400D03*
D13*
%TO.P,J2,2,Pin_2*%
X96288800Y-94963400D03*
%TO.P,J2,3,Pin_3*%
%TO.N,+3V3*%
X98288800Y-92963400D03*
%TO.P,J2,4,Pin_4*%
X98288800Y-94963400D03*
%TO.P,J2,5,Pin_5*%
%TO.N,BEMF_A_M3*%
X100288800Y-92963400D03*
%TO.P,J2,6,Pin_6*%
%TO.N,M3_PWM_A0*%
X100288800Y-94963400D03*
%TO.P,J2,7,Pin_7*%
%TO.N,BEMF_B_M3*%
X102288800Y-92963400D03*
%TO.P,J2,8,Pin_8*%
%TO.N,M3_PWM_B0*%
X102288800Y-94963400D03*
%TO.P,J2,9,Pin_9*%
%TO.N,BEMF_C_M3*%
X104288800Y-92963400D03*
%TO.P,J2,10,Pin_10*%
%TO.N,M3_PWM_A1*%
X104288800Y-94963400D03*
%TO.P,J2,11,Pin_11*%
%TO.N,VOLT_DCB_M3*%
X106288800Y-92963400D03*
%TO.P,J2,12,Pin_12*%
%TO.N,M3_PWM_B1*%
X106288800Y-94963400D03*
%TO.P,J2,13,Pin_13*%
%TO.N,CUR_DCB_M3*%
X108288800Y-92963400D03*
%TO.P,J2,14,Pin_14*%
%TO.N,M3_PWM_A2*%
X108288800Y-94963400D03*
%TO.P,J2,15,Pin_15*%
%TO.N,unconnected-(J2-Pin_15-Pad15)*%
X110288800Y-92963400D03*
%TO.P,J2,16,Pin_16*%
%TO.N,M3_PWM_B2*%
X110288800Y-94963400D03*
%TO.P,J2,17,Pin_17*%
%TO.N,unconnected-(J2-Pin_17-Pad17)*%
X112288800Y-92963400D03*
%TO.P,J2,18,Pin_18*%
%TO.N,unconnected-(J2-Pin_18-Pad18)*%
X112288800Y-94963400D03*
%TO.P,J2,19,Pin_19*%
%TO.N,GND*%
X114288800Y-92963400D03*
%TO.P,J2,20,Pin_20*%
X114288800Y-94963400D03*
%TD*%
D10*
%TO.P,J4_M1,1,Pin_1*%
%TO.N,unconnected-(J4_M1-Pin_1-Pad1)*%
X86253000Y-67872000D03*
D11*
%TO.P,J4_M1,2,Pin_2*%
%TO.N,unconnected-(J4_M1-Pin_2-Pad2)*%
X83713000Y-67872000D03*
%TO.P,J4_M1,3,Pin_3*%
%TO.N,unconnected-(J4_M1-Pin_3-Pad3)*%
X86253000Y-70412000D03*
%TO.P,J4_M1,4,Pin_4*%
%TO.N,unconnected-(J4_M1-Pin_4-Pad4)*%
X83713000Y-70412000D03*
%TO.P,J4_M1,5,Pin_5*%
%TO.N,unconnected-(J4_M1-Pin_5-Pad5)*%
X86253000Y-72952000D03*
%TO.P,J4_M1,6,Pin_6*%
%TO.N,unconnected-(J4_M1-Pin_6-Pad6)*%
X83713000Y-72952000D03*
%TO.P,J4_M1,7,Pin_7*%
%TO.N,unconnected-(J4_M1-Pin_7-Pad7)*%
X86253000Y-75492000D03*
%TO.P,J4_M1,8,Pin_8*%
%TO.N,unconnected-(J4_M1-Pin_8-Pad8)*%
X83713000Y-75492000D03*
%TO.P,J4_M1,9,Pin_9*%
%TO.N,unconnected-(J4_M1-Pin_9-Pad9)*%
X86253000Y-78032000D03*
%TO.P,J4_M1,10,Pin_10*%
%TO.N,unconnected-(J4_M1-Pin_10-Pad10)*%
X83713000Y-78032000D03*
%TO.P,J4_M1,11,Pin_11*%
%TO.N,unconnected-(J4_M1-Pin_11-Pad11)*%
X86253000Y-80572000D03*
%TO.P,J4_M1,12,Pin_12*%
%TO.N,unconnected-(J4_M1-Pin_12-Pad12)*%
X83713000Y-80572000D03*
%TD*%
D10*
%TO.P,J2_M1,1,Pin_1*%
%TO.N,BEMF_A_M3*%
X129428000Y-58983400D03*
D11*
%TO.P,J2_M1,2,Pin_2*%
%TO.N,unconnected-(J2_M1-Pin_2-Pad2)*%
X131968000Y-58983400D03*
%TO.P,J2_M1,3,Pin_3*%
%TO.N,BEMF_B_M3*%
X129428000Y-56443400D03*
%TO.P,J2_M1,4,Pin_4*%
%TO.N,unconnected-(J2_M1-Pin_4-Pad4)*%
X131968000Y-56443400D03*
%TO.P,J2_M1,5,Pin_5*%
%TO.N,BEMF_C_M3*%
X129428000Y-53903400D03*
%TO.P,J2_M1,6,Pin_6*%
%TO.N,unconnected-(J2_M1-Pin_6-Pad6)*%
X131968000Y-53903400D03*
%TO.P,J2_M1,7,Pin_7*%
%TO.N,VOLT_DCB_M3*%
X129428000Y-51363400D03*
%TO.P,J2_M1,8,Pin_8*%
%TO.N,unconnected-(J2_M1-Pin_8-Pad8)*%
X131968000Y-51363400D03*
%TO.P,J2_M1,9,Pin_9*%
%TO.N,CUR_DCB_M3*%
X129428000Y-48823400D03*
%TO.P,J2_M1,10,Pin_10*%
%TO.N,unconnected-(J2_M1-Pin_10-Pad10)*%
X131968000Y-48823400D03*
%TO.P,J2_M1,11,Pin_11*%
%TO.N,unconnected-(J2_M1-Pin_11-Pad11)*%
X129428000Y-46283400D03*
%TO.P,J2_M1,12,Pin_12*%
%TO.N,unconnected-(J2_M1-Pin_12-Pad12)*%
X131968000Y-46283400D03*
%TO.P,J2_M1,13,Pin_13*%
%TO.N,unconnected-(J2_M1-Pin_13-Pad13)*%
X129428000Y-43743400D03*
%TO.P,J2_M1,14,Pin_14*%
%TO.N,GND*%
X131968000Y-43743400D03*
%TO.P,J2_M1,15,Pin_15*%
%TO.N,unconnected-(J2_M1-Pin_15-Pad15)*%
X129428000Y-41203400D03*
%TO.P,J2_M1,16,Pin_16*%
%TO.N,unconnected-(J2_M1-Pin_16-Pad16)*%
X131968000Y-41203400D03*
%TO.P,J2_M1,17,Pin_17*%
%TO.N,unconnected-(J2_M1-Pin_17-Pad17)*%
X129428000Y-38663400D03*
%TO.P,J2_M1,18,Pin_18*%
%TO.N,unconnected-(J2_M1-Pin_18-Pad18)*%
X131968000Y-38663400D03*
%TO.P,J2_M1,19,Pin_19*%
%TO.N,unconnected-(J2_M1-Pin_19-Pad19)*%
X129428000Y-36123400D03*
%TO.P,J2_M1,20,Pin_20*%
%TO.N,unconnected-(J2_M1-Pin_20-Pad20)*%
X131968000Y-36123400D03*
%TD*%
D12*
%TO.P,J1,1,Pin_1*%
%TO.N,5V_M2*%
X163718000Y-93305400D03*
D13*
%TO.P,J1,2,Pin_2*%
X163718000Y-95305400D03*
%TO.P,J1,3,Pin_3*%
%TO.N,+3V3*%
X165718000Y-93305400D03*
%TO.P,J1,4,Pin_4*%
X165718000Y-95305400D03*
%TO.P,J1,5,Pin_5*%
%TO.N,BEMF_A_M2*%
X167718000Y-93305400D03*
%TO.P,J1,6,Pin_6*%
%TO.N,M2_PWM_A0*%
X167718000Y-95305400D03*
%TO.P,J1,7,Pin_7*%
%TO.N,BEMF_B_M2*%
X169718000Y-93305400D03*
%TO.P,J1,8,Pin_8*%
%TO.N,M2_PWM_B0*%
X169718000Y-95305400D03*
%TO.P,J1,9,Pin_9*%
%TO.N,BEMF_C_M2*%
X171718000Y-93305400D03*
%TO.P,J1,10,Pin_10*%
%TO.N,M2_PWM_A1*%
X171718000Y-95305400D03*
%TO.P,J1,11,Pin_11*%
%TO.N,VOLT_DCB_M2*%
X173718000Y-93305400D03*
%TO.P,J1,12,Pin_12*%
%TO.N,M2_PWM_B1*%
X173718000Y-95305400D03*
%TO.P,J1,13,Pin_13*%
%TO.N,CUR_DCB_M2*%
X175718000Y-93305400D03*
%TO.P,J1,14,Pin_14*%
%TO.N,M2_PWM_A2*%
X175718000Y-95305400D03*
%TO.P,J1,15,Pin_15*%
%TO.N,ENC_A_M2*%
X177718000Y-93305400D03*
%TO.P,J1,16,Pin_16*%
%TO.N,M2_PWM_B2*%
X177718000Y-95305400D03*
%TO.P,J1,17,Pin_17*%
%TO.N,ENC_B_M2*%
X179718000Y-93305400D03*
%TO.P,J1,18,Pin_18*%
%TO.N,ENC_I_M2*%
X179718000Y-95305400D03*
%TO.P,J1,19,Pin_19*%
%TO.N,GND*%
X181718000Y-93305400D03*
%TO.P,J1,20,Pin_20*%
X181718000Y-95305400D03*
%TD*%
D10*
%TO.P,J1_M1,1,Pin_1*%
%TO.N,unconnected-(J1_M1-Pin_1-Pad1)*%
X129453400Y-80548000D03*
D11*
%TO.P,J1_M1,2,Pin_2*%
%TO.N,unconnected-(J1_M1-Pin_2-Pad2)*%
X131993400Y-80548000D03*
%TO.P,J1_M1,3,Pin_3*%
%TO.N,unconnected-(J1_M1-Pin_3-Pad3)*%
X129453400Y-78008000D03*
%TO.P,J1_M1,4,Pin_4*%
%TO.N,unconnected-(J1_M1-Pin_4-Pad4)*%
X131993400Y-78008000D03*
%TO.P,J1_M1,5,Pin_5*%
%TO.N,unconnected-(J1_M1-Pin_5-Pad5)*%
X129453400Y-75468000D03*
%TO.P,J1_M1,6,Pin_6*%
%TO.N,unconnected-(J1_M1-Pin_6-Pad6)*%
X131993400Y-75468000D03*
%TO.P,J1_M1,7,Pin_7*%
%TO.N,unconnected-(J1_M1-Pin_7-Pad7)*%
X129453400Y-72928000D03*
%TO.P,J1_M1,8,Pin_8*%
%TO.N,unconnected-(J1_M1-Pin_8-Pad8)*%
X131993400Y-72928000D03*
%TO.P,J1_M1,9,Pin_9*%
%TO.N,unconnected-(J1_M1-Pin_9-Pad9)*%
X129453400Y-70388000D03*
%TO.P,J1_M1,10,Pin_10*%
%TO.N,unconnected-(J1_M1-Pin_10-Pad10)*%
X131993400Y-70388000D03*
%TO.P,J1_M1,11,Pin_11*%
%TO.N,unconnected-(J1_M1-Pin_11-Pad11)*%
X129453400Y-67848000D03*
%TO.P,J1_M1,12,Pin_12*%
%TO.N,unconnected-(J1_M1-Pin_12-Pad12)*%
X131993400Y-67848000D03*
%TO.P,J1_M1,13,Pin_13*%
%TO.N,unconnected-(J1_M1-Pin_13-Pad13)*%
X129453400Y-65308000D03*
%TO.P,J1_M1,14,Pin_14*%
%TO.N,unconnected-(J1_M1-Pin_14-Pad14)*%
X131993400Y-65308000D03*
%TO.P,J1_M1,15,Pin_15*%
%TO.N,unconnected-(J1_M1-Pin_15-Pad15)*%
X129453400Y-62768000D03*
%TO.P,J1_M1,16,Pin_16*%
%TO.N,unconnected-(J1_M1-Pin_16-Pad16)*%
X131993400Y-62768000D03*
%TD*%
D10*
%TO.P,J3_M1,1,Pin_1*%
%TO.N,unconnected-(J3_M1-Pin_1-Pad1)*%
X86268000Y-45027000D03*
D11*
%TO.P,J3_M1,2,Pin_2*%
%TO.N,unconnected-(J3_M1-Pin_2-Pad2)*%
X83728000Y-45027000D03*
%TO.P,J3_M1,3,Pin_3*%
%TO.N,unconnected-(J3_M1-Pin_3-Pad3)*%
X86268000Y-47567000D03*
%TO.P,J3_M1,4,Pin_4*%
%TO.N,+3V3*%
X83728000Y-47567000D03*
%TO.P,J3_M1,5,Pin_5*%
%TO.N,M3_PWM_B2*%
X86268000Y-50107000D03*
%TO.P,J3_M1,6,Pin_6*%
%TO.N,unconnected-(J3_M1-Pin_6-Pad6)*%
X83728000Y-50107000D03*
%TO.P,J3_M1,7,Pin_7*%
%TO.N,M3_PWM_A2*%
X86268000Y-52647000D03*
%TO.P,J3_M1,8,Pin_8*%
%TO.N,+3V3*%
X83728000Y-52647000D03*
%TO.P,J3_M1,9,Pin_9*%
%TO.N,M3_PWM_B1*%
X86268000Y-55187000D03*
%TO.P,J3_M1,10,Pin_10*%
%TO.N,unconnected-(J3_M1-Pin_10-Pad10)*%
X83728000Y-55187000D03*
%TO.P,J3_M1,11,Pin_11*%
%TO.N,M3_PWM_A1*%
X86268000Y-57727000D03*
%TO.P,J3_M1,12,Pin_12*%
%TO.N,GND*%
X83728000Y-57727000D03*
%TO.P,J3_M1,13,Pin_13*%
%TO.N,M3_PWM_B0*%
X86268000Y-60267000D03*
%TO.P,J3_M1,14,Pin_14*%
%TO.N,GND*%
X83728000Y-60267000D03*
%TO.P,J3_M1,15,Pin_15*%
%TO.N,M3_PWM_A0*%
X86268000Y-62807000D03*
%TO.P,J3_M1,16,Pin_16*%
%TO.N,5V_M3*%
X83728000Y-62807000D03*
%TD*%
D10*
%TO.P,J2_M2,1,Pin_1*%
%TO.N,BEMF_A_M2*%
X194299600Y-58983400D03*
D11*
%TO.P,J2_M2,2,Pin_2*%
%TO.N,unconnected-(J2_M2-Pin_2-Pad2)*%
X196839600Y-58983400D03*
%TO.P,J2_M2,3,Pin_3*%
%TO.N,BEMF_B_M2*%
X194299600Y-56443400D03*
%TO.P,J2_M2,4,Pin_4*%
%TO.N,unconnected-(J2_M2-Pin_4-Pad4)*%
X196839600Y-56443400D03*
%TO.P,J2_M2,5,Pin_5*%
%TO.N,BEMF_C_M2*%
X194299600Y-53903400D03*
%TO.P,J2_M2,6,Pin_6*%
%TO.N,unconnected-(J2_M2-Pin_6-Pad6)*%
X196839600Y-53903400D03*
%TO.P,J2_M2,7,Pin_7*%
%TO.N,VOLT_DCB_M2*%
X194299600Y-51363400D03*
%TO.P,J2_M2,8,Pin_8*%
%TO.N,unconnected-(J2_M2-Pin_8-Pad8)*%
X196839600Y-51363400D03*
%TO.P,J2_M2,9,Pin_9*%
%TO.N,CUR_DCB_M2*%
X194299600Y-48823400D03*
%TO.P,J2_M2,10,Pin_10*%
%TO.N,unconnected-(J2_M2-Pin_10-Pad10)*%
X196839600Y-48823400D03*
%TO.P,J2_M2,11,Pin_11*%
%TO.N,unconnected-(J2_M2-Pin_11-Pad11)*%
X194299600Y-46283400D03*
%TO.P,J2_M2,12,Pin_12*%
%TO.N,unconnected-(J2_M2-Pin_12-Pad12)*%
X196839600Y-46283400D03*
%TO.P,J2_M2,13,Pin_13*%
%TO.N,unconnected-(J2_M2-Pin_13-Pad13)*%
X194299600Y-43743400D03*
%TO.P,J2_M2,14,Pin_14*%
%TO.N,GND*%
X196839600Y-43743400D03*
%TO.P,J2_M2,15,Pin_15*%
%TO.N,unconnected-(J2_M2-Pin_15-Pad15)*%
X194299600Y-41203400D03*
%TO.P,J2_M2,16,Pin_16*%
%TO.N,unconnected-(J2_M2-Pin_16-Pad16)*%
X196839600Y-41203400D03*
%TO.P,J2_M2,17,Pin_17*%
%TO.N,unconnected-(J2_M2-Pin_17-Pad17)*%
X194299600Y-38663400D03*
%TO.P,J2_M2,18,Pin_18*%
%TO.N,unconnected-(J2_M2-Pin_18-Pad18)*%
X196839600Y-38663400D03*
%TO.P,J2_M2,19,Pin_19*%
%TO.N,unconnected-(J2_M2-Pin_19-Pad19)*%
X194299600Y-36123400D03*
%TO.P,J2_M2,20,Pin_20*%
%TO.N,unconnected-(J2_M2-Pin_20-Pad20)*%
X196839600Y-36123400D03*
%TD*%
D10*
%TO.P,J1_M2,1,Pin_1*%
%TO.N,unconnected-(J1_M2-Pin_1-Pad1)*%
X194299600Y-80573400D03*
D11*
%TO.P,J1_M2,2,Pin_2*%
%TO.N,unconnected-(J1_M2-Pin_2-Pad2)*%
X196839600Y-80573400D03*
%TO.P,J1_M2,3,Pin_3*%
%TO.N,ENC_I_M2*%
X194299600Y-78033400D03*
%TO.P,J1_M2,4,Pin_4*%
%TO.N,unconnected-(J1_M2-Pin_4-Pad4)*%
X196839600Y-78033400D03*
%TO.P,J1_M2,5,Pin_5*%
%TO.N,unconnected-(J1_M2-Pin_5-Pad5)*%
X194299600Y-75493400D03*
%TO.P,J1_M2,6,Pin_6*%
%TO.N,unconnected-(J1_M2-Pin_6-Pad6)*%
X196839600Y-75493400D03*
%TO.P,J1_M2,7,Pin_7*%
%TO.N,unconnected-(J1_M2-Pin_7-Pad7)*%
X194299600Y-72953400D03*
%TO.P,J1_M2,8,Pin_8*%
%TO.N,unconnected-(J1_M2-Pin_8-Pad8)*%
X196839600Y-72953400D03*
%TO.P,J1_M2,9,Pin_9*%
%TO.N,unconnected-(J1_M2-Pin_9-Pad9)*%
X194299600Y-70413400D03*
%TO.P,J1_M2,10,Pin_10*%
%TO.N,unconnected-(J1_M2-Pin_10-Pad10)*%
X196839600Y-70413400D03*
%TO.P,J1_M2,11,Pin_11*%
%TO.N,unconnected-(J1_M2-Pin_11-Pad11)*%
X194299600Y-67873400D03*
%TO.P,J1_M2,12,Pin_12*%
%TO.N,unconnected-(J1_M2-Pin_12-Pad12)*%
X196839600Y-67873400D03*
%TO.P,J1_M2,13,Pin_13*%
%TO.N,unconnected-(J1_M2-Pin_13-Pad13)*%
X194299600Y-65333400D03*
%TO.P,J1_M2,14,Pin_14*%
%TO.N,unconnected-(J1_M2-Pin_14-Pad14)*%
X196839600Y-65333400D03*
%TO.P,J1_M2,15,Pin_15*%
%TO.N,unconnected-(J1_M2-Pin_15-Pad15)*%
X194299600Y-62793400D03*
%TO.P,J1_M2,16,Pin_16*%
%TO.N,unconnected-(J1_M2-Pin_16-Pad16)*%
X196839600Y-62793400D03*
%TD*%
D14*
%TO.N,GND*%
X119288800Y-77963400D03*
X158788800Y-63502000D03*
X163288800Y-44963400D03*
X119288800Y-64463400D03*
X117788800Y-45463400D03*
X188788800Y-73963400D03*
X189288800Y-44963400D03*
X184788800Y-44963400D03*
X171788800Y-44963400D03*
X119288800Y-89963400D03*
X124288800Y-64463400D03*
X100288800Y-45463400D03*
X119288800Y-70463400D03*
X156288800Y-61713400D03*
X91788800Y-92463400D03*
X105288800Y-45463400D03*
X183288800Y-63963400D03*
X188788800Y-64463400D03*
X95288800Y-49963400D03*
X91788800Y-68963400D03*
X157288800Y-70463400D03*
X124288800Y-70463400D03*
X100288800Y-49963400D03*
X91788800Y-86463400D03*
X84788800Y-86463400D03*
X124288800Y-77963400D03*
X157288800Y-75963400D03*
X156538800Y-63502000D03*
X188788800Y-69463400D03*
X91788800Y-74463400D03*
X87288800Y-92463400D03*
X180788800Y-44963400D03*
X189788800Y-91963400D03*
X167788800Y-44963400D03*
X183288800Y-75963400D03*
X157288800Y-87463400D03*
X124288800Y-89963400D03*
X158788800Y-44963400D03*
X95288800Y-45463400D03*
X175788800Y-44963400D03*
X91788800Y-80463400D03*
X119288800Y-83963400D03*
X164038800Y-82463400D03*
X157288800Y-81963400D03*
X122788800Y-45463400D03*
X166038800Y-84713400D03*
X124288800Y-83963400D03*
X189788800Y-83463400D03*
X105288800Y-49963400D03*
X183288800Y-69963400D03*
X158788800Y-61713400D03*
X112788800Y-45463400D03*
%TO.N,BEMF_B_M2*%
X175288800Y-57213400D03*
%TO.N,VOLT_DCB_M2*%
X177788800Y-52213400D03*
%TO.N,BEMF_C_M2*%
X176788800Y-54713400D03*
%TO.N,BEMF_A_M2*%
X174288800Y-58963400D03*
%TO.N,+3V3*%
X144288800Y-48463400D03*
X145538800Y-47713400D03*
%TO.N,VOLT_DCB_M3*%
X110288800Y-52463400D03*
%TO.N,BEMF_B_M3*%
X107788800Y-57463400D03*
%TO.N,BEMF_C_M3*%
X108788800Y-54963400D03*
%TO.N,BEMF_A_M3*%
X105788800Y-59963400D03*
%TD*%
D15*
%TO.N,5V_M2*%
X148168000Y-62367000D02*
X148593000Y-62792000D01*
D16*
%TO.N,M2_PWM_B0*%
X151128000Y-60237000D02*
X151128000Y-60302600D01*
D15*
%TO.N,M2_PWM_A0*%
X167718000Y-95305400D02*
X167718000Y-95392600D01*
X167718000Y-95392600D02*
X166718000Y-94392600D01*
X162788800Y-65963400D02*
X159602400Y-62777000D01*
X166718000Y-94392600D02*
X166718000Y-87642600D01*
X166718000Y-87642600D02*
X162788800Y-83713400D01*
X162788800Y-83713400D02*
X162788800Y-65963400D01*
X159602400Y-62777000D02*
X151128000Y-62777000D01*
%TO.N,ENC_I_M2*%
X179718000Y-96642600D02*
X180788800Y-97713400D01*
X184288800Y-97713400D02*
X185538800Y-96463400D01*
X185538800Y-96463400D02*
X185538800Y-79213400D01*
X186718800Y-78033400D02*
X194299600Y-78033400D01*
X185538800Y-79213400D02*
X186718800Y-78033400D01*
X180788800Y-97713400D02*
X184288800Y-97713400D01*
X179718000Y-95305400D02*
X179718000Y-96642600D01*
%TO.N,GND*%
X148593000Y-60252000D02*
X149281299Y-60252000D01*
%TO.N,BEMF_B_M2*%
X175288800Y-57213400D02*
X175288800Y-71463400D01*
X169718000Y-77034200D02*
X169718000Y-93305400D01*
X175288800Y-71463400D02*
X169718000Y-77034200D01*
%TO.N,VOLT_DCB_M2*%
X177788800Y-52213400D02*
X177788800Y-72642600D01*
X173718000Y-76713400D02*
X173718000Y-93305400D01*
X177788800Y-72642600D02*
X173718000Y-76713400D01*
%TO.N,CUR_DCB_M2*%
X179038800Y-49713400D02*
X179928800Y-48823400D01*
X175718000Y-93305400D02*
X175718000Y-76534200D01*
X179928800Y-48823400D02*
X194299600Y-48823400D01*
X179038800Y-73213400D02*
X179038800Y-49713400D01*
X175718000Y-76534200D02*
X179038800Y-73213400D01*
%TO.N,BEMF_C_M2*%
X176538800Y-54963400D02*
X176538800Y-71963400D01*
X176538800Y-71963400D02*
X171718000Y-76784200D01*
X171718000Y-76784200D02*
X171718000Y-93305400D01*
X176788800Y-54713400D02*
X176538800Y-54963400D01*
%TO.N,BEMF_A_M2*%
X167788800Y-76713400D02*
X174038800Y-70463400D01*
X174038800Y-70463400D02*
X174038800Y-59213400D01*
X174038800Y-59213400D02*
X174288800Y-58963400D01*
X194279600Y-58963400D02*
X194299600Y-58983400D01*
X167718000Y-76713400D02*
X167788800Y-76713400D01*
X167718000Y-93305400D02*
X167718000Y-76713400D01*
D17*
%TO.N,+3V3*%
X144288800Y-36963400D02*
X144288800Y-47963400D01*
X79788800Y-48463400D02*
X80685200Y-47567000D01*
X97288800Y-97463400D02*
X98288800Y-96463400D01*
X80605200Y-52647000D02*
X79788800Y-53463400D01*
X86288800Y-97463400D02*
X97288800Y-97463400D01*
X82288800Y-33463400D02*
X140788800Y-33463400D01*
X79788800Y-90963400D02*
X86288800Y-97463400D01*
X79788800Y-55384119D02*
X79788800Y-48463400D01*
X79788800Y-35963400D02*
X82288800Y-33463400D01*
D15*
X148593000Y-47552000D02*
X148593000Y-48247000D01*
D17*
X79788800Y-53463400D02*
X79788800Y-55384119D01*
X80685200Y-47567000D02*
X83728000Y-47567000D01*
X144288800Y-47963400D02*
X144788800Y-48463400D01*
X79788800Y-48463400D02*
X79788800Y-35963400D01*
X140788800Y-33463400D02*
X144288800Y-36963400D01*
X79788800Y-55384119D02*
X79788800Y-90963400D01*
X83728000Y-52647000D02*
X80605200Y-52647000D01*
X98288800Y-96463400D02*
X98288800Y-92963400D01*
D15*
%TO.N,5V_M3*%
X83728000Y-62807000D02*
X83728000Y-62792000D01*
%TO.N,CUR_DCB_M3*%
X112428800Y-48823400D02*
X111788800Y-49463400D01*
X111788800Y-73463400D02*
X108288800Y-76963400D01*
X111788800Y-49463400D02*
X111788800Y-73463400D01*
X129428000Y-48823400D02*
X112428800Y-48823400D01*
X108288800Y-76963400D02*
X108288800Y-92963400D01*
D16*
%TO.N,VOLT_DCB_M3*%
X129448000Y-51377000D02*
X129418000Y-51377000D01*
D15*
X110288800Y-72463400D02*
X106288800Y-76463400D01*
D16*
X129418000Y-51377000D02*
X129238000Y-51557000D01*
D15*
X110288800Y-52463400D02*
X110288800Y-72463400D01*
X106288800Y-76463400D02*
X106288800Y-92963400D01*
%TO.N,BEMF_B_M3*%
X102288800Y-75463400D02*
X102288800Y-92963400D01*
X107288800Y-70463400D02*
X102288800Y-75463400D01*
X107288800Y-57963400D02*
X107288800Y-70463400D01*
X107788800Y-57463400D02*
X107288800Y-57963400D01*
%TO.N,BEMF_C_M3*%
X104288800Y-75963400D02*
X104288800Y-92963400D01*
X108788800Y-54963400D02*
X108788800Y-71463400D01*
X108788800Y-71463400D02*
X104288800Y-75963400D01*
%TO.N,BEMF_A_M3*%
X100788800Y-92463400D02*
X100288800Y-92963400D01*
X105788800Y-69463400D02*
X100788800Y-74463400D01*
X100788800Y-74463400D02*
X100788800Y-92463400D01*
X105788800Y-59963400D02*
X105788800Y-69463400D01*
D16*
%TO.N,unconnected-(J3_M1-Pin_3-Pad3)*%
X86268000Y-47567000D02*
X86478000Y-47567000D01*
%TO.N,unconnected-(J3_M1-Pin_1-Pad1)*%
X86268000Y-45027000D02*
X86488000Y-44807000D01*
%TD*%
%TA.AperFunction,Conductor*%
%TO.N,GND*%
G36*
X128445280Y-34983585D02*
G01*
X128491035Y-35036389D01*
X128500979Y-35105547D01*
X128471954Y-35169103D01*
X128465922Y-35175581D01*
X128389505Y-35251997D01*
X128253965Y-35445569D01*
X128253964Y-35445571D01*
X128154098Y-35659735D01*
X128154094Y-35659744D01*
X128092938Y-35887986D01*
X128092936Y-35887996D01*
X128072341Y-36123399D01*
X128072341Y-36123400D01*
X128092936Y-36358803D01*
X128092938Y-36358813D01*
X128154094Y-36587055D01*
X128154096Y-36587059D01*
X128154097Y-36587063D01*
X128177052Y-36636289D01*
X128253965Y-36801230D01*
X128253967Y-36801234D01*
X128362281Y-36955921D01*
X128389501Y-36994796D01*
X128389506Y-36994802D01*
X128556597Y-37161893D01*
X128556603Y-37161898D01*
X128742158Y-37291825D01*
X128785783Y-37346402D01*
X128792977Y-37415900D01*
X128761454Y-37478255D01*
X128742158Y-37494975D01*
X128556597Y-37624905D01*
X128389505Y-37791997D01*
X128253965Y-37985569D01*
X128253964Y-37985571D01*
X128154098Y-38199735D01*
X128154094Y-38199744D01*
X128092938Y-38427986D01*
X128092936Y-38427996D01*
X128072341Y-38663399D01*
X128072341Y-38663400D01*
X128092936Y-38898803D01*
X128092938Y-38898813D01*
X128154094Y-39127055D01*
X128154096Y-39127059D01*
X128154097Y-39127063D01*
X128158000Y-39135432D01*
X128253965Y-39341230D01*
X128253967Y-39341234D01*
X128362281Y-39495921D01*
X128389501Y-39534796D01*
X128389506Y-39534802D01*
X128556597Y-39701893D01*
X128556603Y-39701898D01*
X128742158Y-39831825D01*
X128785783Y-39886402D01*
X128792977Y-39955900D01*
X128761454Y-40018255D01*
X128742158Y-40034975D01*
X128556597Y-40164905D01*
X128389505Y-40331997D01*
X128253965Y-40525569D01*
X128253964Y-40525571D01*
X128154098Y-40739735D01*
X128154094Y-40739744D01*
X128092938Y-40967986D01*
X128092936Y-40967996D01*
X128072341Y-41203399D01*
X128072341Y-41203400D01*
X128092936Y-41438803D01*
X128092938Y-41438813D01*
X128154094Y-41667055D01*
X128154096Y-41667059D01*
X128154097Y-41667063D01*
X128158000Y-41675432D01*
X128253965Y-41881230D01*
X128253967Y-41881234D01*
X128362281Y-42035921D01*
X128389501Y-42074796D01*
X128389506Y-42074802D01*
X128556597Y-42241893D01*
X128556603Y-42241898D01*
X128742158Y-42371825D01*
X128785783Y-42426402D01*
X128792977Y-42495900D01*
X128761454Y-42558255D01*
X128742158Y-42574975D01*
X128556597Y-42704905D01*
X128389505Y-42871997D01*
X128253965Y-43065569D01*
X128253964Y-43065571D01*
X128154098Y-43279735D01*
X128154094Y-43279744D01*
X128092938Y-43507986D01*
X128092936Y-43507996D01*
X128072341Y-43743399D01*
X128072341Y-43743400D01*
X128092936Y-43978803D01*
X128092938Y-43978813D01*
X128154094Y-44207055D01*
X128154096Y-44207059D01*
X128154097Y-44207063D01*
X128235828Y-44382335D01*
X128253965Y-44421230D01*
X128253967Y-44421234D01*
X128332462Y-44533335D01*
X128389501Y-44614796D01*
X128389506Y-44614802D01*
X128556597Y-44781893D01*
X128556603Y-44781898D01*
X128742158Y-44911825D01*
X128785783Y-44966402D01*
X128792977Y-45035900D01*
X128761454Y-45098255D01*
X128742158Y-45114975D01*
X128556597Y-45244905D01*
X128389505Y-45411997D01*
X128253965Y-45605569D01*
X128253964Y-45605571D01*
X128154098Y-45819735D01*
X128154094Y-45819744D01*
X128092938Y-46047986D01*
X128092936Y-46047996D01*
X128072341Y-46283399D01*
X128072341Y-46283400D01*
X128092936Y-46518803D01*
X128092938Y-46518813D01*
X128154094Y-46747055D01*
X128154096Y-46747059D01*
X128154097Y-46747063D01*
X128212339Y-46871962D01*
X128253965Y-46961230D01*
X128253967Y-46961234D01*
X128309478Y-47040511D01*
X128389501Y-47154796D01*
X128389506Y-47154802D01*
X128556597Y-47321893D01*
X128556603Y-47321898D01*
X128742158Y-47451825D01*
X128785783Y-47506402D01*
X128792977Y-47575900D01*
X128761454Y-47638255D01*
X128742158Y-47654975D01*
X128556597Y-47784905D01*
X128389505Y-47951997D01*
X128254348Y-48145023D01*
X128199771Y-48188648D01*
X128152773Y-48197900D01*
X112496541Y-48197900D01*
X112496521Y-48197899D01*
X112490407Y-48197899D01*
X112367194Y-48197899D01*
X112367192Y-48197899D01*
X112282078Y-48214830D01*
X112246348Y-48221937D01*
X112246347Y-48221937D01*
X112246344Y-48221938D01*
X112246341Y-48221939D01*
X112214062Y-48235309D01*
X112199197Y-48241467D01*
X112132519Y-48269085D01*
X112132517Y-48269086D01*
X112030066Y-48337541D01*
X112030063Y-48337544D01*
X111390069Y-48977540D01*
X111302944Y-49064664D01*
X111302938Y-49064672D01*
X111234490Y-49167108D01*
X111234488Y-49167113D01*
X111206121Y-49235599D01*
X111187338Y-49280944D01*
X111187335Y-49280956D01*
X111163300Y-49401789D01*
X111163300Y-51765823D01*
X111143615Y-51832862D01*
X111090811Y-51878617D01*
X111021653Y-51888561D01*
X110958097Y-51859536D01*
X110947151Y-51848796D01*
X110894671Y-51790512D01*
X110894670Y-51790511D01*
X110741534Y-51679251D01*
X110741529Y-51679248D01*
X110568607Y-51602257D01*
X110568602Y-51602255D01*
X110422801Y-51571265D01*
X110383446Y-51562900D01*
X110194154Y-51562900D01*
X110161697Y-51569798D01*
X110008997Y-51602255D01*
X110008992Y-51602257D01*
X109836070Y-51679248D01*
X109836065Y-51679251D01*
X109682929Y-51790511D01*
X109556266Y-51931185D01*
X109461621Y-52095115D01*
X109461618Y-52095122D01*
X109416234Y-52234801D01*
X109403126Y-52275144D01*
X109383340Y-52463400D01*
X109403126Y-52651656D01*
X109403127Y-52651659D01*
X109461618Y-52831677D01*
X109461621Y-52831684D01*
X109556267Y-52995616D01*
X109589025Y-53031997D01*
X109631450Y-53079115D01*
X109661680Y-53142106D01*
X109663300Y-53162087D01*
X109663300Y-54265823D01*
X109643615Y-54332862D01*
X109590811Y-54378617D01*
X109521653Y-54388561D01*
X109458097Y-54359536D01*
X109447151Y-54348796D01*
X109394671Y-54290512D01*
X109394670Y-54290511D01*
X109241534Y-54179251D01*
X109241529Y-54179248D01*
X109068607Y-54102257D01*
X109068602Y-54102255D01*
X108922801Y-54071265D01*
X108883446Y-54062900D01*
X108694154Y-54062900D01*
X108661697Y-54069798D01*
X108508997Y-54102255D01*
X108508992Y-54102257D01*
X108336070Y-54179248D01*
X108336065Y-54179251D01*
X108182929Y-54290511D01*
X108056266Y-54431185D01*
X107961621Y-54595115D01*
X107961618Y-54595122D01*
X107914300Y-54740754D01*
X107903126Y-54775144D01*
X107883340Y-54963400D01*
X107903126Y-55151656D01*
X107903127Y-55151659D01*
X107961618Y-55331677D01*
X107961621Y-55331684D01*
X108056267Y-55495616D01*
X108097456Y-55541361D01*
X108131450Y-55579115D01*
X108161680Y-55642106D01*
X108163300Y-55662087D01*
X108163300Y-56469257D01*
X108143615Y-56536296D01*
X108090811Y-56582051D01*
X108021653Y-56591995D01*
X108013520Y-56590547D01*
X107883447Y-56562900D01*
X107883446Y-56562900D01*
X107694154Y-56562900D01*
X107661697Y-56569798D01*
X107508997Y-56602255D01*
X107508992Y-56602257D01*
X107336070Y-56679248D01*
X107336065Y-56679251D01*
X107182929Y-56790511D01*
X107056266Y-56931185D01*
X106961621Y-57095115D01*
X106961618Y-57095122D01*
X106907697Y-57261075D01*
X106903126Y-57275144D01*
X106885479Y-57443049D01*
X106858894Y-57507663D01*
X106849841Y-57517767D01*
X106802940Y-57564668D01*
X106791575Y-57581680D01*
X106791572Y-57581684D01*
X106734490Y-57667110D01*
X106734485Y-57667119D01*
X106709683Y-57726999D01*
X106709683Y-57727000D01*
X106687338Y-57780944D01*
X106687335Y-57780951D01*
X106683735Y-57799057D01*
X106683735Y-57799059D01*
X106668990Y-57873190D01*
X106668989Y-57873192D01*
X106663300Y-57901791D01*
X106663300Y-59265823D01*
X106643615Y-59332862D01*
X106590811Y-59378617D01*
X106521653Y-59388561D01*
X106458097Y-59359536D01*
X106447151Y-59348796D01*
X106394671Y-59290512D01*
X106394670Y-59290511D01*
X106241534Y-59179251D01*
X106241529Y-59179248D01*
X106068607Y-59102257D01*
X106068602Y-59102255D01*
X105910145Y-59068575D01*
X105883446Y-59062900D01*
X105694154Y-59062900D01*
X105667455Y-59068575D01*
X105508997Y-59102255D01*
X105508992Y-59102257D01*
X105336070Y-59179248D01*
X105336065Y-59179251D01*
X105182929Y-59290511D01*
X105056266Y-59431185D01*
X104961621Y-59595115D01*
X104961618Y-59595122D01*
X104903713Y-59773337D01*
X104903126Y-59775144D01*
X104883340Y-59963400D01*
X104903126Y-60151656D01*
X104903127Y-60151659D01*
X104961618Y-60331677D01*
X104961621Y-60331684D01*
X105056267Y-60495616D01*
X105097456Y-60541361D01*
X105131450Y-60579115D01*
X105161680Y-60642106D01*
X105163300Y-60662087D01*
X105163300Y-69152947D01*
X105143615Y-69219986D01*
X105126981Y-69240628D01*
X102770464Y-71597145D01*
X100390070Y-73977539D01*
X100390067Y-73977542D01*
X100302942Y-74064667D01*
X100271087Y-74112341D01*
X100253578Y-74138545D01*
X100234484Y-74167120D01*
X100202434Y-74244500D01*
X100201147Y-74247607D01*
X100195623Y-74260943D01*
X100187337Y-74280945D01*
X100187335Y-74280953D01*
X100163300Y-74401789D01*
X100163300Y-91688029D01*
X100143615Y-91755068D01*
X100090811Y-91800823D01*
X100062086Y-91809917D01*
X99965735Y-91827928D01*
X99762592Y-91906626D01*
X99762586Y-91906630D01*
X99593397Y-92011386D01*
X99526036Y-92029941D01*
X99459337Y-92009133D01*
X99436889Y-91989207D01*
X99436762Y-91989335D01*
X99434615Y-91987188D01*
X99433832Y-91986493D01*
X99433316Y-91985889D01*
X99266312Y-91818885D01*
X99266310Y-91818883D01*
X99075233Y-91680057D01*
X98864796Y-91572833D01*
X98640168Y-91499846D01*
X98406897Y-91462900D01*
X98406892Y-91462900D01*
X98170708Y-91462900D01*
X98170703Y-91462900D01*
X97937431Y-91499846D01*
X97712803Y-91572833D01*
X97502366Y-91680057D01*
X97406327Y-91749834D01*
X97311290Y-91818883D01*
X97311287Y-91818885D01*
X97307349Y-91821747D01*
X97306189Y-91820150D01*
X97249990Y-91845276D01*
X97189990Y-91838583D01*
X97071282Y-91794308D01*
X97071283Y-91794308D01*
X97011683Y-91787901D01*
X97011681Y-91787900D01*
X97011673Y-91787900D01*
X97011664Y-91787900D01*
X95565929Y-91787900D01*
X95565923Y-91787901D01*
X95506316Y-91794308D01*
X95371471Y-91844602D01*
X95371464Y-91844606D01*
X95256255Y-91930852D01*
X95256252Y-91930855D01*
X95170006Y-92046064D01*
X95170002Y-92046071D01*
X95119708Y-92180917D01*
X95113301Y-92240516D01*
X95113300Y-92240535D01*
X95113300Y-93686270D01*
X95113301Y-93686276D01*
X95119708Y-93745883D01*
X95170002Y-93880728D01*
X95170006Y-93880735D01*
X95231890Y-93963400D01*
X95256254Y-93995946D01*
X95341905Y-94060064D01*
X95383775Y-94115997D01*
X95388759Y-94185689D01*
X95366548Y-94234056D01*
X95285088Y-94341928D01*
X95187984Y-94536937D01*
X95187983Y-94536941D01*
X95137777Y-94713399D01*
X95128364Y-94746481D01*
X95108264Y-94963399D01*
X95108264Y-94963400D01*
X95128364Y-95180318D01*
X95128364Y-95180320D01*
X95128365Y-95180323D01*
X95172699Y-95336141D01*
X95187984Y-95389862D01*
X95284957Y-95584608D01*
X95285088Y-95584872D01*
X95416115Y-95758381D01*
X95419828Y-95763297D01*
X95417886Y-95764763D01*
X95443922Y-95818134D01*
X95435742Y-95887523D01*
X95391347Y-95941475D01*
X95324830Y-95962860D01*
X95321673Y-95962900D01*
X86961689Y-95962900D01*
X86894650Y-95943215D01*
X86874008Y-95926581D01*
X81325619Y-90378192D01*
X81292134Y-90316869D01*
X81289300Y-90290511D01*
X81289300Y-67871999D01*
X82357341Y-67871999D01*
X82357341Y-67872000D01*
X82377936Y-68107403D01*
X82377938Y-68107413D01*
X82439094Y-68335655D01*
X82439096Y-68335659D01*
X82439097Y-68335663D01*
X82531510Y-68533842D01*
X82538965Y-68549830D01*
X82538967Y-68549834D01*
X82674501Y-68743395D01*
X82674506Y-68743402D01*
X82841597Y-68910493D01*
X82841603Y-68910498D01*
X83027158Y-69040425D01*
X83070783Y-69095002D01*
X83077977Y-69164500D01*
X83046454Y-69226855D01*
X83027158Y-69243575D01*
X82841597Y-69373505D01*
X82674505Y-69540597D01*
X82538965Y-69734169D01*
X82538964Y-69734171D01*
X82439098Y-69948335D01*
X82439094Y-69948344D01*
X82377938Y-70176586D01*
X82377936Y-70176596D01*
X82357341Y-70411999D01*
X82357341Y-70412000D01*
X82377936Y-70647403D01*
X82377938Y-70647413D01*
X82439094Y-70875655D01*
X82439096Y-70875659D01*
X82439097Y-70875663D01*
X82531510Y-71073842D01*
X82538965Y-71089830D01*
X82538967Y-71089834D01*
X82545555Y-71099242D01*
X82674501Y-71283396D01*
X82674506Y-71283402D01*
X82841597Y-71450493D01*
X82841603Y-71450498D01*
X83027158Y-71580425D01*
X83070783Y-71635002D01*
X83077977Y-71704500D01*
X83046454Y-71766855D01*
X83027158Y-71783575D01*
X82841597Y-71913505D01*
X82674505Y-72080597D01*
X82538965Y-72274169D01*
X82538964Y-72274171D01*
X82439098Y-72488335D01*
X82439094Y-72488344D01*
X82377938Y-72716586D01*
X82377936Y-72716596D01*
X82357341Y-72951999D01*
X82357341Y-72952000D01*
X82377936Y-73187403D01*
X82377938Y-73187413D01*
X82439094Y-73415655D01*
X82439096Y-73415659D01*
X82439097Y-73415663D01*
X82530711Y-73612129D01*
X82538965Y-73629830D01*
X82538967Y-73629834D01*
X82629889Y-73759683D01*
X82674501Y-73823396D01*
X82674506Y-73823402D01*
X82841597Y-73990493D01*
X82841603Y-73990498D01*
X83027158Y-74120425D01*
X83070783Y-74175002D01*
X83077977Y-74244500D01*
X83046454Y-74306855D01*
X83027158Y-74323575D01*
X82841597Y-74453505D01*
X82674505Y-74620597D01*
X82538965Y-74814169D01*
X82538964Y-74814171D01*
X82439098Y-75028335D01*
X82439094Y-75028344D01*
X82377938Y-75256586D01*
X82377936Y-75256596D01*
X82357341Y-75491999D01*
X82357341Y-75492000D01*
X82377936Y-75727403D01*
X82377938Y-75727413D01*
X82439094Y-75955655D01*
X82439096Y-75955659D01*
X82439097Y-75955663D01*
X82531510Y-76153842D01*
X82538965Y-76169830D01*
X82538967Y-76169834D01*
X82616769Y-76280946D01*
X82674501Y-76363396D01*
X82674506Y-76363402D01*
X82841597Y-76530493D01*
X82841603Y-76530498D01*
X83027158Y-76660425D01*
X83070783Y-76715002D01*
X83077977Y-76784500D01*
X83046454Y-76846855D01*
X83027158Y-76863575D01*
X82841597Y-76993505D01*
X82674505Y-77160597D01*
X82538965Y-77354169D01*
X82538964Y-77354171D01*
X82439098Y-77568335D01*
X82439094Y-77568344D01*
X82377938Y-77796586D01*
X82377936Y-77796596D01*
X82357341Y-78031999D01*
X82357341Y-78032000D01*
X82377936Y-78267403D01*
X82377938Y-78267413D01*
X82439094Y-78495655D01*
X82439096Y-78495659D01*
X82439097Y-78495663D01*
X82531510Y-78693842D01*
X82538965Y-78709830D01*
X82538967Y-78709834D01*
X82612376Y-78814672D01*
X82674501Y-78903396D01*
X82674506Y-78903402D01*
X82841597Y-79070493D01*
X82841603Y-79070498D01*
X83027158Y-79200425D01*
X83070783Y-79255002D01*
X83077977Y-79324500D01*
X83046454Y-79386855D01*
X83027158Y-79403575D01*
X82841597Y-79533505D01*
X82674505Y-79700597D01*
X82538965Y-79894169D01*
X82538964Y-79894171D01*
X82439098Y-80108335D01*
X82439094Y-80108344D01*
X82377938Y-80336586D01*
X82377936Y-80336596D01*
X82357341Y-80571999D01*
X82357341Y-80572000D01*
X82377936Y-80807403D01*
X82377938Y-80807413D01*
X82439094Y-81035655D01*
X82439096Y-81035659D01*
X82439097Y-81035663D01*
X82533703Y-81238546D01*
X82538965Y-81249830D01*
X82538967Y-81249834D01*
X82545555Y-81259242D01*
X82674505Y-81443401D01*
X82841599Y-81610495D01*
X82884215Y-81640335D01*
X83035165Y-81746032D01*
X83035167Y-81746033D01*
X83035170Y-81746035D01*
X83249337Y-81845903D01*
X83477592Y-81907063D01*
X83665918Y-81923539D01*
X83712999Y-81927659D01*
X83713000Y-81927659D01*
X83713001Y-81927659D01*
X83752234Y-81924226D01*
X83948408Y-81907063D01*
X84176663Y-81845903D01*
X84390830Y-81746035D01*
X84584401Y-81610495D01*
X84751495Y-81443401D01*
X84881425Y-81257842D01*
X84936002Y-81214217D01*
X85005500Y-81207023D01*
X85067855Y-81238546D01*
X85084575Y-81257842D01*
X85214500Y-81443395D01*
X85214505Y-81443401D01*
X85381599Y-81610495D01*
X85424215Y-81640335D01*
X85575165Y-81746032D01*
X85575167Y-81746033D01*
X85575170Y-81746035D01*
X85789337Y-81845903D01*
X86017592Y-81907063D01*
X86205918Y-81923539D01*
X86252999Y-81927659D01*
X86253000Y-81927659D01*
X86253001Y-81927659D01*
X86292234Y-81924226D01*
X86488408Y-81907063D01*
X86716663Y-81845903D01*
X86930830Y-81746035D01*
X87124401Y-81610495D01*
X87291495Y-81443401D01*
X87427035Y-81249830D01*
X87526903Y-81035663D01*
X87588063Y-80807408D01*
X87608659Y-80572000D01*
X87588063Y-80336592D01*
X87526903Y-80108337D01*
X87427035Y-79894171D01*
X87421425Y-79886158D01*
X87291494Y-79700597D01*
X87124402Y-79533506D01*
X87124396Y-79533501D01*
X86938842Y-79403575D01*
X86895217Y-79348998D01*
X86888023Y-79279500D01*
X86919546Y-79217145D01*
X86938842Y-79200425D01*
X87036076Y-79132341D01*
X87124401Y-79070495D01*
X87291495Y-78903401D01*
X87427035Y-78709830D01*
X87526903Y-78495663D01*
X87588063Y-78267408D01*
X87608659Y-78032000D01*
X87588063Y-77796592D01*
X87526903Y-77568337D01*
X87427035Y-77354171D01*
X87421425Y-77346158D01*
X87291494Y-77160597D01*
X87124402Y-76993506D01*
X87124396Y-76993501D01*
X86938842Y-76863575D01*
X86895217Y-76808998D01*
X86888023Y-76739500D01*
X86919546Y-76677145D01*
X86938842Y-76660425D01*
X87022640Y-76601749D01*
X87124401Y-76530495D01*
X87291495Y-76363401D01*
X87427035Y-76169830D01*
X87526903Y-75955663D01*
X87588063Y-75727408D01*
X87608659Y-75492000D01*
X87588063Y-75256592D01*
X87536639Y-75064672D01*
X87526905Y-75028344D01*
X87526904Y-75028343D01*
X87526903Y-75028337D01*
X87427035Y-74814171D01*
X87421425Y-74806158D01*
X87291494Y-74620597D01*
X87124402Y-74453506D01*
X87124396Y-74453501D01*
X86938842Y-74323575D01*
X86895217Y-74268998D01*
X86888023Y-74199500D01*
X86919546Y-74137145D01*
X86938842Y-74120425D01*
X86973117Y-74096425D01*
X87124401Y-73990495D01*
X87291495Y-73823401D01*
X87427035Y-73629830D01*
X87526903Y-73415663D01*
X87588063Y-73187408D01*
X87608659Y-72952000D01*
X87588063Y-72716592D01*
X87526903Y-72488337D01*
X87427035Y-72274171D01*
X87421425Y-72266158D01*
X87291494Y-72080597D01*
X87124402Y-71913506D01*
X87124396Y-71913501D01*
X86938842Y-71783575D01*
X86895217Y-71728998D01*
X86888023Y-71659500D01*
X86919546Y-71597145D01*
X86938842Y-71580425D01*
X87017988Y-71525006D01*
X87124401Y-71450495D01*
X87291495Y-71283401D01*
X87427035Y-71089830D01*
X87526903Y-70875663D01*
X87588063Y-70647408D01*
X87608659Y-70412000D01*
X87588063Y-70176592D01*
X87526903Y-69948337D01*
X87427035Y-69734171D01*
X87421424Y-69726158D01*
X87291496Y-69540600D01*
X87267493Y-69516597D01*
X87169567Y-69418671D01*
X87136084Y-69357351D01*
X87141068Y-69287659D01*
X87182939Y-69231725D01*
X87213915Y-69214810D01*
X87345331Y-69165796D01*
X87460546Y-69079546D01*
X87546796Y-68964331D01*
X87597091Y-68829483D01*
X87603500Y-68769873D01*
X87603499Y-66974128D01*
X87598299Y-66925757D01*
X87597091Y-66914516D01*
X87546797Y-66779671D01*
X87546793Y-66779664D01*
X87460547Y-66664455D01*
X87460544Y-66664452D01*
X87345335Y-66578206D01*
X87345328Y-66578202D01*
X87210482Y-66527908D01*
X87210483Y-66527908D01*
X87150883Y-66521501D01*
X87150881Y-66521500D01*
X87150873Y-66521500D01*
X87150864Y-66521500D01*
X85355129Y-66521500D01*
X85355123Y-66521501D01*
X85295516Y-66527908D01*
X85160671Y-66578202D01*
X85160664Y-66578206D01*
X85045455Y-66664452D01*
X85045452Y-66664455D01*
X84959206Y-66779664D01*
X84959203Y-66779669D01*
X84910189Y-66911083D01*
X84868317Y-66967016D01*
X84802853Y-66991433D01*
X84734580Y-66976581D01*
X84706326Y-66955430D01*
X84584402Y-66833506D01*
X84584395Y-66833501D01*
X84390834Y-66697967D01*
X84390830Y-66697965D01*
X84370007Y-66688255D01*
X84176663Y-66598097D01*
X84176659Y-66598096D01*
X84176655Y-66598094D01*
X83948413Y-66536938D01*
X83948403Y-66536936D01*
X83713001Y-66516341D01*
X83712999Y-66516341D01*
X83477596Y-66536936D01*
X83477586Y-66536938D01*
X83249344Y-66598094D01*
X83249335Y-66598098D01*
X83035171Y-66697964D01*
X83035169Y-66697965D01*
X82841597Y-66833505D01*
X82674505Y-67000597D01*
X82538965Y-67194169D01*
X82538964Y-67194171D01*
X82439098Y-67408335D01*
X82439094Y-67408344D01*
X82377938Y-67636586D01*
X82377936Y-67636596D01*
X82357341Y-67871999D01*
X81289300Y-67871999D01*
X81289300Y-54271500D01*
X81308985Y-54204461D01*
X81361789Y-54158706D01*
X81413300Y-54147500D01*
X82569007Y-54147500D01*
X82636046Y-54167185D01*
X82681801Y-54219989D01*
X82691745Y-54289147D01*
X82670582Y-54342623D01*
X82553965Y-54509169D01*
X82553964Y-54509171D01*
X82454098Y-54723335D01*
X82454094Y-54723344D01*
X82392938Y-54951586D01*
X82392936Y-54951596D01*
X82372341Y-55186999D01*
X82372341Y-55187000D01*
X82392936Y-55422403D01*
X82392938Y-55422413D01*
X82454094Y-55650655D01*
X82454096Y-55650659D01*
X82454097Y-55650663D01*
X82534004Y-55822023D01*
X82553965Y-55864830D01*
X82553967Y-55864834D01*
X82628563Y-55971367D01*
X82689505Y-56058401D01*
X82856599Y-56225495D01*
X83037632Y-56352256D01*
X83042594Y-56355730D01*
X83086219Y-56410307D01*
X83093413Y-56479805D01*
X83061890Y-56542160D01*
X83042595Y-56558880D01*
X82856922Y-56688890D01*
X82856920Y-56688891D01*
X82689891Y-56855920D01*
X82689886Y-56855926D01*
X82554400Y-57049420D01*
X82554399Y-57049422D01*
X82454570Y-57263507D01*
X82454567Y-57263513D01*
X82397364Y-57476999D01*
X82397364Y-57477000D01*
X83294988Y-57477000D01*
X83262075Y-57534007D01*
X83228000Y-57661174D01*
X83228000Y-57792826D01*
X83262075Y-57919993D01*
X83294988Y-57977000D01*
X82397364Y-57977000D01*
X82454567Y-58190486D01*
X82454570Y-58190492D01*
X82554399Y-58404578D01*
X82689894Y-58598082D01*
X82856917Y-58765105D01*
X83043031Y-58895425D01*
X83086656Y-58950003D01*
X83093848Y-59019501D01*
X83062326Y-59081856D01*
X83043031Y-59098575D01*
X82856922Y-59228890D01*
X82856920Y-59228891D01*
X82689891Y-59395920D01*
X82689886Y-59395926D01*
X82554400Y-59589420D01*
X82554399Y-59589422D01*
X82454570Y-59803507D01*
X82454567Y-59803513D01*
X82397364Y-60016999D01*
X82397364Y-60017000D01*
X83294988Y-60017000D01*
X83262075Y-60074007D01*
X83228000Y-60201174D01*
X83228000Y-60332826D01*
X83262075Y-60459993D01*
X83294988Y-60517000D01*
X82397364Y-60517000D01*
X82454567Y-60730486D01*
X82454570Y-60730492D01*
X82554399Y-60944578D01*
X82689894Y-61138082D01*
X82856917Y-61305105D01*
X83042595Y-61435119D01*
X83086219Y-61489696D01*
X83093412Y-61559195D01*
X83061890Y-61621549D01*
X83042595Y-61638269D01*
X82856594Y-61768508D01*
X82689505Y-61935597D01*
X82553965Y-62129169D01*
X82553964Y-62129171D01*
X82454098Y-62343335D01*
X82454094Y-62343344D01*
X82392938Y-62571586D01*
X82392936Y-62571596D01*
X82372341Y-62806999D01*
X82372341Y-62807000D01*
X82392936Y-63042403D01*
X82392938Y-63042413D01*
X82454094Y-63270655D01*
X82454096Y-63270659D01*
X82454097Y-63270663D01*
X82523369Y-63419217D01*
X82553965Y-63484830D01*
X82553967Y-63484834D01*
X82662193Y-63639395D01*
X82689505Y-63678401D01*
X82856599Y-63845495D01*
X82953384Y-63913265D01*
X83050165Y-63981032D01*
X83050167Y-63981033D01*
X83050170Y-63981035D01*
X83264337Y-64080903D01*
X83492592Y-64142063D01*
X83680918Y-64158539D01*
X83727999Y-64162659D01*
X83728000Y-64162659D01*
X83728001Y-64162659D01*
X83767234Y-64159226D01*
X83963408Y-64142063D01*
X84191663Y-64080903D01*
X84405830Y-63981035D01*
X84599401Y-63845495D01*
X84766495Y-63678401D01*
X84896425Y-63492842D01*
X84951002Y-63449217D01*
X85020500Y-63442023D01*
X85082855Y-63473546D01*
X85099575Y-63492842D01*
X85229500Y-63678395D01*
X85229505Y-63678401D01*
X85396599Y-63845495D01*
X85493384Y-63913265D01*
X85590165Y-63981032D01*
X85590167Y-63981033D01*
X85590170Y-63981035D01*
X85804337Y-64080903D01*
X86032592Y-64142063D01*
X86220918Y-64158539D01*
X86267999Y-64162659D01*
X86268000Y-64162659D01*
X86268001Y-64162659D01*
X86307234Y-64159226D01*
X86503408Y-64142063D01*
X86731663Y-64080903D01*
X86945830Y-63981035D01*
X87139401Y-63845495D01*
X87306495Y-63678401D01*
X87442035Y-63484830D01*
X87541903Y-63270663D01*
X87603063Y-63042408D01*
X87623659Y-62807000D01*
X87603063Y-62571592D01*
X87541903Y-62343337D01*
X87442035Y-62129171D01*
X87436425Y-62121158D01*
X87306494Y-61935597D01*
X87139402Y-61768506D01*
X87139396Y-61768501D01*
X86953842Y-61638575D01*
X86910217Y-61583998D01*
X86903023Y-61514500D01*
X86934546Y-61452145D01*
X86953842Y-61435425D01*
X86997123Y-61405119D01*
X87139401Y-61305495D01*
X87306495Y-61138401D01*
X87442035Y-60944830D01*
X87541903Y-60730663D01*
X87603063Y-60502408D01*
X87623659Y-60267000D01*
X87603063Y-60031592D01*
X87541903Y-59803337D01*
X87442035Y-59589171D01*
X87436731Y-59581595D01*
X87306494Y-59395597D01*
X87139402Y-59228506D01*
X87139396Y-59228501D01*
X86953842Y-59098575D01*
X86910217Y-59043998D01*
X86903023Y-58974500D01*
X86934546Y-58912145D01*
X86953842Y-58895425D01*
X86996686Y-58865425D01*
X87139401Y-58765495D01*
X87306495Y-58598401D01*
X87442035Y-58404830D01*
X87541903Y-58190663D01*
X87603063Y-57962408D01*
X87623659Y-57727000D01*
X87603063Y-57491592D01*
X87541903Y-57263337D01*
X87442035Y-57049171D01*
X87436731Y-57041595D01*
X87306494Y-56855597D01*
X87139402Y-56688506D01*
X87139396Y-56688501D01*
X86953842Y-56558575D01*
X86910217Y-56503998D01*
X86903023Y-56434500D01*
X86934546Y-56372145D01*
X86953842Y-56355425D01*
X86996686Y-56325425D01*
X87139401Y-56225495D01*
X87306495Y-56058401D01*
X87442035Y-55864830D01*
X87541903Y-55650663D01*
X87603063Y-55422408D01*
X87623659Y-55187000D01*
X87623575Y-55186045D01*
X87604096Y-54963400D01*
X87603063Y-54951592D01*
X87541903Y-54723337D01*
X87442035Y-54509171D01*
X87436425Y-54501158D01*
X87306494Y-54315597D01*
X87139402Y-54148506D01*
X87139396Y-54148501D01*
X86953842Y-54018575D01*
X86910217Y-53963998D01*
X86903023Y-53894500D01*
X86934546Y-53832145D01*
X86953842Y-53815425D01*
X86996686Y-53785425D01*
X87139401Y-53685495D01*
X87306495Y-53518401D01*
X87442035Y-53324830D01*
X87541903Y-53110663D01*
X87603063Y-52882408D01*
X87623659Y-52647000D01*
X87603063Y-52411592D01*
X87541903Y-52183337D01*
X87442035Y-51969171D01*
X87428930Y-51950454D01*
X87306494Y-51775597D01*
X87139402Y-51608506D01*
X87139396Y-51608501D01*
X86953842Y-51478575D01*
X86910217Y-51423998D01*
X86903023Y-51354500D01*
X86934546Y-51292145D01*
X86953842Y-51275425D01*
X87063986Y-51198301D01*
X87139401Y-51145495D01*
X87306495Y-50978401D01*
X87442035Y-50784830D01*
X87541903Y-50570663D01*
X87603063Y-50342408D01*
X87623659Y-50107000D01*
X87603063Y-49871592D01*
X87541903Y-49643337D01*
X87442035Y-49429171D01*
X87436425Y-49421158D01*
X87306494Y-49235597D01*
X87139402Y-49068506D01*
X87139396Y-49068501D01*
X86953842Y-48938575D01*
X86910217Y-48883998D01*
X86903023Y-48814500D01*
X86934546Y-48752145D01*
X86953842Y-48735425D01*
X86996686Y-48705425D01*
X87139401Y-48605495D01*
X87306495Y-48438401D01*
X87442035Y-48244830D01*
X87541903Y-48030663D01*
X87603063Y-47802408D01*
X87623659Y-47567000D01*
X87603063Y-47331592D01*
X87541903Y-47103337D01*
X87442035Y-46889171D01*
X87429985Y-46871962D01*
X87306496Y-46695600D01*
X87276493Y-46665597D01*
X87184567Y-46573671D01*
X87151084Y-46512351D01*
X87156068Y-46442659D01*
X87197939Y-46386725D01*
X87228915Y-46369810D01*
X87360331Y-46320796D01*
X87475546Y-46234546D01*
X87561796Y-46119331D01*
X87612091Y-45984483D01*
X87618500Y-45924873D01*
X87618499Y-44129128D01*
X87612091Y-44069517D01*
X87610810Y-44066083D01*
X87561797Y-43934671D01*
X87561793Y-43934664D01*
X87475547Y-43819455D01*
X87475544Y-43819452D01*
X87360335Y-43733206D01*
X87360328Y-43733202D01*
X87225482Y-43682908D01*
X87225483Y-43682908D01*
X87165883Y-43676501D01*
X87165881Y-43676500D01*
X87165873Y-43676500D01*
X87165864Y-43676500D01*
X85370129Y-43676500D01*
X85370123Y-43676501D01*
X85310516Y-43682908D01*
X85175671Y-43733202D01*
X85175664Y-43733206D01*
X85060455Y-43819452D01*
X85060452Y-43819455D01*
X84974206Y-43934664D01*
X84974203Y-43934669D01*
X84925189Y-44066083D01*
X84883317Y-44122016D01*
X84817853Y-44146433D01*
X84749580Y-44131581D01*
X84721326Y-44110430D01*
X84599402Y-43988506D01*
X84599395Y-43988501D01*
X84405834Y-43852967D01*
X84405830Y-43852965D01*
X84341495Y-43822965D01*
X84191663Y-43753097D01*
X84191659Y-43753096D01*
X84191655Y-43753094D01*
X83963413Y-43691938D01*
X83963403Y-43691936D01*
X83728001Y-43671341D01*
X83727999Y-43671341D01*
X83492596Y-43691936D01*
X83492586Y-43691938D01*
X83264344Y-43753094D01*
X83264335Y-43753098D01*
X83050171Y-43852964D01*
X83050169Y-43852965D01*
X82856597Y-43988505D01*
X82689505Y-44155597D01*
X82553965Y-44349169D01*
X82553964Y-44349171D01*
X82454098Y-44563335D01*
X82454094Y-44563344D01*
X82392938Y-44791586D01*
X82392936Y-44791596D01*
X82372341Y-45026999D01*
X82372341Y-45027000D01*
X82392936Y-45262403D01*
X82392938Y-45262413D01*
X82454094Y-45490655D01*
X82454096Y-45490659D01*
X82454097Y-45490663D01*
X82538499Y-45671663D01*
X82553965Y-45704830D01*
X82553967Y-45704834D01*
X82670582Y-45871377D01*
X82692909Y-45937583D01*
X82675899Y-46005350D01*
X82624951Y-46053163D01*
X82569007Y-46066500D01*
X81413300Y-46066500D01*
X81346261Y-46046815D01*
X81300506Y-45994011D01*
X81289300Y-45942500D01*
X81289300Y-36636289D01*
X81308985Y-36569250D01*
X81325619Y-36548608D01*
X82874008Y-35000219D01*
X82935331Y-34966734D01*
X82961689Y-34963900D01*
X128378241Y-34963900D01*
X128445280Y-34983585D01*
G37*
%TD.AperFunction*%
%TA.AperFunction,Conductor*%
G36*
X114538800Y-94647714D02*
G01*
X114534406Y-94643320D01*
X114443194Y-94590659D01*
X114341461Y-94563400D01*
X114236139Y-94563400D01*
X114134406Y-94590659D01*
X114043194Y-94643320D01*
X114038800Y-94647714D01*
X114038800Y-93279086D01*
X114043194Y-93283480D01*
X114134406Y-93336141D01*
X114236139Y-93363400D01*
X114341461Y-93363400D01*
X114443194Y-93336141D01*
X114534406Y-93283480D01*
X114538800Y-93279086D01*
X114538800Y-94647714D01*
G37*
%TD.AperFunction*%
%TA.AperFunction,Conductor*%
G36*
X83978000Y-59833988D02*
G01*
X83920993Y-59801075D01*
X83793826Y-59767000D01*
X83662174Y-59767000D01*
X83535007Y-59801075D01*
X83478000Y-59833988D01*
X83478000Y-58160012D01*
X83535007Y-58192925D01*
X83662174Y-58227000D01*
X83793826Y-58227000D01*
X83920993Y-58192925D01*
X83978000Y-58160012D01*
X83978000Y-59833988D01*
G37*
%TD.AperFunction*%
%TA.AperFunction,Conductor*%
G36*
X181968000Y-94989714D02*
G01*
X181963606Y-94985320D01*
X181872394Y-94932659D01*
X181770661Y-94905400D01*
X181665339Y-94905400D01*
X181563606Y-94932659D01*
X181472394Y-94985320D01*
X181468000Y-94989714D01*
X181468000Y-93621086D01*
X181472394Y-93625480D01*
X181563606Y-93678141D01*
X181665339Y-93705400D01*
X181770661Y-93705400D01*
X181872394Y-93678141D01*
X181963606Y-93625480D01*
X181968000Y-93621086D01*
X181968000Y-94989714D01*
G37*
%TD.AperFunction*%
%TA.AperFunction,Conductor*%
G36*
X148838000Y-59803988D02*
G01*
X148780993Y-59771075D01*
X148653826Y-59737000D01*
X148522174Y-59737000D01*
X148395007Y-59771075D01*
X148338000Y-59803988D01*
X148338000Y-58130012D01*
X148395007Y-58162925D01*
X148522174Y-58197000D01*
X148653826Y-58197000D01*
X148780993Y-58162925D01*
X148838000Y-58130012D01*
X148838000Y-59803988D01*
G37*
%TD.AperFunction*%
%TA.AperFunction,Conductor*%
G36*
X208986008Y-25913001D02*
G01*
X209102512Y-25922826D01*
X209117469Y-25925013D01*
X209355478Y-25974796D01*
X209372077Y-25979495D01*
X209599849Y-26061507D01*
X209615651Y-26068475D01*
X209829810Y-26181338D01*
X209844493Y-26190437D01*
X210040878Y-26331957D01*
X210054154Y-26343007D01*
X210228969Y-26510445D01*
X210240581Y-26523233D01*
X210390440Y-26713349D01*
X210400162Y-26727626D01*
X210522139Y-26936705D01*
X210529784Y-26952195D01*
X210621530Y-27176214D01*
X210626947Y-27192615D01*
X210686937Y-27428246D01*
X210689768Y-27443105D01*
X210704265Y-27556426D01*
X210705267Y-27572155D01*
X210708000Y-88054824D01*
X210710677Y-97844869D01*
X210710233Y-97855386D01*
X210699673Y-97979847D01*
X210697216Y-97996031D01*
X210641469Y-98249185D01*
X210636131Y-98266962D01*
X210543620Y-98507919D01*
X210535689Y-98524701D01*
X210408246Y-98749150D01*
X210397899Y-98764560D01*
X210238378Y-98967475D01*
X210225846Y-98981168D01*
X210037823Y-99157998D01*
X210023393Y-99169662D01*
X209811084Y-99316443D01*
X209795069Y-99325826D01*
X209563221Y-99439274D01*
X209545984Y-99446161D01*
X209299812Y-99523726D01*
X209281742Y-99527963D01*
X209025637Y-99568089D01*
X209009348Y-99569550D01*
X208880632Y-99572566D01*
X208877765Y-99572600D01*
X71569901Y-99614553D01*
X71563017Y-99614364D01*
X71442100Y-99607678D01*
X71426601Y-99605837D01*
X71182677Y-99561149D01*
X71165517Y-99556718D01*
X70931456Y-99478050D01*
X70915103Y-99471217D01*
X70694658Y-99359989D01*
X70679447Y-99350896D01*
X70630187Y-99316443D01*
X70477097Y-99209371D01*
X70463351Y-99198213D01*
X70283242Y-99029284D01*
X70271219Y-99016271D01*
X70117036Y-98823399D01*
X70106987Y-98808800D01*
X70080987Y-98764560D01*
X69981872Y-98595912D01*
X69974014Y-98580043D01*
X69880526Y-98351495D01*
X69875009Y-98334667D01*
X69814796Y-98094086D01*
X69811969Y-98078742D01*
X69798028Y-97962418D01*
X69797148Y-97947693D01*
X69797148Y-94422111D01*
X73018300Y-94422111D01*
X73018300Y-94664688D01*
X73049961Y-94905185D01*
X73112747Y-95139504D01*
X73129653Y-95180318D01*
X73205576Y-95363612D01*
X73326864Y-95573689D01*
X73326866Y-95573692D01*
X73326867Y-95573693D01*
X73474533Y-95766136D01*
X73474539Y-95766143D01*
X73646056Y-95937660D01*
X73646063Y-95937666D01*
X73753585Y-96020170D01*
X73838511Y-96085336D01*
X74048588Y-96206624D01*
X74272700Y-96299454D01*
X74507011Y-96362238D01*
X74655116Y-96381736D01*
X74747511Y-96393900D01*
X74747512Y-96393900D01*
X74990089Y-96393900D01*
X75069009Y-96383510D01*
X75230589Y-96362238D01*
X75464900Y-96299454D01*
X75689012Y-96206624D01*
X75899089Y-96085336D01*
X76091538Y-95937665D01*
X76263065Y-95766138D01*
X76410736Y-95573689D01*
X76532024Y-95363612D01*
X76624854Y-95139500D01*
X76687638Y-94905189D01*
X76719300Y-94664688D01*
X76719300Y-94422112D01*
X76687638Y-94181611D01*
X76624854Y-93947300D01*
X76532024Y-93723188D01*
X76410736Y-93513111D01*
X76291762Y-93358061D01*
X76263066Y-93320663D01*
X76263060Y-93320656D01*
X76091543Y-93149139D01*
X76091536Y-93149133D01*
X75899093Y-93001467D01*
X75899092Y-93001466D01*
X75899089Y-93001464D01*
X75689012Y-92880176D01*
X75686460Y-92879119D01*
X75464904Y-92787347D01*
X75230585Y-92724561D01*
X74990089Y-92692900D01*
X74990088Y-92692900D01*
X74747512Y-92692900D01*
X74747511Y-92692900D01*
X74507014Y-92724561D01*
X74272695Y-92787347D01*
X74048594Y-92880173D01*
X74048585Y-92880177D01*
X73838506Y-93001467D01*
X73646063Y-93149133D01*
X73646056Y-93149139D01*
X73474539Y-93320656D01*
X73474533Y-93320663D01*
X73326867Y-93513106D01*
X73326864Y-93513110D01*
X73326864Y-93513111D01*
X73310617Y-93541251D01*
X73205577Y-93723185D01*
X73205573Y-93723194D01*
X73112747Y-93947295D01*
X73049961Y-94181614D01*
X73018300Y-94422111D01*
X69797148Y-94422111D01*
X69797148Y-88168552D01*
X69767031Y-35845302D01*
X78288300Y-35845302D01*
X78288300Y-91081497D01*
X78325246Y-91314768D01*
X78398233Y-91539396D01*
X78469904Y-91680057D01*
X78505457Y-91749834D01*
X78644283Y-91940910D01*
X85311290Y-98607917D01*
X85502366Y-98746743D01*
X85712808Y-98853968D01*
X85937431Y-98926953D01*
X86024909Y-98940808D01*
X86170703Y-98963900D01*
X86170708Y-98963900D01*
X97406897Y-98963900D01*
X97640168Y-98926953D01*
X97864792Y-98853968D01*
X98075234Y-98746743D01*
X98266310Y-98607917D01*
X99433318Y-97440910D01*
X99572143Y-97249833D01*
X99676659Y-97044707D01*
X99679366Y-97039396D01*
X99679366Y-97039395D01*
X99679368Y-97039392D01*
X99749012Y-96825051D01*
X99752354Y-96814766D01*
X99774178Y-96676968D01*
X99774178Y-96676967D01*
X99789300Y-96581491D01*
X99789300Y-96211537D01*
X99808985Y-96144498D01*
X99861789Y-96098743D01*
X99930947Y-96088799D01*
X99958094Y-96095911D01*
X99965731Y-96098870D01*
X100179874Y-96138900D01*
X100179876Y-96138900D01*
X100397724Y-96138900D01*
X100397726Y-96138900D01*
X100611869Y-96098870D01*
X100815010Y-96020172D01*
X101000232Y-95905488D01*
X101161227Y-95758722D01*
X101189847Y-95720822D01*
X101245953Y-95679187D01*
X101315665Y-95674494D01*
X101376848Y-95708236D01*
X101387746Y-95720814D01*
X101416373Y-95758722D01*
X101416376Y-95758725D01*
X101416378Y-95758727D01*
X101424508Y-95766138D01*
X101577368Y-95905488D01*
X101577375Y-95905492D01*
X101577376Y-95905493D01*
X101762586Y-96020170D01*
X101762592Y-96020173D01*
X101785464Y-96029033D01*
X101965731Y-96098870D01*
X102179874Y-96138900D01*
X102179876Y-96138900D01*
X102397724Y-96138900D01*
X102397726Y-96138900D01*
X102611869Y-96098870D01*
X102815010Y-96020172D01*
X103000232Y-95905488D01*
X103161227Y-95758722D01*
X103189847Y-95720822D01*
X103245953Y-95679187D01*
X103315665Y-95674494D01*
X103376848Y-95708236D01*
X103387746Y-95720814D01*
X103416373Y-95758722D01*
X103416376Y-95758725D01*
X103416378Y-95758727D01*
X103424508Y-95766138D01*
X103577368Y-95905488D01*
X103577375Y-95905492D01*
X103577376Y-95905493D01*
X103762586Y-96020170D01*
X103762592Y-96020173D01*
X103785464Y-96029033D01*
X103965731Y-96098870D01*
X104179874Y-96138900D01*
X104179876Y-96138900D01*
X104397724Y-96138900D01*
X104397726Y-96138900D01*
X104611869Y-96098870D01*
X104815010Y-96020172D01*
X105000232Y-95905488D01*
X105161227Y-95758722D01*
X105189847Y-95720822D01*
X105245953Y-95679187D01*
X105315665Y-95674494D01*
X105376848Y-95708236D01*
X105387746Y-95720814D01*
X105416373Y-95758722D01*
X105416376Y-95758725D01*
X105416378Y-95758727D01*
X105424508Y-95766138D01*
X105577368Y-95905488D01*
X105577375Y-95905492D01*
X105577376Y-95905493D01*
X105762586Y-96020170D01*
X105762592Y-96020173D01*
X105785464Y-96029033D01*
X105965731Y-96098870D01*
X106179874Y-96138900D01*
X106179876Y-96138900D01*
X106397724Y-96138900D01*
X106397726Y-96138900D01*
X106611869Y-96098870D01*
X106815010Y-96020172D01*
X107000232Y-95905488D01*
X107161227Y-95758722D01*
X107189847Y-95720822D01*
X107245953Y-95679187D01*
X107315665Y-95674494D01*
X107376848Y-95708236D01*
X107387746Y-95720814D01*
X107416373Y-95758722D01*
X107416376Y-95758725D01*
X107416378Y-95758727D01*
X107424508Y-95766138D01*
X107577368Y-95905488D01*
X107577375Y-95905492D01*
X107577376Y-95905493D01*
X107762586Y-96020170D01*
X107762592Y-96020173D01*
X107785464Y-96029033D01*
X107965731Y-96098870D01*
X108179874Y-96138900D01*
X108179876Y-96138900D01*
X108397724Y-96138900D01*
X108397726Y-96138900D01*
X108611869Y-96098870D01*
X108815010Y-96020172D01*
X109000232Y-95905488D01*
X109161227Y-95758722D01*
X109189847Y-95720822D01*
X109245953Y-95679187D01*
X109315665Y-95674494D01*
X109376848Y-95708236D01*
X109387746Y-95720814D01*
X109416373Y-95758722D01*
X109416376Y-95758725D01*
X109416378Y-95758727D01*
X109424508Y-95766138D01*
X109577368Y-95905488D01*
X109577375Y-95905492D01*
X109577376Y-95905493D01*
X109762586Y-96020170D01*
X109762592Y-96020173D01*
X109785464Y-96029033D01*
X109965731Y-96098870D01*
X110179874Y-96138900D01*
X110179876Y-96138900D01*
X110397724Y-96138900D01*
X110397726Y-96138900D01*
X110611869Y-96098870D01*
X110815010Y-96020172D01*
X111000232Y-95905488D01*
X111161227Y-95758722D01*
X111189847Y-95720822D01*
X111245953Y-95679187D01*
X111315665Y-95674494D01*
X111376848Y-95708236D01*
X111387746Y-95720814D01*
X111416373Y-95758722D01*
X111416376Y-95758725D01*
X111416378Y-95758727D01*
X111424508Y-95766138D01*
X111577368Y-95905488D01*
X111577375Y-95905492D01*
X111577376Y-95905493D01*
X111762586Y-96020170D01*
X111762592Y-96020173D01*
X111785464Y-96029033D01*
X111965731Y-96098870D01*
X112179874Y-96138900D01*
X112179876Y-96138900D01*
X112397724Y-96138900D01*
X112397726Y-96138900D01*
X112611869Y-96098870D01*
X112815010Y-96020172D01*
X113000232Y-95905488D01*
X113161227Y-95758722D01*
X113190159Y-95720409D01*
X113246265Y-95678773D01*
X113315977Y-95674080D01*
X113377160Y-95707821D01*
X113388067Y-95720409D01*
X113416742Y-95758381D01*
X113416749Y-95758389D01*
X113577668Y-95905085D01*
X113762812Y-96019722D01*
X113762823Y-96019727D01*
X113965860Y-96098384D01*
X114038800Y-96112019D01*
X114038800Y-95279086D01*
X114043194Y-95283480D01*
X114134406Y-95336141D01*
X114236139Y-95363400D01*
X114341461Y-95363400D01*
X114443194Y-95336141D01*
X114534406Y-95283480D01*
X114538800Y-95279086D01*
X114538800Y-96112019D01*
X114611739Y-96098384D01*
X114814776Y-96019727D01*
X114814787Y-96019722D01*
X114999930Y-95905085D01*
X114999931Y-95905085D01*
X115160854Y-95758385D01*
X115292084Y-95584608D01*
X115389148Y-95389680D01*
X115439305Y-95213400D01*
X114604486Y-95213400D01*
X114608880Y-95209006D01*
X114661541Y-95117794D01*
X114688800Y-95016061D01*
X114688800Y-94910739D01*
X114661541Y-94809006D01*
X114608880Y-94717794D01*
X114604486Y-94713400D01*
X115439305Y-94713400D01*
X115439305Y-94713399D01*
X115389148Y-94537119D01*
X115292084Y-94342191D01*
X115160856Y-94168417D01*
X115036484Y-94055038D01*
X115000203Y-93995327D01*
X115001963Y-93925479D01*
X115036484Y-93871762D01*
X115160856Y-93758382D01*
X115292084Y-93584608D01*
X115389148Y-93389680D01*
X115439305Y-93213400D01*
X114604486Y-93213400D01*
X114608880Y-93209006D01*
X114661541Y-93117794D01*
X114688800Y-93016061D01*
X114688800Y-92910739D01*
X114661541Y-92809006D01*
X114608880Y-92717794D01*
X114604486Y-92713400D01*
X115439305Y-92713400D01*
X115439305Y-92713399D01*
X115389148Y-92537119D01*
X115292084Y-92342191D01*
X115160854Y-92168414D01*
X114999931Y-92021714D01*
X114814787Y-91907077D01*
X114814785Y-91907076D01*
X114611731Y-91828413D01*
X114611721Y-91828410D01*
X114538801Y-91814778D01*
X114538800Y-91814779D01*
X114538800Y-92647714D01*
X114534406Y-92643320D01*
X114443194Y-92590659D01*
X114341461Y-92563400D01*
X114236139Y-92563400D01*
X114134406Y-92590659D01*
X114043194Y-92643320D01*
X114038800Y-92647714D01*
X114038800Y-91814779D01*
X114038798Y-91814778D01*
X113965878Y-91828410D01*
X113965868Y-91828413D01*
X113762814Y-91907076D01*
X113762812Y-91907077D01*
X113577669Y-92021714D01*
X113577668Y-92021714D01*
X113416745Y-92168414D01*
X113388067Y-92206390D01*
X113331957Y-92248026D01*
X113262245Y-92252717D01*
X113201064Y-92218975D01*
X113190159Y-92206390D01*
X113175217Y-92186604D01*
X113161227Y-92168078D01*
X113148831Y-92156778D01*
X113009698Y-92029941D01*
X113000232Y-92021312D01*
X113000228Y-92021309D01*
X113000223Y-92021306D01*
X112815013Y-91906629D01*
X112815007Y-91906626D01*
X112729913Y-91873660D01*
X112611869Y-91827930D01*
X112397726Y-91787900D01*
X112179874Y-91787900D01*
X111965731Y-91827930D01*
X111938233Y-91838583D01*
X111762592Y-91906626D01*
X111762586Y-91906629D01*
X111577376Y-92021306D01*
X111577366Y-92021313D01*
X111416373Y-92168076D01*
X111387753Y-92205976D01*
X111331644Y-92247611D01*
X111261932Y-92252302D01*
X111200750Y-92218559D01*
X111189847Y-92205976D01*
X111161226Y-92168076D01*
X111009698Y-92029941D01*
X111000232Y-92021312D01*
X111000228Y-92021309D01*
X111000223Y-92021306D01*
X110815013Y-91906629D01*
X110815007Y-91906626D01*
X110729913Y-91873660D01*
X110611869Y-91827930D01*
X110397726Y-91787900D01*
X110179874Y-91787900D01*
X109965731Y-91827930D01*
X109938233Y-91838583D01*
X109762592Y-91906626D01*
X109762586Y-91906629D01*
X109577376Y-92021306D01*
X109577366Y-92021313D01*
X109416373Y-92168076D01*
X109387753Y-92205976D01*
X109331644Y-92247611D01*
X109261932Y-92252302D01*
X109200750Y-92218559D01*
X109189847Y-92205976D01*
X109161226Y-92168076D01*
X109000232Y-92021312D01*
X109000231Y-92021311D01*
X108973021Y-92004463D01*
X108926386Y-91952435D01*
X108914300Y-91899037D01*
X108914300Y-77273852D01*
X108933985Y-77206813D01*
X108950619Y-77186171D01*
X112274654Y-73862137D01*
X112274657Y-73862134D01*
X112343111Y-73759686D01*
X112390263Y-73645852D01*
X112414300Y-73525007D01*
X112414300Y-73401794D01*
X112414300Y-62767999D01*
X128097741Y-62767999D01*
X128097741Y-62768000D01*
X128118336Y-63003403D01*
X128118338Y-63003413D01*
X128179494Y-63231655D01*
X128179496Y-63231659D01*
X128179497Y-63231663D01*
X128266955Y-63419217D01*
X128279365Y-63445830D01*
X128279367Y-63445834D01*
X128312283Y-63492842D01*
X128414901Y-63639396D01*
X128414906Y-63639402D01*
X128581997Y-63806493D01*
X128582003Y-63806498D01*
X128767558Y-63936425D01*
X128811183Y-63991002D01*
X128818377Y-64060500D01*
X128786854Y-64122855D01*
X128767558Y-64139575D01*
X128581997Y-64269505D01*
X128414905Y-64436597D01*
X128279365Y-64630169D01*
X128279364Y-64630171D01*
X128179498Y-64844335D01*
X128179494Y-64844344D01*
X128118338Y-65072586D01*
X128118336Y-65072596D01*
X128097741Y-65307999D01*
X128097741Y-65308000D01*
X128118336Y-65543403D01*
X128118338Y-65543413D01*
X128179494Y-65771655D01*
X128179496Y-65771659D01*
X128179497Y-65771663D01*
X128191342Y-65797064D01*
X128279365Y-65985830D01*
X128279367Y-65985834D01*
X128302760Y-66019242D01*
X128414901Y-66179396D01*
X128414906Y-66179402D01*
X128581997Y-66346493D01*
X128582003Y-66346498D01*
X128767558Y-66476425D01*
X128811183Y-66531002D01*
X128818377Y-66600500D01*
X128786854Y-66662855D01*
X128767558Y-66679575D01*
X128581997Y-66809505D01*
X128414905Y-66976597D01*
X128279365Y-67170169D01*
X128279364Y-67170171D01*
X128179498Y-67384335D01*
X128179494Y-67384344D01*
X128118338Y-67612586D01*
X128118336Y-67612596D01*
X128097741Y-67847999D01*
X128097741Y-67848000D01*
X128118336Y-68083403D01*
X128118338Y-68083413D01*
X128179494Y-68311655D01*
X128179496Y-68311659D01*
X128179497Y-68311663D01*
X128191342Y-68337064D01*
X128279365Y-68525830D01*
X128279367Y-68525834D01*
X128302760Y-68559242D01*
X128414901Y-68719396D01*
X128414906Y-68719402D01*
X128581997Y-68886493D01*
X128582003Y-68886498D01*
X128767558Y-69016425D01*
X128811183Y-69071002D01*
X128818377Y-69140500D01*
X128786854Y-69202855D01*
X128767558Y-69219575D01*
X128581997Y-69349505D01*
X128414905Y-69516597D01*
X128279365Y-69710169D01*
X128279364Y-69710171D01*
X128179498Y-69924335D01*
X128179494Y-69924344D01*
X128118338Y-70152586D01*
X128118336Y-70152596D01*
X128097741Y-70387999D01*
X128097741Y-70388000D01*
X128118336Y-70623403D01*
X128118338Y-70623413D01*
X128179494Y-70851655D01*
X128179496Y-70851659D01*
X128179497Y-70851663D01*
X128259404Y-71023023D01*
X128279365Y-71065830D01*
X128279367Y-71065834D01*
X128302760Y-71099242D01*
X128414901Y-71259396D01*
X128414906Y-71259402D01*
X128581997Y-71426493D01*
X128582003Y-71426498D01*
X128767558Y-71556425D01*
X128811183Y-71611002D01*
X128818377Y-71680500D01*
X128786854Y-71742855D01*
X128767558Y-71759575D01*
X128581997Y-71889505D01*
X128414905Y-72056597D01*
X128279365Y-72250169D01*
X128279364Y-72250171D01*
X128179498Y-72464335D01*
X128179494Y-72464344D01*
X128118338Y-72692586D01*
X128118336Y-72692596D01*
X128097741Y-72927999D01*
X128097741Y-72928000D01*
X128118336Y-73163403D01*
X128118338Y-73163413D01*
X128179494Y-73391655D01*
X128179496Y-73391659D01*
X128179497Y-73391663D01*
X128274603Y-73595617D01*
X128279364Y-73605827D01*
X128279367Y-73605834D01*
X128387094Y-73759683D01*
X128414901Y-73799396D01*
X128414906Y-73799402D01*
X128581997Y-73966493D01*
X128582003Y-73966498D01*
X128767558Y-74096425D01*
X128811183Y-74151002D01*
X128818377Y-74220500D01*
X128786854Y-74282855D01*
X128767558Y-74299575D01*
X128581997Y-74429505D01*
X128414905Y-74596597D01*
X128279365Y-74790169D01*
X128279364Y-74790171D01*
X128179498Y-75004335D01*
X128179494Y-75004344D01*
X128118338Y-75232586D01*
X128118336Y-75232596D01*
X128097741Y-75467999D01*
X128097741Y-75468000D01*
X128118336Y-75703403D01*
X128118336Y-75703406D01*
X128118337Y-75703408D01*
X128125143Y-75728808D01*
X128179494Y-75931655D01*
X128179496Y-75931659D01*
X128179497Y-75931663D01*
X128259404Y-76103023D01*
X128279365Y-76145830D01*
X128279367Y-76145834D01*
X128373974Y-76280946D01*
X128414901Y-76339396D01*
X128414906Y-76339402D01*
X128581997Y-76506493D01*
X128582003Y-76506498D01*
X128767558Y-76636425D01*
X128811183Y-76691002D01*
X128818377Y-76760500D01*
X128786854Y-76822855D01*
X128767558Y-76839575D01*
X128581997Y-76969505D01*
X128414905Y-77136597D01*
X128279365Y-77330169D01*
X128279364Y-77330171D01*
X128179498Y-77544335D01*
X128179494Y-77544344D01*
X128118338Y-77772586D01*
X128118336Y-77772596D01*
X128097741Y-78007999D01*
X128097741Y-78008000D01*
X128118336Y-78243403D01*
X128118338Y-78243413D01*
X128179494Y-78471655D01*
X128179496Y-78471659D01*
X128179497Y-78471663D01*
X128191342Y-78497064D01*
X128279365Y-78685830D01*
X128279367Y-78685834D01*
X128369578Y-78814667D01*
X128414901Y-78879396D01*
X128414906Y-78879402D01*
X128536830Y-79001326D01*
X128570315Y-79062649D01*
X128565331Y-79132341D01*
X128523459Y-79188274D01*
X128492483Y-79205189D01*
X128361069Y-79254203D01*
X128361064Y-79254206D01*
X128245855Y-79340452D01*
X128245852Y-79340455D01*
X128159606Y-79455664D01*
X128159602Y-79455671D01*
X128109308Y-79590517D01*
X128102901Y-79650116D01*
X128102900Y-79650135D01*
X128102900Y-81445870D01*
X128102901Y-81445876D01*
X128109308Y-81505483D01*
X128159602Y-81640328D01*
X128159606Y-81640335D01*
X128245852Y-81755544D01*
X128245855Y-81755547D01*
X128361064Y-81841793D01*
X128361071Y-81841797D01*
X128495917Y-81892091D01*
X128495916Y-81892091D01*
X128502844Y-81892835D01*
X128555527Y-81898500D01*
X130351272Y-81898499D01*
X130410883Y-81892091D01*
X130545731Y-81841796D01*
X130660946Y-81755546D01*
X130747196Y-81640331D01*
X130796210Y-81508916D01*
X130838081Y-81452984D01*
X130903545Y-81428566D01*
X130971818Y-81443417D01*
X131000073Y-81464569D01*
X131121999Y-81586495D01*
X131218784Y-81654265D01*
X131315565Y-81722032D01*
X131315567Y-81722033D01*
X131315570Y-81722035D01*
X131529737Y-81821903D01*
X131757992Y-81883063D01*
X131934434Y-81898500D01*
X131993399Y-81903659D01*
X131993400Y-81903659D01*
X131993401Y-81903659D01*
X132052366Y-81898500D01*
X132228808Y-81883063D01*
X132457063Y-81821903D01*
X132671230Y-81722035D01*
X132864801Y-81586495D01*
X133031895Y-81419401D01*
X133167435Y-81225830D01*
X133267303Y-81011663D01*
X133328463Y-80783408D01*
X133349059Y-80548000D01*
X133328463Y-80312592D01*
X133267303Y-80084337D01*
X133167435Y-79870171D01*
X133049681Y-79701999D01*
X133031894Y-79676597D01*
X132864802Y-79509506D01*
X132864796Y-79509501D01*
X132679242Y-79379575D01*
X132635617Y-79324998D01*
X132628423Y-79255500D01*
X132659946Y-79193145D01*
X132679242Y-79176425D01*
X132791454Y-79097853D01*
X132864801Y-79046495D01*
X133031895Y-78879401D01*
X133167435Y-78685830D01*
X133267303Y-78471663D01*
X133328463Y-78243408D01*
X133349059Y-78008000D01*
X133328463Y-77772592D01*
X133267303Y-77544337D01*
X133167435Y-77330171D01*
X133161825Y-77322158D01*
X133031894Y-77136597D01*
X132864802Y-76969506D01*
X132864796Y-76969501D01*
X132679242Y-76839575D01*
X132635617Y-76784998D01*
X132628423Y-76715500D01*
X132659946Y-76653145D01*
X132679242Y-76636425D01*
X132805037Y-76548342D01*
X132864801Y-76506495D01*
X133031895Y-76339401D01*
X133167435Y-76145830D01*
X133267303Y-75931663D01*
X133328463Y-75703408D01*
X133349059Y-75468000D01*
X133328463Y-75232592D01*
X133267303Y-75004337D01*
X133167435Y-74790171D01*
X133161825Y-74782158D01*
X133031894Y-74596597D01*
X132864802Y-74429506D01*
X132864796Y-74429501D01*
X132679242Y-74299575D01*
X132635617Y-74244998D01*
X132628423Y-74175500D01*
X132659946Y-74113145D01*
X132679242Y-74096425D01*
X132724597Y-74064667D01*
X132864801Y-73966495D01*
X133031895Y-73799401D01*
X133167435Y-73605830D01*
X133267303Y-73391663D01*
X133328463Y-73163408D01*
X133349059Y-72928000D01*
X133328463Y-72692592D01*
X133267303Y-72464337D01*
X133167435Y-72250171D01*
X133161825Y-72242158D01*
X133031894Y-72056597D01*
X132864802Y-71889506D01*
X132864796Y-71889501D01*
X132679242Y-71759575D01*
X132635617Y-71704998D01*
X132628423Y-71635500D01*
X132659946Y-71573145D01*
X132679242Y-71556425D01*
X132701426Y-71540891D01*
X132864801Y-71426495D01*
X133031895Y-71259401D01*
X133167435Y-71065830D01*
X133267303Y-70851663D01*
X133328463Y-70623408D01*
X133349059Y-70388000D01*
X133328463Y-70152592D01*
X133273981Y-69949260D01*
X133267305Y-69924344D01*
X133267304Y-69924343D01*
X133267303Y-69924337D01*
X133167435Y-69710171D01*
X133161825Y-69702158D01*
X133031894Y-69516597D01*
X132864802Y-69349506D01*
X132864796Y-69349501D01*
X132679242Y-69219575D01*
X132635617Y-69164998D01*
X132628423Y-69095500D01*
X132659946Y-69033145D01*
X132679242Y-69016425D01*
X132701426Y-69000891D01*
X132864801Y-68886495D01*
X133031895Y-68719401D01*
X133167435Y-68525830D01*
X133267303Y-68311663D01*
X133328463Y-68083408D01*
X133346837Y-67873399D01*
X147223941Y-67873399D01*
X147223941Y-67873400D01*
X147244536Y-68108803D01*
X147244538Y-68108813D01*
X147305694Y-68337055D01*
X147305696Y-68337059D01*
X147305697Y-68337063D01*
X147377114Y-68490217D01*
X147405565Y-68551230D01*
X147405567Y-68551234D01*
X147513881Y-68705921D01*
X147541101Y-68744796D01*
X147541106Y-68744802D01*
X147708197Y-68911893D01*
X147708203Y-68911898D01*
X147893758Y-69041825D01*
X147937383Y-69096402D01*
X147944577Y-69165900D01*
X147913054Y-69228255D01*
X147893758Y-69244975D01*
X147708197Y-69374905D01*
X147541105Y-69541997D01*
X147405565Y-69735569D01*
X147405564Y-69735571D01*
X147305698Y-69949735D01*
X147305694Y-69949744D01*
X147244538Y-70177986D01*
X147244536Y-70177996D01*
X147223941Y-70413399D01*
X147223941Y-70413400D01*
X147244536Y-70648803D01*
X147244538Y-70648813D01*
X147305694Y-70877055D01*
X147305696Y-70877059D01*
X147305697Y-70877063D01*
X147377114Y-71030217D01*
X147405565Y-71091230D01*
X147405567Y-71091234D01*
X147495721Y-71219986D01*
X147541101Y-71284796D01*
X147541106Y-71284802D01*
X147708197Y-71451893D01*
X147708203Y-71451898D01*
X147893758Y-71581825D01*
X147937383Y-71636402D01*
X147944577Y-71705900D01*
X147913054Y-71768255D01*
X147893758Y-71784975D01*
X147708197Y-71914905D01*
X147541105Y-72081997D01*
X147405565Y-72275569D01*
X147405564Y-72275571D01*
X147305698Y-72489735D01*
X147305694Y-72489744D01*
X147244538Y-72717986D01*
X147244536Y-72717996D01*
X147223941Y-72953399D01*
X147223941Y-72953400D01*
X147244536Y-73188803D01*
X147244538Y-73188813D01*
X147305694Y-73417055D01*
X147305696Y-73417059D01*
X147305697Y-73417063D01*
X147377114Y-73570217D01*
X147405565Y-73631230D01*
X147405567Y-73631234D01*
X147415803Y-73645852D01*
X147541101Y-73824796D01*
X147541106Y-73824802D01*
X147708197Y-73991893D01*
X147708203Y-73991898D01*
X147893758Y-74121825D01*
X147937383Y-74176402D01*
X147944577Y-74245900D01*
X147913054Y-74308255D01*
X147893758Y-74324975D01*
X147708197Y-74454905D01*
X147541105Y-74621997D01*
X147405565Y-74815569D01*
X147405564Y-74815571D01*
X147305698Y-75029735D01*
X147305694Y-75029744D01*
X147244538Y-75257986D01*
X147244536Y-75257996D01*
X147223941Y-75493399D01*
X147223941Y-75493400D01*
X147244536Y-75728803D01*
X147244538Y-75728813D01*
X147305694Y-75957055D01*
X147305696Y-75957059D01*
X147305697Y-75957063D01*
X147377114Y-76110217D01*
X147405565Y-76171230D01*
X147405567Y-76171234D01*
X147477421Y-76273851D01*
X147541101Y-76364796D01*
X147541106Y-76364802D01*
X147708197Y-76531893D01*
X147708203Y-76531898D01*
X147893758Y-76661825D01*
X147937383Y-76716402D01*
X147944577Y-76785900D01*
X147913054Y-76848255D01*
X147893758Y-76864975D01*
X147708197Y-76994905D01*
X147541105Y-77161997D01*
X147405565Y-77355569D01*
X147405564Y-77355571D01*
X147305698Y-77569735D01*
X147305694Y-77569744D01*
X147244538Y-77797986D01*
X147244536Y-77797996D01*
X147223941Y-78033399D01*
X147223941Y-78033400D01*
X147244536Y-78268803D01*
X147244538Y-78268813D01*
X147305694Y-78497055D01*
X147305696Y-78497059D01*
X147305697Y-78497063D01*
X147377114Y-78650217D01*
X147405565Y-78711230D01*
X147405567Y-78711234D01*
X147477990Y-78814664D01*
X147541101Y-78904796D01*
X147541106Y-78904802D01*
X147708197Y-79071893D01*
X147708203Y-79071898D01*
X147893758Y-79201825D01*
X147937383Y-79256402D01*
X147944577Y-79325900D01*
X147913054Y-79388255D01*
X147893758Y-79404975D01*
X147708197Y-79534905D01*
X147541105Y-79701997D01*
X147405565Y-79895569D01*
X147405564Y-79895571D01*
X147305698Y-80109735D01*
X147305694Y-80109744D01*
X147244538Y-80337986D01*
X147244536Y-80337996D01*
X147223941Y-80573399D01*
X147223941Y-80573400D01*
X147244536Y-80808803D01*
X147244538Y-80808813D01*
X147305694Y-81037055D01*
X147305696Y-81037059D01*
X147305697Y-81037063D01*
X147308947Y-81044032D01*
X147405565Y-81251230D01*
X147405567Y-81251234D01*
X147513881Y-81405921D01*
X147541105Y-81444801D01*
X147708199Y-81611895D01*
X147804984Y-81679665D01*
X147901765Y-81747432D01*
X147901767Y-81747433D01*
X147901770Y-81747435D01*
X148115937Y-81847303D01*
X148344192Y-81908463D01*
X148520634Y-81923900D01*
X148579599Y-81929059D01*
X148579600Y-81929059D01*
X148579601Y-81929059D01*
X148638566Y-81923900D01*
X148815008Y-81908463D01*
X149043263Y-81847303D01*
X149257430Y-81747435D01*
X149451001Y-81611895D01*
X149618095Y-81444801D01*
X149748025Y-81259242D01*
X149802602Y-81215617D01*
X149872100Y-81208423D01*
X149934455Y-81239946D01*
X149951175Y-81259242D01*
X150081100Y-81444795D01*
X150081105Y-81444801D01*
X150248199Y-81611895D01*
X150344984Y-81679665D01*
X150441765Y-81747432D01*
X150441767Y-81747433D01*
X150441770Y-81747435D01*
X150655937Y-81847303D01*
X150884192Y-81908463D01*
X151060634Y-81923900D01*
X151119599Y-81929059D01*
X151119600Y-81929059D01*
X151119601Y-81929059D01*
X151178566Y-81923900D01*
X151355008Y-81908463D01*
X151583263Y-81847303D01*
X151797430Y-81747435D01*
X151991001Y-81611895D01*
X152158095Y-81444801D01*
X152293635Y-81251230D01*
X152393503Y-81037063D01*
X152454663Y-80808808D01*
X152475259Y-80573400D01*
X152475136Y-80571999D01*
X152454663Y-80337996D01*
X152454663Y-80337992D01*
X152393503Y-80109737D01*
X152293635Y-79895571D01*
X152292654Y-79894169D01*
X152158094Y-79701997D01*
X151991002Y-79534906D01*
X151990996Y-79534901D01*
X151805442Y-79404975D01*
X151761817Y-79350398D01*
X151754623Y-79280900D01*
X151786146Y-79218545D01*
X151805442Y-79201825D01*
X151841717Y-79176425D01*
X151991001Y-79071895D01*
X152158095Y-78904801D01*
X152293635Y-78711230D01*
X152393503Y-78497063D01*
X152454663Y-78268808D01*
X152475259Y-78033400D01*
X152475136Y-78031999D01*
X152454663Y-77797996D01*
X152454663Y-77797992D01*
X152393503Y-77569737D01*
X152293635Y-77355571D01*
X152293252Y-77355023D01*
X152158094Y-77161997D01*
X151991002Y-76994906D01*
X151990996Y-76994901D01*
X151805442Y-76864975D01*
X151761817Y-76810398D01*
X151754623Y-76740900D01*
X151786146Y-76678545D01*
X151805442Y-76661825D01*
X151843078Y-76635472D01*
X151991001Y-76531895D01*
X152158095Y-76364801D01*
X152293635Y-76171230D01*
X152393503Y-75957063D01*
X152454663Y-75728808D01*
X152475259Y-75493400D01*
X152475136Y-75491999D01*
X152454663Y-75257996D01*
X152454663Y-75257992D01*
X152393503Y-75029737D01*
X152293635Y-74815571D01*
X152292654Y-74814169D01*
X152158094Y-74621997D01*
X151991002Y-74454906D01*
X151990996Y-74454901D01*
X151805442Y-74324975D01*
X151761817Y-74270398D01*
X151754623Y-74200900D01*
X151786146Y-74138545D01*
X151805442Y-74121825D01*
X151887072Y-74064667D01*
X151991001Y-73991895D01*
X152158095Y-73824801D01*
X152293635Y-73631230D01*
X152393503Y-73417063D01*
X152454663Y-73188808D01*
X152475259Y-72953400D01*
X152475136Y-72951999D01*
X152458311Y-72759686D01*
X152454663Y-72717992D01*
X152393503Y-72489737D01*
X152293635Y-72275571D01*
X152292654Y-72274169D01*
X152158094Y-72081997D01*
X151991002Y-71914906D01*
X151990996Y-71914901D01*
X151805442Y-71784975D01*
X151761817Y-71730398D01*
X151754623Y-71660900D01*
X151786146Y-71598545D01*
X151805442Y-71581825D01*
X151886592Y-71525003D01*
X151991001Y-71451895D01*
X152158095Y-71284801D01*
X152293635Y-71091230D01*
X152393503Y-70877063D01*
X152454663Y-70648808D01*
X152475259Y-70413400D01*
X152475136Y-70411999D01*
X152458337Y-70219986D01*
X152454663Y-70177992D01*
X152393503Y-69949737D01*
X152293635Y-69735571D01*
X152292653Y-69734169D01*
X152158096Y-69542000D01*
X152132693Y-69516597D01*
X152036167Y-69420071D01*
X152002684Y-69358751D01*
X152007668Y-69289059D01*
X152049539Y-69233125D01*
X152080515Y-69216210D01*
X152211931Y-69167196D01*
X152327146Y-69080946D01*
X152413396Y-68965731D01*
X152463691Y-68830883D01*
X152470100Y-68771273D01*
X152470099Y-66975528D01*
X152463691Y-66915917D01*
X152463168Y-66914516D01*
X152413397Y-66781071D01*
X152413393Y-66781064D01*
X152327147Y-66665855D01*
X152327144Y-66665852D01*
X152211935Y-66579606D01*
X152211928Y-66579602D01*
X152077082Y-66529308D01*
X152077083Y-66529308D01*
X152017483Y-66522901D01*
X152017481Y-66522900D01*
X152017473Y-66522900D01*
X152017464Y-66522900D01*
X150221729Y-66522900D01*
X150221723Y-66522901D01*
X150162116Y-66529308D01*
X150027271Y-66579602D01*
X150027264Y-66579606D01*
X149912055Y-66665852D01*
X149912052Y-66665855D01*
X149825806Y-66781064D01*
X149825803Y-66781069D01*
X149776789Y-66912483D01*
X149734917Y-66968416D01*
X149669453Y-66992833D01*
X149601180Y-66977981D01*
X149572926Y-66956830D01*
X149451002Y-66834906D01*
X149450995Y-66834901D01*
X149449001Y-66833505D01*
X149374118Y-66781071D01*
X149257434Y-66699367D01*
X149257430Y-66699365D01*
X149254426Y-66697964D01*
X149043263Y-66599497D01*
X149043259Y-66599496D01*
X149043255Y-66599494D01*
X148815013Y-66538338D01*
X148815003Y-66538336D01*
X148579601Y-66517741D01*
X148579599Y-66517741D01*
X148344196Y-66538336D01*
X148344186Y-66538338D01*
X148115944Y-66599494D01*
X148115935Y-66599498D01*
X147901771Y-66699364D01*
X147901769Y-66699365D01*
X147708197Y-66834905D01*
X147541105Y-67001997D01*
X147405565Y-67195569D01*
X147405564Y-67195571D01*
X147305698Y-67409735D01*
X147305694Y-67409744D01*
X147244538Y-67637986D01*
X147244536Y-67637996D01*
X147223941Y-67873399D01*
X133346837Y-67873399D01*
X133349059Y-67848000D01*
X133328463Y-67612592D01*
X133267303Y-67384337D01*
X133167435Y-67170171D01*
X133161825Y-67162158D01*
X133031894Y-66976597D01*
X132864802Y-66809506D01*
X132864796Y-66809501D01*
X132679242Y-66679575D01*
X132635617Y-66624998D01*
X132628423Y-66555500D01*
X132659946Y-66493145D01*
X132679242Y-66476425D01*
X132701426Y-66460891D01*
X132864801Y-66346495D01*
X133031895Y-66179401D01*
X133167435Y-65985830D01*
X133267303Y-65771663D01*
X133328463Y-65543408D01*
X133349059Y-65308000D01*
X133328463Y-65072592D01*
X133267303Y-64844337D01*
X133167435Y-64630171D01*
X133161825Y-64622158D01*
X133031894Y-64436597D01*
X132864802Y-64269506D01*
X132864796Y-64269501D01*
X132679242Y-64139575D01*
X132635617Y-64084998D01*
X132628423Y-64015500D01*
X132659946Y-63953145D01*
X132679242Y-63936425D01*
X132809106Y-63845493D01*
X132864801Y-63806495D01*
X133031895Y-63639401D01*
X133167435Y-63445830D01*
X133267303Y-63231663D01*
X133328463Y-63003408D01*
X133349059Y-62768000D01*
X133328463Y-62532592D01*
X133267303Y-62304337D01*
X133167435Y-62090171D01*
X133161825Y-62082158D01*
X133031894Y-61896597D01*
X132864802Y-61729506D01*
X132864795Y-61729501D01*
X132671234Y-61593967D01*
X132671230Y-61593965D01*
X132649856Y-61583998D01*
X132457063Y-61494097D01*
X132457059Y-61494096D01*
X132457055Y-61494094D01*
X132228813Y-61432938D01*
X132228803Y-61432936D01*
X131993401Y-61412341D01*
X131993399Y-61412341D01*
X131757996Y-61432936D01*
X131757986Y-61432938D01*
X131529744Y-61494094D01*
X131529735Y-61494098D01*
X131315571Y-61593964D01*
X131315569Y-61593965D01*
X131121997Y-61729505D01*
X130954905Y-61896597D01*
X130824975Y-62082158D01*
X130770398Y-62125783D01*
X130700900Y-62132977D01*
X130638545Y-62101454D01*
X130621825Y-62082158D01*
X130491894Y-61896597D01*
X130324802Y-61729506D01*
X130324795Y-61729501D01*
X130131234Y-61593967D01*
X130131230Y-61593965D01*
X130109856Y-61583998D01*
X129917063Y-61494097D01*
X129917059Y-61494096D01*
X129917055Y-61494094D01*
X129688813Y-61432938D01*
X129688803Y-61432936D01*
X129453401Y-61412341D01*
X129453399Y-61412341D01*
X129217996Y-61432936D01*
X129217986Y-61432938D01*
X128989744Y-61494094D01*
X128989735Y-61494098D01*
X128775571Y-61593964D01*
X128775569Y-61593965D01*
X128581997Y-61729505D01*
X128414905Y-61896597D01*
X128279365Y-62090169D01*
X128279364Y-62090171D01*
X128179498Y-62304335D01*
X128179494Y-62304344D01*
X128118338Y-62532586D01*
X128118336Y-62532596D01*
X128097741Y-62767999D01*
X112414300Y-62767999D01*
X112414300Y-49773852D01*
X112433985Y-49706813D01*
X112450619Y-49686171D01*
X112651572Y-49485219D01*
X112712895Y-49451734D01*
X112739253Y-49448900D01*
X128152773Y-49448900D01*
X128219812Y-49468585D01*
X128254348Y-49501777D01*
X128389501Y-49694796D01*
X128389506Y-49694802D01*
X128556597Y-49861893D01*
X128556603Y-49861898D01*
X128742158Y-49991825D01*
X128785783Y-50046402D01*
X128792977Y-50115900D01*
X128761454Y-50178255D01*
X128742158Y-50194975D01*
X128556597Y-50324905D01*
X128389505Y-50491997D01*
X128253965Y-50685569D01*
X128253964Y-50685571D01*
X128154098Y-50899735D01*
X128154094Y-50899744D01*
X128092938Y-51127986D01*
X128092936Y-51127996D01*
X128072341Y-51363399D01*
X128072341Y-51363400D01*
X128092936Y-51598803D01*
X128092938Y-51598813D01*
X128154094Y-51827055D01*
X128154096Y-51827059D01*
X128154097Y-51827063D01*
X128220362Y-51969169D01*
X128253965Y-52041230D01*
X128253967Y-52041234D01*
X128326602Y-52144967D01*
X128389501Y-52234796D01*
X128389506Y-52234802D01*
X128556597Y-52401893D01*
X128556603Y-52401898D01*
X128742158Y-52531825D01*
X128785783Y-52586402D01*
X128792977Y-52655900D01*
X128761454Y-52718255D01*
X128742158Y-52734975D01*
X128556597Y-52864905D01*
X128389505Y-53031997D01*
X128253965Y-53225569D01*
X128253964Y-53225571D01*
X128154098Y-53439735D01*
X128154094Y-53439744D01*
X128092938Y-53667986D01*
X128092936Y-53667996D01*
X128072341Y-53903399D01*
X128072341Y-53903400D01*
X128092936Y-54138803D01*
X128092938Y-54138813D01*
X128154094Y-54367055D01*
X128154096Y-54367059D01*
X128154097Y-54367063D01*
X128237358Y-54545617D01*
X128253965Y-54581230D01*
X128253967Y-54581234D01*
X128347609Y-54714967D01*
X128389501Y-54774796D01*
X128389506Y-54774802D01*
X128556597Y-54941893D01*
X128556603Y-54941898D01*
X128742158Y-55071825D01*
X128785783Y-55126402D01*
X128792977Y-55195900D01*
X128761454Y-55258255D01*
X128742158Y-55274975D01*
X128556597Y-55404905D01*
X128389505Y-55571997D01*
X128253965Y-55765569D01*
X128253964Y-55765571D01*
X128154098Y-55979735D01*
X128154094Y-55979744D01*
X128092938Y-56207986D01*
X128092936Y-56207996D01*
X128072341Y-56443399D01*
X128072341Y-56443400D01*
X128092936Y-56678803D01*
X128092938Y-56678813D01*
X128154094Y-56907055D01*
X128154096Y-56907059D01*
X128154097Y-56907063D01*
X128225828Y-57060890D01*
X128253965Y-57121230D01*
X128253967Y-57121234D01*
X128353593Y-57263513D01*
X128389501Y-57314796D01*
X128389506Y-57314802D01*
X128511430Y-57436726D01*
X128544915Y-57498049D01*
X128539931Y-57567741D01*
X128498059Y-57623674D01*
X128467083Y-57640589D01*
X128335669Y-57689603D01*
X128335664Y-57689606D01*
X128220455Y-57775852D01*
X128220452Y-57775855D01*
X128134206Y-57891064D01*
X128134202Y-57891071D01*
X128083908Y-58025917D01*
X128077501Y-58085516D01*
X128077500Y-58085535D01*
X128077500Y-59881270D01*
X128077501Y-59881276D01*
X128083908Y-59940883D01*
X128134202Y-60075728D01*
X128134206Y-60075735D01*
X128220452Y-60190944D01*
X128220455Y-60190947D01*
X128335664Y-60277193D01*
X128335671Y-60277197D01*
X128470517Y-60327491D01*
X128470516Y-60327491D01*
X128477444Y-60328235D01*
X128530127Y-60333900D01*
X130325872Y-60333899D01*
X130385483Y-60327491D01*
X130520331Y-60277196D01*
X130635546Y-60190946D01*
X130721796Y-60075731D01*
X130770810Y-59944316D01*
X130812681Y-59888384D01*
X130878145Y-59863966D01*
X130946418Y-59878817D01*
X130974673Y-59899969D01*
X131096599Y-60021895D01*
X131193384Y-60089665D01*
X131290165Y-60157432D01*
X131290167Y-60157433D01*
X131290170Y-60157435D01*
X131504337Y-60257303D01*
X131732592Y-60318463D01*
X131909034Y-60333900D01*
X131967999Y-60339059D01*
X131968000Y-60339059D01*
X131968001Y-60339059D01*
X132026966Y-60333900D01*
X132203408Y-60318463D01*
X132431663Y-60257303D01*
X132645830Y-60157435D01*
X132839401Y-60021895D01*
X133006495Y-59854801D01*
X133142035Y-59661230D01*
X133241903Y-59447063D01*
X133303063Y-59218808D01*
X133323659Y-58983400D01*
X133303063Y-58747992D01*
X133241903Y-58519737D01*
X133142035Y-58305571D01*
X133125798Y-58282381D01*
X133006494Y-58111997D01*
X132839402Y-57944906D01*
X132839396Y-57944901D01*
X132653842Y-57814975D01*
X132610217Y-57760398D01*
X132603023Y-57690900D01*
X132634546Y-57628545D01*
X132653842Y-57611825D01*
X132785711Y-57519489D01*
X132839401Y-57481895D01*
X133006495Y-57314801D01*
X133142035Y-57121230D01*
X133241903Y-56907063D01*
X133303063Y-56678808D01*
X133323659Y-56443400D01*
X133303063Y-56207992D01*
X133241903Y-55979737D01*
X133142035Y-55765571D01*
X133136425Y-55757558D01*
X133006494Y-55571997D01*
X132839402Y-55404906D01*
X132839396Y-55404901D01*
X132653842Y-55274975D01*
X132610217Y-55220398D01*
X132603023Y-55150900D01*
X132634546Y-55088545D01*
X132653842Y-55071825D01*
X132676026Y-55056291D01*
X132839401Y-54941895D01*
X133006495Y-54774801D01*
X133142035Y-54581230D01*
X133241903Y-54367063D01*
X133303063Y-54138808D01*
X133323659Y-53903400D01*
X133303063Y-53667992D01*
X133248100Y-53462865D01*
X133241905Y-53439744D01*
X133241904Y-53439743D01*
X133241903Y-53439737D01*
X133142035Y-53225571D01*
X133136425Y-53217558D01*
X133006494Y-53031997D01*
X132839402Y-52864906D01*
X132839396Y-52864901D01*
X132653842Y-52734975D01*
X132610217Y-52680398D01*
X132603023Y-52610900D01*
X132634546Y-52548545D01*
X132653842Y-52531825D01*
X132751563Y-52463400D01*
X132839401Y-52401895D01*
X133006495Y-52234801D01*
X133142035Y-52041230D01*
X133241903Y-51827063D01*
X133303063Y-51598808D01*
X133323659Y-51363400D01*
X133303063Y-51127992D01*
X133241903Y-50899737D01*
X133142035Y-50685571D01*
X133136425Y-50677558D01*
X133006494Y-50491997D01*
X132839402Y-50324906D01*
X132839396Y-50324901D01*
X132653842Y-50194975D01*
X132610217Y-50140398D01*
X132603023Y-50070900D01*
X132634546Y-50008545D01*
X132653842Y-49991825D01*
X132733324Y-49936171D01*
X132839401Y-49861895D01*
X133006495Y-49694801D01*
X133142035Y-49501230D01*
X133241903Y-49287063D01*
X133303063Y-49058808D01*
X133323659Y-48823400D01*
X133303063Y-48587992D01*
X133248100Y-48382865D01*
X133241905Y-48359744D01*
X133241904Y-48359743D01*
X133241903Y-48359737D01*
X133142035Y-48145571D01*
X133141652Y-48145023D01*
X133006494Y-47951997D01*
X132839402Y-47784906D01*
X132839396Y-47784901D01*
X132653842Y-47654975D01*
X132610217Y-47600398D01*
X132603023Y-47530900D01*
X132634546Y-47468545D01*
X132653842Y-47451825D01*
X132806229Y-47345122D01*
X132839401Y-47321895D01*
X133006495Y-47154801D01*
X133142035Y-46961230D01*
X133241903Y-46747063D01*
X133303063Y-46518808D01*
X133323659Y-46283400D01*
X133303063Y-46047992D01*
X133241903Y-45819737D01*
X133142035Y-45605571D01*
X133136425Y-45597558D01*
X133006494Y-45411997D01*
X132839402Y-45244906D01*
X132839401Y-45244905D01*
X132653405Y-45114669D01*
X132609781Y-45060092D01*
X132602588Y-44990593D01*
X132634110Y-44928239D01*
X132653405Y-44911519D01*
X132839082Y-44781505D01*
X133006105Y-44614482D01*
X133141600Y-44420978D01*
X133241429Y-44206892D01*
X133241432Y-44206886D01*
X133298636Y-43993400D01*
X132401012Y-43993400D01*
X132433925Y-43936393D01*
X132468000Y-43809226D01*
X132468000Y-43677574D01*
X132433925Y-43550407D01*
X132401012Y-43493400D01*
X133298636Y-43493400D01*
X133298635Y-43493399D01*
X133241432Y-43279913D01*
X133241429Y-43279907D01*
X133141600Y-43065822D01*
X133141599Y-43065820D01*
X133006113Y-42872326D01*
X133006108Y-42872320D01*
X132839078Y-42705290D01*
X132653405Y-42575279D01*
X132609780Y-42520702D01*
X132602588Y-42451204D01*
X132634110Y-42388849D01*
X132653406Y-42372130D01*
X132653842Y-42371825D01*
X132839401Y-42241895D01*
X133006495Y-42074801D01*
X133142035Y-41881230D01*
X133241903Y-41667063D01*
X133303063Y-41438808D01*
X133323659Y-41203400D01*
X133303063Y-40967992D01*
X133241903Y-40739737D01*
X133142035Y-40525571D01*
X133136425Y-40517558D01*
X133006494Y-40331997D01*
X132839402Y-40164906D01*
X132839396Y-40164901D01*
X132653842Y-40034975D01*
X132610217Y-39980398D01*
X132603023Y-39910900D01*
X132634546Y-39848545D01*
X132653842Y-39831825D01*
X132676026Y-39816291D01*
X132839401Y-39701895D01*
X133006495Y-39534801D01*
X133142035Y-39341230D01*
X133241903Y-39127063D01*
X133303063Y-38898808D01*
X133323659Y-38663400D01*
X133303063Y-38427992D01*
X133241903Y-38199737D01*
X133142035Y-37985571D01*
X133136425Y-37977558D01*
X133006494Y-37791997D01*
X132839402Y-37624906D01*
X132839396Y-37624901D01*
X132653842Y-37494975D01*
X132610217Y-37440398D01*
X132603023Y-37370900D01*
X132634546Y-37308545D01*
X132653842Y-37291825D01*
X132676026Y-37276291D01*
X132839401Y-37161895D01*
X133006495Y-36994801D01*
X133142035Y-36801230D01*
X133241903Y-36587063D01*
X133303063Y-36358808D01*
X133323659Y-36123400D01*
X133303063Y-35887992D01*
X133241903Y-35659737D01*
X133142035Y-35445571D01*
X133136425Y-35437558D01*
X133006494Y-35251997D01*
X132930078Y-35175581D01*
X132896593Y-35114258D01*
X132901577Y-35044566D01*
X132943449Y-34988633D01*
X133008913Y-34964216D01*
X133017759Y-34963900D01*
X140115911Y-34963900D01*
X140182950Y-34983585D01*
X140203592Y-35000219D01*
X142751981Y-37548608D01*
X142785466Y-37609931D01*
X142788300Y-37636289D01*
X142788300Y-48081497D01*
X142825246Y-48314768D01*
X142898233Y-48539396D01*
X142991349Y-48722145D01*
X143005457Y-48749834D01*
X143052635Y-48814769D01*
X143144284Y-48940911D01*
X143144285Y-48940912D01*
X143811291Y-49607919D01*
X143811296Y-49607923D01*
X143930876Y-49694802D01*
X144002367Y-49746743D01*
X144136459Y-49815066D01*
X144212803Y-49853966D01*
X144212805Y-49853966D01*
X144212808Y-49853968D01*
X144333212Y-49893089D01*
X144437431Y-49926953D01*
X144670703Y-49963900D01*
X144670708Y-49963900D01*
X144906897Y-49963900D01*
X145036490Y-49943373D01*
X145140169Y-49926953D01*
X145364792Y-49853968D01*
X145575234Y-49746743D01*
X145766310Y-49607918D01*
X145933318Y-49440910D01*
X146072143Y-49249834D01*
X146179368Y-49039392D01*
X146252353Y-48814769D01*
X146269671Y-48705425D01*
X146289300Y-48581497D01*
X146289300Y-48345310D01*
X146289300Y-48345308D01*
X146279910Y-48286025D01*
X146288864Y-48216733D01*
X146294987Y-48204644D01*
X146365979Y-48081684D01*
X146424474Y-47901656D01*
X146444260Y-47713400D01*
X146424474Y-47525144D01*
X146365979Y-47345116D01*
X146271333Y-47181184D01*
X146144671Y-47040512D01*
X146144670Y-47040511D01*
X145991534Y-46929251D01*
X145991529Y-46929248D01*
X145862864Y-46871962D01*
X145809627Y-46826712D01*
X145789306Y-46759862D01*
X145789300Y-46758683D01*
X145789300Y-44996999D01*
X147232341Y-44996999D01*
X147232341Y-44997000D01*
X147252936Y-45232403D01*
X147252938Y-45232413D01*
X147314094Y-45460655D01*
X147314096Y-45460659D01*
X147314097Y-45460663D01*
X147381668Y-45605569D01*
X147413965Y-45674830D01*
X147413967Y-45674834D01*
X147549501Y-45868395D01*
X147549506Y-45868402D01*
X147716597Y-46035493D01*
X147716603Y-46035498D01*
X147902158Y-46165425D01*
X147945783Y-46220002D01*
X147952977Y-46289500D01*
X147921454Y-46351855D01*
X147902158Y-46368575D01*
X147716597Y-46498505D01*
X147549505Y-46665597D01*
X147413965Y-46859169D01*
X147413964Y-46859171D01*
X147314098Y-47073335D01*
X147314094Y-47073344D01*
X147252938Y-47301586D01*
X147252936Y-47301596D01*
X147232341Y-47536999D01*
X147232341Y-47537000D01*
X147252936Y-47772403D01*
X147252938Y-47772413D01*
X147314094Y-48000655D01*
X147314096Y-48000659D01*
X147314097Y-48000663D01*
X147411675Y-48209919D01*
X147413965Y-48214830D01*
X147413967Y-48214834D01*
X147499888Y-48337541D01*
X147549501Y-48408396D01*
X147549506Y-48408402D01*
X147716597Y-48575493D01*
X147716603Y-48575498D01*
X147902158Y-48705425D01*
X147945783Y-48760002D01*
X147952977Y-48829500D01*
X147921454Y-48891855D01*
X147902158Y-48908575D01*
X147716597Y-49038505D01*
X147549505Y-49205597D01*
X147413965Y-49399169D01*
X147413964Y-49399171D01*
X147320401Y-49599816D01*
X147316624Y-49607919D01*
X147314098Y-49613335D01*
X147314094Y-49613344D01*
X147252938Y-49841586D01*
X147252936Y-49841596D01*
X147232341Y-50076999D01*
X147232341Y-50077000D01*
X147252936Y-50312403D01*
X147252938Y-50312413D01*
X147314094Y-50540655D01*
X147314096Y-50540659D01*
X147314097Y-50540663D01*
X147381668Y-50685569D01*
X147413965Y-50754830D01*
X147413967Y-50754834D01*
X147440581Y-50792842D01*
X147549501Y-50948396D01*
X147549506Y-50948402D01*
X147716597Y-51115493D01*
X147716603Y-51115498D01*
X147902158Y-51245425D01*
X147945783Y-51300002D01*
X147952977Y-51369500D01*
X147921454Y-51431855D01*
X147902158Y-51448575D01*
X147716597Y-51578505D01*
X147549505Y-51745597D01*
X147413965Y-51939169D01*
X147413964Y-51939171D01*
X147314098Y-52153335D01*
X147314094Y-52153344D01*
X147252938Y-52381586D01*
X147252936Y-52381596D01*
X147232341Y-52616999D01*
X147232341Y-52617000D01*
X147252936Y-52852403D01*
X147252938Y-52852413D01*
X147314094Y-53080655D01*
X147314096Y-53080659D01*
X147314097Y-53080663D01*
X147381668Y-53225569D01*
X147413965Y-53294830D01*
X147413967Y-53294834D01*
X147449310Y-53345308D01*
X147549501Y-53488396D01*
X147549506Y-53488402D01*
X147716597Y-53655493D01*
X147716603Y-53655498D01*
X147902158Y-53785425D01*
X147945783Y-53840002D01*
X147952977Y-53909500D01*
X147921454Y-53971855D01*
X147902158Y-53988575D01*
X147716597Y-54118505D01*
X147549505Y-54285597D01*
X147413965Y-54479169D01*
X147413964Y-54479171D01*
X147314098Y-54693335D01*
X147314094Y-54693344D01*
X147252938Y-54921586D01*
X147252936Y-54921596D01*
X147232341Y-55156999D01*
X147232341Y-55157000D01*
X147252936Y-55392403D01*
X147252938Y-55392413D01*
X147314094Y-55620655D01*
X147314096Y-55620659D01*
X147314097Y-55620663D01*
X147381668Y-55765569D01*
X147413965Y-55834830D01*
X147413967Y-55834834D01*
X147440581Y-55872842D01*
X147549501Y-56028396D01*
X147549506Y-56028402D01*
X147716597Y-56195493D01*
X147716603Y-56195498D01*
X147902594Y-56325730D01*
X147946219Y-56380307D01*
X147953413Y-56449805D01*
X147921890Y-56512160D01*
X147902595Y-56528880D01*
X147716922Y-56658890D01*
X147716920Y-56658891D01*
X147549891Y-56825920D01*
X147549886Y-56825926D01*
X147414400Y-57019420D01*
X147414399Y-57019422D01*
X147314570Y-57233507D01*
X147314567Y-57233513D01*
X147257364Y-57446999D01*
X147257364Y-57447000D01*
X148154988Y-57447000D01*
X148122075Y-57504007D01*
X148088000Y-57631174D01*
X148088000Y-57762826D01*
X148122075Y-57889993D01*
X148154988Y-57947000D01*
X147257364Y-57947000D01*
X147314567Y-58160486D01*
X147314570Y-58160492D01*
X147414399Y-58374578D01*
X147549894Y-58568082D01*
X147716917Y-58735105D01*
X147903031Y-58865425D01*
X147946656Y-58920003D01*
X147953848Y-58989501D01*
X147922326Y-59051856D01*
X147903031Y-59068575D01*
X147716922Y-59198890D01*
X147716920Y-59198891D01*
X147549891Y-59365920D01*
X147549886Y-59365926D01*
X147414400Y-59559420D01*
X147414399Y-59559422D01*
X147314570Y-59773507D01*
X147314567Y-59773513D01*
X147257364Y-59986999D01*
X147257364Y-59987000D01*
X148154988Y-59987000D01*
X148122075Y-60044007D01*
X148088000Y-60171174D01*
X148088000Y-60302826D01*
X148122075Y-60429993D01*
X148154988Y-60487000D01*
X147257364Y-60487000D01*
X147314567Y-60700486D01*
X147314570Y-60700492D01*
X147414399Y-60914578D01*
X147549894Y-61108082D01*
X147716917Y-61275105D01*
X147902595Y-61405119D01*
X147946219Y-61459696D01*
X147953412Y-61529195D01*
X147921890Y-61591549D01*
X147902595Y-61608269D01*
X147716594Y-61738508D01*
X147549505Y-61905597D01*
X147413965Y-62099169D01*
X147413964Y-62099171D01*
X147314098Y-62313335D01*
X147314094Y-62313344D01*
X147252938Y-62541586D01*
X147252936Y-62541596D01*
X147232341Y-62776999D01*
X147232341Y-62777000D01*
X147252936Y-63012403D01*
X147252938Y-63012413D01*
X147314094Y-63240655D01*
X147314096Y-63240659D01*
X147314097Y-63240663D01*
X147328087Y-63270664D01*
X147413965Y-63454830D01*
X147413967Y-63454834D01*
X147440581Y-63492842D01*
X147549505Y-63648401D01*
X147716599Y-63815495D01*
X147759448Y-63845498D01*
X147910165Y-63951032D01*
X147910167Y-63951033D01*
X147910170Y-63951035D01*
X148124337Y-64050903D01*
X148352592Y-64112063D01*
X148540918Y-64128539D01*
X148587999Y-64132659D01*
X148588000Y-64132659D01*
X148588001Y-64132659D01*
X148627234Y-64129226D01*
X148823408Y-64112063D01*
X149051663Y-64050903D01*
X149265830Y-63951035D01*
X149459401Y-63815495D01*
X149626495Y-63648401D01*
X149756425Y-63462842D01*
X149811002Y-63419217D01*
X149880500Y-63412023D01*
X149942855Y-63443546D01*
X149959575Y-63462842D01*
X150089500Y-63648395D01*
X150089505Y-63648401D01*
X150256599Y-63815495D01*
X150299448Y-63845498D01*
X150450165Y-63951032D01*
X150450167Y-63951033D01*
X150450170Y-63951035D01*
X150664337Y-64050903D01*
X150892592Y-64112063D01*
X151080918Y-64128539D01*
X151127999Y-64132659D01*
X151128000Y-64132659D01*
X151128001Y-64132659D01*
X151167234Y-64129226D01*
X151363408Y-64112063D01*
X151591663Y-64050903D01*
X151805830Y-63951035D01*
X151999401Y-63815495D01*
X152166495Y-63648401D01*
X152301652Y-63455377D01*
X152356229Y-63411752D01*
X152403227Y-63402500D01*
X159291948Y-63402500D01*
X159358987Y-63422185D01*
X159379629Y-63438819D01*
X162126981Y-66186171D01*
X162160466Y-66247494D01*
X162163300Y-66273852D01*
X162163300Y-83775011D01*
X162187335Y-83895844D01*
X162187340Y-83895861D01*
X162234485Y-84009680D01*
X162234490Y-84009689D01*
X162268714Y-84060907D01*
X162268715Y-84060909D01*
X162302941Y-84112133D01*
X162394386Y-84203578D01*
X162394408Y-84203598D01*
X166056181Y-87865371D01*
X166089666Y-87926694D01*
X166092500Y-87953052D01*
X166092500Y-92030216D01*
X166072815Y-92097255D01*
X166020011Y-92143010D01*
X165950853Y-92152954D01*
X165945716Y-92152105D01*
X165856942Y-92135510D01*
X165826926Y-92129900D01*
X165609074Y-92129900D01*
X165394931Y-92169930D01*
X165366571Y-92180917D01*
X165191792Y-92248626D01*
X165191786Y-92248629D01*
X165006565Y-92363313D01*
X164995585Y-92373323D01*
X164932780Y-92403937D01*
X164863393Y-92395736D01*
X164812785Y-92355994D01*
X164776913Y-92308076D01*
X164750546Y-92272854D01*
X164750544Y-92272853D01*
X164750544Y-92272852D01*
X164635335Y-92186606D01*
X164635328Y-92186602D01*
X164500482Y-92136308D01*
X164500483Y-92136308D01*
X164440883Y-92129901D01*
X164440881Y-92129900D01*
X164440873Y-92129900D01*
X164440864Y-92129900D01*
X162995129Y-92129900D01*
X162995123Y-92129901D01*
X162935516Y-92136308D01*
X162800671Y-92186602D01*
X162800664Y-92186606D01*
X162685455Y-92272852D01*
X162685452Y-92272855D01*
X162599206Y-92388064D01*
X162599202Y-92388071D01*
X162548908Y-92522917D01*
X162542501Y-92582516D01*
X162542500Y-92582535D01*
X162542500Y-94028270D01*
X162542501Y-94028276D01*
X162548908Y-94087883D01*
X162599202Y-94222728D01*
X162599206Y-94222735D01*
X162632702Y-94267479D01*
X162685454Y-94337946D01*
X162771105Y-94402064D01*
X162812975Y-94457997D01*
X162817959Y-94527689D01*
X162795748Y-94576056D01*
X162714288Y-94683928D01*
X162617184Y-94878937D01*
X162617183Y-94878941D01*
X162566977Y-95055399D01*
X162557564Y-95088481D01*
X162537464Y-95305399D01*
X162537464Y-95305400D01*
X162557564Y-95522318D01*
X162557564Y-95522320D01*
X162557565Y-95522323D01*
X162601899Y-95678141D01*
X162617184Y-95731862D01*
X162714143Y-95926581D01*
X162714288Y-95926872D01*
X162845573Y-96100722D01*
X163006568Y-96247488D01*
X163006575Y-96247492D01*
X163006576Y-96247493D01*
X163191786Y-96362170D01*
X163191792Y-96362173D01*
X163191960Y-96362238D01*
X163394931Y-96440870D01*
X163609074Y-96480900D01*
X163609076Y-96480900D01*
X163826924Y-96480900D01*
X163826926Y-96480900D01*
X164041069Y-96440870D01*
X164244210Y-96362172D01*
X164429432Y-96247488D01*
X164590427Y-96100722D01*
X164619047Y-96062822D01*
X164675153Y-96021187D01*
X164744865Y-96016494D01*
X164806048Y-96050236D01*
X164816946Y-96062814D01*
X164845573Y-96100722D01*
X165006568Y-96247488D01*
X165006575Y-96247492D01*
X165006576Y-96247493D01*
X165191786Y-96362170D01*
X165191792Y-96362173D01*
X165191960Y-96362238D01*
X165394931Y-96440870D01*
X165609074Y-96480900D01*
X165609076Y-96480900D01*
X165826924Y-96480900D01*
X165826926Y-96480900D01*
X166041069Y-96440870D01*
X166244210Y-96362172D01*
X166429432Y-96247488D01*
X166590427Y-96100722D01*
X166619047Y-96062822D01*
X166675153Y-96021187D01*
X166744865Y-96016494D01*
X166806048Y-96050236D01*
X166816946Y-96062814D01*
X166845573Y-96100722D01*
X167006568Y-96247488D01*
X167006575Y-96247492D01*
X167006576Y-96247493D01*
X167191786Y-96362170D01*
X167191792Y-96362173D01*
X167191960Y-96362238D01*
X167394931Y-96440870D01*
X167609074Y-96480900D01*
X167609076Y-96480900D01*
X167826924Y-96480900D01*
X167826926Y-96480900D01*
X168041069Y-96440870D01*
X168244210Y-96362172D01*
X168429432Y-96247488D01*
X168590427Y-96100722D01*
X168619047Y-96062822D01*
X168675153Y-96021187D01*
X168744865Y-96016494D01*
X168806048Y-96050236D01*
X168816946Y-96062814D01*
X168845573Y-96100722D01*
X169006568Y-96247488D01*
X169006575Y-96247492D01*
X169006576Y-96247493D01*
X169191786Y-96362170D01*
X169191792Y-96362173D01*
X169191960Y-96362238D01*
X169394931Y-96440870D01*
X169609074Y-96480900D01*
X169609076Y-96480900D01*
X169826924Y-96480900D01*
X169826926Y-96480900D01*
X170041069Y-96440870D01*
X170244210Y-96362172D01*
X170429432Y-96247488D01*
X170590427Y-96100722D01*
X170619047Y-96062822D01*
X170675153Y-96021187D01*
X170744865Y-96016494D01*
X170806048Y-96050236D01*
X170816946Y-96062814D01*
X170845573Y-96100722D01*
X171006568Y-96247488D01*
X171006575Y-96247492D01*
X171006576Y-96247493D01*
X171191786Y-96362170D01*
X171191792Y-96362173D01*
X171191960Y-96362238D01*
X171394931Y-96440870D01*
X171609074Y-96480900D01*
X171609076Y-96480900D01*
X171826924Y-96480900D01*
X171826926Y-96480900D01*
X172041069Y-96440870D01*
X172244210Y-96362172D01*
X172429432Y-96247488D01*
X172590427Y-96100722D01*
X172619047Y-96062822D01*
X172675153Y-96021187D01*
X172744865Y-96016494D01*
X172806048Y-96050236D01*
X172816946Y-96062814D01*
X172845573Y-96100722D01*
X173006568Y-96247488D01*
X173006575Y-96247492D01*
X173006576Y-96247493D01*
X173191786Y-96362170D01*
X173191792Y-96362173D01*
X173191960Y-96362238D01*
X173394931Y-96440870D01*
X173609074Y-96480900D01*
X173609076Y-96480900D01*
X173826924Y-96480900D01*
X173826926Y-96480900D01*
X174041069Y-96440870D01*
X174244210Y-96362172D01*
X174429432Y-96247488D01*
X174590427Y-96100722D01*
X174619047Y-96062822D01*
X174675153Y-96021187D01*
X174744865Y-96016494D01*
X174806048Y-96050236D01*
X174816946Y-96062814D01*
X174845573Y-96100722D01*
X175006568Y-96247488D01*
X175006575Y-96247492D01*
X175006576Y-96247493D01*
X175191786Y-96362170D01*
X175191792Y-96362173D01*
X175191960Y-96362238D01*
X175394931Y-96440870D01*
X175609074Y-96480900D01*
X175609076Y-96480900D01*
X175826924Y-96480900D01*
X175826926Y-96480900D01*
X176041069Y-96440870D01*
X176244210Y-96362172D01*
X176429432Y-96247488D01*
X176590427Y-96100722D01*
X176619047Y-96062822D01*
X176675153Y-96021187D01*
X176744865Y-96016494D01*
X176806048Y-96050236D01*
X176816946Y-96062814D01*
X176845573Y-96100722D01*
X177006568Y-96247488D01*
X177006575Y-96247492D01*
X177006576Y-96247493D01*
X177191786Y-96362170D01*
X177191792Y-96362173D01*
X177191960Y-96362238D01*
X177394931Y-96440870D01*
X177609074Y-96480900D01*
X177609076Y-96480900D01*
X177826924Y-96480900D01*
X177826926Y-96480900D01*
X178041069Y-96440870D01*
X178244210Y-96362172D01*
X178429432Y-96247488D01*
X178590427Y-96100722D01*
X178619047Y-96062822D01*
X178675153Y-96021187D01*
X178744865Y-96016494D01*
X178806048Y-96050236D01*
X178816946Y-96062814D01*
X178845573Y-96100722D01*
X179006568Y-96247488D01*
X179033776Y-96264334D01*
X179080412Y-96316360D01*
X179092500Y-96369761D01*
X179092500Y-96704206D01*
X179114491Y-96814768D01*
X179114492Y-96814772D01*
X179114491Y-96814772D01*
X179116535Y-96825049D01*
X179116536Y-96825052D01*
X179163685Y-96938881D01*
X179163687Y-96938885D01*
X179163688Y-96938886D01*
X179170613Y-96949249D01*
X179170616Y-96949259D01*
X179170619Y-96949258D01*
X179232141Y-97041332D01*
X179232144Y-97041336D01*
X179323586Y-97132778D01*
X179323608Y-97132798D01*
X180299816Y-98109006D01*
X180299845Y-98109037D01*
X180390063Y-98199255D01*
X180390071Y-98199261D01*
X180465757Y-98249833D01*
X180465758Y-98249833D01*
X180492515Y-98267712D01*
X180559196Y-98295331D01*
X180559198Y-98295333D01*
X180599440Y-98312001D01*
X180606348Y-98314863D01*
X180666771Y-98326881D01*
X180727193Y-98338900D01*
X184350407Y-98338900D01*
X184410829Y-98326881D01*
X184471252Y-98314863D01*
X184471255Y-98314861D01*
X184471258Y-98314861D01*
X184504587Y-98301054D01*
X184504586Y-98301054D01*
X184504592Y-98301052D01*
X184585086Y-98267712D01*
X184636309Y-98233484D01*
X184687533Y-98199258D01*
X184774658Y-98112133D01*
X184774659Y-98112131D01*
X184781725Y-98105065D01*
X184781728Y-98105061D01*
X185937529Y-96949260D01*
X185937533Y-96949258D01*
X186024658Y-96862133D01*
X186093111Y-96759686D01*
X186093112Y-96759685D01*
X186120732Y-96693003D01*
X186127375Y-96676967D01*
X186140261Y-96645856D01*
X186140263Y-96645852D01*
X186164300Y-96525006D01*
X186164300Y-94422111D01*
X203828300Y-94422111D01*
X203828300Y-94664688D01*
X203859961Y-94905185D01*
X203922747Y-95139504D01*
X203939653Y-95180318D01*
X204015576Y-95363612D01*
X204136864Y-95573689D01*
X204136866Y-95573692D01*
X204136867Y-95573693D01*
X204284533Y-95766136D01*
X204284539Y-95766143D01*
X204456056Y-95937660D01*
X204456063Y-95937666D01*
X204563585Y-96020170D01*
X204648511Y-96085336D01*
X204858588Y-96206624D01*
X205082700Y-96299454D01*
X205317011Y-96362238D01*
X205465116Y-96381736D01*
X205557511Y-96393900D01*
X205557512Y-96393900D01*
X205800089Y-96393900D01*
X205879009Y-96383510D01*
X206040589Y-96362238D01*
X206274900Y-96299454D01*
X206499012Y-96206624D01*
X206709089Y-96085336D01*
X206901538Y-95937665D01*
X207073065Y-95766138D01*
X207220736Y-95573689D01*
X207342024Y-95363612D01*
X207434854Y-95139500D01*
X207497638Y-94905189D01*
X207529300Y-94664688D01*
X207529300Y-94422112D01*
X207497638Y-94181611D01*
X207434854Y-93947300D01*
X207342024Y-93723188D01*
X207220736Y-93513111D01*
X207101762Y-93358061D01*
X207073066Y-93320663D01*
X207073060Y-93320656D01*
X206901543Y-93149139D01*
X206901536Y-93149133D01*
X206709093Y-93001467D01*
X206709092Y-93001466D01*
X206709089Y-93001464D01*
X206499012Y-92880176D01*
X206496460Y-92879119D01*
X206274904Y-92787347D01*
X206040585Y-92724561D01*
X205800089Y-92692900D01*
X205800088Y-92692900D01*
X205557512Y-92692900D01*
X205557511Y-92692900D01*
X205317014Y-92724561D01*
X205082695Y-92787347D01*
X204858594Y-92880173D01*
X204858585Y-92880177D01*
X204648506Y-93001467D01*
X204456063Y-93149133D01*
X204456056Y-93149139D01*
X204284539Y-93320656D01*
X204284533Y-93320663D01*
X204136867Y-93513106D01*
X204136864Y-93513110D01*
X204136864Y-93513111D01*
X204120617Y-93541251D01*
X204015577Y-93723185D01*
X204015573Y-93723194D01*
X203922747Y-93947295D01*
X203859961Y-94181614D01*
X203828300Y-94422111D01*
X186164300Y-94422111D01*
X186164300Y-79523852D01*
X186183985Y-79456813D01*
X186200619Y-79436171D01*
X186941571Y-78695219D01*
X187002894Y-78661734D01*
X187029252Y-78658900D01*
X193024373Y-78658900D01*
X193091412Y-78678585D01*
X193125948Y-78711777D01*
X193261101Y-78904796D01*
X193261106Y-78904802D01*
X193383030Y-79026726D01*
X193416515Y-79088049D01*
X193411531Y-79157741D01*
X193369659Y-79213674D01*
X193338683Y-79230589D01*
X193207269Y-79279603D01*
X193207264Y-79279606D01*
X193092055Y-79365852D01*
X193092052Y-79365855D01*
X193005806Y-79481064D01*
X193005802Y-79481071D01*
X192955508Y-79615917D01*
X192949101Y-79675516D01*
X192949100Y-79675535D01*
X192949100Y-81471270D01*
X192949101Y-81471276D01*
X192955508Y-81530883D01*
X193005802Y-81665728D01*
X193005806Y-81665735D01*
X193092052Y-81780944D01*
X193092055Y-81780947D01*
X193207264Y-81867193D01*
X193207271Y-81867197D01*
X193342117Y-81917491D01*
X193342116Y-81917491D01*
X193349044Y-81918235D01*
X193401727Y-81923900D01*
X195197472Y-81923899D01*
X195257083Y-81917491D01*
X195391931Y-81867196D01*
X195507146Y-81780946D01*
X195593396Y-81665731D01*
X195642410Y-81534316D01*
X195684281Y-81478384D01*
X195749745Y-81453966D01*
X195818018Y-81468817D01*
X195846273Y-81489969D01*
X195968199Y-81611895D01*
X196064984Y-81679665D01*
X196161765Y-81747432D01*
X196161767Y-81747433D01*
X196161770Y-81747435D01*
X196375937Y-81847303D01*
X196604192Y-81908463D01*
X196780634Y-81923900D01*
X196839599Y-81929059D01*
X196839600Y-81929059D01*
X196839601Y-81929059D01*
X196898566Y-81923900D01*
X197075008Y-81908463D01*
X197303263Y-81847303D01*
X197517430Y-81747435D01*
X197711001Y-81611895D01*
X197878095Y-81444801D01*
X198013635Y-81251230D01*
X198113503Y-81037063D01*
X198174663Y-80808808D01*
X198195259Y-80573400D01*
X198195136Y-80571999D01*
X198174663Y-80337996D01*
X198174663Y-80337992D01*
X198113503Y-80109737D01*
X198013635Y-79895571D01*
X198012654Y-79894169D01*
X197878094Y-79701997D01*
X197711002Y-79534906D01*
X197710996Y-79534901D01*
X197525442Y-79404975D01*
X197481817Y-79350398D01*
X197474623Y-79280900D01*
X197506146Y-79218545D01*
X197525442Y-79201825D01*
X197561717Y-79176425D01*
X197711001Y-79071895D01*
X197878095Y-78904801D01*
X198013635Y-78711230D01*
X198113503Y-78497063D01*
X198174663Y-78268808D01*
X198195259Y-78033400D01*
X198195136Y-78031999D01*
X198174663Y-77797996D01*
X198174663Y-77797992D01*
X198113503Y-77569737D01*
X198013635Y-77355571D01*
X198013252Y-77355023D01*
X197878094Y-77161997D01*
X197711002Y-76994906D01*
X197710996Y-76994901D01*
X197525442Y-76864975D01*
X197481817Y-76810398D01*
X197474623Y-76740900D01*
X197506146Y-76678545D01*
X197525442Y-76661825D01*
X197563078Y-76635472D01*
X197711001Y-76531895D01*
X197878095Y-76364801D01*
X198013635Y-76171230D01*
X198113503Y-75957063D01*
X198174663Y-75728808D01*
X198195259Y-75493400D01*
X198195136Y-75491999D01*
X198174663Y-75257996D01*
X198174663Y-75257992D01*
X198113503Y-75029737D01*
X198013635Y-74815571D01*
X198012654Y-74814169D01*
X197878094Y-74621997D01*
X197711002Y-74454906D01*
X197710996Y-74454901D01*
X197525442Y-74324975D01*
X197481817Y-74270398D01*
X197474623Y-74200900D01*
X197506146Y-74138545D01*
X197525442Y-74121825D01*
X197607072Y-74064667D01*
X197711001Y-73991895D01*
X197878095Y-73824801D01*
X198013635Y-73631230D01*
X198113503Y-73417063D01*
X198174663Y-73188808D01*
X198195259Y-72953400D01*
X198195136Y-72951999D01*
X198178311Y-72759686D01*
X198174663Y-72717992D01*
X198113503Y-72489737D01*
X198013635Y-72275571D01*
X198012654Y-72274169D01*
X197878094Y-72081997D01*
X197711002Y-71914906D01*
X197710996Y-71914901D01*
X197525442Y-71784975D01*
X197481817Y-71730398D01*
X197474623Y-71660900D01*
X197506146Y-71598545D01*
X197525442Y-71581825D01*
X197606592Y-71525003D01*
X197711001Y-71451895D01*
X197878095Y-71284801D01*
X198013635Y-71091230D01*
X198113503Y-70877063D01*
X198174663Y-70648808D01*
X198195259Y-70413400D01*
X198195136Y-70411999D01*
X198178337Y-70219986D01*
X198174663Y-70177992D01*
X198113503Y-69949737D01*
X198013635Y-69735571D01*
X198012654Y-69734169D01*
X197878094Y-69541997D01*
X197711002Y-69374906D01*
X197710996Y-69374901D01*
X197525442Y-69244975D01*
X197481817Y-69190398D01*
X197474623Y-69120900D01*
X197506146Y-69058545D01*
X197525442Y-69041825D01*
X197561717Y-69016425D01*
X197711001Y-68911895D01*
X197878095Y-68744801D01*
X198013635Y-68551230D01*
X198113503Y-68337063D01*
X198174663Y-68108808D01*
X198195259Y-67873400D01*
X198195136Y-67871999D01*
X198174663Y-67637996D01*
X198174663Y-67637992D01*
X198113503Y-67409737D01*
X198013635Y-67195571D01*
X198012654Y-67194169D01*
X197878094Y-67001997D01*
X197711002Y-66834906D01*
X197710996Y-66834901D01*
X197525442Y-66704975D01*
X197481817Y-66650398D01*
X197474623Y-66580900D01*
X197506146Y-66518545D01*
X197525442Y-66501825D01*
X197561717Y-66476425D01*
X197711001Y-66371895D01*
X197878095Y-66204801D01*
X198013635Y-66011230D01*
X198113503Y-65797063D01*
X198174663Y-65568808D01*
X198195259Y-65333400D01*
X198174663Y-65097992D01*
X198113503Y-64869737D01*
X198013635Y-64655571D01*
X198008025Y-64647558D01*
X197878094Y-64461997D01*
X197711002Y-64294906D01*
X197710996Y-64294901D01*
X197525442Y-64164975D01*
X197481817Y-64110398D01*
X197474623Y-64040900D01*
X197506146Y-63978545D01*
X197525442Y-63961825D01*
X197561717Y-63936425D01*
X197711001Y-63831895D01*
X197878095Y-63664801D01*
X198013635Y-63471230D01*
X198113503Y-63257063D01*
X198174663Y-63028808D01*
X198195259Y-62793400D01*
X198174663Y-62557992D01*
X198113503Y-62329737D01*
X198013635Y-62115571D01*
X198008025Y-62107558D01*
X197878094Y-61921997D01*
X197711002Y-61754906D01*
X197710995Y-61754901D01*
X197674727Y-61729506D01*
X197672121Y-61727681D01*
X197517434Y-61619367D01*
X197517430Y-61619365D01*
X197494291Y-61608575D01*
X197303263Y-61519497D01*
X197303259Y-61519496D01*
X197303255Y-61519494D01*
X197075013Y-61458338D01*
X197075003Y-61458336D01*
X196839601Y-61437741D01*
X196839599Y-61437741D01*
X196604196Y-61458336D01*
X196604186Y-61458338D01*
X196375944Y-61519494D01*
X196375935Y-61519498D01*
X196161771Y-61619364D01*
X196161769Y-61619365D01*
X195968197Y-61754905D01*
X195801105Y-61921997D01*
X195671175Y-62107558D01*
X195616598Y-62151183D01*
X195547100Y-62158377D01*
X195484745Y-62126854D01*
X195468025Y-62107558D01*
X195338094Y-61921997D01*
X195171002Y-61754906D01*
X195170995Y-61754901D01*
X195134727Y-61729506D01*
X195132121Y-61727681D01*
X194977434Y-61619367D01*
X194977430Y-61619365D01*
X194954291Y-61608575D01*
X194763263Y-61519497D01*
X194763259Y-61519496D01*
X194763255Y-61519494D01*
X194535013Y-61458338D01*
X194535003Y-61458336D01*
X194299601Y-61437741D01*
X194299599Y-61437741D01*
X194064196Y-61458336D01*
X194064186Y-61458338D01*
X193835944Y-61519494D01*
X193835935Y-61519498D01*
X193621771Y-61619364D01*
X193621769Y-61619365D01*
X193428197Y-61754905D01*
X193261105Y-61921997D01*
X193125565Y-62115569D01*
X193125564Y-62115571D01*
X193025698Y-62329735D01*
X193025694Y-62329744D01*
X192964538Y-62557986D01*
X192964536Y-62557996D01*
X192943941Y-62793399D01*
X192943941Y-62793400D01*
X192964536Y-63028803D01*
X192964538Y-63028813D01*
X193025694Y-63257055D01*
X193025696Y-63257059D01*
X193025697Y-63257063D01*
X193111946Y-63442023D01*
X193125565Y-63471230D01*
X193125567Y-63471234D01*
X193233881Y-63625921D01*
X193261101Y-63664796D01*
X193261106Y-63664802D01*
X193428197Y-63831893D01*
X193428203Y-63831898D01*
X193613758Y-63961825D01*
X193657383Y-64016402D01*
X193664577Y-64085900D01*
X193633054Y-64148255D01*
X193613758Y-64164975D01*
X193428197Y-64294905D01*
X193261105Y-64461997D01*
X193125565Y-64655569D01*
X193125564Y-64655571D01*
X193025698Y-64869735D01*
X193025694Y-64869744D01*
X192964538Y-65097986D01*
X192964536Y-65097996D01*
X192943941Y-65333399D01*
X192943941Y-65333400D01*
X192964536Y-65568803D01*
X192964538Y-65568813D01*
X193025694Y-65797055D01*
X193025696Y-65797059D01*
X193025697Y-65797063D01*
X193097114Y-65950217D01*
X193125565Y-66011230D01*
X193125567Y-66011234D01*
X193233881Y-66165921D01*
X193261101Y-66204796D01*
X193261106Y-66204802D01*
X193428197Y-66371893D01*
X193428203Y-66371898D01*
X193613758Y-66501825D01*
X193657383Y-66556402D01*
X193664577Y-66625900D01*
X193633054Y-66688255D01*
X193613758Y-66704975D01*
X193428197Y-66834905D01*
X193261105Y-67001997D01*
X193125565Y-67195569D01*
X193125564Y-67195571D01*
X193025698Y-67409735D01*
X193025694Y-67409744D01*
X192964538Y-67637986D01*
X192964536Y-67637996D01*
X192943941Y-67873399D01*
X192943941Y-67873400D01*
X192964536Y-68108803D01*
X192964538Y-68108813D01*
X193025694Y-68337055D01*
X193025696Y-68337059D01*
X193025697Y-68337063D01*
X193097114Y-68490217D01*
X193125565Y-68551230D01*
X193125567Y-68551234D01*
X193233881Y-68705921D01*
X193261101Y-68744796D01*
X193261106Y-68744802D01*
X193428197Y-68911893D01*
X193428203Y-68911898D01*
X193613758Y-69041825D01*
X193657383Y-69096402D01*
X193664577Y-69165900D01*
X193633054Y-69228255D01*
X193613758Y-69244975D01*
X193428197Y-69374905D01*
X193261105Y-69541997D01*
X193125565Y-69735569D01*
X193125564Y-69735571D01*
X193025698Y-69949735D01*
X193025694Y-69949744D01*
X192964538Y-70177986D01*
X192964536Y-70177996D01*
X192943941Y-70413399D01*
X192943941Y-70413400D01*
X192964536Y-70648803D01*
X192964538Y-70648813D01*
X193025694Y-70877055D01*
X193025696Y-70877059D01*
X193025697Y-70877063D01*
X193097114Y-71030217D01*
X193125565Y-71091230D01*
X193125567Y-71091234D01*
X193215721Y-71219986D01*
X193261101Y-71284796D01*
X193261106Y-71284802D01*
X193428197Y-71451893D01*
X193428203Y-71451898D01*
X193613758Y-71581825D01*
X193657383Y-71636402D01*
X193664577Y-71705900D01*
X193633054Y-71768255D01*
X193613758Y-71784975D01*
X193428197Y-71914905D01*
X193261105Y-72081997D01*
X193125565Y-72275569D01*
X193125564Y-72275571D01*
X193025698Y-72489735D01*
X193025694Y-72489744D01*
X192964538Y-72717986D01*
X192964536Y-72717996D01*
X192943941Y-72953399D01*
X192943941Y-72953400D01*
X192964536Y-73188803D01*
X192964538Y-73188813D01*
X193025694Y-73417055D01*
X193025696Y-73417059D01*
X193025697Y-73417063D01*
X193097114Y-73570217D01*
X193125565Y-73631230D01*
X193125567Y-73631234D01*
X193135803Y-73645852D01*
X193261101Y-73824796D01*
X193261106Y-73824802D01*
X193428197Y-73991893D01*
X193428203Y-73991898D01*
X193613758Y-74121825D01*
X193657383Y-74176402D01*
X193664577Y-74245900D01*
X193633054Y-74308255D01*
X193613758Y-74324975D01*
X193428197Y-74454905D01*
X193261105Y-74621997D01*
X193125565Y-74815569D01*
X193125564Y-74815571D01*
X193025698Y-75029735D01*
X193025694Y-75029744D01*
X192964538Y-75257986D01*
X192964536Y-75257996D01*
X192943941Y-75493399D01*
X192943941Y-75493400D01*
X192964536Y-75728803D01*
X192964538Y-75728813D01*
X193025694Y-75957055D01*
X193025696Y-75957059D01*
X193025697Y-75957063D01*
X193097114Y-76110217D01*
X193125565Y-76171230D01*
X193125567Y-76171234D01*
X193197421Y-76273851D01*
X193261101Y-76364796D01*
X193261106Y-76364802D01*
X193428197Y-76531893D01*
X193428203Y-76531898D01*
X193613758Y-76661825D01*
X193657383Y-76716402D01*
X193664577Y-76785900D01*
X193633054Y-76848255D01*
X193613758Y-76864975D01*
X193428197Y-76994905D01*
X193261105Y-77161997D01*
X193125948Y-77355023D01*
X193071371Y-77398648D01*
X193024373Y-77407900D01*
X186657189Y-77407900D01*
X186596771Y-77419918D01*
X186559059Y-77427419D01*
X186536350Y-77431936D01*
X186536348Y-77431937D01*
X186503007Y-77445747D01*
X186422519Y-77479084D01*
X186422505Y-77479092D01*
X186320072Y-77547538D01*
X186320064Y-77547544D01*
X185052944Y-78814664D01*
X185052938Y-78814672D01*
X184984492Y-78917105D01*
X184984489Y-78917111D01*
X184984488Y-78917114D01*
X184952620Y-78994051D01*
X184949607Y-79001325D01*
X184937337Y-79030945D01*
X184937335Y-79030953D01*
X184913300Y-79151789D01*
X184913300Y-96152948D01*
X184893615Y-96219987D01*
X184876981Y-96240629D01*
X184066029Y-97051581D01*
X184004706Y-97085066D01*
X183978348Y-97087900D01*
X181099252Y-97087900D01*
X181032213Y-97068215D01*
X181011571Y-97051581D01*
X180403049Y-96443059D01*
X180369564Y-96381736D01*
X180374548Y-96312044D01*
X180416420Y-96256111D01*
X180425438Y-96249960D01*
X180429432Y-96247488D01*
X180590427Y-96100722D01*
X180619359Y-96062409D01*
X180675465Y-96020773D01*
X180745177Y-96016080D01*
X180806360Y-96049821D01*
X180817267Y-96062409D01*
X180845942Y-96100381D01*
X180845949Y-96100389D01*
X181006868Y-96247085D01*
X181192012Y-96361722D01*
X181192023Y-96361727D01*
X181395060Y-96440384D01*
X181468000Y-96454019D01*
X181468000Y-95621086D01*
X181472394Y-95625480D01*
X181563606Y-95678141D01*
X181665339Y-95705400D01*
X181770661Y-95705400D01*
X181872394Y-95678141D01*
X181963606Y-95625480D01*
X181968000Y-95621086D01*
X181968000Y-96454019D01*
X182040939Y-96440384D01*
X182243976Y-96361727D01*
X182243987Y-96361722D01*
X182429130Y-96247085D01*
X182429131Y-96247085D01*
X182590054Y-96100385D01*
X182721284Y-95926608D01*
X182818348Y-95731680D01*
X182868505Y-95555400D01*
X182033686Y-95555400D01*
X182038080Y-95551006D01*
X182090741Y-95459794D01*
X182118000Y-95358061D01*
X182118000Y-95252739D01*
X182090741Y-95151006D01*
X182038080Y-95059794D01*
X182033686Y-95055400D01*
X182868505Y-95055400D01*
X182868505Y-95055399D01*
X182818348Y-94879119D01*
X182721284Y-94684191D01*
X182590056Y-94510417D01*
X182465684Y-94397038D01*
X182429403Y-94337327D01*
X182431163Y-94267479D01*
X182465684Y-94213762D01*
X182590056Y-94100382D01*
X182721284Y-93926608D01*
X182818348Y-93731680D01*
X182868505Y-93555400D01*
X182033686Y-93555400D01*
X182038080Y-93551006D01*
X182090741Y-93459794D01*
X182118000Y-93358061D01*
X182118000Y-93252739D01*
X182090741Y-93151006D01*
X182038080Y-93059794D01*
X182033686Y-93055400D01*
X182868505Y-93055400D01*
X182868505Y-93055399D01*
X182818348Y-92879119D01*
X182721284Y-92684191D01*
X182590054Y-92510414D01*
X182429131Y-92363714D01*
X182243987Y-92249077D01*
X182243985Y-92249076D01*
X182040931Y-92170413D01*
X182040921Y-92170410D01*
X181968001Y-92156778D01*
X181968000Y-92156779D01*
X181968000Y-92989714D01*
X181963606Y-92985320D01*
X181872394Y-92932659D01*
X181770661Y-92905400D01*
X181665339Y-92905400D01*
X181563606Y-92932659D01*
X181472394Y-92985320D01*
X181468000Y-92989714D01*
X181468000Y-92156779D01*
X181467998Y-92156778D01*
X181395078Y-92170410D01*
X181395068Y-92170413D01*
X181192014Y-92249076D01*
X181192012Y-92249077D01*
X181006869Y-92363714D01*
X181006868Y-92363714D01*
X180845945Y-92510414D01*
X180817267Y-92548390D01*
X180761157Y-92590026D01*
X180691445Y-92594717D01*
X180630264Y-92560975D01*
X180619359Y-92548390D01*
X180610547Y-92536721D01*
X180590427Y-92510078D01*
X180563016Y-92485090D01*
X180473996Y-92403937D01*
X180429432Y-92363312D01*
X180429428Y-92363309D01*
X180429423Y-92363306D01*
X180244213Y-92248629D01*
X180244207Y-92248626D01*
X180135182Y-92206390D01*
X180041069Y-92169930D01*
X179826926Y-92129900D01*
X179609074Y-92129900D01*
X179394931Y-92169930D01*
X179366571Y-92180917D01*
X179191792Y-92248626D01*
X179191786Y-92248629D01*
X179006576Y-92363306D01*
X179006566Y-92363313D01*
X178845573Y-92510076D01*
X178816953Y-92547976D01*
X178760844Y-92589611D01*
X178691132Y-92594302D01*
X178629950Y-92560559D01*
X178619047Y-92547976D01*
X178590426Y-92510076D01*
X178429433Y-92363313D01*
X178429423Y-92363306D01*
X178244213Y-92248629D01*
X178244207Y-92248626D01*
X178135182Y-92206390D01*
X178041069Y-92169930D01*
X177826926Y-92129900D01*
X177609074Y-92129900D01*
X177394931Y-92169930D01*
X177366571Y-92180917D01*
X177191792Y-92248626D01*
X177191786Y-92248629D01*
X177006576Y-92363306D01*
X177006566Y-92363313D01*
X176845573Y-92510076D01*
X176816953Y-92547976D01*
X176760844Y-92589611D01*
X176691132Y-92594302D01*
X176629950Y-92560559D01*
X176619047Y-92547976D01*
X176590426Y-92510076D01*
X176429432Y-92363312D01*
X176429431Y-92363311D01*
X176402221Y-92346463D01*
X176355586Y-92294435D01*
X176343500Y-92241037D01*
X176343500Y-76844652D01*
X176363185Y-76777613D01*
X176379819Y-76756971D01*
X179524649Y-73612142D01*
X179524649Y-73612141D01*
X179524657Y-73612134D01*
X179528870Y-73605830D01*
X179593111Y-73509686D01*
X179640263Y-73395852D01*
X179664300Y-73275006D01*
X179664300Y-50023852D01*
X179683985Y-49956813D01*
X179700619Y-49936171D01*
X180151571Y-49485219D01*
X180212894Y-49451734D01*
X180239252Y-49448900D01*
X193024373Y-49448900D01*
X193091412Y-49468585D01*
X193125948Y-49501777D01*
X193261101Y-49694796D01*
X193261106Y-49694802D01*
X193428197Y-49861893D01*
X193428203Y-49861898D01*
X193613758Y-49991825D01*
X193657383Y-50046402D01*
X193664577Y-50115900D01*
X193633054Y-50178255D01*
X193613758Y-50194975D01*
X193428197Y-50324905D01*
X193261105Y-50491997D01*
X193125565Y-50685569D01*
X193125564Y-50685571D01*
X193025698Y-50899735D01*
X193025694Y-50899744D01*
X192964538Y-51127986D01*
X192964536Y-51127996D01*
X192943941Y-51363399D01*
X192943941Y-51363400D01*
X192964536Y-51598803D01*
X192964538Y-51598813D01*
X193025694Y-51827055D01*
X193025696Y-51827059D01*
X193025697Y-51827063D01*
X193091962Y-51969169D01*
X193125565Y-52041230D01*
X193125567Y-52041234D01*
X193198202Y-52144967D01*
X193261101Y-52234796D01*
X193261106Y-52234802D01*
X193428197Y-52401893D01*
X193428203Y-52401898D01*
X193613758Y-52531825D01*
X193657383Y-52586402D01*
X193664577Y-52655900D01*
X193633054Y-52718255D01*
X193613758Y-52734975D01*
X193428197Y-52864905D01*
X193261105Y-53031997D01*
X193125565Y-53225569D01*
X193125564Y-53225571D01*
X193025698Y-53439735D01*
X193025694Y-53439744D01*
X192964538Y-53667986D01*
X192964536Y-53667996D01*
X192943941Y-53903399D01*
X192943941Y-53903400D01*
X192964536Y-54138803D01*
X192964538Y-54138813D01*
X193025694Y-54367055D01*
X193025696Y-54367059D01*
X193025697Y-54367063D01*
X193108958Y-54545617D01*
X193125565Y-54581230D01*
X193125567Y-54581234D01*
X193219209Y-54714967D01*
X193261101Y-54774796D01*
X193261106Y-54774802D01*
X193428197Y-54941893D01*
X193428203Y-54941898D01*
X193613758Y-55071825D01*
X193657383Y-55126402D01*
X193664577Y-55195900D01*
X193633054Y-55258255D01*
X193613758Y-55274975D01*
X193428197Y-55404905D01*
X193261105Y-55571997D01*
X193125565Y-55765569D01*
X193125564Y-55765571D01*
X193025698Y-55979735D01*
X193025694Y-55979744D01*
X192964538Y-56207986D01*
X192964536Y-56207996D01*
X192943941Y-56443399D01*
X192943941Y-56443400D01*
X192964536Y-56678803D01*
X192964538Y-56678813D01*
X193025694Y-56907055D01*
X193025696Y-56907059D01*
X193025697Y-56907063D01*
X193097428Y-57060890D01*
X193125565Y-57121230D01*
X193125567Y-57121234D01*
X193225193Y-57263513D01*
X193261101Y-57314796D01*
X193261106Y-57314802D01*
X193383030Y-57436726D01*
X193416515Y-57498049D01*
X193411531Y-57567741D01*
X193369659Y-57623674D01*
X193338683Y-57640589D01*
X193207269Y-57689603D01*
X193207264Y-57689606D01*
X193092055Y-57775852D01*
X193092052Y-57775855D01*
X193005806Y-57891064D01*
X193005802Y-57891071D01*
X192955508Y-58025917D01*
X192949101Y-58085516D01*
X192949100Y-58085535D01*
X192949100Y-59881270D01*
X192949101Y-59881276D01*
X192955508Y-59940883D01*
X193005802Y-60075728D01*
X193005806Y-60075735D01*
X193092052Y-60190944D01*
X193092055Y-60190947D01*
X193207264Y-60277193D01*
X193207271Y-60277197D01*
X193342117Y-60327491D01*
X193342116Y-60327491D01*
X193349044Y-60328235D01*
X193401727Y-60333900D01*
X195197472Y-60333899D01*
X195257083Y-60327491D01*
X195391931Y-60277196D01*
X195507146Y-60190946D01*
X195593396Y-60075731D01*
X195642410Y-59944316D01*
X195684281Y-59888384D01*
X195749745Y-59863966D01*
X195818018Y-59878817D01*
X195846273Y-59899969D01*
X195968199Y-60021895D01*
X196064984Y-60089665D01*
X196161765Y-60157432D01*
X196161767Y-60157433D01*
X196161770Y-60157435D01*
X196375937Y-60257303D01*
X196604192Y-60318463D01*
X196780634Y-60333900D01*
X196839599Y-60339059D01*
X196839600Y-60339059D01*
X196839601Y-60339059D01*
X196898566Y-60333900D01*
X197075008Y-60318463D01*
X197303263Y-60257303D01*
X197517430Y-60157435D01*
X197711001Y-60021895D01*
X197878095Y-59854801D01*
X198013635Y-59661230D01*
X198113503Y-59447063D01*
X198174663Y-59218808D01*
X198195259Y-58983400D01*
X198174663Y-58747992D01*
X198113503Y-58519737D01*
X198013635Y-58305571D01*
X197997398Y-58282381D01*
X197878094Y-58111997D01*
X197711002Y-57944906D01*
X197710996Y-57944901D01*
X197525442Y-57814975D01*
X197481817Y-57760398D01*
X197474623Y-57690900D01*
X197506146Y-57628545D01*
X197525442Y-57611825D01*
X197657311Y-57519489D01*
X197711001Y-57481895D01*
X197878095Y-57314801D01*
X198013635Y-57121230D01*
X198113503Y-56907063D01*
X198174663Y-56678808D01*
X198195259Y-56443400D01*
X198174663Y-56207992D01*
X198113503Y-55979737D01*
X198013635Y-55765571D01*
X198008025Y-55757558D01*
X197878094Y-55571997D01*
X197711002Y-55404906D01*
X197710996Y-55404901D01*
X197525442Y-55274975D01*
X197481817Y-55220398D01*
X197474623Y-55150900D01*
X197506146Y-55088545D01*
X197525442Y-55071825D01*
X197547626Y-55056291D01*
X197711001Y-54941895D01*
X197878095Y-54774801D01*
X198013635Y-54581230D01*
X198113503Y-54367063D01*
X198174663Y-54138808D01*
X198195259Y-53903400D01*
X198174663Y-53667992D01*
X198119700Y-53462865D01*
X198113505Y-53439744D01*
X198113504Y-53439743D01*
X198113503Y-53439737D01*
X198013635Y-53225571D01*
X198008025Y-53217558D01*
X197878094Y-53031997D01*
X197711002Y-52864906D01*
X197710996Y-52864901D01*
X197525442Y-52734975D01*
X197481817Y-52680398D01*
X197474623Y-52610900D01*
X197506146Y-52548545D01*
X197525442Y-52531825D01*
X197623163Y-52463400D01*
X197711001Y-52401895D01*
X197878095Y-52234801D01*
X198013635Y-52041230D01*
X198113503Y-51827063D01*
X198174663Y-51598808D01*
X198195259Y-51363400D01*
X198174663Y-51127992D01*
X198113503Y-50899737D01*
X198013635Y-50685571D01*
X198008025Y-50677558D01*
X197878094Y-50491997D01*
X197711002Y-50324906D01*
X197710996Y-50324901D01*
X197525442Y-50194975D01*
X197481817Y-50140398D01*
X197474623Y-50070900D01*
X197506146Y-50008545D01*
X197525442Y-49991825D01*
X197604924Y-49936171D01*
X197711001Y-49861895D01*
X197878095Y-49694801D01*
X198013635Y-49501230D01*
X198113503Y-49287063D01*
X198174663Y-49058808D01*
X198195259Y-48823400D01*
X198174663Y-48587992D01*
X198119700Y-48382865D01*
X198113505Y-48359744D01*
X198113504Y-48359743D01*
X198113503Y-48359737D01*
X198013635Y-48145571D01*
X198013252Y-48145023D01*
X197878094Y-47951997D01*
X197711002Y-47784906D01*
X197710996Y-47784901D01*
X197525442Y-47654975D01*
X197481817Y-47600398D01*
X197474623Y-47530900D01*
X197506146Y-47468545D01*
X197525442Y-47451825D01*
X197677829Y-47345122D01*
X197711001Y-47321895D01*
X197878095Y-47154801D01*
X198013635Y-46961230D01*
X198113503Y-46747063D01*
X198174663Y-46518808D01*
X198195259Y-46283400D01*
X198174663Y-46047992D01*
X198113503Y-45819737D01*
X198013635Y-45605571D01*
X198008025Y-45597558D01*
X197878094Y-45411997D01*
X197711002Y-45244906D01*
X197711001Y-45244905D01*
X197525005Y-45114669D01*
X197481381Y-45060092D01*
X197474188Y-44990593D01*
X197505710Y-44928239D01*
X197525005Y-44911519D01*
X197710682Y-44781505D01*
X197877705Y-44614482D01*
X198013200Y-44420978D01*
X198113029Y-44206892D01*
X198113032Y-44206886D01*
X198170236Y-43993400D01*
X197272612Y-43993400D01*
X197305525Y-43936393D01*
X197339600Y-43809226D01*
X197339600Y-43677574D01*
X197305525Y-43550407D01*
X197272612Y-43493400D01*
X198170236Y-43493400D01*
X198170235Y-43493399D01*
X198113032Y-43279913D01*
X198113029Y-43279907D01*
X198013200Y-43065822D01*
X198013199Y-43065820D01*
X197877713Y-42872326D01*
X197877708Y-42872320D01*
X197710678Y-42705290D01*
X197525005Y-42575279D01*
X197481380Y-42520702D01*
X197474188Y-42451204D01*
X197505710Y-42388849D01*
X197525006Y-42372130D01*
X197525442Y-42371825D01*
X197711001Y-42241895D01*
X197878095Y-42074801D01*
X198013635Y-41881230D01*
X198113503Y-41667063D01*
X198174663Y-41438808D01*
X198195259Y-41203400D01*
X198174663Y-40967992D01*
X198113503Y-40739737D01*
X198013635Y-40525571D01*
X198008025Y-40517558D01*
X197878094Y-40331997D01*
X197711002Y-40164906D01*
X197710996Y-40164901D01*
X197525442Y-40034975D01*
X197481817Y-39980398D01*
X197474623Y-39910900D01*
X197506146Y-39848545D01*
X197525442Y-39831825D01*
X197547626Y-39816291D01*
X197711001Y-39701895D01*
X197878095Y-39534801D01*
X198013635Y-39341230D01*
X198113503Y-39127063D01*
X198174663Y-38898808D01*
X198195259Y-38663400D01*
X198174663Y-38427992D01*
X198113503Y-38199737D01*
X198013635Y-37985571D01*
X198008025Y-37977558D01*
X197878094Y-37791997D01*
X197711002Y-37624906D01*
X197710996Y-37624901D01*
X197525442Y-37494975D01*
X197481817Y-37440398D01*
X197474623Y-37370900D01*
X197506146Y-37308545D01*
X197525442Y-37291825D01*
X197547626Y-37276291D01*
X197711001Y-37161895D01*
X197878095Y-36994801D01*
X198013635Y-36801230D01*
X198113503Y-36587063D01*
X198174663Y-36358808D01*
X198195259Y-36123400D01*
X198174663Y-35887992D01*
X198113503Y-35659737D01*
X198013635Y-35445571D01*
X198008025Y-35437558D01*
X197878094Y-35251997D01*
X197711002Y-35084906D01*
X197710995Y-35084901D01*
X197517434Y-34949367D01*
X197517430Y-34949365D01*
X197517428Y-34949364D01*
X197303263Y-34849497D01*
X197303259Y-34849496D01*
X197303255Y-34849494D01*
X197075013Y-34788338D01*
X197075003Y-34788336D01*
X196839601Y-34767741D01*
X196839599Y-34767741D01*
X196604196Y-34788336D01*
X196604186Y-34788338D01*
X196375944Y-34849494D01*
X196375935Y-34849498D01*
X196161771Y-34949364D01*
X196161769Y-34949365D01*
X195968197Y-35084905D01*
X195801105Y-35251997D01*
X195671175Y-35437558D01*
X195616598Y-35481183D01*
X195547100Y-35488377D01*
X195484745Y-35456854D01*
X195468025Y-35437558D01*
X195338094Y-35251997D01*
X195171002Y-35084906D01*
X195170995Y-35084901D01*
X194977434Y-34949367D01*
X194977430Y-34949365D01*
X194977428Y-34949364D01*
X194763263Y-34849497D01*
X194763259Y-34849496D01*
X194763255Y-34849494D01*
X194535013Y-34788338D01*
X194535003Y-34788336D01*
X194299601Y-34767741D01*
X194299599Y-34767741D01*
X194064196Y-34788336D01*
X194064186Y-34788338D01*
X193835944Y-34849494D01*
X193835935Y-34849498D01*
X193621771Y-34949364D01*
X193621769Y-34949365D01*
X193428197Y-35084905D01*
X193261105Y-35251997D01*
X193125565Y-35445569D01*
X193125564Y-35445571D01*
X193025698Y-35659735D01*
X193025694Y-35659744D01*
X192964538Y-35887986D01*
X192964536Y-35887996D01*
X192943941Y-36123399D01*
X192943941Y-36123400D01*
X192964536Y-36358803D01*
X192964538Y-36358813D01*
X193025694Y-36587055D01*
X193025696Y-36587059D01*
X193025697Y-36587063D01*
X193048652Y-36636289D01*
X193125565Y-36801230D01*
X193125567Y-36801234D01*
X193233881Y-36955921D01*
X193261101Y-36994796D01*
X193261106Y-36994802D01*
X193428197Y-37161893D01*
X193428203Y-37161898D01*
X193613758Y-37291825D01*
X193657383Y-37346402D01*
X193664577Y-37415900D01*
X193633054Y-37478255D01*
X193613758Y-37494975D01*
X193428197Y-37624905D01*
X193261105Y-37791997D01*
X193125565Y-37985569D01*
X193125564Y-37985571D01*
X193025698Y-38199735D01*
X193025694Y-38199744D01*
X192964538Y-38427986D01*
X192964536Y-38427996D01*
X192943941Y-38663399D01*
X192943941Y-38663400D01*
X192964536Y-38898803D01*
X192964538Y-38898813D01*
X193025694Y-39127055D01*
X193025696Y-39127059D01*
X193025697Y-39127063D01*
X193029600Y-39135432D01*
X193125565Y-39341230D01*
X193125567Y-39341234D01*
X193233881Y-39495921D01*
X193261101Y-39534796D01*
X193261106Y-39534802D01*
X193428197Y-39701893D01*
X193428203Y-39701898D01*
X193613758Y-39831825D01*
X193657383Y-39886402D01*
X193664577Y-39955900D01*
X193633054Y-40018255D01*
X193613758Y-40034975D01*
X193428197Y-40164905D01*
X193261105Y-40331997D01*
X193125565Y-40525569D01*
X193125564Y-40525571D01*
X193025698Y-40739735D01*
X193025694Y-40739744D01*
X192964538Y-40967986D01*
X192964536Y-40967996D01*
X192943941Y-41203399D01*
X192943941Y-41203400D01*
X192964536Y-41438803D01*
X192964538Y-41438813D01*
X193025694Y-41667055D01*
X193025696Y-41667059D01*
X193025697Y-41667063D01*
X193029600Y-41675432D01*
X193125565Y-41881230D01*
X193125567Y-41881234D01*
X193233881Y-42035921D01*
X193261101Y-42074796D01*
X193261106Y-42074802D01*
X193428197Y-42241893D01*
X193428203Y-42241898D01*
X193613758Y-42371825D01*
X193657383Y-42426402D01*
X193664577Y-42495900D01*
X193633054Y-42558255D01*
X193613758Y-42574975D01*
X193428197Y-42704905D01*
X193261105Y-42871997D01*
X193125565Y-43065569D01*
X193125564Y-43065571D01*
X193025698Y-43279735D01*
X193025694Y-43279744D01*
X192964538Y-43507986D01*
X192964536Y-43507996D01*
X192943941Y-43743399D01*
X192943941Y-43743400D01*
X192964536Y-43978803D01*
X192964538Y-43978813D01*
X193025694Y-44207055D01*
X193025696Y-44207059D01*
X193025697Y-44207063D01*
X193107428Y-44382335D01*
X193125565Y-44421230D01*
X193125567Y-44421234D01*
X193204062Y-44533335D01*
X193261101Y-44614796D01*
X193261106Y-44614802D01*
X193428197Y-44781893D01*
X193428203Y-44781898D01*
X193613758Y-44911825D01*
X193657383Y-44966402D01*
X193664577Y-45035900D01*
X193633054Y-45098255D01*
X193613758Y-45114975D01*
X193428197Y-45244905D01*
X193261105Y-45411997D01*
X193125565Y-45605569D01*
X193125564Y-45605571D01*
X193025698Y-45819735D01*
X193025694Y-45819744D01*
X192964538Y-46047986D01*
X192964536Y-46047996D01*
X192943941Y-46283399D01*
X192943941Y-46283400D01*
X192964536Y-46518803D01*
X192964538Y-46518813D01*
X193025694Y-46747055D01*
X193025696Y-46747059D01*
X193025697Y-46747063D01*
X193083939Y-46871962D01*
X193125565Y-46961230D01*
X193125567Y-46961234D01*
X193181078Y-47040511D01*
X193261101Y-47154796D01*
X193261106Y-47154802D01*
X193428197Y-47321893D01*
X193428203Y-47321898D01*
X193613758Y-47451825D01*
X193657383Y-47506402D01*
X193664577Y-47575900D01*
X193633054Y-47638255D01*
X193613758Y-47654975D01*
X193428197Y-47784905D01*
X193261105Y-47951997D01*
X193125948Y-48145023D01*
X193071371Y-48188648D01*
X193024373Y-48197900D01*
X179867189Y-48197900D01*
X179806771Y-48209918D01*
X179769059Y-48217419D01*
X179746350Y-48221936D01*
X179746343Y-48221939D01*
X179713007Y-48235747D01*
X179632518Y-48269085D01*
X179632514Y-48269087D01*
X179594442Y-48294528D01*
X179594440Y-48294529D01*
X179530068Y-48337540D01*
X179507874Y-48359735D01*
X179442942Y-48424667D01*
X178552941Y-49314667D01*
X178552938Y-49314670D01*
X178542794Y-49329855D01*
X178542790Y-49329861D01*
X178494728Y-49401789D01*
X178484484Y-49417120D01*
X178463168Y-49468585D01*
X178451147Y-49497607D01*
X178449645Y-49501234D01*
X178437337Y-49530945D01*
X178437335Y-49530953D01*
X178413300Y-49651789D01*
X178413300Y-51314783D01*
X178393615Y-51381822D01*
X178340811Y-51427577D01*
X178271653Y-51437521D01*
X178238864Y-51428062D01*
X178068607Y-51352257D01*
X178068602Y-51352255D01*
X177922801Y-51321265D01*
X177883446Y-51312900D01*
X177694154Y-51312900D01*
X177661697Y-51319798D01*
X177508997Y-51352255D01*
X177508992Y-51352257D01*
X177336070Y-51429248D01*
X177336065Y-51429251D01*
X177182929Y-51540511D01*
X177056266Y-51681185D01*
X176961621Y-51845115D01*
X176961618Y-51845122D01*
X176903127Y-52025140D01*
X176903126Y-52025144D01*
X176883340Y-52213400D01*
X176903126Y-52401656D01*
X176903127Y-52401659D01*
X176961618Y-52581677D01*
X176961621Y-52581684D01*
X177056267Y-52745616D01*
X177099572Y-52793710D01*
X177131450Y-52829115D01*
X177161680Y-52892106D01*
X177163300Y-52912087D01*
X177163300Y-53719257D01*
X177143615Y-53786296D01*
X177090811Y-53832051D01*
X177021653Y-53841995D01*
X177013520Y-53840547D01*
X176883447Y-53812900D01*
X176883446Y-53812900D01*
X176694154Y-53812900D01*
X176682275Y-53815425D01*
X176508997Y-53852255D01*
X176508992Y-53852257D01*
X176336070Y-53929248D01*
X176336065Y-53929251D01*
X176182929Y-54040511D01*
X176056266Y-54181185D01*
X175961621Y-54345115D01*
X175961618Y-54345122D01*
X175904650Y-54520454D01*
X175903126Y-54525144D01*
X175883340Y-54713400D01*
X175903126Y-54901656D01*
X175903126Y-54901658D01*
X175903127Y-54901660D01*
X175907230Y-54914287D01*
X175913300Y-54952607D01*
X175913300Y-56314783D01*
X175893615Y-56381822D01*
X175840811Y-56427577D01*
X175771653Y-56437521D01*
X175738864Y-56428062D01*
X175568607Y-56352257D01*
X175568602Y-56352255D01*
X175422801Y-56321265D01*
X175383446Y-56312900D01*
X175194154Y-56312900D01*
X175161697Y-56319798D01*
X175008997Y-56352255D01*
X175008992Y-56352257D01*
X174836070Y-56429248D01*
X174836065Y-56429251D01*
X174682929Y-56540511D01*
X174556266Y-56681185D01*
X174461621Y-56845115D01*
X174461618Y-56845122D01*
X174404986Y-57019420D01*
X174403126Y-57025144D01*
X174383340Y-57213400D01*
X174403126Y-57401656D01*
X174403127Y-57401659D01*
X174461618Y-57581677D01*
X174461621Y-57581684D01*
X174556267Y-57745616D01*
X174588083Y-57780951D01*
X174631450Y-57829115D01*
X174661680Y-57892106D01*
X174663300Y-57912087D01*
X174663300Y-57969257D01*
X174643615Y-58036296D01*
X174590811Y-58082051D01*
X174521653Y-58091995D01*
X174513520Y-58090547D01*
X174383447Y-58062900D01*
X174383446Y-58062900D01*
X174194154Y-58062900D01*
X174175665Y-58066830D01*
X174008997Y-58102255D01*
X174008992Y-58102257D01*
X173836070Y-58179248D01*
X173836065Y-58179251D01*
X173682929Y-58290511D01*
X173556266Y-58431185D01*
X173461621Y-58595115D01*
X173461618Y-58595122D01*
X173406261Y-58765495D01*
X173403126Y-58775144D01*
X173383340Y-58963400D01*
X173403126Y-59151656D01*
X173403126Y-59151658D01*
X173403127Y-59151660D01*
X173407230Y-59164287D01*
X173413300Y-59202607D01*
X173413300Y-70152947D01*
X173393615Y-70219986D01*
X173376981Y-70240628D01*
X167501988Y-76115620D01*
X167461764Y-76142498D01*
X167421715Y-76159088D01*
X167421710Y-76159090D01*
X167319271Y-76227538D01*
X167319263Y-76227544D01*
X167232144Y-76314663D01*
X167232141Y-76314667D01*
X167163692Y-76417107D01*
X167163687Y-76417116D01*
X167116538Y-76530945D01*
X167116535Y-76530955D01*
X167092500Y-76651789D01*
X167092500Y-86833148D01*
X167072815Y-86900187D01*
X167020011Y-86945942D01*
X166950853Y-86955886D01*
X166887297Y-86926861D01*
X166880819Y-86920829D01*
X163450619Y-83490629D01*
X163417134Y-83429306D01*
X163414300Y-83402948D01*
X163414300Y-65901796D01*
X163414300Y-65901794D01*
X163390263Y-65780948D01*
X163376452Y-65747607D01*
X163343112Y-65667114D01*
X163308884Y-65615890D01*
X163274658Y-65564667D01*
X163274656Y-65564664D01*
X163184437Y-65474445D01*
X163184406Y-65474416D01*
X160092598Y-62382608D01*
X160092578Y-62382586D01*
X160001133Y-62291141D01*
X159949909Y-62256915D01*
X159898687Y-62222689D01*
X159898686Y-62222688D01*
X159898683Y-62222686D01*
X159898680Y-62222685D01*
X159818192Y-62189347D01*
X159784853Y-62175537D01*
X159774827Y-62173543D01*
X159724429Y-62163518D01*
X159664010Y-62151500D01*
X159664007Y-62151500D01*
X159664006Y-62151500D01*
X152403227Y-62151500D01*
X152336188Y-62131815D01*
X152301652Y-62098623D01*
X152166494Y-61905597D01*
X151999402Y-61738506D01*
X151999396Y-61738501D01*
X151813842Y-61608575D01*
X151770217Y-61553998D01*
X151763023Y-61484500D01*
X151794546Y-61422145D01*
X151813842Y-61405425D01*
X151956552Y-61305498D01*
X151999401Y-61275495D01*
X152166495Y-61108401D01*
X152302035Y-60914830D01*
X152401903Y-60700663D01*
X152463063Y-60472408D01*
X152483659Y-60237000D01*
X152463063Y-60001592D01*
X152401903Y-59773337D01*
X152302035Y-59559171D01*
X152296731Y-59551595D01*
X152166494Y-59365597D01*
X151999402Y-59198506D01*
X151999396Y-59198501D01*
X151813842Y-59068575D01*
X151770217Y-59013998D01*
X151763023Y-58944500D01*
X151794546Y-58882145D01*
X151813842Y-58865425D01*
X151956552Y-58765498D01*
X151999401Y-58735495D01*
X152166495Y-58568401D01*
X152302035Y-58374830D01*
X152401903Y-58160663D01*
X152463063Y-57932408D01*
X152483659Y-57697000D01*
X152463063Y-57461592D01*
X152401903Y-57233337D01*
X152302035Y-57019171D01*
X152296731Y-57011595D01*
X152166494Y-56825597D01*
X151999402Y-56658506D01*
X151999396Y-56658501D01*
X151813842Y-56528575D01*
X151770217Y-56473998D01*
X151763023Y-56404500D01*
X151794546Y-56342145D01*
X151813842Y-56325425D01*
X151956552Y-56225498D01*
X151999401Y-56195495D01*
X152166495Y-56028401D01*
X152302035Y-55834830D01*
X152401903Y-55620663D01*
X152463063Y-55392408D01*
X152483659Y-55157000D01*
X152483191Y-55151656D01*
X152466721Y-54963400D01*
X152463063Y-54921592D01*
X152401903Y-54693337D01*
X152302035Y-54479171D01*
X152296425Y-54471158D01*
X152166494Y-54285597D01*
X151999402Y-54118506D01*
X151999396Y-54118501D01*
X151813842Y-53988575D01*
X151770217Y-53933998D01*
X151763023Y-53864500D01*
X151794546Y-53802145D01*
X151813842Y-53785425D01*
X151836026Y-53769891D01*
X151999401Y-53655495D01*
X152166495Y-53488401D01*
X152302035Y-53294830D01*
X152401903Y-53080663D01*
X152463063Y-52852408D01*
X152483659Y-52617000D01*
X152463063Y-52381592D01*
X152401903Y-52153337D01*
X152302035Y-51939171D01*
X152296444Y-51931185D01*
X152166494Y-51745597D01*
X151999402Y-51578506D01*
X151999396Y-51578501D01*
X151813842Y-51448575D01*
X151770217Y-51393998D01*
X151763023Y-51324500D01*
X151794546Y-51262145D01*
X151813842Y-51245425D01*
X151956555Y-51145496D01*
X151999401Y-51115495D01*
X152166495Y-50948401D01*
X152302035Y-50754830D01*
X152401903Y-50540663D01*
X152463063Y-50312408D01*
X152483659Y-50077000D01*
X152463063Y-49841592D01*
X152401903Y-49613337D01*
X152302035Y-49399171D01*
X152296425Y-49391158D01*
X152166494Y-49205597D01*
X151999402Y-49038506D01*
X151999396Y-49038501D01*
X151813842Y-48908575D01*
X151770217Y-48853998D01*
X151763023Y-48784500D01*
X151794546Y-48722145D01*
X151813842Y-48705425D01*
X151956552Y-48605498D01*
X151999401Y-48575495D01*
X152166495Y-48408401D01*
X152302035Y-48214830D01*
X152401903Y-48000663D01*
X152463063Y-47772408D01*
X152483659Y-47537000D01*
X152463063Y-47301592D01*
X152401903Y-47073337D01*
X152302035Y-46859171D01*
X152296424Y-46851158D01*
X152166496Y-46665600D01*
X152166493Y-46665597D01*
X152044567Y-46543671D01*
X152011084Y-46482351D01*
X152016068Y-46412659D01*
X152057939Y-46356725D01*
X152088915Y-46339810D01*
X152220331Y-46290796D01*
X152335546Y-46204546D01*
X152421796Y-46089331D01*
X152472091Y-45954483D01*
X152478500Y-45894873D01*
X152478499Y-44099128D01*
X152472091Y-44039517D01*
X152470810Y-44036083D01*
X152421797Y-43904671D01*
X152421793Y-43904664D01*
X152335547Y-43789455D01*
X152335544Y-43789452D01*
X152220335Y-43703206D01*
X152220328Y-43703202D01*
X152085482Y-43652908D01*
X152085483Y-43652908D01*
X152025883Y-43646501D01*
X152025881Y-43646500D01*
X152025873Y-43646500D01*
X152025864Y-43646500D01*
X150230129Y-43646500D01*
X150230123Y-43646501D01*
X150170516Y-43652908D01*
X150035671Y-43703202D01*
X150035664Y-43703206D01*
X149920455Y-43789452D01*
X149920452Y-43789455D01*
X149834206Y-43904664D01*
X149834203Y-43904669D01*
X149785189Y-44036083D01*
X149743317Y-44092016D01*
X149677853Y-44116433D01*
X149609580Y-44101581D01*
X149581326Y-44080430D01*
X149459402Y-43958506D01*
X149459395Y-43958501D01*
X149265834Y-43822967D01*
X149265830Y-43822965D01*
X149236367Y-43809226D01*
X149051663Y-43723097D01*
X149051659Y-43723096D01*
X149051655Y-43723094D01*
X148823413Y-43661938D01*
X148823403Y-43661936D01*
X148588001Y-43641341D01*
X148587999Y-43641341D01*
X148352596Y-43661936D01*
X148352586Y-43661938D01*
X148124344Y-43723094D01*
X148124335Y-43723098D01*
X147910171Y-43822964D01*
X147910169Y-43822965D01*
X147716597Y-43958505D01*
X147549505Y-44125597D01*
X147413965Y-44319169D01*
X147413964Y-44319171D01*
X147314098Y-44533335D01*
X147314094Y-44533344D01*
X147252938Y-44761586D01*
X147252936Y-44761596D01*
X147232341Y-44996999D01*
X145789300Y-44996999D01*
X145789300Y-36845302D01*
X145752353Y-36612031D01*
X145680875Y-36392047D01*
X145679812Y-36388280D01*
X145679368Y-36387408D01*
X145679368Y-36387407D01*
X145572143Y-36176966D01*
X145433317Y-35985890D01*
X141766310Y-32318883D01*
X141575234Y-32180057D01*
X141364796Y-32072833D01*
X141140168Y-31999846D01*
X140906897Y-31962900D01*
X140906892Y-31962900D01*
X82406892Y-31962900D01*
X82170708Y-31962900D01*
X82170703Y-31962900D01*
X81937431Y-31999846D01*
X81712803Y-32072833D01*
X81502366Y-32180057D01*
X81418850Y-32240736D01*
X81311290Y-32318883D01*
X81311288Y-32318885D01*
X81311287Y-32318885D01*
X78644284Y-34985888D01*
X78505459Y-35176962D01*
X78505458Y-35176964D01*
X78474987Y-35236768D01*
X78398233Y-35387403D01*
X78325246Y-35612031D01*
X78288300Y-35845302D01*
X69767031Y-35845302D01*
X69764183Y-30896711D01*
X72967500Y-30896711D01*
X72967500Y-31139288D01*
X72999161Y-31379785D01*
X73061947Y-31614104D01*
X73154773Y-31838205D01*
X73154776Y-31838212D01*
X73276064Y-32048289D01*
X73276066Y-32048292D01*
X73276067Y-32048293D01*
X73423733Y-32240736D01*
X73423739Y-32240743D01*
X73595256Y-32412260D01*
X73595262Y-32412265D01*
X73787711Y-32559936D01*
X73997788Y-32681224D01*
X74221900Y-32774054D01*
X74456211Y-32836838D01*
X74636586Y-32860584D01*
X74696711Y-32868500D01*
X74696712Y-32868500D01*
X74939289Y-32868500D01*
X74987388Y-32862167D01*
X75179789Y-32836838D01*
X75414100Y-32774054D01*
X75638212Y-32681224D01*
X75848289Y-32559936D01*
X76040738Y-32412265D01*
X76212265Y-32240738D01*
X76359936Y-32048289D01*
X76481224Y-31838212D01*
X76574054Y-31614100D01*
X76636838Y-31379789D01*
X76668500Y-31139288D01*
X76668500Y-30896712D01*
X76668500Y-30896711D01*
X203815600Y-30896711D01*
X203815600Y-31139288D01*
X203847261Y-31379785D01*
X203910047Y-31614104D01*
X204002873Y-31838205D01*
X204002876Y-31838212D01*
X204124164Y-32048289D01*
X204124166Y-32048292D01*
X204124167Y-32048293D01*
X204271833Y-32240736D01*
X204271839Y-32240743D01*
X204443356Y-32412260D01*
X204443362Y-32412265D01*
X204635811Y-32559936D01*
X204845888Y-32681224D01*
X205070000Y-32774054D01*
X205304311Y-32836838D01*
X205484686Y-32860584D01*
X205544811Y-32868500D01*
X205544812Y-32868500D01*
X205787389Y-32868500D01*
X205835488Y-32862167D01*
X206027889Y-32836838D01*
X206262200Y-32774054D01*
X206486312Y-32681224D01*
X206696389Y-32559936D01*
X206888838Y-32412265D01*
X207060365Y-32240738D01*
X207208036Y-32048289D01*
X207329324Y-31838212D01*
X207422154Y-31614100D01*
X207484938Y-31379789D01*
X207516600Y-31139288D01*
X207516600Y-30896712D01*
X207484938Y-30656211D01*
X207422154Y-30421900D01*
X207329324Y-30197788D01*
X207208036Y-29987711D01*
X207060365Y-29795262D01*
X207060360Y-29795256D01*
X206888843Y-29623739D01*
X206888836Y-29623733D01*
X206696393Y-29476067D01*
X206696392Y-29476066D01*
X206696389Y-29476064D01*
X206486312Y-29354776D01*
X206486305Y-29354773D01*
X206262204Y-29261947D01*
X206027885Y-29199161D01*
X205787389Y-29167500D01*
X205787388Y-29167500D01*
X205544812Y-29167500D01*
X205544811Y-29167500D01*
X205304314Y-29199161D01*
X205069995Y-29261947D01*
X204845894Y-29354773D01*
X204845885Y-29354777D01*
X204635806Y-29476067D01*
X204443363Y-29623733D01*
X204443356Y-29623739D01*
X204271839Y-29795256D01*
X204271833Y-29795263D01*
X204124167Y-29987706D01*
X204002877Y-30197785D01*
X204002873Y-30197794D01*
X203910047Y-30421895D01*
X203847261Y-30656214D01*
X203815600Y-30896711D01*
X76668500Y-30896711D01*
X76636838Y-30656211D01*
X76574054Y-30421900D01*
X76481224Y-30197788D01*
X76359936Y-29987711D01*
X76212265Y-29795262D01*
X76212260Y-29795256D01*
X76040743Y-29623739D01*
X76040736Y-29623733D01*
X75848293Y-29476067D01*
X75848292Y-29476066D01*
X75848289Y-29476064D01*
X75638212Y-29354776D01*
X75638205Y-29354773D01*
X75414104Y-29261947D01*
X75179785Y-29199161D01*
X74939289Y-29167500D01*
X74939288Y-29167500D01*
X74696712Y-29167500D01*
X74696711Y-29167500D01*
X74456214Y-29199161D01*
X74221895Y-29261947D01*
X73997794Y-29354773D01*
X73997785Y-29354777D01*
X73787706Y-29476067D01*
X73595263Y-29623733D01*
X73595256Y-29623739D01*
X73423739Y-29795256D01*
X73423733Y-29795263D01*
X73276067Y-29987706D01*
X73154777Y-30197785D01*
X73154773Y-30197794D01*
X73061947Y-30421895D01*
X72999161Y-30656214D01*
X72967500Y-30896711D01*
X69764183Y-30896711D01*
X69762403Y-27804289D01*
X69762832Y-27793936D01*
X69773555Y-27665671D01*
X69775841Y-27650189D01*
X69831386Y-27389371D01*
X69836332Y-27372283D01*
X69928304Y-27123132D01*
X69935651Y-27106919D01*
X70062377Y-26873522D01*
X70071971Y-26858532D01*
X70230841Y-26645695D01*
X70242482Y-26632237D01*
X70430204Y-26444372D01*
X70443658Y-26432718D01*
X70656367Y-26273690D01*
X70671350Y-26264084D01*
X70904660Y-26137175D01*
X70920855Y-26129821D01*
X71169932Y-26037660D01*
X71187021Y-26032698D01*
X71447813Y-25976951D01*
X71463284Y-25974655D01*
X71591525Y-25963836D01*
X71601900Y-25963398D01*
X208975586Y-25912563D01*
X208986008Y-25913001D01*
G37*
%TD.AperFunction*%
%TD*%
M02*
