M48
; DRILL file {KiCad 8.0.8} date 2025-10-28T14:52:49+0800
; FORMAT={-:-/ absolute / metric / decimal}
; #@! TF.CreationDate,2025-10-28T14:52:49+08:00
; #@! TF.GenerationSoftware,Kicad,Pcbnew,8.0.8
; #@! TF.FileFunction,Plated,1,2,PTH
FMAT,2
METRIC
; #@! TA.AperFunction,Plated,PTH,ViaDrill
T1C0.400
; #@! TA.AperFunction,Plated,PTH,ComponentDrill
T2C0.800
; #@! TA.AperFunction,Plated,PTH,ComponentDrill
T3C1.000
%
G90
G05
T1
X84.789Y-86.463
X87.289Y-92.463
X91.789Y-68.963
X91.789Y-74.463
X91.789Y-80.463
X91.789Y-86.463
X91.789Y-92.463
X95.289Y-45.463
X95.289Y-49.963
X100.289Y-45.463
X100.289Y-49.963
X105.289Y-45.463
X105.289Y-49.963
X105.789Y-59.963
X107.789Y-57.463
X108.789Y-54.963
X110.289Y-52.463
X112.789Y-45.463
X117.789Y-45.463
X119.289Y-64.463
X119.289Y-70.463
X119.289Y-77.963
X119.289Y-83.963
X119.289Y-89.963
X122.789Y-45.463
X124.289Y-64.463
X124.289Y-70.463
X124.289Y-77.963
X124.289Y-83.963
X124.289Y-89.963
X144.289Y-48.463
X145.539Y-47.713
X156.289Y-61.713
X156.539Y-63.502
X157.289Y-70.463
X157.289Y-75.963
X157.289Y-81.963
X157.289Y-87.463
X158.789Y-44.963
X158.789Y-61.713
X158.789Y-63.502
X163.289Y-44.963
X164.039Y-82.463
X166.039Y-84.713
X167.789Y-44.963
X171.789Y-44.963
X174.289Y-58.963
X175.289Y-57.213
X175.789Y-44.963
X176.789Y-54.713
X177.789Y-52.213
X180.789Y-44.963
X183.289Y-63.963
X183.289Y-69.963
X183.289Y-75.963
X184.789Y-44.963
X188.789Y-64.463
X188.789Y-69.463
X188.789Y-73.963
X189.289Y-44.963
X189.789Y-83.463
X189.789Y-91.963
T2
X96.289Y-92.963
X96.289Y-94.963
X98.289Y-92.963
X98.289Y-94.963
X100.289Y-92.963
X100.289Y-94.963
X102.289Y-92.963
X102.289Y-94.963
X104.289Y-92.963
X104.289Y-94.963
X106.289Y-92.963
X106.289Y-94.963
X108.289Y-92.963
X108.289Y-94.963
X110.289Y-92.963
X110.289Y-94.963
X112.289Y-92.963
X112.289Y-94.963
X114.289Y-92.963
X114.289Y-94.963
X163.718Y-93.305
X163.718Y-95.305
X165.718Y-93.305
X165.718Y-95.305
X167.718Y-93.305
X167.718Y-95.305
X169.718Y-93.305
X169.718Y-95.305
X171.718Y-93.305
X171.718Y-95.305
X173.718Y-93.305
X173.718Y-95.305
X175.718Y-93.305
X175.718Y-95.305
X177.718Y-93.305
X177.718Y-95.305
X179.718Y-93.305
X179.718Y-95.305
X181.718Y-93.305
X181.718Y-95.305
T3
X83.713Y-67.872
X83.713Y-70.412
X83.713Y-72.952
X83.713Y-75.492
X83.713Y-78.032
X83.713Y-80.572
X83.728Y-45.027
X83.728Y-47.567
X83.728Y-50.107
X83.728Y-52.647
X83.728Y-55.187
X83.728Y-57.727
X83.728Y-60.267
X83.728Y-62.807
X86.253Y-67.872
X86.253Y-70.412
X86.253Y-72.952
X86.253Y-75.492
X86.253Y-78.032
X86.253Y-80.572
X86.268Y-45.027
X86.268Y-47.567
X86.268Y-50.107
X86.268Y-52.647
X86.268Y-55.187
X86.268Y-57.727
X86.268Y-60.267
X86.268Y-62.807
X129.428Y-36.123
X129.428Y-38.663
X129.428Y-41.203
X129.428Y-43.743
X129.428Y-46.283
X129.428Y-48.823
X129.428Y-51.363
X129.428Y-53.903
X129.428Y-56.443
X129.428Y-58.983
X129.453Y-62.768
X129.453Y-65.308
X129.453Y-67.848
X129.453Y-70.388
X129.453Y-72.928
X129.453Y-75.468
X129.453Y-78.008
X129.453Y-80.548
X131.968Y-36.123
X131.968Y-38.663
X131.968Y-41.203
X131.968Y-43.743
X131.968Y-46.283
X131.968Y-48.823
X131.968Y-51.363
X131.968Y-53.903
X131.968Y-56.443
X131.968Y-58.983
X131.993Y-62.768
X131.993Y-65.308
X131.993Y-67.848
X131.993Y-70.388
X131.993Y-72.928
X131.993Y-75.468
X131.993Y-78.008
X131.993Y-80.548
X148.58Y-67.873
X148.58Y-70.413
X148.58Y-72.953
X148.58Y-75.493
X148.58Y-78.033
X148.58Y-80.573
X148.588Y-44.997
X148.588Y-47.537
X148.588Y-50.077
X148.588Y-52.617
X148.588Y-55.157
X148.588Y-57.697
X148.588Y-60.237
X148.588Y-62.777
X151.12Y-67.873
X151.12Y-70.413
X151.12Y-72.953
X151.12Y-75.493
X151.12Y-78.033
X151.12Y-80.573
X151.128Y-44.997
X151.128Y-47.537
X151.128Y-50.077
X151.128Y-52.617
X151.128Y-55.157
X151.128Y-57.697
X151.128Y-60.237
X151.128Y-62.777
X194.3Y-36.123
X194.3Y-38.663
X194.3Y-41.203
X194.3Y-43.743
X194.3Y-46.283
X194.3Y-48.823
X194.3Y-51.363
X194.3Y-53.903
X194.3Y-56.443
X194.3Y-58.983
X194.3Y-62.793
X194.3Y-65.333
X194.3Y-67.873
X194.3Y-70.413
X194.3Y-72.953
X194.3Y-75.493
X194.3Y-78.033
X194.3Y-80.573
X196.84Y-36.123
X196.84Y-38.663
X196.84Y-41.203
X196.84Y-43.743
X196.84Y-46.283
X196.84Y-48.823
X196.84Y-51.363
X196.84Y-53.903
X196.84Y-56.443
X196.84Y-58.983
X196.84Y-62.793
X196.84Y-65.333
X196.84Y-67.873
X196.84Y-70.413
X196.84Y-72.953
X196.84Y-75.493
X196.84Y-78.033
X196.84Y-80.573
M30
