%TF.GenerationSoftware,KiCad,Pcbnew,8.0.8*%
%TF.CreationDate,2025-10-28T14:51:58+08:00*%
%TF.ProjectId,adaptor_dual_LVPMSM,61646170-746f-4725-9f64-75616c5f4c56,rev?*%
%TF.SameCoordinates,Original*%
%TF.FileFunction,Soldermask,Top*%
%TF.FilePolarity,Negative*%
%FSLAX46Y46*%
G04 Gerber Fmt 4.6, Leading zero omitted, Abs format (unit mm)*
G04 Created by KiCad (PCBNEW 8.0.8) date 2025-10-28 14:51:58*
%MOMM*%
%LPD*%
G01*
G04 APERTURE LIST*
%ADD10R,1.700000X1.700000*%
%ADD11O,1.700000X1.700000*%
%ADD12C,3.200000*%
%ADD13R,1.350000X1.350000*%
%ADD14O,1.350000X1.350000*%
G04 APERTURE END LIST*
D10*
%TO.C,J4_M2*%
X151119600Y-67873400D03*
D11*
X148579600Y-67873400D03*
X151119600Y-70413400D03*
X148579600Y-70413400D03*
X151119600Y-72953400D03*
X148579600Y-72953400D03*
X151119600Y-75493400D03*
X148579600Y-75493400D03*
X151119600Y-78033400D03*
X148579600Y-78033400D03*
X151119600Y-80573400D03*
X148579600Y-80573400D03*
%TD*%
D10*
%TO.C,J3_M2*%
X151128000Y-44997000D03*
D11*
X148588000Y-44997000D03*
X151128000Y-47537000D03*
X148588000Y-47537000D03*
X151128000Y-50077000D03*
X148588000Y-50077000D03*
X151128000Y-52617000D03*
X148588000Y-52617000D03*
X151128000Y-55157000D03*
X148588000Y-55157000D03*
X151128000Y-57697000D03*
X148588000Y-57697000D03*
X151128000Y-60237000D03*
X148588000Y-60237000D03*
X151128000Y-62777000D03*
X148588000Y-62777000D03*
%TD*%
D12*
%TO.C,REF\u002A\u002A*%
X74868800Y-94543400D03*
%TD*%
D13*
%TO.C,J2*%
X96288800Y-92963400D03*
D14*
X96288800Y-94963400D03*
X98288800Y-92963400D03*
X98288800Y-94963400D03*
X100288800Y-92963400D03*
X100288800Y-94963400D03*
X102288800Y-92963400D03*
X102288800Y-94963400D03*
X104288800Y-92963400D03*
X104288800Y-94963400D03*
X106288800Y-92963400D03*
X106288800Y-94963400D03*
X108288800Y-92963400D03*
X108288800Y-94963400D03*
X110288800Y-92963400D03*
X110288800Y-94963400D03*
X112288800Y-92963400D03*
X112288800Y-94963400D03*
X114288800Y-92963400D03*
X114288800Y-94963400D03*
%TD*%
D10*
%TO.C,J4_M1*%
X86253000Y-67872000D03*
D11*
X83713000Y-67872000D03*
X86253000Y-70412000D03*
X83713000Y-70412000D03*
X86253000Y-72952000D03*
X83713000Y-72952000D03*
X86253000Y-75492000D03*
X83713000Y-75492000D03*
X86253000Y-78032000D03*
X83713000Y-78032000D03*
X86253000Y-80572000D03*
X83713000Y-80572000D03*
%TD*%
D10*
%TO.C,J2_M1*%
X129428000Y-58983400D03*
D11*
X131968000Y-58983400D03*
X129428000Y-56443400D03*
X131968000Y-56443400D03*
X129428000Y-53903400D03*
X131968000Y-53903400D03*
X129428000Y-51363400D03*
X131968000Y-51363400D03*
X129428000Y-48823400D03*
X131968000Y-48823400D03*
X129428000Y-46283400D03*
X131968000Y-46283400D03*
X129428000Y-43743400D03*
X131968000Y-43743400D03*
X129428000Y-41203400D03*
X131968000Y-41203400D03*
X129428000Y-38663400D03*
X131968000Y-38663400D03*
X129428000Y-36123400D03*
X131968000Y-36123400D03*
%TD*%
D12*
%TO.C,REF\u002A\u002A*%
X205666100Y-31018000D03*
%TD*%
%TO.C,REF\u002A\u002A*%
X205678800Y-94543400D03*
%TD*%
D13*
%TO.C,J1*%
X163718000Y-93305400D03*
D14*
X163718000Y-95305400D03*
X165718000Y-93305400D03*
X165718000Y-95305400D03*
X167718000Y-93305400D03*
X167718000Y-95305400D03*
X169718000Y-93305400D03*
X169718000Y-95305400D03*
X171718000Y-93305400D03*
X171718000Y-95305400D03*
X173718000Y-93305400D03*
X173718000Y-95305400D03*
X175718000Y-93305400D03*
X175718000Y-95305400D03*
X177718000Y-93305400D03*
X177718000Y-95305400D03*
X179718000Y-93305400D03*
X179718000Y-95305400D03*
X181718000Y-93305400D03*
X181718000Y-95305400D03*
%TD*%
D10*
%TO.C,J1_M1*%
X129453400Y-80548000D03*
D11*
X131993400Y-80548000D03*
X129453400Y-78008000D03*
X131993400Y-78008000D03*
X129453400Y-75468000D03*
X131993400Y-75468000D03*
X129453400Y-72928000D03*
X131993400Y-72928000D03*
X129453400Y-70388000D03*
X131993400Y-70388000D03*
X129453400Y-67848000D03*
X131993400Y-67848000D03*
X129453400Y-65308000D03*
X131993400Y-65308000D03*
X129453400Y-62768000D03*
X131993400Y-62768000D03*
%TD*%
D10*
%TO.C,J3_M1*%
X86268000Y-45027000D03*
D11*
X83728000Y-45027000D03*
X86268000Y-47567000D03*
X83728000Y-47567000D03*
X86268000Y-50107000D03*
X83728000Y-50107000D03*
X86268000Y-52647000D03*
X83728000Y-52647000D03*
X86268000Y-55187000D03*
X83728000Y-55187000D03*
X86268000Y-57727000D03*
X83728000Y-57727000D03*
X86268000Y-60267000D03*
X83728000Y-60267000D03*
X86268000Y-62807000D03*
X83728000Y-62807000D03*
%TD*%
D10*
%TO.C,J2_M2*%
X194299600Y-58983400D03*
D11*
X196839600Y-58983400D03*
X194299600Y-56443400D03*
X196839600Y-56443400D03*
X194299600Y-53903400D03*
X196839600Y-53903400D03*
X194299600Y-51363400D03*
X196839600Y-51363400D03*
X194299600Y-48823400D03*
X196839600Y-48823400D03*
X194299600Y-46283400D03*
X196839600Y-46283400D03*
X194299600Y-43743400D03*
X196839600Y-43743400D03*
X194299600Y-41203400D03*
X196839600Y-41203400D03*
X194299600Y-38663400D03*
X196839600Y-38663400D03*
X194299600Y-36123400D03*
X196839600Y-36123400D03*
%TD*%
D12*
%TO.C,REF\u002A\u002A*%
X74818000Y-31018000D03*
%TD*%
D10*
%TO.C,J1_M2*%
X194299600Y-80573400D03*
D11*
X196839600Y-80573400D03*
X194299600Y-78033400D03*
X196839600Y-78033400D03*
X194299600Y-75493400D03*
X196839600Y-75493400D03*
X194299600Y-72953400D03*
X196839600Y-72953400D03*
X194299600Y-70413400D03*
X196839600Y-70413400D03*
X194299600Y-67873400D03*
X196839600Y-67873400D03*
X194299600Y-65333400D03*
X196839600Y-65333400D03*
X194299600Y-62793400D03*
X196839600Y-62793400D03*
%TD*%
M02*
