%TF.GenerationSoftware,KiCad,Pcbnew,8.0.8*%
%TF.CreationDate,2025-10-28T14:51:58+08:00*%
%TF.ProjectId,adaptor_dual_LVPMSM,61646170-746f-4725-9f64-75616c5f4c56,rev?*%
%TF.SameCoordinates,Original*%
%TF.FileFunction,Copper,L1,Top*%
%TF.FilePolarity,Positive*%
%FSLAX46Y46*%
G04 Gerber Fmt 4.6, Leading zero omitted, Abs format (unit mm)*
G04 Created by KiCad (PCBNEW 8.0.8) date 2025-10-28 14:51:58*
%MOMM*%
%LPD*%
G01*
G04 APERTURE LIST*
%TA.AperFunction,ComponentPad*%
%ADD10R,1.700000X1.700000*%
%TD*%
%TA.AperFunction,ComponentPad*%
%ADD11O,1.700000X1.700000*%
%TD*%
%TA.AperFunction,ComponentPad*%
%ADD12R,1.350000X1.350000*%
%TD*%
%TA.AperFunction,ComponentPad*%
%ADD13O,1.350000X1.350000*%
%TD*%
%TA.AperFunction,ViaPad*%
%ADD14C,0.800000*%
%TD*%
%TA.AperFunction,Conductor*%
%ADD15C,0.250000*%
%TD*%
%TA.AperFunction,Conductor*%
%ADD16C,0.800000*%
%TD*%
%TA.AperFunction,Conductor*%
%ADD17C,0.200000*%
%TD*%
%TA.AperFunction,Conductor*%
%ADD18C,2.000000*%
%TD*%
G04 APERTURE END LIST*
D10*
%TO.P,J4_M2,1,Pin_1*%
%TO.N,unconnected-(J4_M2-Pin_1-Pad1)*%
X151119600Y-67873400D03*
D11*
%TO.P,J4_M2,2,Pin_2*%
%TO.N,unconnected-(J4_M2-Pin_2-Pad2)*%
X148579600Y-67873400D03*
%TO.P,J4_M2,3,Pin_3*%
%TO.N,unconnected-(J4_M2-Pin_3-Pad3)*%
X151119600Y-70413400D03*
%TO.P,J4_M2,4,Pin_4*%
%TO.N,unconnected-(J4_M2-Pin_4-Pad4)*%
X148579600Y-70413400D03*
%TO.P,J4_M2,5,Pin_5*%
%TO.N,unconnected-(J4_M2-Pin_5-Pad5)*%
X151119600Y-72953400D03*
%TO.P,J4_M2,6,Pin_6*%
%TO.N,unconnected-(J4_M2-Pin_6-Pad6)*%
X148579600Y-72953400D03*
%TO.P,J4_M2,7,Pin_7*%
%TO.N,unconnected-(J4_M2-Pin_7-Pad7)*%
X151119600Y-75493400D03*
%TO.P,J4_M2,8,Pin_8*%
%TO.N,unconnected-(J4_M2-Pin_8-Pad8)*%
X148579600Y-75493400D03*
%TO.P,J4_M2,9,Pin_9*%
%TO.N,unconnected-(J4_M2-Pin_9-Pad9)*%
X151119600Y-78033400D03*
%TO.P,J4_M2,10,Pin_10*%
%TO.N,unconnected-(J4_M2-Pin_10-Pad10)*%
X148579600Y-78033400D03*
%TO.P,J4_M2,11,Pin_11*%
%TO.N,unconnected-(J4_M2-Pin_11-Pad11)*%
X151119600Y-80573400D03*
%TO.P,J4_M2,12,Pin_12*%
%TO.N,unconnected-(J4_M2-Pin_12-Pad12)*%
X148579600Y-80573400D03*
%TD*%
D10*
%TO.P,J3_M2,1,Pin_1*%
%TO.N,ENC_B_M2*%
X151128000Y-44997000D03*
D11*
%TO.P,J3_M2,2,Pin_2*%
%TO.N,unconnected-(J3_M2-Pin_2-Pad2)*%
X148588000Y-44997000D03*
%TO.P,J3_M2,3,Pin_3*%
%TO.N,ENC_A_M2*%
X151128000Y-47537000D03*
%TO.P,J3_M2,4,Pin_4*%
%TO.N,+3V3*%
X148588000Y-47537000D03*
%TO.P,J3_M2,5,Pin_5*%
%TO.N,M2_PWM_B2*%
X151128000Y-50077000D03*
%TO.P,J3_M2,6,Pin_6*%
%TO.N,unconnected-(J3_M2-Pin_6-Pad6)*%
X148588000Y-50077000D03*
%TO.P,J3_M2,7,Pin_7*%
%TO.N,M2_PWM_A2*%
X151128000Y-52617000D03*
%TO.P,J3_M2,8,Pin_8*%
%TO.N,+3V3*%
X148588000Y-52617000D03*
%TO.P,J3_M2,9,Pin_9*%
%TO.N,M2_PWM_B1*%
X151128000Y-55157000D03*
%TO.P,J3_M2,10,Pin_10*%
%TO.N,unconnected-(J3_M2-Pin_10-Pad10)*%
X148588000Y-55157000D03*
%TO.P,J3_M2,11,Pin_11*%
%TO.N,M2_PWM_A1*%
X151128000Y-57697000D03*
%TO.P,J3_M2,12,Pin_12*%
%TO.N,GND*%
X148588000Y-57697000D03*
%TO.P,J3_M2,13,Pin_13*%
%TO.N,M2_PWM_B0*%
X151128000Y-60237000D03*
%TO.P,J3_M2,14,Pin_14*%
%TO.N,GND*%
X148588000Y-60237000D03*
%TO.P,J3_M2,15,Pin_15*%
%TO.N,M2_PWM_A0*%
X151128000Y-62777000D03*
%TO.P,J3_M2,16,Pin_16*%
%TO.N,5V_M2*%
X148588000Y-62777000D03*
%TD*%
D12*
%TO.P,J2,1,Pin_1*%
%TO.N,5V_M3*%
X96288800Y-92963400D03*
D13*
%TO.P,J2,2,Pin_2*%
X96288800Y-94963400D03*
%TO.P,J2,3,Pin_3*%
%TO.N,+3V3*%
X98288800Y-92963400D03*
%TO.P,J2,4,Pin_4*%
X98288800Y-94963400D03*
%TO.P,J2,5,Pin_5*%
%TO.N,BEMF_A_M3*%
X100288800Y-92963400D03*
%TO.P,J2,6,Pin_6*%
%TO.N,M3_PWM_A0*%
X100288800Y-94963400D03*
%TO.P,J2,7,Pin_7*%
%TO.N,BEMF_B_M3*%
X102288800Y-92963400D03*
%TO.P,J2,8,Pin_8*%
%TO.N,M3_PWM_B0*%
X102288800Y-94963400D03*
%TO.P,J2,9,Pin_9*%
%TO.N,BEMF_C_M3*%
X104288800Y-92963400D03*
%TO.P,J2,10,Pin_10*%
%TO.N,M3_PWM_A1*%
X104288800Y-94963400D03*
%TO.P,J2,11,Pin_11*%
%TO.N,VOLT_DCB_M3*%
X106288800Y-92963400D03*
%TO.P,J2,12,Pin_12*%
%TO.N,M3_PWM_B1*%
X106288800Y-94963400D03*
%TO.P,J2,13,Pin_13*%
%TO.N,CUR_DCB_M3*%
X108288800Y-92963400D03*
%TO.P,J2,14,Pin_14*%
%TO.N,M3_PWM_A2*%
X108288800Y-94963400D03*
%TO.P,J2,15,Pin_15*%
%TO.N,unconnected-(J2-Pin_15-Pad15)*%
X110288800Y-92963400D03*
%TO.P,J2,16,Pin_16*%
%TO.N,M3_PWM_B2*%
X110288800Y-94963400D03*
%TO.P,J2,17,Pin_17*%
%TO.N,unconnected-(J2-Pin_17-Pad17)*%
X112288800Y-92963400D03*
%TO.P,J2,18,Pin_18*%
%TO.N,unconnected-(J2-Pin_18-Pad18)*%
X112288800Y-94963400D03*
%TO.P,J2,19,Pin_19*%
%TO.N,GND*%
X114288800Y-92963400D03*
%TO.P,J2,20,Pin_20*%
X114288800Y-94963400D03*
%TD*%
D10*
%TO.P,J4_M1,1,Pin_1*%
%TO.N,unconnected-(J4_M1-Pin_1-Pad1)*%
X86253000Y-67872000D03*
D11*
%TO.P,J4_M1,2,Pin_2*%
%TO.N,unconnected-(J4_M1-Pin_2-Pad2)*%
X83713000Y-67872000D03*
%TO.P,J4_M1,3,Pin_3*%
%TO.N,unconnected-(J4_M1-Pin_3-Pad3)*%
X86253000Y-70412000D03*
%TO.P,J4_M1,4,Pin_4*%
%TO.N,unconnected-(J4_M1-Pin_4-Pad4)*%
X83713000Y-70412000D03*
%TO.P,J4_M1,5,Pin_5*%
%TO.N,unconnected-(J4_M1-Pin_5-Pad5)*%
X86253000Y-72952000D03*
%TO.P,J4_M1,6,Pin_6*%
%TO.N,unconnected-(J4_M1-Pin_6-Pad6)*%
X83713000Y-72952000D03*
%TO.P,J4_M1,7,Pin_7*%
%TO.N,unconnected-(J4_M1-Pin_7-Pad7)*%
X86253000Y-75492000D03*
%TO.P,J4_M1,8,Pin_8*%
%TO.N,unconnected-(J4_M1-Pin_8-Pad8)*%
X83713000Y-75492000D03*
%TO.P,J4_M1,9,Pin_9*%
%TO.N,unconnected-(J4_M1-Pin_9-Pad9)*%
X86253000Y-78032000D03*
%TO.P,J4_M1,10,Pin_10*%
%TO.N,unconnected-(J4_M1-Pin_10-Pad10)*%
X83713000Y-78032000D03*
%TO.P,J4_M1,11,Pin_11*%
%TO.N,unconnected-(J4_M1-Pin_11-Pad11)*%
X86253000Y-80572000D03*
%TO.P,J4_M1,12,Pin_12*%
%TO.N,unconnected-(J4_M1-Pin_12-Pad12)*%
X83713000Y-80572000D03*
%TD*%
D10*
%TO.P,J2_M1,1,Pin_1*%
%TO.N,BEMF_A_M3*%
X129428000Y-58983400D03*
D11*
%TO.P,J2_M1,2,Pin_2*%
%TO.N,unconnected-(J2_M1-Pin_2-Pad2)*%
X131968000Y-58983400D03*
%TO.P,J2_M1,3,Pin_3*%
%TO.N,BEMF_B_M3*%
X129428000Y-56443400D03*
%TO.P,J2_M1,4,Pin_4*%
%TO.N,unconnected-(J2_M1-Pin_4-Pad4)*%
X131968000Y-56443400D03*
%TO.P,J2_M1,5,Pin_5*%
%TO.N,BEMF_C_M3*%
X129428000Y-53903400D03*
%TO.P,J2_M1,6,Pin_6*%
%TO.N,unconnected-(J2_M1-Pin_6-Pad6)*%
X131968000Y-53903400D03*
%TO.P,J2_M1,7,Pin_7*%
%TO.N,VOLT_DCB_M3*%
X129428000Y-51363400D03*
%TO.P,J2_M1,8,Pin_8*%
%TO.N,unconnected-(J2_M1-Pin_8-Pad8)*%
X131968000Y-51363400D03*
%TO.P,J2_M1,9,Pin_9*%
%TO.N,CUR_DCB_M3*%
X129428000Y-48823400D03*
%TO.P,J2_M1,10,Pin_10*%
%TO.N,unconnected-(J2_M1-Pin_10-Pad10)*%
X131968000Y-48823400D03*
%TO.P,J2_M1,11,Pin_11*%
%TO.N,unconnected-(J2_M1-Pin_11-Pad11)*%
X129428000Y-46283400D03*
%TO.P,J2_M1,12,Pin_12*%
%TO.N,unconnected-(J2_M1-Pin_12-Pad12)*%
X131968000Y-46283400D03*
%TO.P,J2_M1,13,Pin_13*%
%TO.N,unconnected-(J2_M1-Pin_13-Pad13)*%
X129428000Y-43743400D03*
%TO.P,J2_M1,14,Pin_14*%
%TO.N,GND*%
X131968000Y-43743400D03*
%TO.P,J2_M1,15,Pin_15*%
%TO.N,unconnected-(J2_M1-Pin_15-Pad15)*%
X129428000Y-41203400D03*
%TO.P,J2_M1,16,Pin_16*%
%TO.N,unconnected-(J2_M1-Pin_16-Pad16)*%
X131968000Y-41203400D03*
%TO.P,J2_M1,17,Pin_17*%
%TO.N,unconnected-(J2_M1-Pin_17-Pad17)*%
X129428000Y-38663400D03*
%TO.P,J2_M1,18,Pin_18*%
%TO.N,unconnected-(J2_M1-Pin_18-Pad18)*%
X131968000Y-38663400D03*
%TO.P,J2_M1,19,Pin_19*%
%TO.N,unconnected-(J2_M1-Pin_19-Pad19)*%
X129428000Y-36123400D03*
%TO.P,J2_M1,20,Pin_20*%
%TO.N,unconnected-(J2_M1-Pin_20-Pad20)*%
X131968000Y-36123400D03*
%TD*%
D12*
%TO.P,J1,1,Pin_1*%
%TO.N,5V_M2*%
X163718000Y-93305400D03*
D13*
%TO.P,J1,2,Pin_2*%
X163718000Y-95305400D03*
%TO.P,J1,3,Pin_3*%
%TO.N,+3V3*%
X165718000Y-93305400D03*
%TO.P,J1,4,Pin_4*%
X165718000Y-95305400D03*
%TO.P,J1,5,Pin_5*%
%TO.N,BEMF_A_M2*%
X167718000Y-93305400D03*
%TO.P,J1,6,Pin_6*%
%TO.N,M2_PWM_A0*%
X167718000Y-95305400D03*
%TO.P,J1,7,Pin_7*%
%TO.N,BEMF_B_M2*%
X169718000Y-93305400D03*
%TO.P,J1,8,Pin_8*%
%TO.N,M2_PWM_B0*%
X169718000Y-95305400D03*
%TO.P,J1,9,Pin_9*%
%TO.N,BEMF_C_M2*%
X171718000Y-93305400D03*
%TO.P,J1,10,Pin_10*%
%TO.N,M2_PWM_A1*%
X171718000Y-95305400D03*
%TO.P,J1,11,Pin_11*%
%TO.N,VOLT_DCB_M2*%
X173718000Y-93305400D03*
%TO.P,J1,12,Pin_12*%
%TO.N,M2_PWM_B1*%
X173718000Y-95305400D03*
%TO.P,J1,13,Pin_13*%
%TO.N,CUR_DCB_M2*%
X175718000Y-93305400D03*
%TO.P,J1,14,Pin_14*%
%TO.N,M2_PWM_A2*%
X175718000Y-95305400D03*
%TO.P,J1,15,Pin_15*%
%TO.N,ENC_A_M2*%
X177718000Y-93305400D03*
%TO.P,J1,16,Pin_16*%
%TO.N,M2_PWM_B2*%
X177718000Y-95305400D03*
%TO.P,J1,17,Pin_17*%
%TO.N,ENC_B_M2*%
X179718000Y-93305400D03*
%TO.P,J1,18,Pin_18*%
%TO.N,ENC_I_M2*%
X179718000Y-95305400D03*
%TO.P,J1,19,Pin_19*%
%TO.N,GND*%
X181718000Y-93305400D03*
%TO.P,J1,20,Pin_20*%
X181718000Y-95305400D03*
%TD*%
D10*
%TO.P,J1_M1,1,Pin_1*%
%TO.N,unconnected-(J1_M1-Pin_1-Pad1)*%
X129453400Y-80548000D03*
D11*
%TO.P,J1_M1,2,Pin_2*%
%TO.N,unconnected-(J1_M1-Pin_2-Pad2)*%
X131993400Y-80548000D03*
%TO.P,J1_M1,3,Pin_3*%
%TO.N,unconnected-(J1_M1-Pin_3-Pad3)*%
X129453400Y-78008000D03*
%TO.P,J1_M1,4,Pin_4*%
%TO.N,unconnected-(J1_M1-Pin_4-Pad4)*%
X131993400Y-78008000D03*
%TO.P,J1_M1,5,Pin_5*%
%TO.N,unconnected-(J1_M1-Pin_5-Pad5)*%
X129453400Y-75468000D03*
%TO.P,J1_M1,6,Pin_6*%
%TO.N,unconnected-(J1_M1-Pin_6-Pad6)*%
X131993400Y-75468000D03*
%TO.P,J1_M1,7,Pin_7*%
%TO.N,unconnected-(J1_M1-Pin_7-Pad7)*%
X129453400Y-72928000D03*
%TO.P,J1_M1,8,Pin_8*%
%TO.N,unconnected-(J1_M1-Pin_8-Pad8)*%
X131993400Y-72928000D03*
%TO.P,J1_M1,9,Pin_9*%
%TO.N,unconnected-(J1_M1-Pin_9-Pad9)*%
X129453400Y-70388000D03*
%TO.P,J1_M1,10,Pin_10*%
%TO.N,unconnected-(J1_M1-Pin_10-Pad10)*%
X131993400Y-70388000D03*
%TO.P,J1_M1,11,Pin_11*%
%TO.N,unconnected-(J1_M1-Pin_11-Pad11)*%
X129453400Y-67848000D03*
%TO.P,J1_M1,12,Pin_12*%
%TO.N,unconnected-(J1_M1-Pin_12-Pad12)*%
X131993400Y-67848000D03*
%TO.P,J1_M1,13,Pin_13*%
%TO.N,unconnected-(J1_M1-Pin_13-Pad13)*%
X129453400Y-65308000D03*
%TO.P,J1_M1,14,Pin_14*%
%TO.N,unconnected-(J1_M1-Pin_14-Pad14)*%
X131993400Y-65308000D03*
%TO.P,J1_M1,15,Pin_15*%
%TO.N,unconnected-(J1_M1-Pin_15-Pad15)*%
X129453400Y-62768000D03*
%TO.P,J1_M1,16,Pin_16*%
%TO.N,unconnected-(J1_M1-Pin_16-Pad16)*%
X131993400Y-62768000D03*
%TD*%
D10*
%TO.P,J3_M1,1,Pin_1*%
%TO.N,unconnected-(J3_M1-Pin_1-Pad1)*%
X86268000Y-45027000D03*
D11*
%TO.P,J3_M1,2,Pin_2*%
%TO.N,unconnected-(J3_M1-Pin_2-Pad2)*%
X83728000Y-45027000D03*
%TO.P,J3_M1,3,Pin_3*%
%TO.N,unconnected-(J3_M1-Pin_3-Pad3)*%
X86268000Y-47567000D03*
%TO.P,J3_M1,4,Pin_4*%
%TO.N,+3V3*%
X83728000Y-47567000D03*
%TO.P,J3_M1,5,Pin_5*%
%TO.N,M3_PWM_B2*%
X86268000Y-50107000D03*
%TO.P,J3_M1,6,Pin_6*%
%TO.N,unconnected-(J3_M1-Pin_6-Pad6)*%
X83728000Y-50107000D03*
%TO.P,J3_M1,7,Pin_7*%
%TO.N,M3_PWM_A2*%
X86268000Y-52647000D03*
%TO.P,J3_M1,8,Pin_8*%
%TO.N,+3V3*%
X83728000Y-52647000D03*
%TO.P,J3_M1,9,Pin_9*%
%TO.N,M3_PWM_B1*%
X86268000Y-55187000D03*
%TO.P,J3_M1,10,Pin_10*%
%TO.N,unconnected-(J3_M1-Pin_10-Pad10)*%
X83728000Y-55187000D03*
%TO.P,J3_M1,11,Pin_11*%
%TO.N,M3_PWM_A1*%
X86268000Y-57727000D03*
%TO.P,J3_M1,12,Pin_12*%
%TO.N,GND*%
X83728000Y-57727000D03*
%TO.P,J3_M1,13,Pin_13*%
%TO.N,M3_PWM_B0*%
X86268000Y-60267000D03*
%TO.P,J3_M1,14,Pin_14*%
%TO.N,GND*%
X83728000Y-60267000D03*
%TO.P,J3_M1,15,Pin_15*%
%TO.N,M3_PWM_A0*%
X86268000Y-62807000D03*
%TO.P,J3_M1,16,Pin_16*%
%TO.N,5V_M3*%
X83728000Y-62807000D03*
%TD*%
D10*
%TO.P,J2_M2,1,Pin_1*%
%TO.N,BEMF_A_M2*%
X194299600Y-58983400D03*
D11*
%TO.P,J2_M2,2,Pin_2*%
%TO.N,unconnected-(J2_M2-Pin_2-Pad2)*%
X196839600Y-58983400D03*
%TO.P,J2_M2,3,Pin_3*%
%TO.N,BEMF_B_M2*%
X194299600Y-56443400D03*
%TO.P,J2_M2,4,Pin_4*%
%TO.N,unconnected-(J2_M2-Pin_4-Pad4)*%
X196839600Y-56443400D03*
%TO.P,J2_M2,5,Pin_5*%
%TO.N,BEMF_C_M2*%
X194299600Y-53903400D03*
%TO.P,J2_M2,6,Pin_6*%
%TO.N,unconnected-(J2_M2-Pin_6-Pad6)*%
X196839600Y-53903400D03*
%TO.P,J2_M2,7,Pin_7*%
%TO.N,VOLT_DCB_M2*%
X194299600Y-51363400D03*
%TO.P,J2_M2,8,Pin_8*%
%TO.N,unconnected-(J2_M2-Pin_8-Pad8)*%
X196839600Y-51363400D03*
%TO.P,J2_M2,9,Pin_9*%
%TO.N,CUR_DCB_M2*%
X194299600Y-48823400D03*
%TO.P,J2_M2,10,Pin_10*%
%TO.N,unconnected-(J2_M2-Pin_10-Pad10)*%
X196839600Y-48823400D03*
%TO.P,J2_M2,11,Pin_11*%
%TO.N,unconnected-(J2_M2-Pin_11-Pad11)*%
X194299600Y-46283400D03*
%TO.P,J2_M2,12,Pin_12*%
%TO.N,unconnected-(J2_M2-Pin_12-Pad12)*%
X196839600Y-46283400D03*
%TO.P,J2_M2,13,Pin_13*%
%TO.N,unconnected-(J2_M2-Pin_13-Pad13)*%
X194299600Y-43743400D03*
%TO.P,J2_M2,14,Pin_14*%
%TO.N,GND*%
X196839600Y-43743400D03*
%TO.P,J2_M2,15,Pin_15*%
%TO.N,unconnected-(J2_M2-Pin_15-Pad15)*%
X194299600Y-41203400D03*
%TO.P,J2_M2,16,Pin_16*%
%TO.N,unconnected-(J2_M2-Pin_16-Pad16)*%
X196839600Y-41203400D03*
%TO.P,J2_M2,17,Pin_17*%
%TO.N,unconnected-(J2_M2-Pin_17-Pad17)*%
X194299600Y-38663400D03*
%TO.P,J2_M2,18,Pin_18*%
%TO.N,unconnected-(J2_M2-Pin_18-Pad18)*%
X196839600Y-38663400D03*
%TO.P,J2_M2,19,Pin_19*%
%TO.N,unconnected-(J2_M2-Pin_19-Pad19)*%
X194299600Y-36123400D03*
%TO.P,J2_M2,20,Pin_20*%
%TO.N,unconnected-(J2_M2-Pin_20-Pad20)*%
X196839600Y-36123400D03*
%TD*%
D10*
%TO.P,J1_M2,1,Pin_1*%
%TO.N,unconnected-(J1_M2-Pin_1-Pad1)*%
X194299600Y-80573400D03*
D11*
%TO.P,J1_M2,2,Pin_2*%
%TO.N,unconnected-(J1_M2-Pin_2-Pad2)*%
X196839600Y-80573400D03*
%TO.P,J1_M2,3,Pin_3*%
%TO.N,ENC_I_M2*%
X194299600Y-78033400D03*
%TO.P,J1_M2,4,Pin_4*%
%TO.N,unconnected-(J1_M2-Pin_4-Pad4)*%
X196839600Y-78033400D03*
%TO.P,J1_M2,5,Pin_5*%
%TO.N,unconnected-(J1_M2-Pin_5-Pad5)*%
X194299600Y-75493400D03*
%TO.P,J1_M2,6,Pin_6*%
%TO.N,unconnected-(J1_M2-Pin_6-Pad6)*%
X196839600Y-75493400D03*
%TO.P,J1_M2,7,Pin_7*%
%TO.N,unconnected-(J1_M2-Pin_7-Pad7)*%
X194299600Y-72953400D03*
%TO.P,J1_M2,8,Pin_8*%
%TO.N,unconnected-(J1_M2-Pin_8-Pad8)*%
X196839600Y-72953400D03*
%TO.P,J1_M2,9,Pin_9*%
%TO.N,unconnected-(J1_M2-Pin_9-Pad9)*%
X194299600Y-70413400D03*
%TO.P,J1_M2,10,Pin_10*%
%TO.N,unconnected-(J1_M2-Pin_10-Pad10)*%
X196839600Y-70413400D03*
%TO.P,J1_M2,11,Pin_11*%
%TO.N,unconnected-(J1_M2-Pin_11-Pad11)*%
X194299600Y-67873400D03*
%TO.P,J1_M2,12,Pin_12*%
%TO.N,unconnected-(J1_M2-Pin_12-Pad12)*%
X196839600Y-67873400D03*
%TO.P,J1_M2,13,Pin_13*%
%TO.N,unconnected-(J1_M2-Pin_13-Pad13)*%
X194299600Y-65333400D03*
%TO.P,J1_M2,14,Pin_14*%
%TO.N,unconnected-(J1_M2-Pin_14-Pad14)*%
X196839600Y-65333400D03*
%TO.P,J1_M2,15,Pin_15*%
%TO.N,unconnected-(J1_M2-Pin_15-Pad15)*%
X194299600Y-62793400D03*
%TO.P,J1_M2,16,Pin_16*%
%TO.N,unconnected-(J1_M2-Pin_16-Pad16)*%
X196839600Y-62793400D03*
%TD*%
D14*
%TO.N,GND*%
X119288800Y-77963400D03*
X158788800Y-63502000D03*
X163288800Y-44963400D03*
X119288800Y-64463400D03*
X117788800Y-45463400D03*
X188788800Y-73963400D03*
X189288800Y-44963400D03*
X184788800Y-44963400D03*
X171788800Y-44963400D03*
X119288800Y-89963400D03*
X124288800Y-64463400D03*
X100288800Y-45463400D03*
X119288800Y-70463400D03*
X156288800Y-61713400D03*
X91788800Y-92463400D03*
X105288800Y-45463400D03*
X183288800Y-63963400D03*
X188788800Y-64463400D03*
X95288800Y-49963400D03*
X91788800Y-68963400D03*
X157288800Y-70463400D03*
X124288800Y-70463400D03*
X100288800Y-49963400D03*
X91788800Y-86463400D03*
X84788800Y-86463400D03*
X124288800Y-77963400D03*
X157288800Y-75963400D03*
X156538800Y-63502000D03*
X188788800Y-69463400D03*
X91788800Y-74463400D03*
X87288800Y-92463400D03*
X180788800Y-44963400D03*
X189788800Y-91963400D03*
X167788800Y-44963400D03*
X183288800Y-75963400D03*
X157288800Y-87463400D03*
X124288800Y-89963400D03*
X158788800Y-44963400D03*
X95288800Y-45463400D03*
X175788800Y-44963400D03*
X91788800Y-80463400D03*
X119288800Y-83963400D03*
X164038800Y-82463400D03*
X157288800Y-81963400D03*
X122788800Y-45463400D03*
X166038800Y-84713400D03*
X124288800Y-83963400D03*
X189788800Y-83463400D03*
X105288800Y-49963400D03*
X183288800Y-69963400D03*
X158788800Y-61713400D03*
X112788800Y-45463400D03*
%TO.N,BEMF_B_M2*%
X175288800Y-57213400D03*
%TO.N,VOLT_DCB_M2*%
X177788800Y-52213400D03*
%TO.N,BEMF_C_M2*%
X176788800Y-54713400D03*
%TO.N,BEMF_A_M2*%
X174288800Y-58963400D03*
%TO.N,+3V3*%
X144288800Y-48463400D03*
X145538800Y-47713400D03*
%TO.N,VOLT_DCB_M3*%
X110288800Y-52463400D03*
%TO.N,BEMF_B_M3*%
X107788800Y-57463400D03*
%TO.N,BEMF_C_M3*%
X108788800Y-54963400D03*
%TO.N,BEMF_A_M3*%
X105788800Y-59963400D03*
%TD*%
D15*
%TO.N,5V_M2*%
X150274400Y-64463400D02*
X150288800Y-64463400D01*
D16*
X163788800Y-93376200D02*
X162288800Y-91876200D01*
X163788800Y-95463400D02*
X163788800Y-93376200D01*
D15*
X148588000Y-62777000D02*
X150274400Y-64463400D01*
D16*
X162288800Y-91876200D02*
X162288800Y-65963400D01*
D15*
X163718000Y-95305400D02*
X163718000Y-95392600D01*
D16*
X161288800Y-64963400D02*
X150774400Y-64963400D01*
X150774400Y-64963400D02*
X148588000Y-62777000D01*
X162288800Y-65963400D02*
X161288800Y-64963400D01*
D15*
X150288800Y-64463400D02*
X150788800Y-64963400D01*
X163718000Y-95392600D02*
X163788800Y-95463400D01*
%TO.N,M2_PWM_B0*%
X163538800Y-79713400D02*
X163538800Y-64463400D01*
X163538800Y-64463400D02*
X159312400Y-60237000D01*
X169718000Y-95305400D02*
X168718000Y-94305400D01*
X168718000Y-94305400D02*
X168718000Y-84892600D01*
X168718000Y-84892600D02*
X163538800Y-79713400D01*
D17*
X151128000Y-60237000D02*
X151128000Y-60197000D01*
D15*
X159312400Y-60237000D02*
X151128000Y-60237000D01*
%TO.N,M2_PWM_B1*%
X165538800Y-78713400D02*
X165538800Y-62463400D01*
X173718000Y-95305400D02*
X172718000Y-94305400D01*
X172718000Y-85892600D02*
X165538800Y-78713400D01*
X151934400Y-55963400D02*
X151128000Y-55157000D01*
X159038800Y-55963400D02*
X151934400Y-55963400D01*
X165538800Y-62463400D02*
X159038800Y-55963400D01*
X172718000Y-94305400D02*
X172718000Y-85892600D01*
%TO.N,M2_PWM_A1*%
X170718000Y-85392600D02*
X164538800Y-79213400D01*
X151144400Y-57713400D02*
X151128000Y-57697000D01*
X170718000Y-94305400D02*
X170718000Y-85392600D01*
X158538800Y-57713400D02*
X151144400Y-57713400D01*
X164538800Y-63713400D02*
X158538800Y-57713400D01*
D17*
X151128000Y-57697000D02*
X151238000Y-57807000D01*
D15*
X164538800Y-79213400D02*
X164538800Y-63713400D01*
X171718000Y-95305400D02*
X170718000Y-94305400D01*
%TO.N,M2_PWM_B2*%
X176718000Y-86892600D02*
X167538800Y-77713400D01*
X167538800Y-60463400D02*
X159038800Y-51963400D01*
X159038800Y-51963400D02*
X153788800Y-51963400D01*
D17*
X151218000Y-50077000D02*
X151128000Y-50077000D01*
D15*
X167538800Y-77713400D02*
X167538800Y-60463400D01*
X151902400Y-50077000D02*
X151128000Y-50077000D01*
X177718000Y-95305400D02*
X176718000Y-94305400D01*
X153788800Y-51963400D02*
X151902400Y-50077000D01*
D17*
X151238000Y-50057000D02*
X151218000Y-50077000D01*
D15*
X176718000Y-94305400D02*
X176718000Y-86892600D01*
%TO.N,M2_PWM_A2*%
X175718000Y-95305400D02*
X174718000Y-94305400D01*
X151724400Y-53213400D02*
X151128000Y-52617000D01*
X166538800Y-61713400D02*
X158038800Y-53213400D01*
X174718000Y-86392600D02*
X166538800Y-78213400D01*
X158038800Y-53213400D02*
X151724400Y-53213400D01*
X166538800Y-78213400D02*
X166538800Y-61713400D01*
X174718000Y-94305400D02*
X174718000Y-86392600D01*
%TO.N,BEMF_B_M2*%
X175288800Y-57213400D02*
X176058800Y-56443400D01*
X176058800Y-56443400D02*
X194299600Y-56443400D01*
%TO.N,VOLT_DCB_M2*%
X177788800Y-52213400D02*
X178638800Y-51363400D01*
X178638800Y-51363400D02*
X194299600Y-51363400D01*
%TO.N,BEMF_C_M2*%
X177598800Y-53903400D02*
X194299600Y-53903400D01*
X176788800Y-54713400D02*
X177598800Y-53903400D01*
%TO.N,BEMF_A_M2*%
X174288800Y-58963400D02*
X174308800Y-58983400D01*
X174308800Y-58983400D02*
X194299600Y-58983400D01*
D18*
%TO.N,+3V3*%
X165718000Y-93305400D02*
X165718000Y-96534200D01*
X164288800Y-97963400D02*
X146788800Y-97963400D01*
X165718000Y-96534200D02*
X164288800Y-97963400D01*
X144788800Y-95963400D02*
X144788800Y-53463400D01*
X145538800Y-47713400D02*
X145715200Y-47537000D01*
X145715200Y-47537000D02*
X148588000Y-47537000D01*
X144788800Y-53463400D02*
X144788800Y-48463400D01*
X145635200Y-52617000D02*
X148588000Y-52617000D01*
X144788800Y-48463400D02*
X145538800Y-47713400D01*
X146788800Y-97963400D02*
X144788800Y-95963400D01*
X144788800Y-53463400D02*
X145635200Y-52617000D01*
D15*
%TO.N,ENC_B_M2*%
X169538800Y-58213400D02*
X159788800Y-48463400D01*
X159788800Y-48463400D02*
X155788800Y-48463400D01*
X179718000Y-93305400D02*
X179718000Y-86392600D01*
X151128000Y-44997000D02*
X151128000Y-45302600D01*
X152322400Y-44997000D02*
X151128000Y-44997000D01*
X169538800Y-76213400D02*
X169538800Y-58213400D01*
X151128000Y-44997000D02*
X150822400Y-44997000D01*
X155788800Y-48463400D02*
X152322400Y-44997000D01*
X179718000Y-86392600D02*
X169538800Y-76213400D01*
X150822400Y-44997000D02*
X150788800Y-44963400D01*
%TO.N,ENC_A_M2*%
X178288800Y-92734600D02*
X178288800Y-86713400D01*
X154288800Y-49963400D02*
X151862400Y-47537000D01*
X159288800Y-49963400D02*
X154288800Y-49963400D01*
X177718000Y-93305400D02*
X177718000Y-93392600D01*
X177718000Y-93392600D02*
X177788800Y-93463400D01*
X177718000Y-93305400D02*
X178288800Y-92734600D01*
X151862400Y-47537000D02*
X151128000Y-47537000D01*
X168538800Y-76963400D02*
X168538800Y-59213400D01*
X168538800Y-59213400D02*
X159288800Y-49963400D01*
X178288800Y-86713400D02*
X168538800Y-76963400D01*
D16*
%TO.N,5V_M3*%
X94288800Y-64463400D02*
X85384400Y-64463400D01*
X96288800Y-94963400D02*
X96288800Y-66463400D01*
X85384400Y-64463400D02*
X83728000Y-62807000D01*
X96288800Y-66463400D02*
X94288800Y-64463400D01*
D15*
%TO.N,VOLT_DCB_M3*%
X111388800Y-51363400D02*
X129428000Y-51363400D01*
X110288800Y-52463400D02*
X111388800Y-51363400D01*
%TO.N,BEMF_B_M3*%
X108788800Y-56463400D02*
X129408000Y-56463400D01*
X107788800Y-57463400D02*
X108788800Y-56463400D01*
X129408000Y-56463400D02*
X129428000Y-56443400D01*
%TO.N,BEMF_C_M3*%
X108788800Y-54963400D02*
X109848800Y-53903400D01*
X109848800Y-53903400D02*
X129428000Y-53903400D01*
%TO.N,M3_PWM_B0*%
X99538800Y-83713400D02*
X101288800Y-85463400D01*
X101288800Y-93963400D02*
X102288800Y-94963400D01*
X99538800Y-64713400D02*
X99538800Y-83713400D01*
X86964400Y-60963400D02*
X95788800Y-60963400D01*
X95788800Y-60963400D02*
X99538800Y-64713400D01*
X101288800Y-85463400D02*
X101288800Y-93963400D01*
X86268000Y-60267000D02*
X86964400Y-60963400D01*
%TO.N,BEMF_A_M3*%
X106768800Y-58983400D02*
X105788800Y-59963400D01*
X129428000Y-58983400D02*
X106768800Y-58983400D01*
%TO.N,M3_PWM_A0*%
X98038800Y-84213400D02*
X98038800Y-65213400D01*
X86445200Y-62807000D02*
X86788800Y-62463400D01*
X95632400Y-62807000D02*
X86268000Y-62807000D01*
X100288800Y-94963400D02*
X99288800Y-93963400D01*
X99288800Y-93963400D02*
X99288800Y-85463400D01*
X98038800Y-65213400D02*
X95632400Y-62807000D01*
X99288800Y-85463400D02*
X98038800Y-84213400D01*
X86268000Y-62807000D02*
X86445200Y-62807000D01*
D17*
%TO.N,M3_PWM_A1*%
X103263800Y-85438400D02*
X103263800Y-93938400D01*
X86268000Y-57727000D02*
X87302400Y-57727000D01*
X100788800Y-63713400D02*
X100788800Y-82963400D01*
X88788800Y-59213400D02*
X96288800Y-59213400D01*
X87302400Y-57727000D02*
X88788800Y-59213400D01*
X100788800Y-82963400D02*
X103263800Y-85438400D01*
X103263800Y-93938400D02*
X104288800Y-94963400D01*
X96288800Y-59213400D02*
X100788800Y-63713400D01*
%TO.N,M3_PWM_A2*%
X86268000Y-52587000D02*
X86238000Y-52557000D01*
X89834400Y-56213400D02*
X97538800Y-56213400D01*
X107288800Y-93963400D02*
X108288800Y-94963400D01*
X97538800Y-56213400D02*
X103538800Y-62213400D01*
X103538800Y-81463400D02*
X107288800Y-85213400D01*
X86268000Y-52647000D02*
X86268000Y-52587000D01*
X86268000Y-52647000D02*
X89834400Y-56213400D01*
X107288800Y-85213400D02*
X107288800Y-93963400D01*
X103538800Y-62213400D02*
X103538800Y-81463400D01*
%TO.N,M3_PWM_B2*%
X91538800Y-54713400D02*
X98288800Y-54713400D01*
X86932400Y-50107000D02*
X91538800Y-54713400D01*
X98288800Y-54713400D02*
X104788800Y-61213400D01*
X86038000Y-50107000D02*
X86268000Y-50107000D01*
X104788800Y-80463400D02*
X109288800Y-84963400D01*
X86268000Y-50107000D02*
X86932400Y-50107000D01*
X109288800Y-84963400D02*
X109288800Y-93963400D01*
X85988000Y-50057000D02*
X86038000Y-50107000D01*
X104788800Y-61213400D02*
X104788800Y-80463400D01*
X109288800Y-93963400D02*
X110288800Y-94963400D01*
D15*
%TO.N,M3_PWM_B1*%
X105288800Y-85463400D02*
X105288800Y-93963400D01*
X102288800Y-82463400D02*
X105288800Y-85463400D01*
X102288800Y-63088400D02*
X102288800Y-82463400D01*
X89788800Y-57713400D02*
X96913800Y-57713400D01*
X105288800Y-93963400D02*
X106288800Y-94963400D01*
X96913800Y-57713400D02*
X102288800Y-63088400D01*
X87262400Y-55187000D02*
X89788800Y-57713400D01*
X86268000Y-55187000D02*
X87262400Y-55187000D01*
%TD*%
%TA.AperFunction,Conductor*%
%TO.N,GND*%
G36*
X114538800Y-94647714D02*
G01*
X114534406Y-94643320D01*
X114443194Y-94590659D01*
X114341461Y-94563400D01*
X114236139Y-94563400D01*
X114134406Y-94590659D01*
X114043194Y-94643320D01*
X114038800Y-94647714D01*
X114038800Y-93279086D01*
X114043194Y-93283480D01*
X114134406Y-93336141D01*
X114236139Y-93363400D01*
X114341461Y-93363400D01*
X114443194Y-93336141D01*
X114534406Y-93283480D01*
X114538800Y-93279086D01*
X114538800Y-94647714D01*
G37*
%TD.AperFunction*%
%TA.AperFunction,Conductor*%
G36*
X83978000Y-59833988D02*
G01*
X83920993Y-59801075D01*
X83793826Y-59767000D01*
X83662174Y-59767000D01*
X83535007Y-59801075D01*
X83478000Y-59833988D01*
X83478000Y-58160012D01*
X83535007Y-58192925D01*
X83662174Y-58227000D01*
X83793826Y-58227000D01*
X83920993Y-58192925D01*
X83978000Y-58160012D01*
X83978000Y-59833988D01*
G37*
%TD.AperFunction*%
%TA.AperFunction,Conductor*%
G36*
X208986008Y-25913001D02*
G01*
X209102512Y-25922826D01*
X209117469Y-25925013D01*
X209355478Y-25974796D01*
X209372077Y-25979495D01*
X209599849Y-26061507D01*
X209615651Y-26068475D01*
X209829810Y-26181338D01*
X209844493Y-26190437D01*
X210040878Y-26331957D01*
X210054154Y-26343007D01*
X210228969Y-26510445D01*
X210240581Y-26523233D01*
X210390440Y-26713349D01*
X210400162Y-26727626D01*
X210522139Y-26936705D01*
X210529784Y-26952195D01*
X210621530Y-27176214D01*
X210626947Y-27192615D01*
X210686937Y-27428246D01*
X210689768Y-27443105D01*
X210704265Y-27556426D01*
X210705267Y-27572155D01*
X210708000Y-88054824D01*
X210710677Y-97844869D01*
X210710233Y-97855386D01*
X210699673Y-97979847D01*
X210697216Y-97996031D01*
X210641469Y-98249185D01*
X210636131Y-98266962D01*
X210543620Y-98507919D01*
X210535689Y-98524701D01*
X210408246Y-98749150D01*
X210397899Y-98764560D01*
X210238378Y-98967475D01*
X210225846Y-98981168D01*
X210037823Y-99157998D01*
X210023393Y-99169662D01*
X209911900Y-99246744D01*
X209811084Y-99316443D01*
X209795069Y-99325826D01*
X209563221Y-99439274D01*
X209545984Y-99446161D01*
X209299812Y-99523726D01*
X209281742Y-99527963D01*
X209025637Y-99568089D01*
X209009348Y-99569550D01*
X208880632Y-99572566D01*
X208877765Y-99572600D01*
X164925881Y-99586029D01*
X164858835Y-99566365D01*
X164813064Y-99513575D01*
X164803100Y-99444419D01*
X164832105Y-99380855D01*
X164869549Y-99351544D01*
X165075232Y-99246744D01*
X165075231Y-99246744D01*
X165075234Y-99246743D01*
X165266310Y-99107917D01*
X166862517Y-97511710D01*
X167001343Y-97320634D01*
X167108568Y-97110192D01*
X167181553Y-96885568D01*
X167203051Y-96749834D01*
X167218500Y-96652297D01*
X167218500Y-96553537D01*
X167238185Y-96486498D01*
X167290989Y-96440743D01*
X167360147Y-96430799D01*
X167387294Y-96437911D01*
X167394931Y-96440870D01*
X167609074Y-96480900D01*
X167609076Y-96480900D01*
X167826924Y-96480900D01*
X167826926Y-96480900D01*
X168041069Y-96440870D01*
X168244210Y-96362172D01*
X168429432Y-96247488D01*
X168590427Y-96100722D01*
X168619047Y-96062822D01*
X168675153Y-96021187D01*
X168744865Y-96016494D01*
X168806048Y-96050236D01*
X168816946Y-96062814D01*
X168845573Y-96100722D01*
X169006568Y-96247488D01*
X169006575Y-96247492D01*
X169006576Y-96247493D01*
X169191786Y-96362170D01*
X169191792Y-96362173D01*
X169191960Y-96362238D01*
X169394931Y-96440870D01*
X169609074Y-96480900D01*
X169609076Y-96480900D01*
X169826924Y-96480900D01*
X169826926Y-96480900D01*
X170041069Y-96440870D01*
X170244210Y-96362172D01*
X170429432Y-96247488D01*
X170590427Y-96100722D01*
X170619047Y-96062822D01*
X170675153Y-96021187D01*
X170744865Y-96016494D01*
X170806048Y-96050236D01*
X170816946Y-96062814D01*
X170845573Y-96100722D01*
X171006568Y-96247488D01*
X171006575Y-96247492D01*
X171006576Y-96247493D01*
X171191786Y-96362170D01*
X171191792Y-96362173D01*
X171191960Y-96362238D01*
X171394931Y-96440870D01*
X171609074Y-96480900D01*
X171609076Y-96480900D01*
X171826924Y-96480900D01*
X171826926Y-96480900D01*
X172041069Y-96440870D01*
X172244210Y-96362172D01*
X172429432Y-96247488D01*
X172590427Y-96100722D01*
X172619047Y-96062822D01*
X172675153Y-96021187D01*
X172744865Y-96016494D01*
X172806048Y-96050236D01*
X172816946Y-96062814D01*
X172845573Y-96100722D01*
X173006568Y-96247488D01*
X173006575Y-96247492D01*
X173006576Y-96247493D01*
X173191786Y-96362170D01*
X173191792Y-96362173D01*
X173191960Y-96362238D01*
X173394931Y-96440870D01*
X173609074Y-96480900D01*
X173609076Y-96480900D01*
X173826924Y-96480900D01*
X173826926Y-96480900D01*
X174041069Y-96440870D01*
X174244210Y-96362172D01*
X174429432Y-96247488D01*
X174590427Y-96100722D01*
X174619047Y-96062822D01*
X174675153Y-96021187D01*
X174744865Y-96016494D01*
X174806048Y-96050236D01*
X174816946Y-96062814D01*
X174845573Y-96100722D01*
X175006568Y-96247488D01*
X175006575Y-96247492D01*
X175006576Y-96247493D01*
X175191786Y-96362170D01*
X175191792Y-96362173D01*
X175191960Y-96362238D01*
X175394931Y-96440870D01*
X175609074Y-96480900D01*
X175609076Y-96480900D01*
X175826924Y-96480900D01*
X175826926Y-96480900D01*
X176041069Y-96440870D01*
X176244210Y-96362172D01*
X176429432Y-96247488D01*
X176590427Y-96100722D01*
X176619047Y-96062822D01*
X176675153Y-96021187D01*
X176744865Y-96016494D01*
X176806048Y-96050236D01*
X176816946Y-96062814D01*
X176845573Y-96100722D01*
X177006568Y-96247488D01*
X177006575Y-96247492D01*
X177006576Y-96247493D01*
X177191786Y-96362170D01*
X177191792Y-96362173D01*
X177191960Y-96362238D01*
X177394931Y-96440870D01*
X177609074Y-96480900D01*
X177609076Y-96480900D01*
X177826924Y-96480900D01*
X177826926Y-96480900D01*
X178041069Y-96440870D01*
X178244210Y-96362172D01*
X178429432Y-96247488D01*
X178590427Y-96100722D01*
X178619047Y-96062822D01*
X178675153Y-96021187D01*
X178744865Y-96016494D01*
X178806048Y-96050236D01*
X178816946Y-96062814D01*
X178845573Y-96100722D01*
X179006568Y-96247488D01*
X179006575Y-96247492D01*
X179006576Y-96247493D01*
X179191786Y-96362170D01*
X179191792Y-96362173D01*
X179191960Y-96362238D01*
X179394931Y-96440870D01*
X179609074Y-96480900D01*
X179609076Y-96480900D01*
X179826924Y-96480900D01*
X179826926Y-96480900D01*
X180041069Y-96440870D01*
X180244210Y-96362172D01*
X180429432Y-96247488D01*
X180590427Y-96100722D01*
X180619359Y-96062409D01*
X180675465Y-96020773D01*
X180745177Y-96016080D01*
X180806360Y-96049821D01*
X180817267Y-96062409D01*
X180845942Y-96100381D01*
X180845949Y-96100389D01*
X181006868Y-96247085D01*
X181192012Y-96361722D01*
X181192023Y-96361727D01*
X181395060Y-96440384D01*
X181468000Y-96454019D01*
X181468000Y-95621086D01*
X181472394Y-95625480D01*
X181563606Y-95678141D01*
X181665339Y-95705400D01*
X181770661Y-95705400D01*
X181872394Y-95678141D01*
X181963606Y-95625480D01*
X181968000Y-95621086D01*
X181968000Y-96454019D01*
X182040939Y-96440384D01*
X182243976Y-96361727D01*
X182243987Y-96361722D01*
X182429130Y-96247085D01*
X182429131Y-96247085D01*
X182590054Y-96100385D01*
X182721284Y-95926608D01*
X182818348Y-95731680D01*
X182868505Y-95555400D01*
X182033686Y-95555400D01*
X182038080Y-95551006D01*
X182090741Y-95459794D01*
X182118000Y-95358061D01*
X182118000Y-95252739D01*
X182090741Y-95151006D01*
X182038080Y-95059794D01*
X182033686Y-95055400D01*
X182868505Y-95055400D01*
X182868505Y-95055399D01*
X182818348Y-94879119D01*
X182721284Y-94684191D01*
X182590056Y-94510417D01*
X182493188Y-94422111D01*
X203828300Y-94422111D01*
X203828300Y-94664688D01*
X203859961Y-94905185D01*
X203922747Y-95139504D01*
X203991463Y-95305399D01*
X204015576Y-95363612D01*
X204136864Y-95573689D01*
X204136866Y-95573692D01*
X204136867Y-95573693D01*
X204284533Y-95766136D01*
X204284539Y-95766143D01*
X204456056Y-95937660D01*
X204456063Y-95937666D01*
X204563585Y-96020170D01*
X204648511Y-96085336D01*
X204858588Y-96206624D01*
X205082700Y-96299454D01*
X205317011Y-96362238D01*
X205497386Y-96385984D01*
X205557511Y-96393900D01*
X205557512Y-96393900D01*
X205800089Y-96393900D01*
X205848188Y-96387567D01*
X206040589Y-96362238D01*
X206274900Y-96299454D01*
X206499012Y-96206624D01*
X206709089Y-96085336D01*
X206901538Y-95937665D01*
X207073065Y-95766138D01*
X207220736Y-95573689D01*
X207342024Y-95363612D01*
X207434854Y-95139500D01*
X207497638Y-94905189D01*
X207529300Y-94664688D01*
X207529300Y-94422112D01*
X207497638Y-94181611D01*
X207434854Y-93947300D01*
X207342024Y-93723188D01*
X207220736Y-93513111D01*
X207101762Y-93358061D01*
X207073066Y-93320663D01*
X207073060Y-93320656D01*
X206901543Y-93149139D01*
X206901536Y-93149133D01*
X206709093Y-93001467D01*
X206709092Y-93001466D01*
X206709089Y-93001464D01*
X206499012Y-92880176D01*
X206496460Y-92879119D01*
X206274904Y-92787347D01*
X206040585Y-92724561D01*
X205800089Y-92692900D01*
X205800088Y-92692900D01*
X205557512Y-92692900D01*
X205557511Y-92692900D01*
X205317014Y-92724561D01*
X205082695Y-92787347D01*
X204858594Y-92880173D01*
X204858585Y-92880177D01*
X204648506Y-93001467D01*
X204456063Y-93149133D01*
X204456056Y-93149139D01*
X204284539Y-93320656D01*
X204284533Y-93320663D01*
X204136867Y-93513106D01*
X204136864Y-93513110D01*
X204136864Y-93513111D01*
X204120617Y-93541251D01*
X204015577Y-93723185D01*
X204015573Y-93723194D01*
X203922747Y-93947295D01*
X203859961Y-94181614D01*
X203828300Y-94422111D01*
X182493188Y-94422111D01*
X182465684Y-94397038D01*
X182429403Y-94337327D01*
X182431163Y-94267479D01*
X182465684Y-94213762D01*
X182590056Y-94100382D01*
X182721284Y-93926608D01*
X182818348Y-93731680D01*
X182868505Y-93555400D01*
X182033686Y-93555400D01*
X182038080Y-93551006D01*
X182090741Y-93459794D01*
X182118000Y-93358061D01*
X182118000Y-93252739D01*
X182090741Y-93151006D01*
X182038080Y-93059794D01*
X182033686Y-93055400D01*
X182868505Y-93055400D01*
X182868505Y-93055399D01*
X182818348Y-92879119D01*
X182721284Y-92684191D01*
X182590054Y-92510414D01*
X182429131Y-92363714D01*
X182243987Y-92249077D01*
X182243985Y-92249076D01*
X182040931Y-92170413D01*
X182040921Y-92170410D01*
X181968001Y-92156778D01*
X181968000Y-92156779D01*
X181968000Y-92989714D01*
X181963606Y-92985320D01*
X181872394Y-92932659D01*
X181770661Y-92905400D01*
X181665339Y-92905400D01*
X181563606Y-92932659D01*
X181472394Y-92985320D01*
X181468000Y-92989714D01*
X181468000Y-92156779D01*
X181467998Y-92156778D01*
X181395078Y-92170410D01*
X181395068Y-92170413D01*
X181192014Y-92249076D01*
X181192012Y-92249077D01*
X181006869Y-92363714D01*
X181006868Y-92363714D01*
X180845945Y-92510414D01*
X180817267Y-92548390D01*
X180761157Y-92590026D01*
X180691445Y-92594717D01*
X180630264Y-92560975D01*
X180619359Y-92548390D01*
X180610547Y-92536721D01*
X180590427Y-92510078D01*
X180524785Y-92450238D01*
X180429432Y-92363312D01*
X180429431Y-92363311D01*
X180402221Y-92346463D01*
X180355586Y-92294435D01*
X180343500Y-92241037D01*
X180343500Y-86460341D01*
X180343501Y-86460320D01*
X180343501Y-86330991D01*
X180319464Y-86210155D01*
X180319463Y-86210149D01*
X180272312Y-86096315D01*
X180203858Y-85993867D01*
X180203855Y-85993863D01*
X170200619Y-75990627D01*
X170167134Y-75929304D01*
X170164300Y-75902946D01*
X170164300Y-62793399D01*
X192943941Y-62793399D01*
X192943941Y-62793400D01*
X192964536Y-63028803D01*
X192964538Y-63028813D01*
X193025694Y-63257055D01*
X193025696Y-63257059D01*
X193025697Y-63257063D01*
X193096295Y-63408461D01*
X193125565Y-63471230D01*
X193125567Y-63471234D01*
X193233881Y-63625921D01*
X193261101Y-63664796D01*
X193261106Y-63664802D01*
X193428197Y-63831893D01*
X193428203Y-63831898D01*
X193613758Y-63961825D01*
X193657383Y-64016402D01*
X193664577Y-64085900D01*
X193633054Y-64148255D01*
X193613758Y-64164975D01*
X193428197Y-64294905D01*
X193261105Y-64461997D01*
X193125565Y-64655569D01*
X193125564Y-64655571D01*
X193025698Y-64869735D01*
X193025694Y-64869744D01*
X192964538Y-65097986D01*
X192964536Y-65097996D01*
X192943941Y-65333399D01*
X192943941Y-65333400D01*
X192964536Y-65568803D01*
X192964538Y-65568813D01*
X193025694Y-65797055D01*
X193025696Y-65797059D01*
X193025697Y-65797063D01*
X193095045Y-65945780D01*
X193125565Y-66011230D01*
X193125567Y-66011234D01*
X193143506Y-66036853D01*
X193261101Y-66204796D01*
X193261106Y-66204802D01*
X193428197Y-66371893D01*
X193428203Y-66371898D01*
X193613758Y-66501825D01*
X193657383Y-66556402D01*
X193664577Y-66625900D01*
X193633054Y-66688255D01*
X193613758Y-66704975D01*
X193428197Y-66834905D01*
X193261105Y-67001997D01*
X193125565Y-67195569D01*
X193125564Y-67195571D01*
X193025698Y-67409735D01*
X193025694Y-67409744D01*
X192964538Y-67637986D01*
X192964536Y-67637996D01*
X192943941Y-67873399D01*
X192943941Y-67873400D01*
X192964536Y-68108803D01*
X192964538Y-68108813D01*
X193025694Y-68337055D01*
X193025696Y-68337059D01*
X193025697Y-68337063D01*
X193097114Y-68490217D01*
X193125565Y-68551230D01*
X193125567Y-68551234D01*
X193233881Y-68705921D01*
X193261101Y-68744796D01*
X193261106Y-68744802D01*
X193428197Y-68911893D01*
X193428203Y-68911898D01*
X193613758Y-69041825D01*
X193657383Y-69096402D01*
X193664577Y-69165900D01*
X193633054Y-69228255D01*
X193613758Y-69244975D01*
X193428197Y-69374905D01*
X193261105Y-69541997D01*
X193125565Y-69735569D01*
X193125564Y-69735571D01*
X193025698Y-69949735D01*
X193025694Y-69949744D01*
X192964538Y-70177986D01*
X192964536Y-70177996D01*
X192943941Y-70413399D01*
X192943941Y-70413400D01*
X192964536Y-70648803D01*
X192964538Y-70648813D01*
X193025694Y-70877055D01*
X193025696Y-70877059D01*
X193025697Y-70877063D01*
X193097114Y-71030217D01*
X193125565Y-71091230D01*
X193125567Y-71091234D01*
X193233881Y-71245921D01*
X193261101Y-71284796D01*
X193261106Y-71284802D01*
X193428197Y-71451893D01*
X193428203Y-71451898D01*
X193613758Y-71581825D01*
X193657383Y-71636402D01*
X193664577Y-71705900D01*
X193633054Y-71768255D01*
X193613758Y-71784975D01*
X193428197Y-71914905D01*
X193261105Y-72081997D01*
X193125565Y-72275569D01*
X193125564Y-72275571D01*
X193025698Y-72489735D01*
X193025694Y-72489744D01*
X192964538Y-72717986D01*
X192964536Y-72717996D01*
X192943941Y-72953399D01*
X192943941Y-72953400D01*
X192964536Y-73188803D01*
X192964538Y-73188813D01*
X193025694Y-73417055D01*
X193025696Y-73417059D01*
X193025697Y-73417063D01*
X193097114Y-73570217D01*
X193125565Y-73631230D01*
X193125567Y-73631234D01*
X193233881Y-73785921D01*
X193261101Y-73824796D01*
X193261106Y-73824802D01*
X193428197Y-73991893D01*
X193428203Y-73991898D01*
X193613758Y-74121825D01*
X193657383Y-74176402D01*
X193664577Y-74245900D01*
X193633054Y-74308255D01*
X193613758Y-74324975D01*
X193428197Y-74454905D01*
X193261105Y-74621997D01*
X193125565Y-74815569D01*
X193125564Y-74815571D01*
X193025698Y-75029735D01*
X193025694Y-75029744D01*
X192964538Y-75257986D01*
X192964536Y-75257996D01*
X192943941Y-75493399D01*
X192943941Y-75493400D01*
X192964536Y-75728803D01*
X192964538Y-75728813D01*
X193025694Y-75957055D01*
X193025696Y-75957059D01*
X193025697Y-75957063D01*
X193097114Y-76110217D01*
X193125565Y-76171230D01*
X193125567Y-76171234D01*
X193233881Y-76325921D01*
X193261101Y-76364796D01*
X193261106Y-76364802D01*
X193428197Y-76531893D01*
X193428203Y-76531898D01*
X193613758Y-76661825D01*
X193657383Y-76716402D01*
X193664577Y-76785900D01*
X193633054Y-76848255D01*
X193613758Y-76864975D01*
X193428197Y-76994905D01*
X193261105Y-77161997D01*
X193125565Y-77355569D01*
X193125564Y-77355571D01*
X193025698Y-77569735D01*
X193025694Y-77569744D01*
X192964538Y-77797986D01*
X192964536Y-77797996D01*
X192943941Y-78033399D01*
X192943941Y-78033400D01*
X192964536Y-78268803D01*
X192964538Y-78268813D01*
X193025694Y-78497055D01*
X193025696Y-78497059D01*
X193025697Y-78497063D01*
X193097114Y-78650217D01*
X193125565Y-78711230D01*
X193125567Y-78711234D01*
X193233881Y-78865921D01*
X193261101Y-78904796D01*
X193261106Y-78904802D01*
X193383030Y-79026726D01*
X193416515Y-79088049D01*
X193411531Y-79157741D01*
X193369659Y-79213674D01*
X193338683Y-79230589D01*
X193207269Y-79279603D01*
X193207264Y-79279606D01*
X193092055Y-79365852D01*
X193092052Y-79365855D01*
X193005806Y-79481064D01*
X193005802Y-79481071D01*
X192955508Y-79615917D01*
X192949101Y-79675516D01*
X192949100Y-79675535D01*
X192949100Y-81471270D01*
X192949101Y-81471276D01*
X192955508Y-81530883D01*
X193005802Y-81665728D01*
X193005806Y-81665735D01*
X193092052Y-81780944D01*
X193092055Y-81780947D01*
X193207264Y-81867193D01*
X193207271Y-81867197D01*
X193342117Y-81917491D01*
X193342116Y-81917491D01*
X193349044Y-81918235D01*
X193401727Y-81923900D01*
X195197472Y-81923899D01*
X195257083Y-81917491D01*
X195391931Y-81867196D01*
X195507146Y-81780946D01*
X195593396Y-81665731D01*
X195642410Y-81534316D01*
X195684281Y-81478384D01*
X195749745Y-81453966D01*
X195818018Y-81468817D01*
X195846273Y-81489969D01*
X195968199Y-81611895D01*
X196064984Y-81679665D01*
X196161765Y-81747432D01*
X196161767Y-81747433D01*
X196161770Y-81747435D01*
X196375937Y-81847303D01*
X196604192Y-81908463D01*
X196780634Y-81923900D01*
X196839599Y-81929059D01*
X196839600Y-81929059D01*
X196839601Y-81929059D01*
X196898566Y-81923900D01*
X197075008Y-81908463D01*
X197303263Y-81847303D01*
X197517430Y-81747435D01*
X197711001Y-81611895D01*
X197878095Y-81444801D01*
X198013635Y-81251230D01*
X198113503Y-81037063D01*
X198174663Y-80808808D01*
X198195259Y-80573400D01*
X198195136Y-80571999D01*
X198191139Y-80526318D01*
X198174663Y-80337992D01*
X198113503Y-80109737D01*
X198013635Y-79895571D01*
X198012654Y-79894169D01*
X197878094Y-79701997D01*
X197711002Y-79534906D01*
X197710996Y-79534901D01*
X197525442Y-79404975D01*
X197481817Y-79350398D01*
X197474623Y-79280900D01*
X197506146Y-79218545D01*
X197525442Y-79201825D01*
X197561717Y-79176425D01*
X197711001Y-79071895D01*
X197878095Y-78904801D01*
X198013635Y-78711230D01*
X198113503Y-78497063D01*
X198174663Y-78268808D01*
X198195259Y-78033400D01*
X198195136Y-78031999D01*
X198174663Y-77797996D01*
X198174663Y-77797992D01*
X198113503Y-77569737D01*
X198013635Y-77355571D01*
X198012654Y-77354169D01*
X197878094Y-77161997D01*
X197711002Y-76994906D01*
X197710996Y-76994901D01*
X197525442Y-76864975D01*
X197481817Y-76810398D01*
X197474623Y-76740900D01*
X197506146Y-76678545D01*
X197525442Y-76661825D01*
X197561717Y-76636425D01*
X197711001Y-76531895D01*
X197878095Y-76364801D01*
X198013635Y-76171230D01*
X198113503Y-75957063D01*
X198174663Y-75728808D01*
X198195259Y-75493400D01*
X198195136Y-75491999D01*
X198174663Y-75257996D01*
X198174663Y-75257992D01*
X198113503Y-75029737D01*
X198013635Y-74815571D01*
X198012654Y-74814169D01*
X197878094Y-74621997D01*
X197711002Y-74454906D01*
X197710996Y-74454901D01*
X197525442Y-74324975D01*
X197481817Y-74270398D01*
X197474623Y-74200900D01*
X197506146Y-74138545D01*
X197525442Y-74121825D01*
X197561717Y-74096425D01*
X197711001Y-73991895D01*
X197878095Y-73824801D01*
X198013635Y-73631230D01*
X198113503Y-73417063D01*
X198174663Y-73188808D01*
X198195259Y-72953400D01*
X198195136Y-72951999D01*
X198174663Y-72717996D01*
X198174663Y-72717992D01*
X198113503Y-72489737D01*
X198013635Y-72275571D01*
X198012654Y-72274169D01*
X197878094Y-72081997D01*
X197711002Y-71914906D01*
X197710996Y-71914901D01*
X197525442Y-71784975D01*
X197481817Y-71730398D01*
X197474623Y-71660900D01*
X197506146Y-71598545D01*
X197525442Y-71581825D01*
X197561717Y-71556425D01*
X197711001Y-71451895D01*
X197878095Y-71284801D01*
X198013635Y-71091230D01*
X198113503Y-70877063D01*
X198174663Y-70648808D01*
X198195259Y-70413400D01*
X198195136Y-70411999D01*
X198174663Y-70177996D01*
X198174663Y-70177992D01*
X198113503Y-69949737D01*
X198013635Y-69735571D01*
X198012654Y-69734169D01*
X197878094Y-69541997D01*
X197711002Y-69374906D01*
X197710996Y-69374901D01*
X197525442Y-69244975D01*
X197481817Y-69190398D01*
X197474623Y-69120900D01*
X197506146Y-69058545D01*
X197525442Y-69041825D01*
X197561717Y-69016425D01*
X197711001Y-68911895D01*
X197878095Y-68744801D01*
X198013635Y-68551230D01*
X198113503Y-68337063D01*
X198174663Y-68108808D01*
X198195259Y-67873400D01*
X198195136Y-67871999D01*
X198174663Y-67637996D01*
X198174663Y-67637992D01*
X198113503Y-67409737D01*
X198013635Y-67195571D01*
X198012654Y-67194169D01*
X197878094Y-67001997D01*
X197711002Y-66834906D01*
X197710996Y-66834901D01*
X197525442Y-66704975D01*
X197481817Y-66650398D01*
X197474623Y-66580900D01*
X197506146Y-66518545D01*
X197525442Y-66501825D01*
X197561717Y-66476425D01*
X197711001Y-66371895D01*
X197878095Y-66204801D01*
X198013635Y-66011230D01*
X198113503Y-65797063D01*
X198174663Y-65568808D01*
X198195259Y-65333400D01*
X198174663Y-65097992D01*
X198113503Y-64869737D01*
X198013635Y-64655571D01*
X198010991Y-64651794D01*
X197878094Y-64461997D01*
X197711002Y-64294906D01*
X197710996Y-64294901D01*
X197525442Y-64164975D01*
X197481817Y-64110398D01*
X197474623Y-64040900D01*
X197506146Y-63978545D01*
X197525442Y-63961825D01*
X197583385Y-63921253D01*
X197711001Y-63831895D01*
X197878095Y-63664801D01*
X198013635Y-63471230D01*
X198113503Y-63257063D01*
X198174663Y-63028808D01*
X198195259Y-62793400D01*
X198174663Y-62557992D01*
X198113503Y-62329737D01*
X198013635Y-62115571D01*
X198008025Y-62107558D01*
X197878094Y-61921997D01*
X197711002Y-61754906D01*
X197710995Y-61754901D01*
X197674727Y-61729506D01*
X197589126Y-61669567D01*
X197517434Y-61619367D01*
X197517430Y-61619365D01*
X197494291Y-61608575D01*
X197303263Y-61519497D01*
X197303259Y-61519496D01*
X197303255Y-61519494D01*
X197075013Y-61458338D01*
X197075003Y-61458336D01*
X196839601Y-61437741D01*
X196839599Y-61437741D01*
X196604196Y-61458336D01*
X196604186Y-61458338D01*
X196375944Y-61519494D01*
X196375935Y-61519498D01*
X196161771Y-61619364D01*
X196161769Y-61619365D01*
X195968197Y-61754905D01*
X195801105Y-61921997D01*
X195671175Y-62107558D01*
X195616598Y-62151183D01*
X195547100Y-62158377D01*
X195484745Y-62126854D01*
X195468025Y-62107558D01*
X195338094Y-61921997D01*
X195171002Y-61754906D01*
X195170995Y-61754901D01*
X195134727Y-61729506D01*
X195049126Y-61669567D01*
X194977434Y-61619367D01*
X194977430Y-61619365D01*
X194954291Y-61608575D01*
X194763263Y-61519497D01*
X194763259Y-61519496D01*
X194763255Y-61519494D01*
X194535013Y-61458338D01*
X194535003Y-61458336D01*
X194299601Y-61437741D01*
X194299599Y-61437741D01*
X194064196Y-61458336D01*
X194064186Y-61458338D01*
X193835944Y-61519494D01*
X193835935Y-61519498D01*
X193621771Y-61619364D01*
X193621769Y-61619365D01*
X193428197Y-61754905D01*
X193261105Y-61921997D01*
X193125565Y-62115569D01*
X193125564Y-62115571D01*
X193025698Y-62329735D01*
X193025694Y-62329744D01*
X192964538Y-62557986D01*
X192964536Y-62557996D01*
X192943941Y-62793399D01*
X170164300Y-62793399D01*
X170164300Y-58963400D01*
X173383340Y-58963400D01*
X173403126Y-59151656D01*
X173403127Y-59151659D01*
X173461618Y-59331677D01*
X173461621Y-59331684D01*
X173556267Y-59495616D01*
X173672962Y-59625219D01*
X173682929Y-59636288D01*
X173836065Y-59747548D01*
X173836070Y-59747551D01*
X174008992Y-59824542D01*
X174008997Y-59824544D01*
X174194154Y-59863900D01*
X174194155Y-59863900D01*
X174383444Y-59863900D01*
X174383446Y-59863900D01*
X174568603Y-59824544D01*
X174741530Y-59747551D01*
X174876697Y-59649347D01*
X174899772Y-59632582D01*
X174965578Y-59609102D01*
X174972657Y-59608900D01*
X192825101Y-59608900D01*
X192892140Y-59628585D01*
X192937895Y-59681389D01*
X192949101Y-59732900D01*
X192949101Y-59881276D01*
X192955508Y-59940883D01*
X193005802Y-60075728D01*
X193005806Y-60075735D01*
X193092052Y-60190944D01*
X193092055Y-60190947D01*
X193207264Y-60277193D01*
X193207271Y-60277197D01*
X193342117Y-60327491D01*
X193342116Y-60327491D01*
X193349044Y-60328235D01*
X193401727Y-60333900D01*
X195197472Y-60333899D01*
X195257083Y-60327491D01*
X195391931Y-60277196D01*
X195507146Y-60190946D01*
X195593396Y-60075731D01*
X195642410Y-59944316D01*
X195684281Y-59888384D01*
X195749745Y-59863966D01*
X195818018Y-59878817D01*
X195846273Y-59899969D01*
X195968199Y-60021895D01*
X196064984Y-60089665D01*
X196161765Y-60157432D01*
X196161767Y-60157433D01*
X196161770Y-60157435D01*
X196375937Y-60257303D01*
X196604192Y-60318463D01*
X196780634Y-60333900D01*
X196839599Y-60339059D01*
X196839600Y-60339059D01*
X196839601Y-60339059D01*
X196898566Y-60333900D01*
X197075008Y-60318463D01*
X197303263Y-60257303D01*
X197517430Y-60157435D01*
X197711001Y-60021895D01*
X197878095Y-59854801D01*
X198013635Y-59661230D01*
X198113503Y-59447063D01*
X198174663Y-59218808D01*
X198195259Y-58983400D01*
X198174663Y-58747992D01*
X198113503Y-58519737D01*
X198013635Y-58305571D01*
X198010473Y-58301054D01*
X197878094Y-58111997D01*
X197711002Y-57944906D01*
X197710996Y-57944901D01*
X197525442Y-57814975D01*
X197481817Y-57760398D01*
X197474623Y-57690900D01*
X197506146Y-57628545D01*
X197525442Y-57611825D01*
X197657311Y-57519489D01*
X197711001Y-57481895D01*
X197878095Y-57314801D01*
X198013635Y-57121230D01*
X198113503Y-56907063D01*
X198174663Y-56678808D01*
X198195259Y-56443400D01*
X198174663Y-56207992D01*
X198113503Y-55979737D01*
X198013635Y-55765571D01*
X198013633Y-55765567D01*
X197878094Y-55571997D01*
X197711002Y-55404906D01*
X197710996Y-55404901D01*
X197525442Y-55274975D01*
X197481817Y-55220398D01*
X197474623Y-55150900D01*
X197506146Y-55088545D01*
X197525442Y-55071825D01*
X197651227Y-54983749D01*
X197711001Y-54941895D01*
X197878095Y-54774801D01*
X198013635Y-54581230D01*
X198113503Y-54367063D01*
X198174663Y-54138808D01*
X198195259Y-53903400D01*
X198174663Y-53667992D01*
X198113503Y-53439737D01*
X198013635Y-53225571D01*
X198013252Y-53225023D01*
X197878094Y-53031997D01*
X197711002Y-52864906D01*
X197710996Y-52864901D01*
X197525442Y-52734975D01*
X197481817Y-52680398D01*
X197474623Y-52610900D01*
X197506146Y-52548545D01*
X197525442Y-52531825D01*
X197547626Y-52516291D01*
X197711001Y-52401895D01*
X197878095Y-52234801D01*
X198013635Y-52041230D01*
X198113503Y-51827063D01*
X198174663Y-51598808D01*
X198195259Y-51363400D01*
X198174663Y-51127992D01*
X198113503Y-50899737D01*
X198013635Y-50685571D01*
X198013252Y-50685023D01*
X197878094Y-50491997D01*
X197711002Y-50324906D01*
X197710996Y-50324901D01*
X197525442Y-50194975D01*
X197481817Y-50140398D01*
X197474623Y-50070900D01*
X197506146Y-50008545D01*
X197525442Y-49991825D01*
X197608200Y-49933877D01*
X197711001Y-49861895D01*
X197878095Y-49694801D01*
X198013635Y-49501230D01*
X198113503Y-49287063D01*
X198174663Y-49058808D01*
X198195259Y-48823400D01*
X198174663Y-48587992D01*
X198113503Y-48359737D01*
X198013635Y-48145571D01*
X198008025Y-48137558D01*
X197878094Y-47951997D01*
X197711002Y-47784906D01*
X197710996Y-47784901D01*
X197525442Y-47654975D01*
X197481817Y-47600398D01*
X197474623Y-47530900D01*
X197506146Y-47468545D01*
X197525442Y-47451825D01*
X197547626Y-47436291D01*
X197711001Y-47321895D01*
X197878095Y-47154801D01*
X198013635Y-46961230D01*
X198113503Y-46747063D01*
X198174663Y-46518808D01*
X198195259Y-46283400D01*
X198174663Y-46047992D01*
X198113503Y-45819737D01*
X198013635Y-45605571D01*
X198008025Y-45597558D01*
X197878094Y-45411997D01*
X197711002Y-45244906D01*
X197711001Y-45244905D01*
X197525005Y-45114669D01*
X197481381Y-45060092D01*
X197474188Y-44990593D01*
X197505710Y-44928239D01*
X197525005Y-44911519D01*
X197710682Y-44781505D01*
X197877705Y-44614482D01*
X198013200Y-44420978D01*
X198113029Y-44206892D01*
X198113032Y-44206886D01*
X198170236Y-43993400D01*
X197272612Y-43993400D01*
X197305525Y-43936393D01*
X197339600Y-43809226D01*
X197339600Y-43677574D01*
X197305525Y-43550407D01*
X197272612Y-43493400D01*
X198170236Y-43493400D01*
X198170235Y-43493399D01*
X198113032Y-43279913D01*
X198113029Y-43279907D01*
X198013200Y-43065822D01*
X198013199Y-43065820D01*
X197877713Y-42872326D01*
X197877708Y-42872320D01*
X197710678Y-42705290D01*
X197525005Y-42575279D01*
X197481380Y-42520702D01*
X197474188Y-42451204D01*
X197505710Y-42388849D01*
X197525006Y-42372130D01*
X197525442Y-42371825D01*
X197711001Y-42241895D01*
X197878095Y-42074801D01*
X198013635Y-41881230D01*
X198113503Y-41667063D01*
X198174663Y-41438808D01*
X198195259Y-41203400D01*
X198174663Y-40967992D01*
X198113503Y-40739737D01*
X198013635Y-40525571D01*
X198008025Y-40517558D01*
X197878094Y-40331997D01*
X197711002Y-40164906D01*
X197710996Y-40164901D01*
X197525442Y-40034975D01*
X197481817Y-39980398D01*
X197474623Y-39910900D01*
X197506146Y-39848545D01*
X197525442Y-39831825D01*
X197547626Y-39816291D01*
X197711001Y-39701895D01*
X197878095Y-39534801D01*
X198013635Y-39341230D01*
X198113503Y-39127063D01*
X198174663Y-38898808D01*
X198195259Y-38663400D01*
X198174663Y-38427992D01*
X198113503Y-38199737D01*
X198013635Y-37985571D01*
X198008025Y-37977558D01*
X197878094Y-37791997D01*
X197711002Y-37624906D01*
X197710996Y-37624901D01*
X197525442Y-37494975D01*
X197481817Y-37440398D01*
X197474623Y-37370900D01*
X197506146Y-37308545D01*
X197525442Y-37291825D01*
X197547626Y-37276291D01*
X197711001Y-37161895D01*
X197878095Y-36994801D01*
X198013635Y-36801230D01*
X198113503Y-36587063D01*
X198174663Y-36358808D01*
X198195259Y-36123400D01*
X198174663Y-35887992D01*
X198113503Y-35659737D01*
X198013635Y-35445571D01*
X198008025Y-35437558D01*
X197878094Y-35251997D01*
X197711002Y-35084906D01*
X197710995Y-35084901D01*
X197517434Y-34949367D01*
X197517430Y-34949365D01*
X197517428Y-34949364D01*
X197303263Y-34849497D01*
X197303259Y-34849496D01*
X197303255Y-34849494D01*
X197075013Y-34788338D01*
X197075003Y-34788336D01*
X196839601Y-34767741D01*
X196839599Y-34767741D01*
X196604196Y-34788336D01*
X196604186Y-34788338D01*
X196375944Y-34849494D01*
X196375935Y-34849498D01*
X196161771Y-34949364D01*
X196161769Y-34949365D01*
X195968197Y-35084905D01*
X195801105Y-35251997D01*
X195671175Y-35437558D01*
X195616598Y-35481183D01*
X195547100Y-35488377D01*
X195484745Y-35456854D01*
X195468025Y-35437558D01*
X195338094Y-35251997D01*
X195171002Y-35084906D01*
X195170995Y-35084901D01*
X194977434Y-34949367D01*
X194977430Y-34949365D01*
X194977428Y-34949364D01*
X194763263Y-34849497D01*
X194763259Y-34849496D01*
X194763255Y-34849494D01*
X194535013Y-34788338D01*
X194535003Y-34788336D01*
X194299601Y-34767741D01*
X194299599Y-34767741D01*
X194064196Y-34788336D01*
X194064186Y-34788338D01*
X193835944Y-34849494D01*
X193835935Y-34849498D01*
X193621771Y-34949364D01*
X193621769Y-34949365D01*
X193428197Y-35084905D01*
X193261105Y-35251997D01*
X193125565Y-35445569D01*
X193125564Y-35445571D01*
X193025698Y-35659735D01*
X193025694Y-35659744D01*
X192964538Y-35887986D01*
X192964536Y-35887996D01*
X192943941Y-36123399D01*
X192943941Y-36123400D01*
X192964536Y-36358803D01*
X192964538Y-36358813D01*
X193025694Y-36587055D01*
X193025696Y-36587059D01*
X193025697Y-36587063D01*
X193029600Y-36595432D01*
X193125565Y-36801230D01*
X193125567Y-36801234D01*
X193233881Y-36955921D01*
X193261101Y-36994796D01*
X193261106Y-36994802D01*
X193428197Y-37161893D01*
X193428203Y-37161898D01*
X193613758Y-37291825D01*
X193657383Y-37346402D01*
X193664577Y-37415900D01*
X193633054Y-37478255D01*
X193613758Y-37494975D01*
X193428197Y-37624905D01*
X193261105Y-37791997D01*
X193125565Y-37985569D01*
X193125564Y-37985571D01*
X193025698Y-38199735D01*
X193025694Y-38199744D01*
X192964538Y-38427986D01*
X192964536Y-38427996D01*
X192943941Y-38663399D01*
X192943941Y-38663400D01*
X192964536Y-38898803D01*
X192964538Y-38898813D01*
X193025694Y-39127055D01*
X193025696Y-39127059D01*
X193025697Y-39127063D01*
X193029600Y-39135432D01*
X193125565Y-39341230D01*
X193125567Y-39341234D01*
X193233881Y-39495921D01*
X193261101Y-39534796D01*
X193261106Y-39534802D01*
X193428197Y-39701893D01*
X193428203Y-39701898D01*
X193613758Y-39831825D01*
X193657383Y-39886402D01*
X193664577Y-39955900D01*
X193633054Y-40018255D01*
X193613758Y-40034975D01*
X193428197Y-40164905D01*
X193261105Y-40331997D01*
X193125565Y-40525569D01*
X193125564Y-40525571D01*
X193025698Y-40739735D01*
X193025694Y-40739744D01*
X192964538Y-40967986D01*
X192964536Y-40967996D01*
X192943941Y-41203399D01*
X192943941Y-41203400D01*
X192964536Y-41438803D01*
X192964538Y-41438813D01*
X193025694Y-41667055D01*
X193025696Y-41667059D01*
X193025697Y-41667063D01*
X193029600Y-41675432D01*
X193125565Y-41881230D01*
X193125567Y-41881234D01*
X193233881Y-42035921D01*
X193261101Y-42074796D01*
X193261106Y-42074802D01*
X193428197Y-42241893D01*
X193428203Y-42241898D01*
X193613758Y-42371825D01*
X193657383Y-42426402D01*
X193664577Y-42495900D01*
X193633054Y-42558255D01*
X193613758Y-42574975D01*
X193428197Y-42704905D01*
X193261105Y-42871997D01*
X193125565Y-43065569D01*
X193125564Y-43065571D01*
X193025698Y-43279735D01*
X193025694Y-43279744D01*
X192964538Y-43507986D01*
X192964536Y-43507996D01*
X192943941Y-43743399D01*
X192943941Y-43743400D01*
X192964536Y-43978803D01*
X192964538Y-43978813D01*
X193025694Y-44207055D01*
X193025696Y-44207059D01*
X193025697Y-44207063D01*
X193107428Y-44382335D01*
X193125565Y-44421230D01*
X193125567Y-44421234D01*
X193164556Y-44476915D01*
X193261101Y-44614796D01*
X193261106Y-44614802D01*
X193428197Y-44781893D01*
X193428203Y-44781898D01*
X193613758Y-44911825D01*
X193657383Y-44966402D01*
X193664577Y-45035900D01*
X193633054Y-45098255D01*
X193613758Y-45114975D01*
X193428197Y-45244905D01*
X193261105Y-45411997D01*
X193125565Y-45605569D01*
X193125564Y-45605571D01*
X193025698Y-45819735D01*
X193025694Y-45819744D01*
X192964538Y-46047986D01*
X192964536Y-46047996D01*
X192943941Y-46283399D01*
X192943941Y-46283400D01*
X192964536Y-46518803D01*
X192964538Y-46518813D01*
X193025694Y-46747055D01*
X193025696Y-46747059D01*
X193025697Y-46747063D01*
X193108958Y-46925617D01*
X193125565Y-46961230D01*
X193125567Y-46961234D01*
X193219209Y-47094967D01*
X193261101Y-47154796D01*
X193261106Y-47154802D01*
X193428197Y-47321893D01*
X193428203Y-47321898D01*
X193613758Y-47451825D01*
X193657383Y-47506402D01*
X193664577Y-47575900D01*
X193633054Y-47638255D01*
X193613758Y-47654975D01*
X193428197Y-47784905D01*
X193261105Y-47951997D01*
X193125565Y-48145569D01*
X193125564Y-48145571D01*
X193075543Y-48252842D01*
X193028902Y-48352865D01*
X193025698Y-48359735D01*
X193025694Y-48359744D01*
X192964538Y-48587986D01*
X192964536Y-48587996D01*
X192943941Y-48823399D01*
X192943941Y-48823400D01*
X192964536Y-49058803D01*
X192964538Y-49058813D01*
X193025694Y-49287055D01*
X193025696Y-49287059D01*
X193025697Y-49287063D01*
X193108958Y-49465617D01*
X193125565Y-49501230D01*
X193125567Y-49501234D01*
X193219209Y-49634967D01*
X193261101Y-49694796D01*
X193261106Y-49694802D01*
X193428197Y-49861893D01*
X193428203Y-49861898D01*
X193613758Y-49991825D01*
X193657383Y-50046402D01*
X193664577Y-50115900D01*
X193633054Y-50178255D01*
X193613758Y-50194975D01*
X193428197Y-50324905D01*
X193261105Y-50491997D01*
X193125948Y-50685023D01*
X193071371Y-50728648D01*
X193024373Y-50737900D01*
X178706541Y-50737900D01*
X178706521Y-50737899D01*
X178700407Y-50737899D01*
X178577194Y-50737899D01*
X178577192Y-50737899D01*
X178492078Y-50754830D01*
X178456348Y-50761937D01*
X178456347Y-50761937D01*
X178456344Y-50761938D01*
X178456341Y-50761939D01*
X178424062Y-50775309D01*
X178409197Y-50781467D01*
X178342519Y-50809085D01*
X178342517Y-50809086D01*
X178240066Y-50877541D01*
X178240063Y-50877544D01*
X177841028Y-51276581D01*
X177779705Y-51310066D01*
X177753347Y-51312900D01*
X177694154Y-51312900D01*
X177669149Y-51318215D01*
X177508997Y-51352255D01*
X177508992Y-51352257D01*
X177336070Y-51429248D01*
X177336065Y-51429251D01*
X177182929Y-51540511D01*
X177056266Y-51681185D01*
X176961621Y-51845115D01*
X176961618Y-51845122D01*
X176908506Y-52008585D01*
X176903126Y-52025144D01*
X176883340Y-52213400D01*
X176903126Y-52401656D01*
X176903127Y-52401659D01*
X176961618Y-52581677D01*
X176961621Y-52581684D01*
X177056267Y-52745616D01*
X177163672Y-52864901D01*
X177182929Y-52886288D01*
X177336065Y-52997548D01*
X177336070Y-52997551D01*
X177476842Y-53060228D01*
X177530079Y-53105478D01*
X177550400Y-53172328D01*
X177531354Y-53239551D01*
X177478988Y-53285806D01*
X177450597Y-53295124D01*
X177416355Y-53301934D01*
X177416355Y-53301935D01*
X177416352Y-53301936D01*
X177416348Y-53301937D01*
X177383007Y-53315747D01*
X177302519Y-53349084D01*
X177302505Y-53349092D01*
X177200072Y-53417538D01*
X177200064Y-53417544D01*
X177129213Y-53488396D01*
X177112942Y-53504667D01*
X177112939Y-53504670D01*
X176962112Y-53655498D01*
X176841029Y-53776581D01*
X176779706Y-53810066D01*
X176753348Y-53812900D01*
X176694154Y-53812900D01*
X176682275Y-53815425D01*
X176508997Y-53852255D01*
X176508992Y-53852257D01*
X176336070Y-53929248D01*
X176336065Y-53929251D01*
X176182929Y-54040511D01*
X176056266Y-54181185D01*
X175961621Y-54345115D01*
X175961618Y-54345122D01*
X175904650Y-54520454D01*
X175903126Y-54525144D01*
X175883340Y-54713400D01*
X175903126Y-54901656D01*
X175903127Y-54901659D01*
X175961618Y-55081677D01*
X175961621Y-55081684D01*
X176056267Y-55245616D01*
X176182929Y-55386288D01*
X176336065Y-55497548D01*
X176336070Y-55497551D01*
X176508994Y-55574543D01*
X176513379Y-55575968D01*
X176571056Y-55615403D01*
X176598256Y-55679761D01*
X176586344Y-55748607D01*
X176539102Y-55800085D01*
X176475065Y-55817900D01*
X175997189Y-55817900D01*
X175912078Y-55834830D01*
X175876348Y-55841937D01*
X175876347Y-55841937D01*
X175762517Y-55889087D01*
X175732582Y-55909089D01*
X175660066Y-55957542D01*
X175660062Y-55957545D01*
X175341028Y-56276581D01*
X175279705Y-56310066D01*
X175253347Y-56312900D01*
X175194154Y-56312900D01*
X175161697Y-56319798D01*
X175008997Y-56352255D01*
X175008992Y-56352257D01*
X174836070Y-56429248D01*
X174836065Y-56429251D01*
X174682929Y-56540511D01*
X174556266Y-56681185D01*
X174461621Y-56845115D01*
X174461618Y-56845122D01*
X174404986Y-57019420D01*
X174403126Y-57025144D01*
X174383340Y-57213400D01*
X174403126Y-57401656D01*
X174403127Y-57401659D01*
X174461618Y-57581677D01*
X174461621Y-57581684D01*
X174556267Y-57745616D01*
X174682929Y-57886288D01*
X174687758Y-57890636D01*
X174686212Y-57892352D01*
X174722432Y-57939303D01*
X174728425Y-58008915D01*
X174695832Y-58070716D01*
X174635000Y-58105086D01*
X174575188Y-58102531D01*
X174574960Y-58103607D01*
X174438227Y-58074544D01*
X174383446Y-58062900D01*
X174194154Y-58062900D01*
X174175665Y-58066830D01*
X174008997Y-58102255D01*
X174008992Y-58102257D01*
X173836070Y-58179248D01*
X173836065Y-58179251D01*
X173682929Y-58290511D01*
X173556266Y-58431185D01*
X173461621Y-58595115D01*
X173461618Y-58595122D01*
X173406261Y-58765495D01*
X173403126Y-58775144D01*
X173383340Y-58963400D01*
X170164300Y-58963400D01*
X170164300Y-58151794D01*
X170158610Y-58123190D01*
X170154447Y-58102257D01*
X170151119Y-58085524D01*
X170151119Y-58085523D01*
X170140264Y-58030955D01*
X170140263Y-58030948D01*
X170093111Y-57917114D01*
X170093110Y-57917113D01*
X170093107Y-57917107D01*
X170024658Y-57814667D01*
X170024655Y-57814663D01*
X169934437Y-57724445D01*
X169934406Y-57724416D01*
X160278998Y-48069008D01*
X160278978Y-48068986D01*
X160187533Y-47977541D01*
X160136309Y-47943315D01*
X160085087Y-47909089D01*
X160085086Y-47909088D01*
X160085083Y-47909086D01*
X160085080Y-47909085D01*
X160004592Y-47875747D01*
X159971253Y-47861937D01*
X159955647Y-47858833D01*
X159910829Y-47849918D01*
X159850410Y-47837900D01*
X159850407Y-47837900D01*
X159850406Y-47837900D01*
X156099252Y-47837900D01*
X156032213Y-47818215D01*
X156011571Y-47801581D01*
X152812598Y-44602608D01*
X152812578Y-44602586D01*
X152721133Y-44511141D01*
X152669909Y-44476915D01*
X152618686Y-44442688D01*
X152618683Y-44442686D01*
X152618682Y-44442686D01*
X152618681Y-44442685D01*
X152555047Y-44416328D01*
X152500643Y-44372488D01*
X152478578Y-44306194D01*
X152478499Y-44301767D01*
X152478499Y-44099129D01*
X152478498Y-44099123D01*
X152472091Y-44039516D01*
X152421797Y-43904671D01*
X152421793Y-43904664D01*
X152335547Y-43789455D01*
X152335544Y-43789452D01*
X152220335Y-43703206D01*
X152220328Y-43703202D01*
X152085482Y-43652908D01*
X152085483Y-43652908D01*
X152025883Y-43646501D01*
X152025881Y-43646500D01*
X152025873Y-43646500D01*
X152025864Y-43646500D01*
X150230129Y-43646500D01*
X150230123Y-43646501D01*
X150170516Y-43652908D01*
X150035671Y-43703202D01*
X150035664Y-43703206D01*
X149920455Y-43789452D01*
X149920452Y-43789455D01*
X149834206Y-43904664D01*
X149834203Y-43904669D01*
X149785189Y-44036083D01*
X149743317Y-44092016D01*
X149677853Y-44116433D01*
X149609580Y-44101581D01*
X149581326Y-44080430D01*
X149459402Y-43958506D01*
X149459395Y-43958501D01*
X149265834Y-43822967D01*
X149265830Y-43822965D01*
X149236367Y-43809226D01*
X149051663Y-43723097D01*
X149051659Y-43723096D01*
X149051655Y-43723094D01*
X148823413Y-43661938D01*
X148823403Y-43661936D01*
X148588001Y-43641341D01*
X148587999Y-43641341D01*
X148352596Y-43661936D01*
X148352586Y-43661938D01*
X148124344Y-43723094D01*
X148124335Y-43723098D01*
X147910171Y-43822964D01*
X147910169Y-43822965D01*
X147716597Y-43958505D01*
X147549505Y-44125597D01*
X147413965Y-44319169D01*
X147413964Y-44319171D01*
X147314098Y-44533335D01*
X147314094Y-44533344D01*
X147252938Y-44761586D01*
X147252936Y-44761596D01*
X147232341Y-44996999D01*
X147232341Y-44997000D01*
X147252936Y-45232403D01*
X147252938Y-45232413D01*
X147314094Y-45460655D01*
X147314096Y-45460659D01*
X147314097Y-45460663D01*
X147381668Y-45605569D01*
X147413965Y-45674830D01*
X147413967Y-45674834D01*
X147530582Y-45841377D01*
X147552909Y-45907583D01*
X147535899Y-45975350D01*
X147484951Y-46023163D01*
X147429007Y-46036500D01*
X145597103Y-46036500D01*
X145363831Y-46073446D01*
X145139203Y-46146433D01*
X144928765Y-46253657D01*
X144737688Y-46392484D01*
X143644284Y-47485888D01*
X143505455Y-47676967D01*
X143412792Y-47858833D01*
X143412791Y-47858835D01*
X143398234Y-47887402D01*
X143398232Y-47887406D01*
X143398232Y-47887408D01*
X143382975Y-47934361D01*
X143325246Y-48112031D01*
X143288300Y-48345302D01*
X143288300Y-96081497D01*
X143325246Y-96314768D01*
X143398233Y-96539396D01*
X143505457Y-96749834D01*
X143644283Y-96940910D01*
X145811290Y-99107917D01*
X146002366Y-99246743D01*
X146139161Y-99316443D01*
X146217149Y-99356180D01*
X146216421Y-99357608D01*
X146265353Y-99397034D01*
X146287424Y-99463326D01*
X146270150Y-99531027D01*
X146219017Y-99578641D01*
X146163541Y-99591762D01*
X71569901Y-99614553D01*
X71563017Y-99614364D01*
X71442100Y-99607678D01*
X71426601Y-99605837D01*
X71182677Y-99561149D01*
X71165517Y-99556718D01*
X70931456Y-99478050D01*
X70915103Y-99471217D01*
X70694658Y-99359989D01*
X70679447Y-99350896D01*
X70530532Y-99246744D01*
X70477097Y-99209371D01*
X70463351Y-99198213D01*
X70283242Y-99029284D01*
X70271219Y-99016271D01*
X70117036Y-98823399D01*
X70106987Y-98808800D01*
X70080987Y-98764560D01*
X69981872Y-98595912D01*
X69974014Y-98580043D01*
X69880526Y-98351495D01*
X69875009Y-98334667D01*
X69814796Y-98094086D01*
X69811969Y-98078742D01*
X69798028Y-97962418D01*
X69797148Y-97947693D01*
X69797148Y-94422111D01*
X73018300Y-94422111D01*
X73018300Y-94664688D01*
X73049961Y-94905185D01*
X73112747Y-95139504D01*
X73181463Y-95305399D01*
X73205576Y-95363612D01*
X73326864Y-95573689D01*
X73326866Y-95573692D01*
X73326867Y-95573693D01*
X73474533Y-95766136D01*
X73474539Y-95766143D01*
X73646056Y-95937660D01*
X73646063Y-95937666D01*
X73753585Y-96020170D01*
X73838511Y-96085336D01*
X74048588Y-96206624D01*
X74272700Y-96299454D01*
X74507011Y-96362238D01*
X74687386Y-96385984D01*
X74747511Y-96393900D01*
X74747512Y-96393900D01*
X74990089Y-96393900D01*
X75038188Y-96387567D01*
X75230589Y-96362238D01*
X75464900Y-96299454D01*
X75689012Y-96206624D01*
X75899089Y-96085336D01*
X76091538Y-95937665D01*
X76263065Y-95766138D01*
X76410736Y-95573689D01*
X76532024Y-95363612D01*
X76624854Y-95139500D01*
X76687638Y-94905189D01*
X76719300Y-94664688D01*
X76719300Y-94422112D01*
X76687638Y-94181611D01*
X76624854Y-93947300D01*
X76532024Y-93723188D01*
X76410736Y-93513111D01*
X76291762Y-93358061D01*
X76263066Y-93320663D01*
X76263060Y-93320656D01*
X76091543Y-93149139D01*
X76091536Y-93149133D01*
X75899093Y-93001467D01*
X75899092Y-93001466D01*
X75899089Y-93001464D01*
X75689012Y-92880176D01*
X75686460Y-92879119D01*
X75464904Y-92787347D01*
X75230585Y-92724561D01*
X74990089Y-92692900D01*
X74990088Y-92692900D01*
X74747512Y-92692900D01*
X74747511Y-92692900D01*
X74507014Y-92724561D01*
X74272695Y-92787347D01*
X74048594Y-92880173D01*
X74048585Y-92880177D01*
X73838506Y-93001467D01*
X73646063Y-93149133D01*
X73646056Y-93149139D01*
X73474539Y-93320656D01*
X73474533Y-93320663D01*
X73326867Y-93513106D01*
X73326864Y-93513110D01*
X73326864Y-93513111D01*
X73310617Y-93541251D01*
X73205577Y-93723185D01*
X73205573Y-93723194D01*
X73112747Y-93947295D01*
X73049961Y-94181614D01*
X73018300Y-94422111D01*
X69797148Y-94422111D01*
X69797148Y-88168552D01*
X69785466Y-67871999D01*
X82357341Y-67871999D01*
X82357341Y-67872000D01*
X82377936Y-68107403D01*
X82377938Y-68107413D01*
X82439094Y-68335655D01*
X82439096Y-68335659D01*
X82439097Y-68335663D01*
X82531510Y-68533842D01*
X82538965Y-68549830D01*
X82538967Y-68549834D01*
X82674501Y-68743395D01*
X82674506Y-68743402D01*
X82841597Y-68910493D01*
X82841603Y-68910498D01*
X83027158Y-69040425D01*
X83070783Y-69095002D01*
X83077977Y-69164500D01*
X83046454Y-69226855D01*
X83027158Y-69243575D01*
X82841597Y-69373505D01*
X82674505Y-69540597D01*
X82538965Y-69734169D01*
X82538964Y-69734171D01*
X82439098Y-69948335D01*
X82439094Y-69948344D01*
X82377938Y-70176586D01*
X82377936Y-70176596D01*
X82357341Y-70411999D01*
X82357341Y-70412000D01*
X82377936Y-70647403D01*
X82377938Y-70647413D01*
X82439094Y-70875655D01*
X82439096Y-70875659D01*
X82439097Y-70875663D01*
X82531510Y-71073842D01*
X82538965Y-71089830D01*
X82538967Y-71089834D01*
X82545555Y-71099242D01*
X82674501Y-71283396D01*
X82674506Y-71283402D01*
X82841597Y-71450493D01*
X82841603Y-71450498D01*
X83027158Y-71580425D01*
X83070783Y-71635002D01*
X83077977Y-71704500D01*
X83046454Y-71766855D01*
X83027158Y-71783575D01*
X82841597Y-71913505D01*
X82674505Y-72080597D01*
X82538965Y-72274169D01*
X82538964Y-72274171D01*
X82439098Y-72488335D01*
X82439094Y-72488344D01*
X82377938Y-72716586D01*
X82377936Y-72716596D01*
X82357341Y-72951999D01*
X82357341Y-72952000D01*
X82377936Y-73187403D01*
X82377938Y-73187413D01*
X82439094Y-73415655D01*
X82439096Y-73415659D01*
X82439097Y-73415663D01*
X82531510Y-73613842D01*
X82538965Y-73629830D01*
X82538967Y-73629834D01*
X82545555Y-73639242D01*
X82674501Y-73823396D01*
X82674506Y-73823402D01*
X82841597Y-73990493D01*
X82841603Y-73990498D01*
X83027158Y-74120425D01*
X83070783Y-74175002D01*
X83077977Y-74244500D01*
X83046454Y-74306855D01*
X83027158Y-74323575D01*
X82841597Y-74453505D01*
X82674505Y-74620597D01*
X82538965Y-74814169D01*
X82538964Y-74814171D01*
X82439098Y-75028335D01*
X82439094Y-75028344D01*
X82377938Y-75256586D01*
X82377936Y-75256596D01*
X82357341Y-75491999D01*
X82357341Y-75492000D01*
X82377936Y-75727403D01*
X82377938Y-75727413D01*
X82439094Y-75955655D01*
X82439096Y-75955659D01*
X82439097Y-75955663D01*
X82531510Y-76153842D01*
X82538965Y-76169830D01*
X82538967Y-76169834D01*
X82545555Y-76179242D01*
X82674501Y-76363396D01*
X82674506Y-76363402D01*
X82841597Y-76530493D01*
X82841603Y-76530498D01*
X83027158Y-76660425D01*
X83070783Y-76715002D01*
X83077977Y-76784500D01*
X83046454Y-76846855D01*
X83027158Y-76863575D01*
X82841597Y-76993505D01*
X82674505Y-77160597D01*
X82538965Y-77354169D01*
X82538964Y-77354171D01*
X82439098Y-77568335D01*
X82439094Y-77568344D01*
X82377938Y-77796586D01*
X82377936Y-77796596D01*
X82357341Y-78031999D01*
X82357341Y-78032000D01*
X82377936Y-78267403D01*
X82377938Y-78267413D01*
X82439094Y-78495655D01*
X82439096Y-78495659D01*
X82439097Y-78495663D01*
X82531510Y-78693842D01*
X82538965Y-78709830D01*
X82538967Y-78709834D01*
X82545555Y-78719242D01*
X82674501Y-78903396D01*
X82674506Y-78903402D01*
X82841597Y-79070493D01*
X82841603Y-79070498D01*
X83027158Y-79200425D01*
X83070783Y-79255002D01*
X83077977Y-79324500D01*
X83046454Y-79386855D01*
X83027158Y-79403575D01*
X82841597Y-79533505D01*
X82674505Y-79700597D01*
X82538965Y-79894169D01*
X82538964Y-79894171D01*
X82439098Y-80108335D01*
X82439094Y-80108344D01*
X82377938Y-80336586D01*
X82377936Y-80336596D01*
X82357341Y-80571999D01*
X82357341Y-80572000D01*
X82377936Y-80807403D01*
X82377938Y-80807413D01*
X82439094Y-81035655D01*
X82439096Y-81035659D01*
X82439097Y-81035663D01*
X82533703Y-81238546D01*
X82538965Y-81249830D01*
X82538967Y-81249834D01*
X82545555Y-81259242D01*
X82674505Y-81443401D01*
X82841599Y-81610495D01*
X82884215Y-81640335D01*
X83035165Y-81746032D01*
X83035167Y-81746033D01*
X83035170Y-81746035D01*
X83249337Y-81845903D01*
X83477592Y-81907063D01*
X83665918Y-81923539D01*
X83712999Y-81927659D01*
X83713000Y-81927659D01*
X83713001Y-81927659D01*
X83752234Y-81924226D01*
X83948408Y-81907063D01*
X84176663Y-81845903D01*
X84390830Y-81746035D01*
X84584401Y-81610495D01*
X84751495Y-81443401D01*
X84881425Y-81257842D01*
X84936002Y-81214217D01*
X85005500Y-81207023D01*
X85067855Y-81238546D01*
X85084575Y-81257842D01*
X85214500Y-81443395D01*
X85214505Y-81443401D01*
X85381599Y-81610495D01*
X85424215Y-81640335D01*
X85575165Y-81746032D01*
X85575167Y-81746033D01*
X85575170Y-81746035D01*
X85789337Y-81845903D01*
X86017592Y-81907063D01*
X86205918Y-81923539D01*
X86252999Y-81927659D01*
X86253000Y-81927659D01*
X86253001Y-81927659D01*
X86292234Y-81924226D01*
X86488408Y-81907063D01*
X86716663Y-81845903D01*
X86930830Y-81746035D01*
X87124401Y-81610495D01*
X87291495Y-81443401D01*
X87427035Y-81249830D01*
X87526903Y-81035663D01*
X87588063Y-80807408D01*
X87608659Y-80572000D01*
X87588063Y-80336592D01*
X87526903Y-80108337D01*
X87427035Y-79894171D01*
X87421425Y-79886158D01*
X87291494Y-79700597D01*
X87124402Y-79533506D01*
X87124396Y-79533501D01*
X86938842Y-79403575D01*
X86895217Y-79348998D01*
X86888023Y-79279500D01*
X86919546Y-79217145D01*
X86938842Y-79200425D01*
X87036076Y-79132341D01*
X87124401Y-79070495D01*
X87291495Y-78903401D01*
X87427035Y-78709830D01*
X87526903Y-78495663D01*
X87588063Y-78267408D01*
X87608659Y-78032000D01*
X87588063Y-77796592D01*
X87526903Y-77568337D01*
X87427035Y-77354171D01*
X87421425Y-77346158D01*
X87291494Y-77160597D01*
X87124402Y-76993506D01*
X87124396Y-76993501D01*
X86938842Y-76863575D01*
X86895217Y-76808998D01*
X86888023Y-76739500D01*
X86919546Y-76677145D01*
X86938842Y-76660425D01*
X87122397Y-76531898D01*
X87124401Y-76530495D01*
X87291495Y-76363401D01*
X87427035Y-76169830D01*
X87526903Y-75955663D01*
X87588063Y-75727408D01*
X87608659Y-75492000D01*
X87588063Y-75256592D01*
X87526903Y-75028337D01*
X87427035Y-74814171D01*
X87421425Y-74806158D01*
X87291494Y-74620597D01*
X87124402Y-74453506D01*
X87124396Y-74453501D01*
X86938842Y-74323575D01*
X86895217Y-74268998D01*
X86888023Y-74199500D01*
X86919546Y-74137145D01*
X86938842Y-74120425D01*
X87122397Y-73991898D01*
X87124401Y-73990495D01*
X87291495Y-73823401D01*
X87427035Y-73629830D01*
X87526903Y-73415663D01*
X87588063Y-73187408D01*
X87608659Y-72952000D01*
X87588063Y-72716592D01*
X87526903Y-72488337D01*
X87427035Y-72274171D01*
X87421425Y-72266158D01*
X87291494Y-72080597D01*
X87124402Y-71913506D01*
X87124396Y-71913501D01*
X86938842Y-71783575D01*
X86895217Y-71728998D01*
X86888023Y-71659500D01*
X86919546Y-71597145D01*
X86938842Y-71580425D01*
X87122397Y-71451898D01*
X87124401Y-71450495D01*
X87291495Y-71283401D01*
X87427035Y-71089830D01*
X87526903Y-70875663D01*
X87588063Y-70647408D01*
X87608659Y-70412000D01*
X87588063Y-70176592D01*
X87526903Y-69948337D01*
X87427035Y-69734171D01*
X87421424Y-69726158D01*
X87291496Y-69540600D01*
X87267493Y-69516597D01*
X87169567Y-69418671D01*
X87136084Y-69357351D01*
X87141068Y-69287659D01*
X87182939Y-69231725D01*
X87213915Y-69214810D01*
X87345331Y-69165796D01*
X87460546Y-69079546D01*
X87546796Y-68964331D01*
X87597091Y-68829483D01*
X87603500Y-68769873D01*
X87603499Y-66974128D01*
X87598299Y-66925757D01*
X87597091Y-66914516D01*
X87546797Y-66779671D01*
X87546793Y-66779664D01*
X87460547Y-66664455D01*
X87460544Y-66664452D01*
X87345335Y-66578206D01*
X87345328Y-66578202D01*
X87210482Y-66527908D01*
X87210483Y-66527908D01*
X87150883Y-66521501D01*
X87150881Y-66521500D01*
X87150873Y-66521500D01*
X87150864Y-66521500D01*
X85355129Y-66521500D01*
X85355123Y-66521501D01*
X85295516Y-66527908D01*
X85160671Y-66578202D01*
X85160664Y-66578206D01*
X85045455Y-66664452D01*
X85045452Y-66664455D01*
X84959206Y-66779664D01*
X84959203Y-66779669D01*
X84910189Y-66911083D01*
X84868317Y-66967016D01*
X84802853Y-66991433D01*
X84734580Y-66976581D01*
X84706326Y-66955430D01*
X84584402Y-66833506D01*
X84584395Y-66833501D01*
X84390834Y-66697967D01*
X84390830Y-66697965D01*
X84370007Y-66688255D01*
X84176663Y-66598097D01*
X84176659Y-66598096D01*
X84176655Y-66598094D01*
X83948413Y-66536938D01*
X83948403Y-66536936D01*
X83713001Y-66516341D01*
X83712999Y-66516341D01*
X83477596Y-66536936D01*
X83477586Y-66536938D01*
X83249344Y-66598094D01*
X83249335Y-66598098D01*
X83035171Y-66697964D01*
X83035169Y-66697965D01*
X82841597Y-66833505D01*
X82674505Y-67000597D01*
X82538965Y-67194169D01*
X82538964Y-67194171D01*
X82439098Y-67408335D01*
X82439094Y-67408344D01*
X82377938Y-67636586D01*
X82377936Y-67636596D01*
X82357341Y-67871999D01*
X69785466Y-67871999D01*
X69772316Y-45026999D01*
X82372341Y-45026999D01*
X82372341Y-45027000D01*
X82392936Y-45262403D01*
X82392938Y-45262413D01*
X82454094Y-45490655D01*
X82454096Y-45490659D01*
X82454097Y-45490663D01*
X82538499Y-45671663D01*
X82553965Y-45704830D01*
X82553967Y-45704834D01*
X82689501Y-45898395D01*
X82689506Y-45898402D01*
X82856597Y-46065493D01*
X82856603Y-46065498D01*
X83042158Y-46195425D01*
X83085783Y-46250002D01*
X83092977Y-46319500D01*
X83061454Y-46381855D01*
X83042158Y-46398575D01*
X82856597Y-46528505D01*
X82689505Y-46695597D01*
X82553965Y-46889169D01*
X82553964Y-46889171D01*
X82454098Y-47103335D01*
X82454094Y-47103344D01*
X82392938Y-47331586D01*
X82392936Y-47331596D01*
X82372341Y-47566999D01*
X82372341Y-47567000D01*
X82392936Y-47802403D01*
X82392938Y-47802413D01*
X82454094Y-48030655D01*
X82454096Y-48030659D01*
X82454097Y-48030663D01*
X82534004Y-48202023D01*
X82553965Y-48244830D01*
X82553967Y-48244834D01*
X82628563Y-48351367D01*
X82689501Y-48438396D01*
X82689506Y-48438402D01*
X82856597Y-48605493D01*
X82856603Y-48605498D01*
X83042158Y-48735425D01*
X83085783Y-48790002D01*
X83092977Y-48859500D01*
X83061454Y-48921855D01*
X83042158Y-48938575D01*
X82856597Y-49068505D01*
X82689505Y-49235597D01*
X82553965Y-49429169D01*
X82553964Y-49429171D01*
X82454098Y-49643335D01*
X82454094Y-49643344D01*
X82392938Y-49871586D01*
X82392936Y-49871596D01*
X82372341Y-50106999D01*
X82372341Y-50107000D01*
X82392936Y-50342403D01*
X82392938Y-50342413D01*
X82454094Y-50570655D01*
X82454096Y-50570659D01*
X82454097Y-50570663D01*
X82527767Y-50728648D01*
X82553965Y-50784830D01*
X82553967Y-50784834D01*
X82618884Y-50877544D01*
X82689501Y-50978396D01*
X82689506Y-50978402D01*
X82856597Y-51145493D01*
X82856603Y-51145498D01*
X83042158Y-51275425D01*
X83085783Y-51330002D01*
X83092977Y-51399500D01*
X83061454Y-51461855D01*
X83042158Y-51478575D01*
X82856597Y-51608505D01*
X82689505Y-51775597D01*
X82553965Y-51969169D01*
X82553964Y-51969171D01*
X82454098Y-52183335D01*
X82454094Y-52183344D01*
X82392938Y-52411586D01*
X82392936Y-52411596D01*
X82372341Y-52646999D01*
X82372341Y-52647000D01*
X82392936Y-52882403D01*
X82392938Y-52882413D01*
X82454094Y-53110655D01*
X82454096Y-53110659D01*
X82454097Y-53110663D01*
X82527767Y-53268648D01*
X82553965Y-53324830D01*
X82553967Y-53324834D01*
X82628563Y-53431367D01*
X82689501Y-53518396D01*
X82689506Y-53518402D01*
X82856597Y-53685493D01*
X82856603Y-53685498D01*
X83042158Y-53815425D01*
X83085783Y-53870002D01*
X83092977Y-53939500D01*
X83061454Y-54001855D01*
X83042158Y-54018575D01*
X82856597Y-54148505D01*
X82689505Y-54315597D01*
X82553965Y-54509169D01*
X82553964Y-54509171D01*
X82454098Y-54723335D01*
X82454094Y-54723344D01*
X82392938Y-54951586D01*
X82392936Y-54951596D01*
X82372341Y-55186999D01*
X82372341Y-55187000D01*
X82392936Y-55422403D01*
X82392938Y-55422413D01*
X82454094Y-55650655D01*
X82454096Y-55650659D01*
X82454097Y-55650663D01*
X82527767Y-55808648D01*
X82553965Y-55864830D01*
X82553967Y-55864834D01*
X82628563Y-55971367D01*
X82689505Y-56058401D01*
X82856599Y-56225495D01*
X83037632Y-56352256D01*
X83042594Y-56355730D01*
X83086219Y-56410307D01*
X83093413Y-56479805D01*
X83061890Y-56542160D01*
X83042595Y-56558880D01*
X82856922Y-56688890D01*
X82856920Y-56688891D01*
X82689891Y-56855920D01*
X82689886Y-56855926D01*
X82554400Y-57049420D01*
X82554399Y-57049422D01*
X82454570Y-57263507D01*
X82454567Y-57263513D01*
X82397364Y-57476999D01*
X82397364Y-57477000D01*
X83294988Y-57477000D01*
X83262075Y-57534007D01*
X83228000Y-57661174D01*
X83228000Y-57792826D01*
X83262075Y-57919993D01*
X83294988Y-57977000D01*
X82397364Y-57977000D01*
X82454567Y-58190486D01*
X82454570Y-58190492D01*
X82554399Y-58404578D01*
X82689894Y-58598082D01*
X82856917Y-58765105D01*
X83043031Y-58895425D01*
X83086656Y-58950003D01*
X83093848Y-59019501D01*
X83062326Y-59081856D01*
X83043031Y-59098575D01*
X82856922Y-59228890D01*
X82856920Y-59228891D01*
X82689891Y-59395920D01*
X82689886Y-59395926D01*
X82554400Y-59589420D01*
X82554399Y-59589422D01*
X82454570Y-59803507D01*
X82454567Y-59803513D01*
X82397364Y-60016999D01*
X82397364Y-60017000D01*
X83294988Y-60017000D01*
X83262075Y-60074007D01*
X83228000Y-60201174D01*
X83228000Y-60332826D01*
X83262075Y-60459993D01*
X83294988Y-60517000D01*
X82397364Y-60517000D01*
X82454567Y-60730486D01*
X82454570Y-60730492D01*
X82554399Y-60944578D01*
X82689894Y-61138082D01*
X82856917Y-61305105D01*
X83042595Y-61435119D01*
X83086219Y-61489696D01*
X83093412Y-61559195D01*
X83061890Y-61621549D01*
X83042595Y-61638269D01*
X82856594Y-61768508D01*
X82689505Y-61935597D01*
X82553965Y-62129169D01*
X82553964Y-62129171D01*
X82454098Y-62343335D01*
X82454094Y-62343344D01*
X82392938Y-62571586D01*
X82392936Y-62571596D01*
X82372341Y-62806999D01*
X82372341Y-62807000D01*
X82392936Y-63042403D01*
X82392938Y-63042413D01*
X82454094Y-63270655D01*
X82454096Y-63270659D01*
X82454097Y-63270663D01*
X82519172Y-63410217D01*
X82553965Y-63484830D01*
X82553967Y-63484834D01*
X82598720Y-63548747D01*
X82689505Y-63678401D01*
X82856599Y-63845495D01*
X82953384Y-63913265D01*
X83050165Y-63981032D01*
X83050167Y-63981033D01*
X83050170Y-63981035D01*
X83264337Y-64080903D01*
X83492592Y-64142063D01*
X83728000Y-64162659D01*
X83745945Y-64161088D01*
X83814442Y-64174852D01*
X83844435Y-64196935D01*
X84684936Y-65037435D01*
X84750220Y-65102719D01*
X84810366Y-65162865D01*
X84957846Y-65261409D01*
X84957859Y-65261416D01*
X85070323Y-65307999D01*
X85121734Y-65329294D01*
X85164335Y-65337768D01*
X85295705Y-65363900D01*
X85295708Y-65363900D01*
X85295709Y-65363900D01*
X93864438Y-65363900D01*
X93931477Y-65383585D01*
X93952119Y-65400219D01*
X95351981Y-66800081D01*
X95385466Y-66861404D01*
X95388300Y-66887762D01*
X95388300Y-91769934D01*
X95368615Y-91836973D01*
X95338612Y-91869200D01*
X95256252Y-91930855D01*
X95170006Y-92046064D01*
X95170002Y-92046071D01*
X95119708Y-92180917D01*
X95113301Y-92240516D01*
X95113300Y-92240535D01*
X95113300Y-93686270D01*
X95113301Y-93686276D01*
X95119708Y-93745883D01*
X95170002Y-93880728D01*
X95170006Y-93880735D01*
X95256252Y-93995944D01*
X95256253Y-93995945D01*
X95256254Y-93995946D01*
X95338611Y-94057598D01*
X95380482Y-94113531D01*
X95388300Y-94156864D01*
X95388300Y-94163692D01*
X95368615Y-94230731D01*
X95363261Y-94238408D01*
X95341309Y-94267479D01*
X95285088Y-94341927D01*
X95285084Y-94341934D01*
X95187984Y-94536937D01*
X95172997Y-94589611D01*
X95137777Y-94713399D01*
X95128364Y-94746481D01*
X95108264Y-94963399D01*
X95108264Y-94963400D01*
X95128364Y-95180318D01*
X95128364Y-95180320D01*
X95128365Y-95180323D01*
X95187932Y-95389680D01*
X95187984Y-95389862D01*
X95284957Y-95584608D01*
X95285088Y-95584872D01*
X95416373Y-95758722D01*
X95577368Y-95905488D01*
X95577375Y-95905492D01*
X95577376Y-95905493D01*
X95762586Y-96020170D01*
X95762592Y-96020173D01*
X95785464Y-96029033D01*
X95965731Y-96098870D01*
X96179874Y-96138900D01*
X96179876Y-96138900D01*
X96397724Y-96138900D01*
X96397726Y-96138900D01*
X96611869Y-96098870D01*
X96815010Y-96020172D01*
X97000232Y-95905488D01*
X97161227Y-95758722D01*
X97189847Y-95720822D01*
X97245953Y-95679187D01*
X97315665Y-95674494D01*
X97376848Y-95708236D01*
X97387746Y-95720814D01*
X97416373Y-95758722D01*
X97416376Y-95758725D01*
X97416378Y-95758727D01*
X97531369Y-95863554D01*
X97577368Y-95905488D01*
X97577375Y-95905492D01*
X97577376Y-95905493D01*
X97762586Y-96020170D01*
X97762592Y-96020173D01*
X97785464Y-96029033D01*
X97965731Y-96098870D01*
X98179874Y-96138900D01*
X98179876Y-96138900D01*
X98397724Y-96138900D01*
X98397726Y-96138900D01*
X98611869Y-96098870D01*
X98815010Y-96020172D01*
X99000232Y-95905488D01*
X99161227Y-95758722D01*
X99189847Y-95720822D01*
X99245953Y-95679187D01*
X99315665Y-95674494D01*
X99376848Y-95708236D01*
X99387746Y-95720814D01*
X99416373Y-95758722D01*
X99416376Y-95758725D01*
X99416378Y-95758727D01*
X99531369Y-95863554D01*
X99577368Y-95905488D01*
X99577375Y-95905492D01*
X99577376Y-95905493D01*
X99762586Y-96020170D01*
X99762592Y-96020173D01*
X99785464Y-96029033D01*
X99965731Y-96098870D01*
X100179874Y-96138900D01*
X100179876Y-96138900D01*
X100397724Y-96138900D01*
X100397726Y-96138900D01*
X100611869Y-96098870D01*
X100815010Y-96020172D01*
X101000232Y-95905488D01*
X101161227Y-95758722D01*
X101189847Y-95720822D01*
X101245953Y-95679187D01*
X101315665Y-95674494D01*
X101376848Y-95708236D01*
X101387746Y-95720814D01*
X101416373Y-95758722D01*
X101416376Y-95758725D01*
X101416378Y-95758727D01*
X101531369Y-95863554D01*
X101577368Y-95905488D01*
X101577375Y-95905492D01*
X101577376Y-95905493D01*
X101762586Y-96020170D01*
X101762592Y-96020173D01*
X101785464Y-96029033D01*
X101965731Y-96098870D01*
X102179874Y-96138900D01*
X102179876Y-96138900D01*
X102397724Y-96138900D01*
X102397726Y-96138900D01*
X102611869Y-96098870D01*
X102815010Y-96020172D01*
X103000232Y-95905488D01*
X103161227Y-95758722D01*
X103189847Y-95720822D01*
X103245953Y-95679187D01*
X103315665Y-95674494D01*
X103376848Y-95708236D01*
X103387746Y-95720814D01*
X103416373Y-95758722D01*
X103416376Y-95758725D01*
X103416378Y-95758727D01*
X103531369Y-95863554D01*
X103577368Y-95905488D01*
X103577375Y-95905492D01*
X103577376Y-95905493D01*
X103762586Y-96020170D01*
X103762592Y-96020173D01*
X103785464Y-96029033D01*
X103965731Y-96098870D01*
X104179874Y-96138900D01*
X104179876Y-96138900D01*
X104397724Y-96138900D01*
X104397726Y-96138900D01*
X104611869Y-96098870D01*
X104815010Y-96020172D01*
X105000232Y-95905488D01*
X105161227Y-95758722D01*
X105189847Y-95720822D01*
X105245953Y-95679187D01*
X105315665Y-95674494D01*
X105376848Y-95708236D01*
X105387746Y-95720814D01*
X105416373Y-95758722D01*
X105416376Y-95758725D01*
X105416378Y-95758727D01*
X105531369Y-95863554D01*
X105577368Y-95905488D01*
X105577375Y-95905492D01*
X105577376Y-95905493D01*
X105762586Y-96020170D01*
X105762592Y-96020173D01*
X105785464Y-96029033D01*
X105965731Y-96098870D01*
X106179874Y-96138900D01*
X106179876Y-96138900D01*
X106397724Y-96138900D01*
X106397726Y-96138900D01*
X106611869Y-96098870D01*
X106815010Y-96020172D01*
X107000232Y-95905488D01*
X107161227Y-95758722D01*
X107189847Y-95720822D01*
X107245953Y-95679187D01*
X107315665Y-95674494D01*
X107376848Y-95708236D01*
X107387746Y-95720814D01*
X107416373Y-95758722D01*
X107416376Y-95758725D01*
X107416378Y-95758727D01*
X107531369Y-95863554D01*
X107577368Y-95905488D01*
X107577375Y-95905492D01*
X107577376Y-95905493D01*
X107762586Y-96020170D01*
X107762592Y-96020173D01*
X107785464Y-96029033D01*
X107965731Y-96098870D01*
X108179874Y-96138900D01*
X108179876Y-96138900D01*
X108397724Y-96138900D01*
X108397726Y-96138900D01*
X108611869Y-96098870D01*
X108815010Y-96020172D01*
X109000232Y-95905488D01*
X109161227Y-95758722D01*
X109189847Y-95720822D01*
X109245953Y-95679187D01*
X109315665Y-95674494D01*
X109376848Y-95708236D01*
X109387746Y-95720814D01*
X109416373Y-95758722D01*
X109416376Y-95758725D01*
X109416378Y-95758727D01*
X109531369Y-95863554D01*
X109577368Y-95905488D01*
X109577375Y-95905492D01*
X109577376Y-95905493D01*
X109762586Y-96020170D01*
X109762592Y-96020173D01*
X109785464Y-96029033D01*
X109965731Y-96098870D01*
X110179874Y-96138900D01*
X110179876Y-96138900D01*
X110397724Y-96138900D01*
X110397726Y-96138900D01*
X110611869Y-96098870D01*
X110815010Y-96020172D01*
X111000232Y-95905488D01*
X111161227Y-95758722D01*
X111189847Y-95720822D01*
X111245953Y-95679187D01*
X111315665Y-95674494D01*
X111376848Y-95708236D01*
X111387746Y-95720814D01*
X111416373Y-95758722D01*
X111416376Y-95758725D01*
X111416378Y-95758727D01*
X111531369Y-95863554D01*
X111577368Y-95905488D01*
X111577375Y-95905492D01*
X111577376Y-95905493D01*
X111762586Y-96020170D01*
X111762592Y-96020173D01*
X111785464Y-96029033D01*
X111965731Y-96098870D01*
X112179874Y-96138900D01*
X112179876Y-96138900D01*
X112397724Y-96138900D01*
X112397726Y-96138900D01*
X112611869Y-96098870D01*
X112815010Y-96020172D01*
X113000232Y-95905488D01*
X113161227Y-95758722D01*
X113190159Y-95720409D01*
X113246265Y-95678773D01*
X113315977Y-95674080D01*
X113377160Y-95707821D01*
X113388067Y-95720409D01*
X113416742Y-95758381D01*
X113416749Y-95758389D01*
X113577668Y-95905085D01*
X113762812Y-96019722D01*
X113762823Y-96019727D01*
X113965860Y-96098384D01*
X114038800Y-96112019D01*
X114038800Y-95279086D01*
X114043194Y-95283480D01*
X114134406Y-95336141D01*
X114236139Y-95363400D01*
X114341461Y-95363400D01*
X114443194Y-95336141D01*
X114534406Y-95283480D01*
X114538800Y-95279086D01*
X114538800Y-96112019D01*
X114611739Y-96098384D01*
X114814776Y-96019727D01*
X114814787Y-96019722D01*
X114999930Y-95905085D01*
X114999931Y-95905085D01*
X115160854Y-95758385D01*
X115292084Y-95584608D01*
X115389148Y-95389680D01*
X115439305Y-95213400D01*
X114604486Y-95213400D01*
X114608880Y-95209006D01*
X114661541Y-95117794D01*
X114688800Y-95016061D01*
X114688800Y-94910739D01*
X114661541Y-94809006D01*
X114608880Y-94717794D01*
X114604486Y-94713400D01*
X115439305Y-94713400D01*
X115439305Y-94713399D01*
X115389148Y-94537119D01*
X115292084Y-94342191D01*
X115160856Y-94168417D01*
X115036484Y-94055038D01*
X115000203Y-93995327D01*
X115001963Y-93925479D01*
X115036484Y-93871762D01*
X115160856Y-93758382D01*
X115292084Y-93584608D01*
X115389148Y-93389680D01*
X115439305Y-93213400D01*
X114604486Y-93213400D01*
X114608880Y-93209006D01*
X114661541Y-93117794D01*
X114688800Y-93016061D01*
X114688800Y-92910739D01*
X114661541Y-92809006D01*
X114608880Y-92717794D01*
X114604486Y-92713400D01*
X115439305Y-92713400D01*
X115439305Y-92713399D01*
X115389148Y-92537119D01*
X115292084Y-92342191D01*
X115160854Y-92168414D01*
X114999931Y-92021714D01*
X114814787Y-91907077D01*
X114814785Y-91907076D01*
X114611731Y-91828413D01*
X114611721Y-91828410D01*
X114538801Y-91814778D01*
X114538800Y-91814779D01*
X114538800Y-92647714D01*
X114534406Y-92643320D01*
X114443194Y-92590659D01*
X114341461Y-92563400D01*
X114236139Y-92563400D01*
X114134406Y-92590659D01*
X114043194Y-92643320D01*
X114038800Y-92647714D01*
X114038800Y-91814779D01*
X114038798Y-91814778D01*
X113965878Y-91828410D01*
X113965868Y-91828413D01*
X113762814Y-91907076D01*
X113762812Y-91907077D01*
X113577669Y-92021714D01*
X113577668Y-92021714D01*
X113416745Y-92168414D01*
X113388067Y-92206390D01*
X113331957Y-92248026D01*
X113262245Y-92252717D01*
X113201064Y-92218975D01*
X113190159Y-92206390D01*
X113176406Y-92188178D01*
X113161227Y-92168078D01*
X113153334Y-92160883D01*
X113044796Y-92061937D01*
X113000232Y-92021312D01*
X113000228Y-92021309D01*
X113000223Y-92021306D01*
X112815013Y-91906629D01*
X112815007Y-91906626D01*
X112718398Y-91869200D01*
X112611869Y-91827930D01*
X112397726Y-91787900D01*
X112179874Y-91787900D01*
X111965731Y-91827930D01*
X111922691Y-91844604D01*
X111762592Y-91906626D01*
X111762586Y-91906629D01*
X111577376Y-92021306D01*
X111577366Y-92021313D01*
X111416373Y-92168076D01*
X111387753Y-92205976D01*
X111331644Y-92247611D01*
X111261932Y-92252302D01*
X111200750Y-92218559D01*
X111189847Y-92205976D01*
X111161226Y-92168076D01*
X111000233Y-92021313D01*
X111000223Y-92021306D01*
X110815013Y-91906629D01*
X110815007Y-91906626D01*
X110718398Y-91869200D01*
X110611869Y-91827930D01*
X110397726Y-91787900D01*
X110179874Y-91787900D01*
X110036083Y-91814778D01*
X109966570Y-91807748D01*
X109911891Y-91764250D01*
X109889409Y-91698096D01*
X109889300Y-91692890D01*
X109889300Y-85052459D01*
X109889301Y-85052446D01*
X109889301Y-84884345D01*
X109889301Y-84884343D01*
X109848377Y-84731615D01*
X109819439Y-84681495D01*
X109769320Y-84594684D01*
X109657516Y-84482880D01*
X109657515Y-84482879D01*
X109653185Y-84478549D01*
X109653174Y-84478539D01*
X105425619Y-80250984D01*
X105392134Y-80189661D01*
X105389300Y-80163303D01*
X105389300Y-62767999D01*
X128097741Y-62767999D01*
X128097741Y-62768000D01*
X128118336Y-63003403D01*
X128118338Y-63003413D01*
X128179494Y-63231655D01*
X128179496Y-63231659D01*
X128179497Y-63231663D01*
X128262758Y-63410217D01*
X128279365Y-63445830D01*
X128279367Y-63445834D01*
X128351428Y-63548747D01*
X128414901Y-63639396D01*
X128414906Y-63639402D01*
X128581997Y-63806493D01*
X128582003Y-63806498D01*
X128767558Y-63936425D01*
X128811183Y-63991002D01*
X128818377Y-64060500D01*
X128786854Y-64122855D01*
X128767558Y-64139575D01*
X128581997Y-64269505D01*
X128414905Y-64436597D01*
X128279365Y-64630169D01*
X128279364Y-64630171D01*
X128179498Y-64844335D01*
X128179494Y-64844344D01*
X128118338Y-65072586D01*
X128118336Y-65072596D01*
X128097741Y-65307999D01*
X128097741Y-65308000D01*
X128118336Y-65543403D01*
X128118338Y-65543413D01*
X128179494Y-65771655D01*
X128179497Y-65771663D01*
X128279365Y-65985830D01*
X128279367Y-65985834D01*
X128366685Y-66110536D01*
X128414901Y-66179396D01*
X128414906Y-66179402D01*
X128581997Y-66346493D01*
X128582003Y-66346498D01*
X128767558Y-66476425D01*
X128811183Y-66531002D01*
X128818377Y-66600500D01*
X128786854Y-66662855D01*
X128767558Y-66679575D01*
X128581997Y-66809505D01*
X128414905Y-66976597D01*
X128279365Y-67170169D01*
X128279364Y-67170171D01*
X128179498Y-67384335D01*
X128179494Y-67384344D01*
X128118338Y-67612586D01*
X128118336Y-67612596D01*
X128097741Y-67847999D01*
X128097741Y-67848000D01*
X128118336Y-68083403D01*
X128118338Y-68083413D01*
X128179494Y-68311655D01*
X128179496Y-68311659D01*
X128179497Y-68311663D01*
X128191342Y-68337064D01*
X128279365Y-68525830D01*
X128279367Y-68525834D01*
X128302760Y-68559242D01*
X128414901Y-68719396D01*
X128414906Y-68719402D01*
X128581997Y-68886493D01*
X128582003Y-68886498D01*
X128767558Y-69016425D01*
X128811183Y-69071002D01*
X128818377Y-69140500D01*
X128786854Y-69202855D01*
X128767558Y-69219575D01*
X128581997Y-69349505D01*
X128414905Y-69516597D01*
X128279365Y-69710169D01*
X128279364Y-69710171D01*
X128179498Y-69924335D01*
X128179494Y-69924344D01*
X128118338Y-70152586D01*
X128118336Y-70152596D01*
X128097741Y-70387999D01*
X128097741Y-70388000D01*
X128118336Y-70623403D01*
X128118338Y-70623413D01*
X128179494Y-70851655D01*
X128179496Y-70851659D01*
X128179497Y-70851663D01*
X128191342Y-70877064D01*
X128279365Y-71065830D01*
X128279367Y-71065834D01*
X128302760Y-71099242D01*
X128414901Y-71259396D01*
X128414906Y-71259402D01*
X128581997Y-71426493D01*
X128582003Y-71426498D01*
X128767558Y-71556425D01*
X128811183Y-71611002D01*
X128818377Y-71680500D01*
X128786854Y-71742855D01*
X128767558Y-71759575D01*
X128581997Y-71889505D01*
X128414905Y-72056597D01*
X128279365Y-72250169D01*
X128279364Y-72250171D01*
X128179498Y-72464335D01*
X128179494Y-72464344D01*
X128118338Y-72692586D01*
X128118336Y-72692596D01*
X128097741Y-72927999D01*
X128097741Y-72928000D01*
X128118336Y-73163403D01*
X128118338Y-73163413D01*
X128179494Y-73391655D01*
X128179496Y-73391659D01*
X128179497Y-73391663D01*
X128191342Y-73417064D01*
X128279365Y-73605830D01*
X128279367Y-73605834D01*
X128302760Y-73639242D01*
X128414901Y-73799396D01*
X128414906Y-73799402D01*
X128581997Y-73966493D01*
X128582003Y-73966498D01*
X128767558Y-74096425D01*
X128811183Y-74151002D01*
X128818377Y-74220500D01*
X128786854Y-74282855D01*
X128767558Y-74299575D01*
X128581997Y-74429505D01*
X128414905Y-74596597D01*
X128279365Y-74790169D01*
X128279364Y-74790171D01*
X128179498Y-75004335D01*
X128179494Y-75004344D01*
X128118338Y-75232586D01*
X128118336Y-75232596D01*
X128097741Y-75467999D01*
X128097741Y-75468000D01*
X128118336Y-75703403D01*
X128118338Y-75703413D01*
X128179494Y-75931655D01*
X128179496Y-75931659D01*
X128179497Y-75931663D01*
X128259404Y-76103023D01*
X128279365Y-76145830D01*
X128279367Y-76145834D01*
X128302760Y-76179242D01*
X128414901Y-76339396D01*
X128414906Y-76339402D01*
X128581997Y-76506493D01*
X128582003Y-76506498D01*
X128767558Y-76636425D01*
X128811183Y-76691002D01*
X128818377Y-76760500D01*
X128786854Y-76822855D01*
X128767558Y-76839575D01*
X128581997Y-76969505D01*
X128414905Y-77136597D01*
X128279365Y-77330169D01*
X128279364Y-77330171D01*
X128179498Y-77544335D01*
X128179494Y-77544344D01*
X128118338Y-77772586D01*
X128118336Y-77772596D01*
X128097741Y-78007999D01*
X128097741Y-78008000D01*
X128118336Y-78243403D01*
X128118338Y-78243413D01*
X128179494Y-78471655D01*
X128179496Y-78471659D01*
X128179497Y-78471663D01*
X128191342Y-78497064D01*
X128279365Y-78685830D01*
X128279367Y-78685834D01*
X128302760Y-78719242D01*
X128414901Y-78879396D01*
X128414906Y-78879402D01*
X128536830Y-79001326D01*
X128570315Y-79062649D01*
X128565331Y-79132341D01*
X128523459Y-79188274D01*
X128492483Y-79205189D01*
X128361069Y-79254203D01*
X128361064Y-79254206D01*
X128245855Y-79340452D01*
X128245852Y-79340455D01*
X128159606Y-79455664D01*
X128159602Y-79455671D01*
X128109308Y-79590517D01*
X128102901Y-79650116D01*
X128102900Y-79650135D01*
X128102900Y-81445870D01*
X128102901Y-81445876D01*
X128109308Y-81505483D01*
X128159602Y-81640328D01*
X128159606Y-81640335D01*
X128245852Y-81755544D01*
X128245855Y-81755547D01*
X128361064Y-81841793D01*
X128361071Y-81841797D01*
X128495917Y-81892091D01*
X128495916Y-81892091D01*
X128502844Y-81892835D01*
X128555527Y-81898500D01*
X130351272Y-81898499D01*
X130410883Y-81892091D01*
X130545731Y-81841796D01*
X130660946Y-81755546D01*
X130747196Y-81640331D01*
X130796210Y-81508916D01*
X130838081Y-81452984D01*
X130903545Y-81428566D01*
X130971818Y-81443417D01*
X131000073Y-81464569D01*
X131121999Y-81586495D01*
X131218784Y-81654265D01*
X131315565Y-81722032D01*
X131315567Y-81722033D01*
X131315570Y-81722035D01*
X131529737Y-81821903D01*
X131757992Y-81883063D01*
X131934434Y-81898500D01*
X131993399Y-81903659D01*
X131993400Y-81903659D01*
X131993401Y-81903659D01*
X132052366Y-81898500D01*
X132228808Y-81883063D01*
X132457063Y-81821903D01*
X132671230Y-81722035D01*
X132864801Y-81586495D01*
X133031895Y-81419401D01*
X133167435Y-81225830D01*
X133267303Y-81011663D01*
X133328463Y-80783408D01*
X133349059Y-80548000D01*
X133328463Y-80312592D01*
X133267303Y-80084337D01*
X133167435Y-79870171D01*
X133049681Y-79701999D01*
X133031894Y-79676597D01*
X132864802Y-79509506D01*
X132864796Y-79509501D01*
X132679242Y-79379575D01*
X132635617Y-79324998D01*
X132628423Y-79255500D01*
X132659946Y-79193145D01*
X132679242Y-79176425D01*
X132791454Y-79097853D01*
X132864801Y-79046495D01*
X133031895Y-78879401D01*
X133167435Y-78685830D01*
X133267303Y-78471663D01*
X133328463Y-78243408D01*
X133349059Y-78008000D01*
X133328463Y-77772592D01*
X133267303Y-77544337D01*
X133167435Y-77330171D01*
X133161825Y-77322158D01*
X133031894Y-77136597D01*
X132864802Y-76969506D01*
X132864796Y-76969501D01*
X132679242Y-76839575D01*
X132635617Y-76784998D01*
X132628423Y-76715500D01*
X132659946Y-76653145D01*
X132679242Y-76636425D01*
X132701426Y-76620891D01*
X132864801Y-76506495D01*
X133031895Y-76339401D01*
X133167435Y-76145830D01*
X133267303Y-75931663D01*
X133328463Y-75703408D01*
X133349059Y-75468000D01*
X133328463Y-75232592D01*
X133267303Y-75004337D01*
X133167435Y-74790171D01*
X133161825Y-74782158D01*
X133031894Y-74596597D01*
X132864802Y-74429506D01*
X132864796Y-74429501D01*
X132679242Y-74299575D01*
X132635617Y-74244998D01*
X132628423Y-74175500D01*
X132659946Y-74113145D01*
X132679242Y-74096425D01*
X132701426Y-74080891D01*
X132864801Y-73966495D01*
X133031895Y-73799401D01*
X133167435Y-73605830D01*
X133267303Y-73391663D01*
X133328463Y-73163408D01*
X133349059Y-72928000D01*
X133328463Y-72692592D01*
X133267303Y-72464337D01*
X133167435Y-72250171D01*
X133161825Y-72242158D01*
X133031894Y-72056597D01*
X132864802Y-71889506D01*
X132864796Y-71889501D01*
X132679242Y-71759575D01*
X132635617Y-71704998D01*
X132628423Y-71635500D01*
X132659946Y-71573145D01*
X132679242Y-71556425D01*
X132701426Y-71540891D01*
X132864801Y-71426495D01*
X133031895Y-71259401D01*
X133167435Y-71065830D01*
X133267303Y-70851663D01*
X133328463Y-70623408D01*
X133349059Y-70388000D01*
X133328463Y-70152592D01*
X133267303Y-69924337D01*
X133167435Y-69710171D01*
X133161825Y-69702158D01*
X133031894Y-69516597D01*
X132864802Y-69349506D01*
X132864796Y-69349501D01*
X132679242Y-69219575D01*
X132635617Y-69164998D01*
X132628423Y-69095500D01*
X132659946Y-69033145D01*
X132679242Y-69016425D01*
X132701426Y-69000891D01*
X132864801Y-68886495D01*
X133031895Y-68719401D01*
X133167435Y-68525830D01*
X133267303Y-68311663D01*
X133328463Y-68083408D01*
X133349059Y-67848000D01*
X133328463Y-67612592D01*
X133267303Y-67384337D01*
X133167435Y-67170171D01*
X133161825Y-67162158D01*
X133031894Y-66976597D01*
X132864802Y-66809506D01*
X132864796Y-66809501D01*
X132679242Y-66679575D01*
X132635617Y-66624998D01*
X132628423Y-66555500D01*
X132659946Y-66493145D01*
X132679242Y-66476425D01*
X132824507Y-66374709D01*
X132864801Y-66346495D01*
X133031895Y-66179401D01*
X133167435Y-65985830D01*
X133267303Y-65771663D01*
X133328463Y-65543408D01*
X133349059Y-65308000D01*
X133328463Y-65072592D01*
X133267303Y-64844337D01*
X133167435Y-64630171D01*
X133161825Y-64622158D01*
X133031894Y-64436597D01*
X132864802Y-64269506D01*
X132864796Y-64269501D01*
X132679242Y-64139575D01*
X132635617Y-64084998D01*
X132628423Y-64015500D01*
X132659946Y-63953145D01*
X132679242Y-63936425D01*
X132820771Y-63837325D01*
X132864801Y-63806495D01*
X133031895Y-63639401D01*
X133167435Y-63445830D01*
X133267303Y-63231663D01*
X133328463Y-63003408D01*
X133349059Y-62768000D01*
X133328463Y-62532592D01*
X133267303Y-62304337D01*
X133167435Y-62090171D01*
X133161825Y-62082158D01*
X133031894Y-61896597D01*
X132864802Y-61729506D01*
X132864795Y-61729501D01*
X132671234Y-61593967D01*
X132671230Y-61593965D01*
X132660368Y-61588900D01*
X132457063Y-61494097D01*
X132457059Y-61494096D01*
X132457055Y-61494094D01*
X132228813Y-61432938D01*
X132228803Y-61432936D01*
X131993401Y-61412341D01*
X131993399Y-61412341D01*
X131757996Y-61432936D01*
X131757986Y-61432938D01*
X131529744Y-61494094D01*
X131529735Y-61494098D01*
X131315571Y-61593964D01*
X131315569Y-61593965D01*
X131121997Y-61729505D01*
X130954905Y-61896597D01*
X130824975Y-62082158D01*
X130770398Y-62125783D01*
X130700900Y-62132977D01*
X130638545Y-62101454D01*
X130621825Y-62082158D01*
X130491894Y-61896597D01*
X130324802Y-61729506D01*
X130324795Y-61729501D01*
X130131234Y-61593967D01*
X130131230Y-61593965D01*
X130120368Y-61588900D01*
X129917063Y-61494097D01*
X129917059Y-61494096D01*
X129917055Y-61494094D01*
X129688813Y-61432938D01*
X129688803Y-61432936D01*
X129453401Y-61412341D01*
X129453399Y-61412341D01*
X129217996Y-61432936D01*
X129217986Y-61432938D01*
X128989744Y-61494094D01*
X128989735Y-61494098D01*
X128775571Y-61593964D01*
X128775569Y-61593965D01*
X128581997Y-61729505D01*
X128414905Y-61896597D01*
X128279365Y-62090169D01*
X128279364Y-62090171D01*
X128179498Y-62304335D01*
X128179494Y-62304344D01*
X128118338Y-62532586D01*
X128118336Y-62532596D01*
X128097741Y-62767999D01*
X105389300Y-62767999D01*
X105389300Y-61134345D01*
X105389300Y-61134343D01*
X105358049Y-61017711D01*
X105358049Y-61017710D01*
X105358049Y-61017709D01*
X105346274Y-60973766D01*
X105349503Y-60972900D01*
X105343671Y-60918907D01*
X105374914Y-60856412D01*
X105434984Y-60820729D01*
X105504031Y-60822930D01*
X105508991Y-60824541D01*
X105508997Y-60824544D01*
X105694154Y-60863900D01*
X105694155Y-60863900D01*
X105883444Y-60863900D01*
X105883446Y-60863900D01*
X106068603Y-60824544D01*
X106241530Y-60747551D01*
X106394671Y-60636288D01*
X106521333Y-60495616D01*
X106615979Y-60331684D01*
X106674474Y-60151656D01*
X106692121Y-59983746D01*
X106718705Y-59919133D01*
X106727761Y-59909028D01*
X106991571Y-59645219D01*
X107052894Y-59611734D01*
X107079252Y-59608900D01*
X127953501Y-59608900D01*
X128020540Y-59628585D01*
X128066295Y-59681389D01*
X128077501Y-59732900D01*
X128077501Y-59881276D01*
X128083908Y-59940883D01*
X128134202Y-60075728D01*
X128134206Y-60075735D01*
X128220452Y-60190944D01*
X128220455Y-60190947D01*
X128335664Y-60277193D01*
X128335671Y-60277197D01*
X128470517Y-60327491D01*
X128470516Y-60327491D01*
X128477444Y-60328235D01*
X128530127Y-60333900D01*
X130325872Y-60333899D01*
X130385483Y-60327491D01*
X130520331Y-60277196D01*
X130635546Y-60190946D01*
X130721796Y-60075731D01*
X130770810Y-59944316D01*
X130812681Y-59888384D01*
X130878145Y-59863966D01*
X130946418Y-59878817D01*
X130974673Y-59899969D01*
X131096599Y-60021895D01*
X131193384Y-60089665D01*
X131290165Y-60157432D01*
X131290167Y-60157433D01*
X131290170Y-60157435D01*
X131504337Y-60257303D01*
X131732592Y-60318463D01*
X131909034Y-60333900D01*
X131967999Y-60339059D01*
X131968000Y-60339059D01*
X131968001Y-60339059D01*
X132026966Y-60333900D01*
X132203408Y-60318463D01*
X132431663Y-60257303D01*
X132645830Y-60157435D01*
X132839401Y-60021895D01*
X133006495Y-59854801D01*
X133142035Y-59661230D01*
X133241903Y-59447063D01*
X133303063Y-59218808D01*
X133323659Y-58983400D01*
X133303063Y-58747992D01*
X133241903Y-58519737D01*
X133142035Y-58305571D01*
X133138873Y-58301054D01*
X133006494Y-58111997D01*
X132839402Y-57944906D01*
X132839396Y-57944901D01*
X132653842Y-57814975D01*
X132610217Y-57760398D01*
X132603023Y-57690900D01*
X132634546Y-57628545D01*
X132653842Y-57611825D01*
X132785711Y-57519489D01*
X132839401Y-57481895D01*
X133006495Y-57314801D01*
X133142035Y-57121230D01*
X133241903Y-56907063D01*
X133303063Y-56678808D01*
X133323659Y-56443400D01*
X133303063Y-56207992D01*
X133241903Y-55979737D01*
X133142035Y-55765571D01*
X133142033Y-55765567D01*
X133006494Y-55571997D01*
X132839402Y-55404906D01*
X132839396Y-55404901D01*
X132653842Y-55274975D01*
X132610217Y-55220398D01*
X132603023Y-55150900D01*
X132634546Y-55088545D01*
X132653842Y-55071825D01*
X132779627Y-54983749D01*
X132839401Y-54941895D01*
X133006495Y-54774801D01*
X133142035Y-54581230D01*
X133241903Y-54367063D01*
X133303063Y-54138808D01*
X133323659Y-53903400D01*
X133303063Y-53667992D01*
X133241903Y-53439737D01*
X133142035Y-53225571D01*
X133141652Y-53225023D01*
X133006494Y-53031997D01*
X132839402Y-52864906D01*
X132839396Y-52864901D01*
X132653842Y-52734975D01*
X132610217Y-52680398D01*
X132603023Y-52610900D01*
X132634546Y-52548545D01*
X132653842Y-52531825D01*
X132676026Y-52516291D01*
X132839401Y-52401895D01*
X133006495Y-52234801D01*
X133142035Y-52041230D01*
X133241903Y-51827063D01*
X133303063Y-51598808D01*
X133323659Y-51363400D01*
X133303063Y-51127992D01*
X133241903Y-50899737D01*
X133142035Y-50685571D01*
X133141652Y-50685023D01*
X133006494Y-50491997D01*
X132839402Y-50324906D01*
X132839396Y-50324901D01*
X132653842Y-50194975D01*
X132610217Y-50140398D01*
X132603023Y-50070900D01*
X132634546Y-50008545D01*
X132653842Y-49991825D01*
X132736600Y-49933877D01*
X132839401Y-49861895D01*
X133006495Y-49694801D01*
X133142035Y-49501230D01*
X133241903Y-49287063D01*
X133303063Y-49058808D01*
X133323659Y-48823400D01*
X133303063Y-48587992D01*
X133241903Y-48359737D01*
X133142035Y-48145571D01*
X133136425Y-48137558D01*
X133006494Y-47951997D01*
X132839402Y-47784906D01*
X132839396Y-47784901D01*
X132653842Y-47654975D01*
X132610217Y-47600398D01*
X132603023Y-47530900D01*
X132634546Y-47468545D01*
X132653842Y-47451825D01*
X132676026Y-47436291D01*
X132839401Y-47321895D01*
X133006495Y-47154801D01*
X133142035Y-46961230D01*
X133241903Y-46747063D01*
X133303063Y-46518808D01*
X133323659Y-46283400D01*
X133303063Y-46047992D01*
X133241903Y-45819737D01*
X133142035Y-45605571D01*
X133136425Y-45597558D01*
X133006494Y-45411997D01*
X132839402Y-45244906D01*
X132839401Y-45244905D01*
X132653405Y-45114669D01*
X132609781Y-45060092D01*
X132602588Y-44990593D01*
X132634110Y-44928239D01*
X132653405Y-44911519D01*
X132839082Y-44781505D01*
X133006105Y-44614482D01*
X133141600Y-44420978D01*
X133241429Y-44206892D01*
X133241432Y-44206886D01*
X133298636Y-43993400D01*
X132401012Y-43993400D01*
X132433925Y-43936393D01*
X132468000Y-43809226D01*
X132468000Y-43677574D01*
X132433925Y-43550407D01*
X132401012Y-43493400D01*
X133298636Y-43493400D01*
X133298635Y-43493399D01*
X133241432Y-43279913D01*
X133241429Y-43279907D01*
X133141600Y-43065822D01*
X133141599Y-43065820D01*
X133006113Y-42872326D01*
X133006108Y-42872320D01*
X132839078Y-42705290D01*
X132653405Y-42575279D01*
X132609780Y-42520702D01*
X132602588Y-42451204D01*
X132634110Y-42388849D01*
X132653406Y-42372130D01*
X132653842Y-42371825D01*
X132839401Y-42241895D01*
X133006495Y-42074801D01*
X133142035Y-41881230D01*
X133241903Y-41667063D01*
X133303063Y-41438808D01*
X133323659Y-41203400D01*
X133303063Y-40967992D01*
X133241903Y-40739737D01*
X133142035Y-40525571D01*
X133136425Y-40517558D01*
X133006494Y-40331997D01*
X132839402Y-40164906D01*
X132839396Y-40164901D01*
X132653842Y-40034975D01*
X132610217Y-39980398D01*
X132603023Y-39910900D01*
X132634546Y-39848545D01*
X132653842Y-39831825D01*
X132676026Y-39816291D01*
X132839401Y-39701895D01*
X133006495Y-39534801D01*
X133142035Y-39341230D01*
X133241903Y-39127063D01*
X133303063Y-38898808D01*
X133323659Y-38663400D01*
X133303063Y-38427992D01*
X133241903Y-38199737D01*
X133142035Y-37985571D01*
X133136425Y-37977558D01*
X133006494Y-37791997D01*
X132839402Y-37624906D01*
X132839396Y-37624901D01*
X132653842Y-37494975D01*
X132610217Y-37440398D01*
X132603023Y-37370900D01*
X132634546Y-37308545D01*
X132653842Y-37291825D01*
X132676026Y-37276291D01*
X132839401Y-37161895D01*
X133006495Y-36994801D01*
X133142035Y-36801230D01*
X133241903Y-36587063D01*
X133303063Y-36358808D01*
X133323659Y-36123400D01*
X133303063Y-35887992D01*
X133241903Y-35659737D01*
X133142035Y-35445571D01*
X133136425Y-35437558D01*
X133006494Y-35251997D01*
X132839402Y-35084906D01*
X132839395Y-35084901D01*
X132645834Y-34949367D01*
X132645830Y-34949365D01*
X132645828Y-34949364D01*
X132431663Y-34849497D01*
X132431659Y-34849496D01*
X132431655Y-34849494D01*
X132203413Y-34788338D01*
X132203403Y-34788336D01*
X131968001Y-34767741D01*
X131967999Y-34767741D01*
X131732596Y-34788336D01*
X131732586Y-34788338D01*
X131504344Y-34849494D01*
X131504335Y-34849498D01*
X131290171Y-34949364D01*
X131290169Y-34949365D01*
X131096597Y-35084905D01*
X130929505Y-35251997D01*
X130799575Y-35437558D01*
X130744998Y-35481183D01*
X130675500Y-35488377D01*
X130613145Y-35456854D01*
X130596425Y-35437558D01*
X130466494Y-35251997D01*
X130299402Y-35084906D01*
X130299395Y-35084901D01*
X130105834Y-34949367D01*
X130105830Y-34949365D01*
X130105828Y-34949364D01*
X129891663Y-34849497D01*
X129891659Y-34849496D01*
X129891655Y-34849494D01*
X129663413Y-34788338D01*
X129663403Y-34788336D01*
X129428001Y-34767741D01*
X129427999Y-34767741D01*
X129192596Y-34788336D01*
X129192586Y-34788338D01*
X128964344Y-34849494D01*
X128964335Y-34849498D01*
X128750171Y-34949364D01*
X128750169Y-34949365D01*
X128556597Y-35084905D01*
X128389505Y-35251997D01*
X128253965Y-35445569D01*
X128253964Y-35445571D01*
X128154098Y-35659735D01*
X128154094Y-35659744D01*
X128092938Y-35887986D01*
X128092936Y-35887996D01*
X128072341Y-36123399D01*
X128072341Y-36123400D01*
X128092936Y-36358803D01*
X128092938Y-36358813D01*
X128154094Y-36587055D01*
X128154096Y-36587059D01*
X128154097Y-36587063D01*
X128158000Y-36595432D01*
X128253965Y-36801230D01*
X128253967Y-36801234D01*
X128362281Y-36955921D01*
X128389501Y-36994796D01*
X128389506Y-36994802D01*
X128556597Y-37161893D01*
X128556603Y-37161898D01*
X128742158Y-37291825D01*
X128785783Y-37346402D01*
X128792977Y-37415900D01*
X128761454Y-37478255D01*
X128742158Y-37494975D01*
X128556597Y-37624905D01*
X128389505Y-37791997D01*
X128253965Y-37985569D01*
X128253964Y-37985571D01*
X128154098Y-38199735D01*
X128154094Y-38199744D01*
X128092938Y-38427986D01*
X128092936Y-38427996D01*
X128072341Y-38663399D01*
X128072341Y-38663400D01*
X128092936Y-38898803D01*
X128092938Y-38898813D01*
X128154094Y-39127055D01*
X128154096Y-39127059D01*
X128154097Y-39127063D01*
X128158000Y-39135432D01*
X128253965Y-39341230D01*
X128253967Y-39341234D01*
X128362281Y-39495921D01*
X128389501Y-39534796D01*
X128389506Y-39534802D01*
X128556597Y-39701893D01*
X128556603Y-39701898D01*
X128742158Y-39831825D01*
X128785783Y-39886402D01*
X128792977Y-39955900D01*
X128761454Y-40018255D01*
X128742158Y-40034975D01*
X128556597Y-40164905D01*
X128389505Y-40331997D01*
X128253965Y-40525569D01*
X128253964Y-40525571D01*
X128154098Y-40739735D01*
X128154094Y-40739744D01*
X128092938Y-40967986D01*
X128092936Y-40967996D01*
X128072341Y-41203399D01*
X128072341Y-41203400D01*
X128092936Y-41438803D01*
X128092938Y-41438813D01*
X128154094Y-41667055D01*
X128154096Y-41667059D01*
X128154097Y-41667063D01*
X128158000Y-41675432D01*
X128253965Y-41881230D01*
X128253967Y-41881234D01*
X128362281Y-42035921D01*
X128389501Y-42074796D01*
X128389506Y-42074802D01*
X128556597Y-42241893D01*
X128556603Y-42241898D01*
X128742158Y-42371825D01*
X128785783Y-42426402D01*
X128792977Y-42495900D01*
X128761454Y-42558255D01*
X128742158Y-42574975D01*
X128556597Y-42704905D01*
X128389505Y-42871997D01*
X128253965Y-43065569D01*
X128253964Y-43065571D01*
X128154098Y-43279735D01*
X128154094Y-43279744D01*
X128092938Y-43507986D01*
X128092936Y-43507996D01*
X128072341Y-43743399D01*
X128072341Y-43743400D01*
X128092936Y-43978803D01*
X128092938Y-43978813D01*
X128154094Y-44207055D01*
X128154096Y-44207059D01*
X128154097Y-44207063D01*
X128235828Y-44382335D01*
X128253965Y-44421230D01*
X128253967Y-44421234D01*
X128292956Y-44476915D01*
X128389501Y-44614796D01*
X128389506Y-44614802D01*
X128556597Y-44781893D01*
X128556603Y-44781898D01*
X128742158Y-44911825D01*
X128785783Y-44966402D01*
X128792977Y-45035900D01*
X128761454Y-45098255D01*
X128742158Y-45114975D01*
X128556597Y-45244905D01*
X128389505Y-45411997D01*
X128253965Y-45605569D01*
X128253964Y-45605571D01*
X128154098Y-45819735D01*
X128154094Y-45819744D01*
X128092938Y-46047986D01*
X128092936Y-46047996D01*
X128072341Y-46283399D01*
X128072341Y-46283400D01*
X128092936Y-46518803D01*
X128092938Y-46518813D01*
X128154094Y-46747055D01*
X128154096Y-46747059D01*
X128154097Y-46747063D01*
X128237358Y-46925617D01*
X128253965Y-46961230D01*
X128253967Y-46961234D01*
X128347609Y-47094967D01*
X128389501Y-47154796D01*
X128389506Y-47154802D01*
X128556597Y-47321893D01*
X128556603Y-47321898D01*
X128742158Y-47451825D01*
X128785783Y-47506402D01*
X128792977Y-47575900D01*
X128761454Y-47638255D01*
X128742158Y-47654975D01*
X128556597Y-47784905D01*
X128389505Y-47951997D01*
X128253965Y-48145569D01*
X128253964Y-48145571D01*
X128203943Y-48252842D01*
X128157302Y-48352865D01*
X128154098Y-48359735D01*
X128154094Y-48359744D01*
X128092938Y-48587986D01*
X128092936Y-48587996D01*
X128072341Y-48823399D01*
X128072341Y-48823400D01*
X128092936Y-49058803D01*
X128092938Y-49058813D01*
X128154094Y-49287055D01*
X128154096Y-49287059D01*
X128154097Y-49287063D01*
X128237358Y-49465617D01*
X128253965Y-49501230D01*
X128253967Y-49501234D01*
X128347609Y-49634967D01*
X128389501Y-49694796D01*
X128389506Y-49694802D01*
X128556597Y-49861893D01*
X128556603Y-49861898D01*
X128742158Y-49991825D01*
X128785783Y-50046402D01*
X128792977Y-50115900D01*
X128761454Y-50178255D01*
X128742158Y-50194975D01*
X128556597Y-50324905D01*
X128389505Y-50491997D01*
X128254348Y-50685023D01*
X128199771Y-50728648D01*
X128152773Y-50737900D01*
X111327189Y-50737900D01*
X111270295Y-50749217D01*
X111266771Y-50749918D01*
X111206348Y-50761937D01*
X111206343Y-50761938D01*
X111172346Y-50776020D01*
X111159197Y-50781467D01*
X111136969Y-50790674D01*
X111092513Y-50809088D01*
X111082357Y-50815875D01*
X111082249Y-50815947D01*
X110990068Y-50877540D01*
X110967874Y-50899735D01*
X110902942Y-50964667D01*
X110902939Y-50964670D01*
X110605466Y-51262144D01*
X110341029Y-51526581D01*
X110279706Y-51560066D01*
X110253348Y-51562900D01*
X110194154Y-51562900D01*
X110185827Y-51564670D01*
X110008997Y-51602255D01*
X110008992Y-51602257D01*
X109836070Y-51679248D01*
X109836065Y-51679251D01*
X109682929Y-51790511D01*
X109556266Y-51931185D01*
X109461621Y-52095115D01*
X109461618Y-52095122D01*
X109416234Y-52234801D01*
X109403126Y-52275144D01*
X109383340Y-52463400D01*
X109403126Y-52651656D01*
X109403127Y-52651659D01*
X109461618Y-52831677D01*
X109461621Y-52831684D01*
X109556267Y-52995616D01*
X109632164Y-53079908D01*
X109669656Y-53121547D01*
X109699886Y-53184538D01*
X109691261Y-53253874D01*
X109646519Y-53307539D01*
X109624960Y-53319079D01*
X109552520Y-53349085D01*
X109552516Y-53349087D01*
X109482529Y-53395852D01*
X109482528Y-53395853D01*
X109450063Y-53417544D01*
X109450062Y-53417545D01*
X108841029Y-54026581D01*
X108779706Y-54060066D01*
X108753348Y-54062900D01*
X108694154Y-54062900D01*
X108661697Y-54069798D01*
X108508997Y-54102255D01*
X108508992Y-54102257D01*
X108336070Y-54179248D01*
X108336065Y-54179251D01*
X108182929Y-54290511D01*
X108056266Y-54431185D01*
X107961621Y-54595115D01*
X107961618Y-54595122D01*
X107916576Y-54733749D01*
X107903126Y-54775144D01*
X107883340Y-54963400D01*
X107903126Y-55151656D01*
X107903127Y-55151659D01*
X107961618Y-55331677D01*
X107961621Y-55331684D01*
X108056267Y-55495616D01*
X108161870Y-55612900D01*
X108182929Y-55636288D01*
X108336065Y-55747548D01*
X108336067Y-55747549D01*
X108336070Y-55747551D01*
X108369623Y-55762490D01*
X108422858Y-55807738D01*
X108443180Y-55874587D01*
X108424135Y-55941811D01*
X108394025Y-55972765D01*
X108394775Y-55973678D01*
X108390063Y-55977544D01*
X107841029Y-56526581D01*
X107779706Y-56560066D01*
X107753348Y-56562900D01*
X107694154Y-56562900D01*
X107661697Y-56569798D01*
X107508997Y-56602255D01*
X107508992Y-56602257D01*
X107336070Y-56679248D01*
X107336065Y-56679251D01*
X107182929Y-56790511D01*
X107056266Y-56931185D01*
X106961621Y-57095115D01*
X106961618Y-57095122D01*
X106912439Y-57246481D01*
X106903126Y-57275144D01*
X106883340Y-57463400D01*
X106903126Y-57651656D01*
X106903127Y-57651659D01*
X106961618Y-57831677D01*
X106961621Y-57831684D01*
X107056267Y-57995616D01*
X107171137Y-58123192D01*
X107182929Y-58136288D01*
X107187758Y-58140636D01*
X107186081Y-58142497D01*
X107221874Y-58188922D01*
X107227847Y-58258536D01*
X107195236Y-58320328D01*
X107134394Y-58354680D01*
X107106319Y-58357900D01*
X106707192Y-58357900D01*
X106688652Y-58361588D01*
X106663575Y-58366576D01*
X106601708Y-58378881D01*
X106586347Y-58381937D01*
X106472516Y-58429087D01*
X106472507Y-58429092D01*
X106370068Y-58497540D01*
X106347874Y-58519735D01*
X106282942Y-58584667D01*
X106282939Y-58584670D01*
X105841029Y-59026581D01*
X105779706Y-59060066D01*
X105753348Y-59062900D01*
X105694154Y-59062900D01*
X105667455Y-59068575D01*
X105508997Y-59102255D01*
X105508992Y-59102257D01*
X105336070Y-59179248D01*
X105336065Y-59179251D01*
X105182929Y-59290511D01*
X105056266Y-59431185D01*
X104961621Y-59595115D01*
X104961618Y-59595122D01*
X104903830Y-59772977D01*
X104903126Y-59775144D01*
X104883340Y-59963400D01*
X104902216Y-60143000D01*
X104903127Y-60151662D01*
X104904316Y-60157257D01*
X104898993Y-60226923D01*
X104856850Y-60282653D01*
X104791268Y-60306752D01*
X104723068Y-60291568D01*
X104695342Y-60270707D01*
X98776390Y-54351755D01*
X98776388Y-54351752D01*
X98657517Y-54232881D01*
X98657512Y-54232877D01*
X98564624Y-54179249D01*
X98520585Y-54153823D01*
X98367857Y-54112899D01*
X98209743Y-54112899D01*
X98202147Y-54112899D01*
X98202131Y-54112900D01*
X91838897Y-54112900D01*
X91771858Y-54093215D01*
X91751216Y-54076581D01*
X87640425Y-49965790D01*
X87606940Y-49904467D01*
X87604578Y-49888914D01*
X87603063Y-49871594D01*
X87603062Y-49871589D01*
X87600465Y-49861898D01*
X87541903Y-49643337D01*
X87442035Y-49429171D01*
X87436425Y-49421158D01*
X87306494Y-49235597D01*
X87139402Y-49068506D01*
X87139396Y-49068501D01*
X86953842Y-48938575D01*
X86910217Y-48883998D01*
X86903023Y-48814500D01*
X86934546Y-48752145D01*
X86953842Y-48735425D01*
X86996686Y-48705425D01*
X87139401Y-48605495D01*
X87306495Y-48438401D01*
X87442035Y-48244830D01*
X87541903Y-48030663D01*
X87603063Y-47802408D01*
X87623659Y-47567000D01*
X87603063Y-47331592D01*
X87541903Y-47103337D01*
X87442035Y-46889171D01*
X87440607Y-46887132D01*
X87306496Y-46695600D01*
X87276494Y-46665598D01*
X87184567Y-46573671D01*
X87151084Y-46512351D01*
X87156068Y-46442659D01*
X87197939Y-46386725D01*
X87228915Y-46369810D01*
X87360331Y-46320796D01*
X87475546Y-46234546D01*
X87561796Y-46119331D01*
X87612091Y-45984483D01*
X87618500Y-45924873D01*
X87618499Y-44129128D01*
X87612091Y-44069517D01*
X87610810Y-44066083D01*
X87561797Y-43934671D01*
X87561793Y-43934664D01*
X87475547Y-43819455D01*
X87475544Y-43819452D01*
X87360335Y-43733206D01*
X87360328Y-43733202D01*
X87225482Y-43682908D01*
X87225483Y-43682908D01*
X87165883Y-43676501D01*
X87165881Y-43676500D01*
X87165873Y-43676500D01*
X87165864Y-43676500D01*
X85370129Y-43676500D01*
X85370123Y-43676501D01*
X85310516Y-43682908D01*
X85175671Y-43733202D01*
X85175664Y-43733206D01*
X85060455Y-43819452D01*
X85060452Y-43819455D01*
X84974206Y-43934664D01*
X84974203Y-43934669D01*
X84925189Y-44066083D01*
X84883317Y-44122016D01*
X84817853Y-44146433D01*
X84749580Y-44131581D01*
X84721326Y-44110430D01*
X84599402Y-43988506D01*
X84599395Y-43988501D01*
X84405834Y-43852967D01*
X84405830Y-43852965D01*
X84341495Y-43822965D01*
X84191663Y-43753097D01*
X84191659Y-43753096D01*
X84191655Y-43753094D01*
X83963413Y-43691938D01*
X83963403Y-43691936D01*
X83728001Y-43671341D01*
X83727999Y-43671341D01*
X83492596Y-43691936D01*
X83492586Y-43691938D01*
X83264344Y-43753094D01*
X83264335Y-43753098D01*
X83050171Y-43852964D01*
X83050169Y-43852965D01*
X82856597Y-43988505D01*
X82689505Y-44155597D01*
X82553965Y-44349169D01*
X82553964Y-44349171D01*
X82454098Y-44563335D01*
X82454094Y-44563344D01*
X82392938Y-44791586D01*
X82392936Y-44791596D01*
X82372341Y-45026999D01*
X69772316Y-45026999D01*
X69764183Y-30896711D01*
X72967500Y-30896711D01*
X72967500Y-31139288D01*
X72999161Y-31379785D01*
X73061947Y-31614104D01*
X73154773Y-31838205D01*
X73154776Y-31838212D01*
X73276064Y-32048289D01*
X73276066Y-32048292D01*
X73276067Y-32048293D01*
X73423733Y-32240736D01*
X73423739Y-32240743D01*
X73595256Y-32412260D01*
X73595262Y-32412265D01*
X73787711Y-32559936D01*
X73997788Y-32681224D01*
X74221900Y-32774054D01*
X74456211Y-32836838D01*
X74636586Y-32860584D01*
X74696711Y-32868500D01*
X74696712Y-32868500D01*
X74939289Y-32868500D01*
X74987388Y-32862167D01*
X75179789Y-32836838D01*
X75414100Y-32774054D01*
X75638212Y-32681224D01*
X75848289Y-32559936D01*
X76040738Y-32412265D01*
X76212265Y-32240738D01*
X76359936Y-32048289D01*
X76481224Y-31838212D01*
X76574054Y-31614100D01*
X76636838Y-31379789D01*
X76668500Y-31139288D01*
X76668500Y-30896712D01*
X76668500Y-30896711D01*
X203815600Y-30896711D01*
X203815600Y-31139288D01*
X203847261Y-31379785D01*
X203910047Y-31614104D01*
X204002873Y-31838205D01*
X204002876Y-31838212D01*
X204124164Y-32048289D01*
X204124166Y-32048292D01*
X204124167Y-32048293D01*
X204271833Y-32240736D01*
X204271839Y-32240743D01*
X204443356Y-32412260D01*
X204443362Y-32412265D01*
X204635811Y-32559936D01*
X204845888Y-32681224D01*
X205070000Y-32774054D01*
X205304311Y-32836838D01*
X205484686Y-32860584D01*
X205544811Y-32868500D01*
X205544812Y-32868500D01*
X205787389Y-32868500D01*
X205835488Y-32862167D01*
X206027889Y-32836838D01*
X206262200Y-32774054D01*
X206486312Y-32681224D01*
X206696389Y-32559936D01*
X206888838Y-32412265D01*
X207060365Y-32240738D01*
X207208036Y-32048289D01*
X207329324Y-31838212D01*
X207422154Y-31614100D01*
X207484938Y-31379789D01*
X207516600Y-31139288D01*
X207516600Y-30896712D01*
X207484938Y-30656211D01*
X207422154Y-30421900D01*
X207329324Y-30197788D01*
X207208036Y-29987711D01*
X207060365Y-29795262D01*
X207060360Y-29795256D01*
X206888843Y-29623739D01*
X206888836Y-29623733D01*
X206696393Y-29476067D01*
X206696392Y-29476066D01*
X206696389Y-29476064D01*
X206486312Y-29354776D01*
X206486305Y-29354773D01*
X206262204Y-29261947D01*
X206027885Y-29199161D01*
X205787389Y-29167500D01*
X205787388Y-29167500D01*
X205544812Y-29167500D01*
X205544811Y-29167500D01*
X205304314Y-29199161D01*
X205069995Y-29261947D01*
X204845894Y-29354773D01*
X204845885Y-29354777D01*
X204635806Y-29476067D01*
X204443363Y-29623733D01*
X204443356Y-29623739D01*
X204271839Y-29795256D01*
X204271833Y-29795263D01*
X204124167Y-29987706D01*
X204002877Y-30197785D01*
X204002873Y-30197794D01*
X203910047Y-30421895D01*
X203847261Y-30656214D01*
X203815600Y-30896711D01*
X76668500Y-30896711D01*
X76636838Y-30656211D01*
X76574054Y-30421900D01*
X76481224Y-30197788D01*
X76359936Y-29987711D01*
X76212265Y-29795262D01*
X76212260Y-29795256D01*
X76040743Y-29623739D01*
X76040736Y-29623733D01*
X75848293Y-29476067D01*
X75848292Y-29476066D01*
X75848289Y-29476064D01*
X75638212Y-29354776D01*
X75638205Y-29354773D01*
X75414104Y-29261947D01*
X75179785Y-29199161D01*
X74939289Y-29167500D01*
X74939288Y-29167500D01*
X74696712Y-29167500D01*
X74696711Y-29167500D01*
X74456214Y-29199161D01*
X74221895Y-29261947D01*
X73997794Y-29354773D01*
X73997785Y-29354777D01*
X73787706Y-29476067D01*
X73595263Y-29623733D01*
X73595256Y-29623739D01*
X73423739Y-29795256D01*
X73423733Y-29795263D01*
X73276067Y-29987706D01*
X73154777Y-30197785D01*
X73154773Y-30197794D01*
X73061947Y-30421895D01*
X72999161Y-30656214D01*
X72967500Y-30896711D01*
X69764183Y-30896711D01*
X69762403Y-27804289D01*
X69762832Y-27793936D01*
X69773555Y-27665671D01*
X69775841Y-27650189D01*
X69831386Y-27389371D01*
X69836332Y-27372283D01*
X69928304Y-27123132D01*
X69935651Y-27106919D01*
X70062377Y-26873522D01*
X70071971Y-26858532D01*
X70230841Y-26645695D01*
X70242482Y-26632237D01*
X70430204Y-26444372D01*
X70443658Y-26432718D01*
X70656367Y-26273690D01*
X70671350Y-26264084D01*
X70904660Y-26137175D01*
X70920855Y-26129821D01*
X71169932Y-26037660D01*
X71187021Y-26032698D01*
X71447813Y-25976951D01*
X71463284Y-25974655D01*
X71591525Y-25963836D01*
X71601900Y-25963398D01*
X208975586Y-25912563D01*
X208986008Y-25913001D01*
G37*
%TD.AperFunction*%
%TA.AperFunction,Conductor*%
G36*
X147496046Y-54137185D02*
G01*
X147541801Y-54189989D01*
X147551745Y-54259147D01*
X147530582Y-54312623D01*
X147413965Y-54479169D01*
X147413964Y-54479171D01*
X147314098Y-54693335D01*
X147314094Y-54693344D01*
X147252938Y-54921586D01*
X147252936Y-54921596D01*
X147232341Y-55156999D01*
X147232341Y-55157000D01*
X147252936Y-55392403D01*
X147252938Y-55392413D01*
X147314094Y-55620655D01*
X147314096Y-55620659D01*
X147314097Y-55620663D01*
X147383656Y-55769832D01*
X147413965Y-55834830D01*
X147413967Y-55834834D01*
X147515429Y-55979735D01*
X147549501Y-56028396D01*
X147549506Y-56028402D01*
X147716597Y-56195493D01*
X147716603Y-56195498D01*
X147902594Y-56325730D01*
X147946219Y-56380307D01*
X147953413Y-56449805D01*
X147921890Y-56512160D01*
X147902595Y-56528880D01*
X147716922Y-56658890D01*
X147716920Y-56658891D01*
X147549891Y-56825920D01*
X147549886Y-56825926D01*
X147414400Y-57019420D01*
X147414399Y-57019422D01*
X147314570Y-57233507D01*
X147314567Y-57233513D01*
X147257364Y-57446999D01*
X147257364Y-57447000D01*
X148154988Y-57447000D01*
X148122075Y-57504007D01*
X148088000Y-57631174D01*
X148088000Y-57762826D01*
X148122075Y-57889993D01*
X148154988Y-57947000D01*
X147257364Y-57947000D01*
X147314567Y-58160486D01*
X147314570Y-58160492D01*
X147414399Y-58374578D01*
X147549894Y-58568082D01*
X147716917Y-58735105D01*
X147903031Y-58865425D01*
X147946656Y-58920003D01*
X147953848Y-58989501D01*
X147922326Y-59051856D01*
X147903031Y-59068575D01*
X147716922Y-59198890D01*
X147716920Y-59198891D01*
X147549891Y-59365920D01*
X147549886Y-59365926D01*
X147414400Y-59559420D01*
X147414399Y-59559422D01*
X147314570Y-59773507D01*
X147314567Y-59773513D01*
X147257364Y-59986999D01*
X147257364Y-59987000D01*
X148154988Y-59987000D01*
X148122075Y-60044007D01*
X148088000Y-60171174D01*
X148088000Y-60302826D01*
X148122075Y-60429993D01*
X148154988Y-60487000D01*
X147257364Y-60487000D01*
X147314567Y-60700486D01*
X147314570Y-60700492D01*
X147414399Y-60914578D01*
X147549894Y-61108082D01*
X147716917Y-61275105D01*
X147902595Y-61405119D01*
X147946219Y-61459696D01*
X147953412Y-61529195D01*
X147921890Y-61591549D01*
X147902595Y-61608269D01*
X147716594Y-61738508D01*
X147549505Y-61905597D01*
X147413965Y-62099169D01*
X147413964Y-62099171D01*
X147314098Y-62313335D01*
X147314094Y-62313344D01*
X147252938Y-62541586D01*
X147252936Y-62541596D01*
X147232341Y-62776999D01*
X147232341Y-62777000D01*
X147252936Y-63012403D01*
X147252938Y-63012413D01*
X147314094Y-63240655D01*
X147314096Y-63240659D01*
X147314097Y-63240663D01*
X147375571Y-63372494D01*
X147413965Y-63454830D01*
X147413967Y-63454834D01*
X147479726Y-63548747D01*
X147549505Y-63648401D01*
X147716599Y-63815495D01*
X147759448Y-63845498D01*
X147910165Y-63951032D01*
X147910167Y-63951033D01*
X147910170Y-63951035D01*
X148124337Y-64050903D01*
X148352592Y-64112063D01*
X148588000Y-64132659D01*
X148605945Y-64131088D01*
X148674442Y-64144852D01*
X148704435Y-64166935D01*
X149398868Y-64861367D01*
X150074936Y-65537435D01*
X150200365Y-65662864D01*
X150200366Y-65662865D01*
X150347849Y-65761411D01*
X150347851Y-65761412D01*
X150347853Y-65761413D01*
X150372597Y-65771662D01*
X150372598Y-65771663D01*
X150372599Y-65771663D01*
X150511734Y-65829295D01*
X150685704Y-65863899D01*
X150685708Y-65863900D01*
X150685709Y-65863900D01*
X150863092Y-65863900D01*
X160864438Y-65863900D01*
X160931477Y-65883585D01*
X160952119Y-65900219D01*
X161351981Y-66300080D01*
X161385466Y-66361403D01*
X161388300Y-66387761D01*
X161388300Y-91964896D01*
X161422903Y-92138858D01*
X161422905Y-92138866D01*
X161443331Y-92188178D01*
X161490786Y-92302745D01*
X161490788Y-92302749D01*
X161531255Y-92363313D01*
X161531256Y-92363313D01*
X161589337Y-92450238D01*
X161589340Y-92450241D01*
X162506181Y-93367080D01*
X162539666Y-93428403D01*
X162542500Y-93454761D01*
X162542500Y-94028270D01*
X162542501Y-94028276D01*
X162548908Y-94087883D01*
X162599202Y-94222728D01*
X162599206Y-94222735D01*
X162685452Y-94337944D01*
X162685453Y-94337944D01*
X162685454Y-94337946D01*
X162719339Y-94363312D01*
X162771105Y-94402065D01*
X162812975Y-94457999D01*
X162817959Y-94527691D01*
X162795747Y-94576057D01*
X162714289Y-94683924D01*
X162617184Y-94878937D01*
X162617183Y-94878941D01*
X162566977Y-95055399D01*
X162557564Y-95088481D01*
X162537464Y-95305399D01*
X162537464Y-95305400D01*
X162557564Y-95522318D01*
X162557564Y-95522320D01*
X162557565Y-95522323D01*
X162601899Y-95678141D01*
X162617184Y-95731862D01*
X162714157Y-95926608D01*
X162714288Y-95926872D01*
X162845573Y-96100722D01*
X163006324Y-96247265D01*
X163042603Y-96306974D01*
X163040843Y-96376821D01*
X163001600Y-96434629D01*
X162937333Y-96462043D01*
X162922784Y-96462900D01*
X147461689Y-96462900D01*
X147394650Y-96443215D01*
X147374008Y-96426581D01*
X146325619Y-95378192D01*
X146292134Y-95316869D01*
X146289300Y-95290511D01*
X146289300Y-67873399D01*
X147223941Y-67873399D01*
X147223941Y-67873400D01*
X147244536Y-68108803D01*
X147244538Y-68108813D01*
X147305694Y-68337055D01*
X147305696Y-68337059D01*
X147305697Y-68337063D01*
X147377114Y-68490217D01*
X147405565Y-68551230D01*
X147405567Y-68551234D01*
X147513881Y-68705921D01*
X147541101Y-68744796D01*
X147541106Y-68744802D01*
X147708197Y-68911893D01*
X147708203Y-68911898D01*
X147893758Y-69041825D01*
X147937383Y-69096402D01*
X147944577Y-69165900D01*
X147913054Y-69228255D01*
X147893758Y-69244975D01*
X147708197Y-69374905D01*
X147541105Y-69541997D01*
X147405565Y-69735569D01*
X147405564Y-69735571D01*
X147305698Y-69949735D01*
X147305694Y-69949744D01*
X147244538Y-70177986D01*
X147244536Y-70177996D01*
X147223941Y-70413399D01*
X147223941Y-70413400D01*
X147244536Y-70648803D01*
X147244538Y-70648813D01*
X147305694Y-70877055D01*
X147305696Y-70877059D01*
X147305697Y-70877063D01*
X147377114Y-71030217D01*
X147405565Y-71091230D01*
X147405567Y-71091234D01*
X147513881Y-71245921D01*
X147541101Y-71284796D01*
X147541106Y-71284802D01*
X147708197Y-71451893D01*
X147708203Y-71451898D01*
X147893758Y-71581825D01*
X147937383Y-71636402D01*
X147944577Y-71705900D01*
X147913054Y-71768255D01*
X147893758Y-71784975D01*
X147708197Y-71914905D01*
X147541105Y-72081997D01*
X147405565Y-72275569D01*
X147405564Y-72275571D01*
X147305698Y-72489735D01*
X147305694Y-72489744D01*
X147244538Y-72717986D01*
X147244536Y-72717996D01*
X147223941Y-72953399D01*
X147223941Y-72953400D01*
X147244536Y-73188803D01*
X147244538Y-73188813D01*
X147305694Y-73417055D01*
X147305696Y-73417059D01*
X147305697Y-73417063D01*
X147377114Y-73570217D01*
X147405565Y-73631230D01*
X147405567Y-73631234D01*
X147513881Y-73785921D01*
X147541101Y-73824796D01*
X147541106Y-73824802D01*
X147708197Y-73991893D01*
X147708203Y-73991898D01*
X147893758Y-74121825D01*
X147937383Y-74176402D01*
X147944577Y-74245900D01*
X147913054Y-74308255D01*
X147893758Y-74324975D01*
X147708197Y-74454905D01*
X147541105Y-74621997D01*
X147405565Y-74815569D01*
X147405564Y-74815571D01*
X147305698Y-75029735D01*
X147305694Y-75029744D01*
X147244538Y-75257986D01*
X147244536Y-75257996D01*
X147223941Y-75493399D01*
X147223941Y-75493400D01*
X147244536Y-75728803D01*
X147244538Y-75728813D01*
X147305694Y-75957055D01*
X147305696Y-75957059D01*
X147305697Y-75957063D01*
X147377114Y-76110217D01*
X147405565Y-76171230D01*
X147405567Y-76171234D01*
X147513881Y-76325921D01*
X147541101Y-76364796D01*
X147541106Y-76364802D01*
X147708197Y-76531893D01*
X147708203Y-76531898D01*
X147893758Y-76661825D01*
X147937383Y-76716402D01*
X147944577Y-76785900D01*
X147913054Y-76848255D01*
X147893758Y-76864975D01*
X147708197Y-76994905D01*
X147541105Y-77161997D01*
X147405565Y-77355569D01*
X147405564Y-77355571D01*
X147305698Y-77569735D01*
X147305694Y-77569744D01*
X147244538Y-77797986D01*
X147244536Y-77797996D01*
X147223941Y-78033399D01*
X147223941Y-78033400D01*
X147244536Y-78268803D01*
X147244538Y-78268813D01*
X147305694Y-78497055D01*
X147305696Y-78497059D01*
X147305697Y-78497063D01*
X147377114Y-78650217D01*
X147405565Y-78711230D01*
X147405567Y-78711234D01*
X147513881Y-78865921D01*
X147541101Y-78904796D01*
X147541106Y-78904802D01*
X147708197Y-79071893D01*
X147708203Y-79071898D01*
X147893758Y-79201825D01*
X147937383Y-79256402D01*
X147944577Y-79325900D01*
X147913054Y-79388255D01*
X147893758Y-79404975D01*
X147708197Y-79534905D01*
X147541105Y-79701997D01*
X147405565Y-79895569D01*
X147405564Y-79895571D01*
X147305698Y-80109735D01*
X147305694Y-80109744D01*
X147244538Y-80337986D01*
X147244536Y-80337996D01*
X147223941Y-80573399D01*
X147223941Y-80573400D01*
X147244536Y-80808803D01*
X147244538Y-80808813D01*
X147305694Y-81037055D01*
X147305696Y-81037059D01*
X147305697Y-81037063D01*
X147388958Y-81215617D01*
X147405565Y-81251230D01*
X147405567Y-81251234D01*
X147498769Y-81384339D01*
X147541105Y-81444801D01*
X147708199Y-81611895D01*
X147804984Y-81679665D01*
X147901765Y-81747432D01*
X147901767Y-81747433D01*
X147901770Y-81747435D01*
X148115937Y-81847303D01*
X148344192Y-81908463D01*
X148520634Y-81923900D01*
X148579599Y-81929059D01*
X148579600Y-81929059D01*
X148579601Y-81929059D01*
X148638566Y-81923900D01*
X148815008Y-81908463D01*
X149043263Y-81847303D01*
X149257430Y-81747435D01*
X149451001Y-81611895D01*
X149618095Y-81444801D01*
X149748025Y-81259242D01*
X149802602Y-81215617D01*
X149872100Y-81208423D01*
X149934455Y-81239946D01*
X149951175Y-81259242D01*
X150081100Y-81444795D01*
X150081105Y-81444801D01*
X150248199Y-81611895D01*
X150344984Y-81679665D01*
X150441765Y-81747432D01*
X150441767Y-81747433D01*
X150441770Y-81747435D01*
X150655937Y-81847303D01*
X150884192Y-81908463D01*
X151060634Y-81923900D01*
X151119599Y-81929059D01*
X151119600Y-81929059D01*
X151119601Y-81929059D01*
X151178566Y-81923900D01*
X151355008Y-81908463D01*
X151583263Y-81847303D01*
X151797430Y-81747435D01*
X151991001Y-81611895D01*
X152158095Y-81444801D01*
X152293635Y-81251230D01*
X152393503Y-81037063D01*
X152454663Y-80808808D01*
X152475259Y-80573400D01*
X152475136Y-80571999D01*
X152471139Y-80526318D01*
X152454663Y-80337992D01*
X152393503Y-80109737D01*
X152293635Y-79895571D01*
X152292654Y-79894169D01*
X152158094Y-79701997D01*
X151991002Y-79534906D01*
X151990996Y-79534901D01*
X151805442Y-79404975D01*
X151761817Y-79350398D01*
X151754623Y-79280900D01*
X151786146Y-79218545D01*
X151805442Y-79201825D01*
X151841717Y-79176425D01*
X151991001Y-79071895D01*
X152158095Y-78904801D01*
X152293635Y-78711230D01*
X152393503Y-78497063D01*
X152454663Y-78268808D01*
X152475259Y-78033400D01*
X152475136Y-78031999D01*
X152454663Y-77797996D01*
X152454663Y-77797992D01*
X152393503Y-77569737D01*
X152293635Y-77355571D01*
X152292654Y-77354169D01*
X152158094Y-77161997D01*
X151991002Y-76994906D01*
X151990996Y-76994901D01*
X151805442Y-76864975D01*
X151761817Y-76810398D01*
X151754623Y-76740900D01*
X151786146Y-76678545D01*
X151805442Y-76661825D01*
X151841717Y-76636425D01*
X151991001Y-76531895D01*
X152158095Y-76364801D01*
X152293635Y-76171230D01*
X152393503Y-75957063D01*
X152454663Y-75728808D01*
X152475259Y-75493400D01*
X152475136Y-75491999D01*
X152454663Y-75257996D01*
X152454663Y-75257992D01*
X152393503Y-75029737D01*
X152293635Y-74815571D01*
X152292654Y-74814169D01*
X152158094Y-74621997D01*
X151991002Y-74454906D01*
X151990996Y-74454901D01*
X151805442Y-74324975D01*
X151761817Y-74270398D01*
X151754623Y-74200900D01*
X151786146Y-74138545D01*
X151805442Y-74121825D01*
X151841717Y-74096425D01*
X151991001Y-73991895D01*
X152158095Y-73824801D01*
X152293635Y-73631230D01*
X152393503Y-73417063D01*
X152454663Y-73188808D01*
X152475259Y-72953400D01*
X152475136Y-72951999D01*
X152454663Y-72717996D01*
X152454663Y-72717992D01*
X152393503Y-72489737D01*
X152293635Y-72275571D01*
X152292654Y-72274169D01*
X152158094Y-72081997D01*
X151991002Y-71914906D01*
X151990996Y-71914901D01*
X151805442Y-71784975D01*
X151761817Y-71730398D01*
X151754623Y-71660900D01*
X151786146Y-71598545D01*
X151805442Y-71581825D01*
X151841717Y-71556425D01*
X151991001Y-71451895D01*
X152158095Y-71284801D01*
X152293635Y-71091230D01*
X152393503Y-70877063D01*
X152454663Y-70648808D01*
X152475259Y-70413400D01*
X152475136Y-70411999D01*
X152454663Y-70177996D01*
X152454663Y-70177992D01*
X152393503Y-69949737D01*
X152293635Y-69735571D01*
X152292653Y-69734169D01*
X152158096Y-69542000D01*
X152132693Y-69516597D01*
X152036167Y-69420071D01*
X152002684Y-69358751D01*
X152007668Y-69289059D01*
X152049539Y-69233125D01*
X152080515Y-69216210D01*
X152211931Y-69167196D01*
X152327146Y-69080946D01*
X152413396Y-68965731D01*
X152463691Y-68830883D01*
X152470100Y-68771273D01*
X152470099Y-66975528D01*
X152463691Y-66915917D01*
X152463168Y-66914516D01*
X152413397Y-66781071D01*
X152413393Y-66781064D01*
X152327147Y-66665855D01*
X152327144Y-66665852D01*
X152211935Y-66579606D01*
X152211928Y-66579602D01*
X152077082Y-66529308D01*
X152077083Y-66529308D01*
X152017483Y-66522901D01*
X152017481Y-66522900D01*
X152017473Y-66522900D01*
X152017464Y-66522900D01*
X150221729Y-66522900D01*
X150221723Y-66522901D01*
X150162116Y-66529308D01*
X150027271Y-66579602D01*
X150027264Y-66579606D01*
X149912055Y-66665852D01*
X149912052Y-66665855D01*
X149825806Y-66781064D01*
X149825803Y-66781069D01*
X149776789Y-66912483D01*
X149734917Y-66968416D01*
X149669453Y-66992833D01*
X149601180Y-66977981D01*
X149572926Y-66956830D01*
X149451002Y-66834906D01*
X149450995Y-66834901D01*
X149449001Y-66833505D01*
X149374118Y-66781071D01*
X149257434Y-66699367D01*
X149257430Y-66699365D01*
X149254426Y-66697964D01*
X149043263Y-66599497D01*
X149043259Y-66599496D01*
X149043255Y-66599494D01*
X148815013Y-66538338D01*
X148815003Y-66538336D01*
X148579601Y-66517741D01*
X148579599Y-66517741D01*
X148344196Y-66538336D01*
X148344186Y-66538338D01*
X148115944Y-66599494D01*
X148115935Y-66599498D01*
X147901771Y-66699364D01*
X147901769Y-66699365D01*
X147708197Y-66834905D01*
X147541105Y-67001997D01*
X147405565Y-67195569D01*
X147405564Y-67195571D01*
X147305698Y-67409735D01*
X147305694Y-67409744D01*
X147244538Y-67637986D01*
X147244536Y-67637996D01*
X147223941Y-67873399D01*
X146289300Y-67873399D01*
X146289300Y-54241500D01*
X146308985Y-54174461D01*
X146361789Y-54128706D01*
X146413300Y-54117500D01*
X147429007Y-54117500D01*
X147496046Y-54137185D01*
G37*
%TD.AperFunction*%
%TA.AperFunction,Conductor*%
G36*
X181968000Y-94989714D02*
G01*
X181963606Y-94985320D01*
X181872394Y-94932659D01*
X181770661Y-94905400D01*
X181665339Y-94905400D01*
X181563606Y-94932659D01*
X181472394Y-94985320D01*
X181468000Y-94989714D01*
X181468000Y-93621086D01*
X181472394Y-93625480D01*
X181563606Y-93678141D01*
X181665339Y-93705400D01*
X181770661Y-93705400D01*
X181872394Y-93678141D01*
X181963606Y-93625480D01*
X181968000Y-93621086D01*
X181968000Y-94989714D01*
G37*
%TD.AperFunction*%
%TA.AperFunction,Conductor*%
G36*
X163394503Y-80454139D02*
G01*
X163400981Y-80460171D01*
X168056181Y-85115371D01*
X168089666Y-85176694D01*
X168092500Y-85203052D01*
X168092500Y-92030216D01*
X168072815Y-92097255D01*
X168020011Y-92143010D01*
X167950853Y-92152954D01*
X167945716Y-92152105D01*
X167856942Y-92135510D01*
X167826926Y-92129900D01*
X167609074Y-92129900D01*
X167394931Y-92169930D01*
X167367433Y-92180583D01*
X167191792Y-92248626D01*
X167191786Y-92248630D01*
X167022597Y-92353386D01*
X166955236Y-92371941D01*
X166888537Y-92351133D01*
X166866089Y-92331207D01*
X166865962Y-92331335D01*
X166863815Y-92329188D01*
X166863032Y-92328493D01*
X166862516Y-92327889D01*
X166695512Y-92160885D01*
X166695510Y-92160883D01*
X166504433Y-92022057D01*
X166494106Y-92016795D01*
X166293996Y-91914833D01*
X166069368Y-91841846D01*
X165836097Y-91804900D01*
X165836092Y-91804900D01*
X165599908Y-91804900D01*
X165599903Y-91804900D01*
X165366631Y-91841846D01*
X165142003Y-91914833D01*
X164931566Y-92022057D01*
X164833123Y-92093581D01*
X164740490Y-92160883D01*
X164740487Y-92160885D01*
X164736549Y-92163747D01*
X164735389Y-92162150D01*
X164679190Y-92187276D01*
X164619190Y-92180583D01*
X164500482Y-92136308D01*
X164500483Y-92136308D01*
X164440883Y-92129901D01*
X164440881Y-92129900D01*
X164440873Y-92129900D01*
X164440865Y-92129900D01*
X163867361Y-92129900D01*
X163800322Y-92110215D01*
X163779680Y-92093581D01*
X163225619Y-91539519D01*
X163192134Y-91478196D01*
X163189300Y-91451838D01*
X163189300Y-80547852D01*
X163208985Y-80480813D01*
X163261789Y-80435058D01*
X163330947Y-80425114D01*
X163394503Y-80454139D01*
G37*
%TD.AperFunction*%
%TA.AperFunction,Conductor*%
G36*
X159068987Y-60882185D02*
G01*
X159089629Y-60898819D01*
X162876981Y-64686171D01*
X162910466Y-64747494D01*
X162913300Y-64773852D01*
X162913300Y-65015038D01*
X162893615Y-65082077D01*
X162840811Y-65127832D01*
X162771653Y-65137776D01*
X162708097Y-65108751D01*
X162701619Y-65102719D01*
X161862839Y-64263938D01*
X161862838Y-64263937D01*
X161808368Y-64227542D01*
X161768247Y-64200734D01*
X161768245Y-64200733D01*
X161768245Y-64200732D01*
X161715344Y-64165385D01*
X161715342Y-64165384D01*
X161614607Y-64123659D01*
X161551466Y-64097505D01*
X161551458Y-64097503D01*
X161377496Y-64062900D01*
X161377492Y-64062900D01*
X161377491Y-64062900D01*
X152039348Y-64062900D01*
X151972309Y-64043215D01*
X151926554Y-63990411D01*
X151916610Y-63921253D01*
X151945635Y-63857697D01*
X151968225Y-63837325D01*
X151980124Y-63828992D01*
X151999401Y-63815495D01*
X152166495Y-63648401D01*
X152302035Y-63454830D01*
X152401903Y-63240663D01*
X152463063Y-63012408D01*
X152483659Y-62777000D01*
X152482871Y-62767999D01*
X152470009Y-62620985D01*
X152463063Y-62541592D01*
X152401903Y-62313337D01*
X152302035Y-62099171D01*
X152296425Y-62091158D01*
X152166494Y-61905597D01*
X151999402Y-61738506D01*
X151999396Y-61738501D01*
X151813842Y-61608575D01*
X151770217Y-61553998D01*
X151763023Y-61484500D01*
X151794546Y-61422145D01*
X151813842Y-61405425D01*
X151956552Y-61305498D01*
X151999401Y-61275495D01*
X152166495Y-61108401D01*
X152301652Y-60915377D01*
X152356229Y-60871752D01*
X152403227Y-60862500D01*
X159001948Y-60862500D01*
X159068987Y-60882185D01*
G37*
%TD.AperFunction*%
%TA.AperFunction,Conductor*%
G36*
X148838000Y-59803988D02*
G01*
X148780993Y-59771075D01*
X148653826Y-59737000D01*
X148522174Y-59737000D01*
X148395007Y-59771075D01*
X148338000Y-59803988D01*
X148338000Y-58130012D01*
X148395007Y-58162925D01*
X148522174Y-58197000D01*
X148653826Y-58197000D01*
X148780993Y-58162925D01*
X148838000Y-58130012D01*
X148838000Y-59803988D01*
G37*
%TD.AperFunction*%
%TD*%
M02*
