%TF.GenerationSoftware,KiCad,Pcbnew,8.0.8*%
%TF.CreationDate,2025-10-28T14:51:58+08:00*%
%TF.ProjectId,adaptor_dual_LVPMSM,61646170-746f-4725-9f64-75616c5f4c56,rev?*%
%TF.SameCoordinates,Original*%
%TF.FileFunction,Legend,Top*%
%TF.FilePolarity,Positive*%
%FSLAX46Y46*%
G04 Gerber Fmt 4.6, Leading zero omitted, Abs format (unit mm)*
G04 Created by KiCad (PCBNEW 8.0.8) date 2025-10-28 14:51:58*
%MOMM*%
%LPD*%
G01*
G04 APERTURE LIST*
%ADD10C,0.150000*%
%ADD11C,0.250000*%
%ADD12C,0.300000*%
%ADD13C,0.120000*%
G04 APERTURE END LIST*
D10*
X203088800Y-76163400D02*
X203088800Y-74563400D01*
X207488800Y-78163400D02*
X206088800Y-77163400D01*
X205288800Y-75363400D02*
X207488800Y-73963400D01*
X203088800Y-79763400D02*
X203088800Y-78163400D01*
X203088800Y-79763400D02*
X205288800Y-78363400D01*
X204488800Y-77163400D02*
X203088800Y-76163400D01*
X203088800Y-83963400D02*
X207488800Y-83963400D01*
X203088800Y-80363400D02*
X205888800Y-80363400D01*
X203088800Y-71363400D02*
X203088800Y-73963400D01*
X207488800Y-73963400D02*
X206488800Y-73963400D01*
X207488800Y-79763400D02*
X205288800Y-78363400D01*
X206188800Y-70863400D02*
X206388800Y-71063400D01*
X206488800Y-71263400D01*
X206488800Y-71363400D01*
X203088800Y-71363400D01*
X203088800Y-71163400D01*
X203188800Y-70963400D01*
X203288800Y-70863400D01*
X203488800Y-70763400D01*
X203788800Y-70663400D01*
X205788800Y-70663400D01*
X206188800Y-70863400D01*
G36*
X206188800Y-70863400D02*
G01*
X206388800Y-71063400D01*
X206488800Y-71263400D01*
X206488800Y-71363400D01*
X203088800Y-71363400D01*
X203088800Y-71163400D01*
X203188800Y-70963400D01*
X203288800Y-70863400D01*
X203488800Y-70763400D01*
X203788800Y-70663400D01*
X205788800Y-70663400D01*
X206188800Y-70863400D01*
G37*
X207488800Y-79763400D02*
X207488800Y-78163400D01*
X204288800Y-73963400D02*
X205488800Y-73963400D01*
X205488800Y-72163401D01*
X206488800Y-72163401D01*
X206488800Y-73963400D01*
X207488800Y-73963400D01*
X205288800Y-75363400D01*
X203088800Y-73963400D01*
X203088800Y-72163401D01*
X204288800Y-72163400D01*
X204288800Y-73963400D01*
G36*
X204288800Y-73963400D02*
G01*
X205488800Y-73963400D01*
X205488800Y-72163401D01*
X206488800Y-72163401D01*
X206488800Y-73963400D01*
X207488800Y-73963400D01*
X205288800Y-75363400D01*
X203088800Y-73963400D01*
X203088800Y-72163401D01*
X204288800Y-72163400D01*
X204288800Y-73963400D01*
G37*
X207488800Y-76163400D02*
X207488800Y-74563400D01*
X206488800Y-71363400D02*
X206488800Y-73963400D01*
X204288800Y-72163400D02*
X204288800Y-73963400D01*
X203088800Y-80363400D02*
X205288800Y-78963400D01*
X203088800Y-82563400D02*
X205888800Y-80363400D01*
X207488800Y-76163400D02*
X206088800Y-77163400D01*
X207488800Y-78163400D01*
X207488800Y-79763400D01*
X205288800Y-78363400D01*
X203088800Y-79763400D01*
X203088800Y-78163400D01*
X204488800Y-77163400D01*
X203088800Y-76163400D01*
X203088800Y-74563400D01*
X205288800Y-75963400D01*
X207488800Y-74563400D01*
X207488800Y-76163400D01*
G36*
X207488800Y-76163400D02*
G01*
X206088800Y-77163400D01*
X207488800Y-78163400D01*
X207488800Y-79763400D01*
X205288800Y-78363400D01*
X203088800Y-79763400D01*
X203088800Y-78163400D01*
X204488800Y-77163400D01*
X203088800Y-76163400D01*
X203088800Y-74563400D01*
X205288800Y-75963400D01*
X207488800Y-74563400D01*
X207488800Y-76163400D01*
G37*
X207488800Y-80363400D02*
X204688800Y-82563400D01*
X207488800Y-82563400D01*
X207488800Y-83963400D01*
X203088800Y-83963400D01*
X203088800Y-82563400D01*
X205888800Y-80363400D01*
X203088800Y-80363400D01*
X205288800Y-78963400D01*
X207488800Y-80363400D01*
G36*
X207488800Y-80363400D02*
G01*
X204688800Y-82563400D01*
X207488800Y-82563400D01*
X207488800Y-83963400D01*
X203088800Y-83963400D01*
X203088800Y-82563400D01*
X205888800Y-80363400D01*
X203088800Y-80363400D01*
X205288800Y-78963400D01*
X207488800Y-80363400D01*
G37*
X204688800Y-82563400D02*
X207488800Y-80363400D01*
X207488800Y-83963400D02*
X207488800Y-82563400D01*
X207488800Y-82563400D02*
X204688800Y-82563400D01*
X203088800Y-83963400D02*
X203088800Y-82563400D01*
X205288800Y-75963400D02*
X203088800Y-74563400D01*
X204488800Y-77163400D02*
X203088800Y-78163400D01*
X206488800Y-72163401D02*
X205488800Y-72163401D01*
X205288800Y-72063400D01*
X204988800Y-71963400D01*
X204688800Y-71963400D01*
X204388800Y-72063400D01*
X204288800Y-72163400D01*
X203088800Y-72163401D01*
X203088800Y-71363400D01*
X206488800Y-71363400D01*
X206488800Y-72163401D01*
G36*
X206488800Y-72163401D02*
G01*
X205488800Y-72163401D01*
X205288800Y-72063400D01*
X204988800Y-71963400D01*
X204688800Y-71963400D01*
X204388800Y-72063400D01*
X204288800Y-72163400D01*
X203088800Y-72163401D01*
X203088800Y-71363400D01*
X206488800Y-71363400D01*
X206488800Y-72163401D01*
G37*
X205288800Y-75363400D02*
X203088800Y-73963400D01*
X205488800Y-73963400D02*
X204288800Y-73963400D01*
X205488800Y-72163400D02*
X205488800Y-73963400D01*
X206088800Y-77163400D02*
X207488800Y-76163400D01*
X207488800Y-80363400D02*
X205288800Y-78963400D01*
D11*
X80986857Y-67918713D02*
X80939238Y-67871094D01*
X80939238Y-67871094D02*
X80891619Y-67775856D01*
X80891619Y-67775856D02*
X80891619Y-67537761D01*
X80891619Y-67537761D02*
X80939238Y-67442523D01*
X80939238Y-67442523D02*
X80986857Y-67394904D01*
X80986857Y-67394904D02*
X81082095Y-67347285D01*
X81082095Y-67347285D02*
X81177333Y-67347285D01*
X81177333Y-67347285D02*
X81320190Y-67394904D01*
X81320190Y-67394904D02*
X81891619Y-67966332D01*
X81891619Y-67966332D02*
X81891619Y-67347285D01*
X192486619Y-63236476D02*
X192486619Y-63807904D01*
X192486619Y-63522190D02*
X191486619Y-63522190D01*
X191486619Y-63522190D02*
X191629476Y-63617428D01*
X191629476Y-63617428D02*
X191724714Y-63712666D01*
X191724714Y-63712666D02*
X191772333Y-63807904D01*
X191486619Y-62331714D02*
X191486619Y-62807904D01*
X191486619Y-62807904D02*
X191962809Y-62855523D01*
X191962809Y-62855523D02*
X191915190Y-62807904D01*
X191915190Y-62807904D02*
X191867571Y-62712666D01*
X191867571Y-62712666D02*
X191867571Y-62474571D01*
X191867571Y-62474571D02*
X191915190Y-62379333D01*
X191915190Y-62379333D02*
X191962809Y-62331714D01*
X191962809Y-62331714D02*
X192058047Y-62284095D01*
X192058047Y-62284095D02*
X192296142Y-62284095D01*
X192296142Y-62284095D02*
X192391380Y-62331714D01*
X192391380Y-62331714D02*
X192439000Y-62379333D01*
X192439000Y-62379333D02*
X192486619Y-62474571D01*
X192486619Y-62474571D02*
X192486619Y-62712666D01*
X192486619Y-62712666D02*
X192439000Y-62807904D01*
X192439000Y-62807904D02*
X192391380Y-62855523D01*
X81891619Y-63251476D02*
X81891619Y-63822904D01*
X81891619Y-63537190D02*
X80891619Y-63537190D01*
X80891619Y-63537190D02*
X81034476Y-63632428D01*
X81034476Y-63632428D02*
X81129714Y-63727666D01*
X81129714Y-63727666D02*
X81177333Y-63822904D01*
X80891619Y-62394333D02*
X80891619Y-62584809D01*
X80891619Y-62584809D02*
X80939238Y-62680047D01*
X80939238Y-62680047D02*
X80986857Y-62727666D01*
X80986857Y-62727666D02*
X81129714Y-62822904D01*
X81129714Y-62822904D02*
X81320190Y-62870523D01*
X81320190Y-62870523D02*
X81701142Y-62870523D01*
X81701142Y-62870523D02*
X81796380Y-62822904D01*
X81796380Y-62822904D02*
X81844000Y-62775285D01*
X81844000Y-62775285D02*
X81891619Y-62680047D01*
X81891619Y-62680047D02*
X81891619Y-62489571D01*
X81891619Y-62489571D02*
X81844000Y-62394333D01*
X81844000Y-62394333D02*
X81796380Y-62346714D01*
X81796380Y-62346714D02*
X81701142Y-62299095D01*
X81701142Y-62299095D02*
X81463047Y-62299095D01*
X81463047Y-62299095D02*
X81367809Y-62346714D01*
X81367809Y-62346714D02*
X81320190Y-62394333D01*
X81320190Y-62394333D02*
X81272571Y-62489571D01*
X81272571Y-62489571D02*
X81272571Y-62680047D01*
X81272571Y-62680047D02*
X81320190Y-62775285D01*
X81320190Y-62775285D02*
X81367809Y-62822904D01*
X81367809Y-62822904D02*
X81463047Y-62870523D01*
X146512619Y-62982476D02*
X146512619Y-63553904D01*
X146512619Y-63268190D02*
X145512619Y-63268190D01*
X145512619Y-63268190D02*
X145655476Y-63363428D01*
X145655476Y-63363428D02*
X145750714Y-63458666D01*
X145750714Y-63458666D02*
X145798333Y-63553904D01*
X145512619Y-62125333D02*
X145512619Y-62315809D01*
X145512619Y-62315809D02*
X145560238Y-62411047D01*
X145560238Y-62411047D02*
X145607857Y-62458666D01*
X145607857Y-62458666D02*
X145750714Y-62553904D01*
X145750714Y-62553904D02*
X145941190Y-62601523D01*
X145941190Y-62601523D02*
X146322142Y-62601523D01*
X146322142Y-62601523D02*
X146417380Y-62553904D01*
X146417380Y-62553904D02*
X146465000Y-62506285D01*
X146465000Y-62506285D02*
X146512619Y-62411047D01*
X146512619Y-62411047D02*
X146512619Y-62220571D01*
X146512619Y-62220571D02*
X146465000Y-62125333D01*
X146465000Y-62125333D02*
X146417380Y-62077714D01*
X146417380Y-62077714D02*
X146322142Y-62030095D01*
X146322142Y-62030095D02*
X146084047Y-62030095D01*
X146084047Y-62030095D02*
X145988809Y-62077714D01*
X145988809Y-62077714D02*
X145941190Y-62125333D01*
X145941190Y-62125333D02*
X145893571Y-62220571D01*
X145893571Y-62220571D02*
X145893571Y-62411047D01*
X145893571Y-62411047D02*
X145941190Y-62506285D01*
X145941190Y-62506285D02*
X145988809Y-62553904D01*
X145988809Y-62553904D02*
X146084047Y-62601523D01*
X154320619Y-67586285D02*
X154320619Y-68157713D01*
X154320619Y-67871999D02*
X153320619Y-67871999D01*
X153320619Y-67871999D02*
X153463476Y-67967237D01*
X153463476Y-67967237D02*
X153558714Y-68062475D01*
X153558714Y-68062475D02*
X153606333Y-68157713D01*
X89003619Y-80777476D02*
X89003619Y-81348904D01*
X89003619Y-81063190D02*
X88003619Y-81063190D01*
X88003619Y-81063190D02*
X88146476Y-81158428D01*
X88146476Y-81158428D02*
X88241714Y-81253666D01*
X88241714Y-81253666D02*
X88289333Y-81348904D01*
X89003619Y-79825095D02*
X89003619Y-80396523D01*
X89003619Y-80110809D02*
X88003619Y-80110809D01*
X88003619Y-80110809D02*
X88146476Y-80206047D01*
X88146476Y-80206047D02*
X88241714Y-80301285D01*
X88241714Y-80301285D02*
X88289333Y-80396523D01*
X199852619Y-62982476D02*
X199852619Y-63553904D01*
X199852619Y-63268190D02*
X198852619Y-63268190D01*
X198852619Y-63268190D02*
X198995476Y-63363428D01*
X198995476Y-63363428D02*
X199090714Y-63458666D01*
X199090714Y-63458666D02*
X199138333Y-63553904D01*
X198852619Y-62125333D02*
X198852619Y-62315809D01*
X198852619Y-62315809D02*
X198900238Y-62411047D01*
X198900238Y-62411047D02*
X198947857Y-62458666D01*
X198947857Y-62458666D02*
X199090714Y-62553904D01*
X199090714Y-62553904D02*
X199281190Y-62601523D01*
X199281190Y-62601523D02*
X199662142Y-62601523D01*
X199662142Y-62601523D02*
X199757380Y-62553904D01*
X199757380Y-62553904D02*
X199805000Y-62506285D01*
X199805000Y-62506285D02*
X199852619Y-62411047D01*
X199852619Y-62411047D02*
X199852619Y-62220571D01*
X199852619Y-62220571D02*
X199805000Y-62125333D01*
X199805000Y-62125333D02*
X199757380Y-62077714D01*
X199757380Y-62077714D02*
X199662142Y-62030095D01*
X199662142Y-62030095D02*
X199424047Y-62030095D01*
X199424047Y-62030095D02*
X199328809Y-62077714D01*
X199328809Y-62077714D02*
X199281190Y-62125333D01*
X199281190Y-62125333D02*
X199233571Y-62220571D01*
X199233571Y-62220571D02*
X199233571Y-62411047D01*
X199233571Y-62411047D02*
X199281190Y-62506285D01*
X199281190Y-62506285D02*
X199328809Y-62553904D01*
X199328809Y-62553904D02*
X199424047Y-62601523D01*
X134326857Y-80872713D02*
X134279238Y-80825094D01*
X134279238Y-80825094D02*
X134231619Y-80729856D01*
X134231619Y-80729856D02*
X134231619Y-80491761D01*
X134231619Y-80491761D02*
X134279238Y-80396523D01*
X134279238Y-80396523D02*
X134326857Y-80348904D01*
X134326857Y-80348904D02*
X134422095Y-80301285D01*
X134422095Y-80301285D02*
X134517333Y-80301285D01*
X134517333Y-80301285D02*
X134660190Y-80348904D01*
X134660190Y-80348904D02*
X135231619Y-80920332D01*
X135231619Y-80920332D02*
X135231619Y-80301285D01*
X192232619Y-58696285D02*
X192232619Y-59267713D01*
X192232619Y-58981999D02*
X191232619Y-58981999D01*
X191232619Y-58981999D02*
X191375476Y-59077237D01*
X191375476Y-59077237D02*
X191470714Y-59172475D01*
X191470714Y-59172475D02*
X191518333Y-59267713D01*
X89003619Y-67347285D02*
X89003619Y-67918713D01*
X89003619Y-67632999D02*
X88003619Y-67632999D01*
X88003619Y-67632999D02*
X88146476Y-67728237D01*
X88146476Y-67728237D02*
X88241714Y-67823475D01*
X88241714Y-67823475D02*
X88289333Y-67918713D01*
X81891619Y-80777476D02*
X81891619Y-81348904D01*
X81891619Y-81063190D02*
X80891619Y-81063190D01*
X80891619Y-81063190D02*
X81034476Y-81158428D01*
X81034476Y-81158428D02*
X81129714Y-81253666D01*
X81129714Y-81253666D02*
X81177333Y-81348904D01*
X80986857Y-80396523D02*
X80939238Y-80348904D01*
X80939238Y-80348904D02*
X80891619Y-80253666D01*
X80891619Y-80253666D02*
X80891619Y-80015571D01*
X80891619Y-80015571D02*
X80939238Y-79920333D01*
X80939238Y-79920333D02*
X80986857Y-79872714D01*
X80986857Y-79872714D02*
X81082095Y-79825095D01*
X81082095Y-79825095D02*
X81177333Y-79825095D01*
X81177333Y-79825095D02*
X81320190Y-79872714D01*
X81320190Y-79872714D02*
X81891619Y-80444142D01*
X81891619Y-80444142D02*
X81891619Y-79825095D01*
X153878619Y-44472285D02*
X153878619Y-45043713D01*
X153878619Y-44757999D02*
X152878619Y-44757999D01*
X152878619Y-44757999D02*
X153021476Y-44853237D01*
X153021476Y-44853237D02*
X153116714Y-44948475D01*
X153116714Y-44948475D02*
X153164333Y-45043713D01*
X153878619Y-62728476D02*
X153878619Y-63299904D01*
X153878619Y-63014190D02*
X152878619Y-63014190D01*
X152878619Y-63014190D02*
X153021476Y-63109428D01*
X153021476Y-63109428D02*
X153116714Y-63204666D01*
X153116714Y-63204666D02*
X153164333Y-63299904D01*
X152878619Y-61823714D02*
X152878619Y-62299904D01*
X152878619Y-62299904D02*
X153354809Y-62347523D01*
X153354809Y-62347523D02*
X153307190Y-62299904D01*
X153307190Y-62299904D02*
X153259571Y-62204666D01*
X153259571Y-62204666D02*
X153259571Y-61966571D01*
X153259571Y-61966571D02*
X153307190Y-61871333D01*
X153307190Y-61871333D02*
X153354809Y-61823714D01*
X153354809Y-61823714D02*
X153450047Y-61776095D01*
X153450047Y-61776095D02*
X153688142Y-61776095D01*
X153688142Y-61776095D02*
X153783380Y-61823714D01*
X153783380Y-61823714D02*
X153831000Y-61871333D01*
X153831000Y-61871333D02*
X153878619Y-61966571D01*
X153878619Y-61966571D02*
X153878619Y-62204666D01*
X153878619Y-62204666D02*
X153831000Y-62299904D01*
X153831000Y-62299904D02*
X153783380Y-62347523D01*
X198947857Y-80857713D02*
X198900238Y-80810094D01*
X198900238Y-80810094D02*
X198852619Y-80714856D01*
X198852619Y-80714856D02*
X198852619Y-80476761D01*
X198852619Y-80476761D02*
X198900238Y-80381523D01*
X198900238Y-80381523D02*
X198947857Y-80333904D01*
X198947857Y-80333904D02*
X199043095Y-80286285D01*
X199043095Y-80286285D02*
X199138333Y-80286285D01*
X199138333Y-80286285D02*
X199281190Y-80333904D01*
X199281190Y-80333904D02*
X199852619Y-80905332D01*
X199852619Y-80905332D02*
X199852619Y-80286285D01*
D12*
X207467128Y-57051746D02*
X206752842Y-57551746D01*
X207467128Y-57908889D02*
X205967128Y-57908889D01*
X205967128Y-57908889D02*
X205967128Y-57337460D01*
X205967128Y-57337460D02*
X206038557Y-57194603D01*
X206038557Y-57194603D02*
X206109985Y-57123174D01*
X206109985Y-57123174D02*
X206252842Y-57051746D01*
X206252842Y-57051746D02*
X206467128Y-57051746D01*
X206467128Y-57051746D02*
X206609985Y-57123174D01*
X206609985Y-57123174D02*
X206681414Y-57194603D01*
X206681414Y-57194603D02*
X206752842Y-57337460D01*
X206752842Y-57337460D02*
X206752842Y-57908889D01*
X206681414Y-56408889D02*
X206681414Y-55908889D01*
X207467128Y-55694603D02*
X207467128Y-56408889D01*
X207467128Y-56408889D02*
X205967128Y-56408889D01*
X205967128Y-56408889D02*
X205967128Y-55694603D01*
X205967128Y-55266031D02*
X207467128Y-54766031D01*
X207467128Y-54766031D02*
X205967128Y-54266031D01*
X207467128Y-52623175D02*
X205967128Y-52623175D01*
X205967128Y-52623175D02*
X205967128Y-52266032D01*
X205967128Y-52266032D02*
X206038557Y-52051746D01*
X206038557Y-52051746D02*
X206181414Y-51908889D01*
X206181414Y-51908889D02*
X206324271Y-51837460D01*
X206324271Y-51837460D02*
X206609985Y-51766032D01*
X206609985Y-51766032D02*
X206824271Y-51766032D01*
X206824271Y-51766032D02*
X207109985Y-51837460D01*
X207109985Y-51837460D02*
X207252842Y-51908889D01*
X207252842Y-51908889D02*
X207395700Y-52051746D01*
X207395700Y-52051746D02*
X207467128Y-52266032D01*
X207467128Y-52266032D02*
X207467128Y-52623175D01*
X206109985Y-50051746D02*
X206038557Y-49980318D01*
X206038557Y-49980318D02*
X205967128Y-49837461D01*
X205967128Y-49837461D02*
X205967128Y-49480318D01*
X205967128Y-49480318D02*
X206038557Y-49337461D01*
X206038557Y-49337461D02*
X206109985Y-49266032D01*
X206109985Y-49266032D02*
X206252842Y-49194603D01*
X206252842Y-49194603D02*
X206395700Y-49194603D01*
X206395700Y-49194603D02*
X206609985Y-49266032D01*
X206609985Y-49266032D02*
X207467128Y-50123175D01*
X207467128Y-50123175D02*
X207467128Y-49194603D01*
X205967128Y-48266032D02*
X205967128Y-48123175D01*
X205967128Y-48123175D02*
X206038557Y-47980318D01*
X206038557Y-47980318D02*
X206109985Y-47908890D01*
X206109985Y-47908890D02*
X206252842Y-47837461D01*
X206252842Y-47837461D02*
X206538557Y-47766032D01*
X206538557Y-47766032D02*
X206895700Y-47766032D01*
X206895700Y-47766032D02*
X207181414Y-47837461D01*
X207181414Y-47837461D02*
X207324271Y-47908890D01*
X207324271Y-47908890D02*
X207395700Y-47980318D01*
X207395700Y-47980318D02*
X207467128Y-48123175D01*
X207467128Y-48123175D02*
X207467128Y-48266032D01*
X207467128Y-48266032D02*
X207395700Y-48408890D01*
X207395700Y-48408890D02*
X207324271Y-48480318D01*
X207324271Y-48480318D02*
X207181414Y-48551747D01*
X207181414Y-48551747D02*
X206895700Y-48623175D01*
X206895700Y-48623175D02*
X206538557Y-48623175D01*
X206538557Y-48623175D02*
X206252842Y-48551747D01*
X206252842Y-48551747D02*
X206109985Y-48480318D01*
X206109985Y-48480318D02*
X206038557Y-48408890D01*
X206038557Y-48408890D02*
X205967128Y-48266032D01*
X206109985Y-47194604D02*
X206038557Y-47123176D01*
X206038557Y-47123176D02*
X205967128Y-46980319D01*
X205967128Y-46980319D02*
X205967128Y-46623176D01*
X205967128Y-46623176D02*
X206038557Y-46480319D01*
X206038557Y-46480319D02*
X206109985Y-46408890D01*
X206109985Y-46408890D02*
X206252842Y-46337461D01*
X206252842Y-46337461D02*
X206395700Y-46337461D01*
X206395700Y-46337461D02*
X206609985Y-46408890D01*
X206609985Y-46408890D02*
X207467128Y-47266033D01*
X207467128Y-47266033D02*
X207467128Y-46337461D01*
X205967128Y-44980319D02*
X205967128Y-45694605D01*
X205967128Y-45694605D02*
X206681414Y-45766033D01*
X206681414Y-45766033D02*
X206609985Y-45694605D01*
X206609985Y-45694605D02*
X206538557Y-45551748D01*
X206538557Y-45551748D02*
X206538557Y-45194605D01*
X206538557Y-45194605D02*
X206609985Y-45051748D01*
X206609985Y-45051748D02*
X206681414Y-44980319D01*
X206681414Y-44980319D02*
X206824271Y-44908890D01*
X206824271Y-44908890D02*
X207181414Y-44908890D01*
X207181414Y-44908890D02*
X207324271Y-44980319D01*
X207324271Y-44980319D02*
X207395700Y-45051748D01*
X207395700Y-45051748D02*
X207467128Y-45194605D01*
X207467128Y-45194605D02*
X207467128Y-45551748D01*
X207467128Y-45551748D02*
X207395700Y-45694605D01*
X207395700Y-45694605D02*
X207324271Y-45766033D01*
X207324271Y-44266034D02*
X207395700Y-44194605D01*
X207395700Y-44194605D02*
X207467128Y-44266034D01*
X207467128Y-44266034D02*
X207395700Y-44337462D01*
X207395700Y-44337462D02*
X207324271Y-44266034D01*
X207324271Y-44266034D02*
X207467128Y-44266034D01*
X206467128Y-42908891D02*
X207467128Y-42908891D01*
X205895700Y-43266033D02*
X206967128Y-43623176D01*
X206967128Y-43623176D02*
X206967128Y-42694605D01*
X207324271Y-42123177D02*
X207395700Y-42051748D01*
X207395700Y-42051748D02*
X207467128Y-42123177D01*
X207467128Y-42123177D02*
X207395700Y-42194605D01*
X207395700Y-42194605D02*
X207324271Y-42123177D01*
X207324271Y-42123177D02*
X207467128Y-42123177D01*
X207467128Y-40623176D02*
X207467128Y-41480319D01*
X207467128Y-41051748D02*
X205967128Y-41051748D01*
X205967128Y-41051748D02*
X206181414Y-41194605D01*
X206181414Y-41194605D02*
X206324271Y-41337462D01*
X206324271Y-41337462D02*
X206395700Y-41480319D01*
X205967128Y-39337463D02*
X205967128Y-39623177D01*
X205967128Y-39623177D02*
X206038557Y-39766034D01*
X206038557Y-39766034D02*
X206109985Y-39837463D01*
X206109985Y-39837463D02*
X206324271Y-39980320D01*
X206324271Y-39980320D02*
X206609985Y-40051748D01*
X206609985Y-40051748D02*
X207181414Y-40051748D01*
X207181414Y-40051748D02*
X207324271Y-39980320D01*
X207324271Y-39980320D02*
X207395700Y-39908891D01*
X207395700Y-39908891D02*
X207467128Y-39766034D01*
X207467128Y-39766034D02*
X207467128Y-39480320D01*
X207467128Y-39480320D02*
X207395700Y-39337463D01*
X207395700Y-39337463D02*
X207324271Y-39266034D01*
X207324271Y-39266034D02*
X207181414Y-39194605D01*
X207181414Y-39194605D02*
X206824271Y-39194605D01*
X206824271Y-39194605D02*
X206681414Y-39266034D01*
X206681414Y-39266034D02*
X206609985Y-39337463D01*
X206609985Y-39337463D02*
X206538557Y-39480320D01*
X206538557Y-39480320D02*
X206538557Y-39766034D01*
X206538557Y-39766034D02*
X206609985Y-39908891D01*
X206609985Y-39908891D02*
X206681414Y-39980320D01*
X206681414Y-39980320D02*
X206824271Y-40051748D01*
X204467128Y-67891971D02*
X202967128Y-67891971D01*
X202967128Y-67891971D02*
X202967128Y-67534828D01*
X202967128Y-67534828D02*
X203038557Y-67320542D01*
X203038557Y-67320542D02*
X203181414Y-67177685D01*
X203181414Y-67177685D02*
X203324271Y-67106256D01*
X203324271Y-67106256D02*
X203609985Y-67034828D01*
X203609985Y-67034828D02*
X203824271Y-67034828D01*
X203824271Y-67034828D02*
X204109985Y-67106256D01*
X204109985Y-67106256D02*
X204252842Y-67177685D01*
X204252842Y-67177685D02*
X204395700Y-67320542D01*
X204395700Y-67320542D02*
X204467128Y-67534828D01*
X204467128Y-67534828D02*
X204467128Y-67891971D01*
X203467128Y-65749114D02*
X204467128Y-65749114D01*
X203467128Y-66391971D02*
X204252842Y-66391971D01*
X204252842Y-66391971D02*
X204395700Y-66320542D01*
X204395700Y-66320542D02*
X204467128Y-66177685D01*
X204467128Y-66177685D02*
X204467128Y-65963399D01*
X204467128Y-65963399D02*
X204395700Y-65820542D01*
X204395700Y-65820542D02*
X204324271Y-65749114D01*
X204467128Y-64391971D02*
X203681414Y-64391971D01*
X203681414Y-64391971D02*
X203538557Y-64463399D01*
X203538557Y-64463399D02*
X203467128Y-64606256D01*
X203467128Y-64606256D02*
X203467128Y-64891971D01*
X203467128Y-64891971D02*
X203538557Y-65034828D01*
X204395700Y-64391971D02*
X204467128Y-64534828D01*
X204467128Y-64534828D02*
X204467128Y-64891971D01*
X204467128Y-64891971D02*
X204395700Y-65034828D01*
X204395700Y-65034828D02*
X204252842Y-65106256D01*
X204252842Y-65106256D02*
X204109985Y-65106256D01*
X204109985Y-65106256D02*
X203967128Y-65034828D01*
X203967128Y-65034828D02*
X203895700Y-64891971D01*
X203895700Y-64891971D02*
X203895700Y-64534828D01*
X203895700Y-64534828D02*
X203824271Y-64391971D01*
X204467128Y-63463399D02*
X204395700Y-63606256D01*
X204395700Y-63606256D02*
X204252842Y-63677685D01*
X204252842Y-63677685D02*
X202967128Y-63677685D01*
X204467128Y-61749114D02*
X202967128Y-61749114D01*
X202967128Y-61749114D02*
X204038557Y-61249114D01*
X204038557Y-61249114D02*
X202967128Y-60749114D01*
X202967128Y-60749114D02*
X204467128Y-60749114D01*
X204467128Y-59820542D02*
X204395700Y-59963399D01*
X204395700Y-59963399D02*
X204324271Y-60034828D01*
X204324271Y-60034828D02*
X204181414Y-60106256D01*
X204181414Y-60106256D02*
X203752842Y-60106256D01*
X203752842Y-60106256D02*
X203609985Y-60034828D01*
X203609985Y-60034828D02*
X203538557Y-59963399D01*
X203538557Y-59963399D02*
X203467128Y-59820542D01*
X203467128Y-59820542D02*
X203467128Y-59606256D01*
X203467128Y-59606256D02*
X203538557Y-59463399D01*
X203538557Y-59463399D02*
X203609985Y-59391971D01*
X203609985Y-59391971D02*
X203752842Y-59320542D01*
X203752842Y-59320542D02*
X204181414Y-59320542D01*
X204181414Y-59320542D02*
X204324271Y-59391971D01*
X204324271Y-59391971D02*
X204395700Y-59463399D01*
X204395700Y-59463399D02*
X204467128Y-59606256D01*
X204467128Y-59606256D02*
X204467128Y-59820542D01*
X203467128Y-58891970D02*
X203467128Y-58320542D01*
X202967128Y-58677685D02*
X204252842Y-58677685D01*
X204252842Y-58677685D02*
X204395700Y-58606256D01*
X204395700Y-58606256D02*
X204467128Y-58463399D01*
X204467128Y-58463399D02*
X204467128Y-58320542D01*
X204467128Y-57606256D02*
X204395700Y-57749113D01*
X204395700Y-57749113D02*
X204324271Y-57820542D01*
X204324271Y-57820542D02*
X204181414Y-57891970D01*
X204181414Y-57891970D02*
X203752842Y-57891970D01*
X203752842Y-57891970D02*
X203609985Y-57820542D01*
X203609985Y-57820542D02*
X203538557Y-57749113D01*
X203538557Y-57749113D02*
X203467128Y-57606256D01*
X203467128Y-57606256D02*
X203467128Y-57391970D01*
X203467128Y-57391970D02*
X203538557Y-57249113D01*
X203538557Y-57249113D02*
X203609985Y-57177685D01*
X203609985Y-57177685D02*
X203752842Y-57106256D01*
X203752842Y-57106256D02*
X204181414Y-57106256D01*
X204181414Y-57106256D02*
X204324271Y-57177685D01*
X204324271Y-57177685D02*
X204395700Y-57249113D01*
X204395700Y-57249113D02*
X204467128Y-57391970D01*
X204467128Y-57391970D02*
X204467128Y-57606256D01*
X204467128Y-56463399D02*
X203467128Y-56463399D01*
X203752842Y-56463399D02*
X203609985Y-56391970D01*
X203609985Y-56391970D02*
X203538557Y-56320542D01*
X203538557Y-56320542D02*
X203467128Y-56177684D01*
X203467128Y-56177684D02*
X203467128Y-56034827D01*
X204038557Y-54463399D02*
X204038557Y-53749114D01*
X204467128Y-54606256D02*
X202967128Y-54106256D01*
X202967128Y-54106256D02*
X204467128Y-53606256D01*
X204467128Y-52463400D02*
X202967128Y-52463400D01*
X204395700Y-52463400D02*
X204467128Y-52606257D01*
X204467128Y-52606257D02*
X204467128Y-52891971D01*
X204467128Y-52891971D02*
X204395700Y-53034828D01*
X204395700Y-53034828D02*
X204324271Y-53106257D01*
X204324271Y-53106257D02*
X204181414Y-53177685D01*
X204181414Y-53177685D02*
X203752842Y-53177685D01*
X203752842Y-53177685D02*
X203609985Y-53106257D01*
X203609985Y-53106257D02*
X203538557Y-53034828D01*
X203538557Y-53034828D02*
X203467128Y-52891971D01*
X203467128Y-52891971D02*
X203467128Y-52606257D01*
X203467128Y-52606257D02*
X203538557Y-52463400D01*
X204467128Y-51106257D02*
X203681414Y-51106257D01*
X203681414Y-51106257D02*
X203538557Y-51177685D01*
X203538557Y-51177685D02*
X203467128Y-51320542D01*
X203467128Y-51320542D02*
X203467128Y-51606257D01*
X203467128Y-51606257D02*
X203538557Y-51749114D01*
X204395700Y-51106257D02*
X204467128Y-51249114D01*
X204467128Y-51249114D02*
X204467128Y-51606257D01*
X204467128Y-51606257D02*
X204395700Y-51749114D01*
X204395700Y-51749114D02*
X204252842Y-51820542D01*
X204252842Y-51820542D02*
X204109985Y-51820542D01*
X204109985Y-51820542D02*
X203967128Y-51749114D01*
X203967128Y-51749114D02*
X203895700Y-51606257D01*
X203895700Y-51606257D02*
X203895700Y-51249114D01*
X203895700Y-51249114D02*
X203824271Y-51106257D01*
X203467128Y-50391971D02*
X204967128Y-50391971D01*
X203538557Y-50391971D02*
X203467128Y-50249114D01*
X203467128Y-50249114D02*
X203467128Y-49963399D01*
X203467128Y-49963399D02*
X203538557Y-49820542D01*
X203538557Y-49820542D02*
X203609985Y-49749114D01*
X203609985Y-49749114D02*
X203752842Y-49677685D01*
X203752842Y-49677685D02*
X204181414Y-49677685D01*
X204181414Y-49677685D02*
X204324271Y-49749114D01*
X204324271Y-49749114D02*
X204395700Y-49820542D01*
X204395700Y-49820542D02*
X204467128Y-49963399D01*
X204467128Y-49963399D02*
X204467128Y-50249114D01*
X204467128Y-50249114D02*
X204395700Y-50391971D01*
X203467128Y-49249113D02*
X203467128Y-48677685D01*
X202967128Y-49034828D02*
X204252842Y-49034828D01*
X204252842Y-49034828D02*
X204395700Y-48963399D01*
X204395700Y-48963399D02*
X204467128Y-48820542D01*
X204467128Y-48820542D02*
X204467128Y-48677685D01*
X204395700Y-47606256D02*
X204467128Y-47749113D01*
X204467128Y-47749113D02*
X204467128Y-48034828D01*
X204467128Y-48034828D02*
X204395700Y-48177685D01*
X204395700Y-48177685D02*
X204252842Y-48249113D01*
X204252842Y-48249113D02*
X203681414Y-48249113D01*
X203681414Y-48249113D02*
X203538557Y-48177685D01*
X203538557Y-48177685D02*
X203467128Y-48034828D01*
X203467128Y-48034828D02*
X203467128Y-47749113D01*
X203467128Y-47749113D02*
X203538557Y-47606256D01*
X203538557Y-47606256D02*
X203681414Y-47534828D01*
X203681414Y-47534828D02*
X203824271Y-47534828D01*
X203824271Y-47534828D02*
X203967128Y-48249113D01*
X204467128Y-46891971D02*
X203467128Y-46891971D01*
X203752842Y-46891971D02*
X203609985Y-46820542D01*
X203609985Y-46820542D02*
X203538557Y-46749114D01*
X203538557Y-46749114D02*
X203467128Y-46606256D01*
X203467128Y-46606256D02*
X203467128Y-46463399D01*
X203681414Y-44320543D02*
X203752842Y-44106257D01*
X203752842Y-44106257D02*
X203824271Y-44034828D01*
X203824271Y-44034828D02*
X203967128Y-43963400D01*
X203967128Y-43963400D02*
X204181414Y-43963400D01*
X204181414Y-43963400D02*
X204324271Y-44034828D01*
X204324271Y-44034828D02*
X204395700Y-44106257D01*
X204395700Y-44106257D02*
X204467128Y-44249114D01*
X204467128Y-44249114D02*
X204467128Y-44820543D01*
X204467128Y-44820543D02*
X202967128Y-44820543D01*
X202967128Y-44820543D02*
X202967128Y-44320543D01*
X202967128Y-44320543D02*
X203038557Y-44177686D01*
X203038557Y-44177686D02*
X203109985Y-44106257D01*
X203109985Y-44106257D02*
X203252842Y-44034828D01*
X203252842Y-44034828D02*
X203395700Y-44034828D01*
X203395700Y-44034828D02*
X203538557Y-44106257D01*
X203538557Y-44106257D02*
X203609985Y-44177686D01*
X203609985Y-44177686D02*
X203681414Y-44320543D01*
X203681414Y-44320543D02*
X203681414Y-44820543D01*
X204467128Y-43106257D02*
X204395700Y-43249114D01*
X204395700Y-43249114D02*
X204324271Y-43320543D01*
X204324271Y-43320543D02*
X204181414Y-43391971D01*
X204181414Y-43391971D02*
X203752842Y-43391971D01*
X203752842Y-43391971D02*
X203609985Y-43320543D01*
X203609985Y-43320543D02*
X203538557Y-43249114D01*
X203538557Y-43249114D02*
X203467128Y-43106257D01*
X203467128Y-43106257D02*
X203467128Y-42891971D01*
X203467128Y-42891971D02*
X203538557Y-42749114D01*
X203538557Y-42749114D02*
X203609985Y-42677686D01*
X203609985Y-42677686D02*
X203752842Y-42606257D01*
X203752842Y-42606257D02*
X204181414Y-42606257D01*
X204181414Y-42606257D02*
X204324271Y-42677686D01*
X204324271Y-42677686D02*
X204395700Y-42749114D01*
X204395700Y-42749114D02*
X204467128Y-42891971D01*
X204467128Y-42891971D02*
X204467128Y-43106257D01*
X204467128Y-41320543D02*
X203681414Y-41320543D01*
X203681414Y-41320543D02*
X203538557Y-41391971D01*
X203538557Y-41391971D02*
X203467128Y-41534828D01*
X203467128Y-41534828D02*
X203467128Y-41820543D01*
X203467128Y-41820543D02*
X203538557Y-41963400D01*
X204395700Y-41320543D02*
X204467128Y-41463400D01*
X204467128Y-41463400D02*
X204467128Y-41820543D01*
X204467128Y-41820543D02*
X204395700Y-41963400D01*
X204395700Y-41963400D02*
X204252842Y-42034828D01*
X204252842Y-42034828D02*
X204109985Y-42034828D01*
X204109985Y-42034828D02*
X203967128Y-41963400D01*
X203967128Y-41963400D02*
X203895700Y-41820543D01*
X203895700Y-41820543D02*
X203895700Y-41463400D01*
X203895700Y-41463400D02*
X203824271Y-41320543D01*
X204467128Y-40606257D02*
X203467128Y-40606257D01*
X203752842Y-40606257D02*
X203609985Y-40534828D01*
X203609985Y-40534828D02*
X203538557Y-40463400D01*
X203538557Y-40463400D02*
X203467128Y-40320542D01*
X203467128Y-40320542D02*
X203467128Y-40177685D01*
X204467128Y-39034829D02*
X202967128Y-39034829D01*
X204395700Y-39034829D02*
X204467128Y-39177686D01*
X204467128Y-39177686D02*
X204467128Y-39463400D01*
X204467128Y-39463400D02*
X204395700Y-39606257D01*
X204395700Y-39606257D02*
X204324271Y-39677686D01*
X204324271Y-39677686D02*
X204181414Y-39749114D01*
X204181414Y-39749114D02*
X203752842Y-39749114D01*
X203752842Y-39749114D02*
X203609985Y-39677686D01*
X203609985Y-39677686D02*
X203538557Y-39606257D01*
X203538557Y-39606257D02*
X203467128Y-39463400D01*
X203467128Y-39463400D02*
X203467128Y-39177686D01*
X203467128Y-39177686D02*
X203538557Y-39034829D01*
D11*
X127611619Y-80301285D02*
X127611619Y-80872713D01*
X127611619Y-80586999D02*
X126611619Y-80586999D01*
X126611619Y-80586999D02*
X126754476Y-80682237D01*
X126754476Y-80682237D02*
X126849714Y-80777475D01*
X126849714Y-80777475D02*
X126897333Y-80872713D01*
X80986857Y-45312713D02*
X80939238Y-45265094D01*
X80939238Y-45265094D02*
X80891619Y-45169856D01*
X80891619Y-45169856D02*
X80891619Y-44931761D01*
X80891619Y-44931761D02*
X80939238Y-44836523D01*
X80939238Y-44836523D02*
X80986857Y-44788904D01*
X80986857Y-44788904D02*
X81082095Y-44741285D01*
X81082095Y-44741285D02*
X81177333Y-44741285D01*
X81177333Y-44741285D02*
X81320190Y-44788904D01*
X81320190Y-44788904D02*
X81891619Y-45360332D01*
X81891619Y-45360332D02*
X81891619Y-44741285D01*
X198947857Y-59267713D02*
X198900238Y-59220094D01*
X198900238Y-59220094D02*
X198852619Y-59124856D01*
X198852619Y-59124856D02*
X198852619Y-58886761D01*
X198852619Y-58886761D02*
X198900238Y-58791523D01*
X198900238Y-58791523D02*
X198947857Y-58743904D01*
X198947857Y-58743904D02*
X199043095Y-58696285D01*
X199043095Y-58696285D02*
X199138333Y-58696285D01*
X199138333Y-58696285D02*
X199281190Y-58743904D01*
X199281190Y-58743904D02*
X199852619Y-59315332D01*
X199852619Y-59315332D02*
X199852619Y-58696285D01*
X192232619Y-36312476D02*
X192232619Y-36883904D01*
X192232619Y-36598190D02*
X191232619Y-36598190D01*
X191232619Y-36598190D02*
X191375476Y-36693428D01*
X191375476Y-36693428D02*
X191470714Y-36788666D01*
X191470714Y-36788666D02*
X191518333Y-36883904D01*
X192232619Y-35836285D02*
X192232619Y-35645809D01*
X192232619Y-35645809D02*
X192185000Y-35550571D01*
X192185000Y-35550571D02*
X192137380Y-35502952D01*
X192137380Y-35502952D02*
X191994523Y-35407714D01*
X191994523Y-35407714D02*
X191804047Y-35360095D01*
X191804047Y-35360095D02*
X191423095Y-35360095D01*
X191423095Y-35360095D02*
X191327857Y-35407714D01*
X191327857Y-35407714D02*
X191280238Y-35455333D01*
X191280238Y-35455333D02*
X191232619Y-35550571D01*
X191232619Y-35550571D02*
X191232619Y-35741047D01*
X191232619Y-35741047D02*
X191280238Y-35836285D01*
X191280238Y-35836285D02*
X191327857Y-35883904D01*
X191327857Y-35883904D02*
X191423095Y-35931523D01*
X191423095Y-35931523D02*
X191661190Y-35931523D01*
X191661190Y-35931523D02*
X191756428Y-35883904D01*
X191756428Y-35883904D02*
X191804047Y-35836285D01*
X191804047Y-35836285D02*
X191851666Y-35741047D01*
X191851666Y-35741047D02*
X191851666Y-35550571D01*
X191851666Y-35550571D02*
X191804047Y-35455333D01*
X191804047Y-35455333D02*
X191756428Y-35407714D01*
X191756428Y-35407714D02*
X191661190Y-35360095D01*
X134072857Y-36898904D02*
X134025238Y-36851285D01*
X134025238Y-36851285D02*
X133977619Y-36756047D01*
X133977619Y-36756047D02*
X133977619Y-36517952D01*
X133977619Y-36517952D02*
X134025238Y-36422714D01*
X134025238Y-36422714D02*
X134072857Y-36375095D01*
X134072857Y-36375095D02*
X134168095Y-36327476D01*
X134168095Y-36327476D02*
X134263333Y-36327476D01*
X134263333Y-36327476D02*
X134406190Y-36375095D01*
X134406190Y-36375095D02*
X134977619Y-36946523D01*
X134977619Y-36946523D02*
X134977619Y-36327476D01*
X133977619Y-35708428D02*
X133977619Y-35613190D01*
X133977619Y-35613190D02*
X134025238Y-35517952D01*
X134025238Y-35517952D02*
X134072857Y-35470333D01*
X134072857Y-35470333D02*
X134168095Y-35422714D01*
X134168095Y-35422714D02*
X134358571Y-35375095D01*
X134358571Y-35375095D02*
X134596666Y-35375095D01*
X134596666Y-35375095D02*
X134787142Y-35422714D01*
X134787142Y-35422714D02*
X134882380Y-35470333D01*
X134882380Y-35470333D02*
X134930000Y-35517952D01*
X134930000Y-35517952D02*
X134977619Y-35613190D01*
X134977619Y-35613190D02*
X134977619Y-35708428D01*
X134977619Y-35708428D02*
X134930000Y-35803666D01*
X134930000Y-35803666D02*
X134882380Y-35851285D01*
X134882380Y-35851285D02*
X134787142Y-35898904D01*
X134787142Y-35898904D02*
X134596666Y-35946523D01*
X134596666Y-35946523D02*
X134358571Y-35946523D01*
X134358571Y-35946523D02*
X134168095Y-35898904D01*
X134168095Y-35898904D02*
X134072857Y-35851285D01*
X134072857Y-35851285D02*
X134025238Y-35803666D01*
X134025238Y-35803666D02*
X133977619Y-35708428D01*
X134977619Y-62743476D02*
X134977619Y-63314904D01*
X134977619Y-63029190D02*
X133977619Y-63029190D01*
X133977619Y-63029190D02*
X134120476Y-63124428D01*
X134120476Y-63124428D02*
X134215714Y-63219666D01*
X134215714Y-63219666D02*
X134263333Y-63314904D01*
X133977619Y-61886333D02*
X133977619Y-62076809D01*
X133977619Y-62076809D02*
X134025238Y-62172047D01*
X134025238Y-62172047D02*
X134072857Y-62219666D01*
X134072857Y-62219666D02*
X134215714Y-62314904D01*
X134215714Y-62314904D02*
X134406190Y-62362523D01*
X134406190Y-62362523D02*
X134787142Y-62362523D01*
X134787142Y-62362523D02*
X134882380Y-62314904D01*
X134882380Y-62314904D02*
X134930000Y-62267285D01*
X134930000Y-62267285D02*
X134977619Y-62172047D01*
X134977619Y-62172047D02*
X134977619Y-61981571D01*
X134977619Y-61981571D02*
X134930000Y-61886333D01*
X134930000Y-61886333D02*
X134882380Y-61838714D01*
X134882380Y-61838714D02*
X134787142Y-61791095D01*
X134787142Y-61791095D02*
X134549047Y-61791095D01*
X134549047Y-61791095D02*
X134453809Y-61838714D01*
X134453809Y-61838714D02*
X134406190Y-61886333D01*
X134406190Y-61886333D02*
X134358571Y-61981571D01*
X134358571Y-61981571D02*
X134358571Y-62172047D01*
X134358571Y-62172047D02*
X134406190Y-62267285D01*
X134406190Y-62267285D02*
X134453809Y-62314904D01*
X134453809Y-62314904D02*
X134549047Y-62362523D01*
X134326857Y-59028713D02*
X134279238Y-58981094D01*
X134279238Y-58981094D02*
X134231619Y-58885856D01*
X134231619Y-58885856D02*
X134231619Y-58647761D01*
X134231619Y-58647761D02*
X134279238Y-58552523D01*
X134279238Y-58552523D02*
X134326857Y-58504904D01*
X134326857Y-58504904D02*
X134422095Y-58457285D01*
X134422095Y-58457285D02*
X134517333Y-58457285D01*
X134517333Y-58457285D02*
X134660190Y-58504904D01*
X134660190Y-58504904D02*
X135231619Y-59076332D01*
X135231619Y-59076332D02*
X135231619Y-58457285D01*
X89003619Y-44741285D02*
X89003619Y-45312713D01*
X89003619Y-45026999D02*
X88003619Y-45026999D01*
X88003619Y-45026999D02*
X88146476Y-45122237D01*
X88146476Y-45122237D02*
X88241714Y-45217475D01*
X88241714Y-45217475D02*
X88289333Y-45312713D01*
X146258619Y-81016476D02*
X146258619Y-81587904D01*
X146258619Y-81302190D02*
X145258619Y-81302190D01*
X145258619Y-81302190D02*
X145401476Y-81397428D01*
X145401476Y-81397428D02*
X145496714Y-81492666D01*
X145496714Y-81492666D02*
X145544333Y-81587904D01*
X145353857Y-80635523D02*
X145306238Y-80587904D01*
X145306238Y-80587904D02*
X145258619Y-80492666D01*
X145258619Y-80492666D02*
X145258619Y-80254571D01*
X145258619Y-80254571D02*
X145306238Y-80159333D01*
X145306238Y-80159333D02*
X145353857Y-80111714D01*
X145353857Y-80111714D02*
X145449095Y-80064095D01*
X145449095Y-80064095D02*
X145544333Y-80064095D01*
X145544333Y-80064095D02*
X145687190Y-80111714D01*
X145687190Y-80111714D02*
X146258619Y-80683142D01*
X146258619Y-80683142D02*
X146258619Y-80064095D01*
X127357619Y-58711285D02*
X127357619Y-59282713D01*
X127357619Y-58996999D02*
X126357619Y-58996999D01*
X126357619Y-58996999D02*
X126500476Y-59092237D01*
X126500476Y-59092237D02*
X126595714Y-59187475D01*
X126595714Y-59187475D02*
X126643333Y-59282713D01*
X127357619Y-36327476D02*
X127357619Y-36898904D01*
X127357619Y-36613190D02*
X126357619Y-36613190D01*
X126357619Y-36613190D02*
X126500476Y-36708428D01*
X126500476Y-36708428D02*
X126595714Y-36803666D01*
X126595714Y-36803666D02*
X126643333Y-36898904D01*
X127357619Y-35851285D02*
X127357619Y-35660809D01*
X127357619Y-35660809D02*
X127310000Y-35565571D01*
X127310000Y-35565571D02*
X127262380Y-35517952D01*
X127262380Y-35517952D02*
X127119523Y-35422714D01*
X127119523Y-35422714D02*
X126929047Y-35375095D01*
X126929047Y-35375095D02*
X126548095Y-35375095D01*
X126548095Y-35375095D02*
X126452857Y-35422714D01*
X126452857Y-35422714D02*
X126405238Y-35470333D01*
X126405238Y-35470333D02*
X126357619Y-35565571D01*
X126357619Y-35565571D02*
X126357619Y-35756047D01*
X126357619Y-35756047D02*
X126405238Y-35851285D01*
X126405238Y-35851285D02*
X126452857Y-35898904D01*
X126452857Y-35898904D02*
X126548095Y-35946523D01*
X126548095Y-35946523D02*
X126786190Y-35946523D01*
X126786190Y-35946523D02*
X126881428Y-35898904D01*
X126881428Y-35898904D02*
X126929047Y-35851285D01*
X126929047Y-35851285D02*
X126976666Y-35756047D01*
X126976666Y-35756047D02*
X126976666Y-35565571D01*
X126976666Y-35565571D02*
X126929047Y-35470333D01*
X126929047Y-35470333D02*
X126881428Y-35422714D01*
X126881428Y-35422714D02*
X126786190Y-35375095D01*
X154132619Y-80762476D02*
X154132619Y-81333904D01*
X154132619Y-81048190D02*
X153132619Y-81048190D01*
X153132619Y-81048190D02*
X153275476Y-81143428D01*
X153275476Y-81143428D02*
X153370714Y-81238666D01*
X153370714Y-81238666D02*
X153418333Y-81333904D01*
X154132619Y-79810095D02*
X154132619Y-80381523D01*
X154132619Y-80095809D02*
X153132619Y-80095809D01*
X153132619Y-80095809D02*
X153275476Y-80191047D01*
X153275476Y-80191047D02*
X153370714Y-80286285D01*
X153370714Y-80286285D02*
X153418333Y-80381523D01*
X198947857Y-36883904D02*
X198900238Y-36836285D01*
X198900238Y-36836285D02*
X198852619Y-36741047D01*
X198852619Y-36741047D02*
X198852619Y-36502952D01*
X198852619Y-36502952D02*
X198900238Y-36407714D01*
X198900238Y-36407714D02*
X198947857Y-36360095D01*
X198947857Y-36360095D02*
X199043095Y-36312476D01*
X199043095Y-36312476D02*
X199138333Y-36312476D01*
X199138333Y-36312476D02*
X199281190Y-36360095D01*
X199281190Y-36360095D02*
X199852619Y-36931523D01*
X199852619Y-36931523D02*
X199852619Y-36312476D01*
X198852619Y-35693428D02*
X198852619Y-35598190D01*
X198852619Y-35598190D02*
X198900238Y-35502952D01*
X198900238Y-35502952D02*
X198947857Y-35455333D01*
X198947857Y-35455333D02*
X199043095Y-35407714D01*
X199043095Y-35407714D02*
X199233571Y-35360095D01*
X199233571Y-35360095D02*
X199471666Y-35360095D01*
X199471666Y-35360095D02*
X199662142Y-35407714D01*
X199662142Y-35407714D02*
X199757380Y-35455333D01*
X199757380Y-35455333D02*
X199805000Y-35502952D01*
X199805000Y-35502952D02*
X199852619Y-35598190D01*
X199852619Y-35598190D02*
X199852619Y-35693428D01*
X199852619Y-35693428D02*
X199805000Y-35788666D01*
X199805000Y-35788666D02*
X199757380Y-35836285D01*
X199757380Y-35836285D02*
X199662142Y-35883904D01*
X199662142Y-35883904D02*
X199471666Y-35931523D01*
X199471666Y-35931523D02*
X199233571Y-35931523D01*
X199233571Y-35931523D02*
X199043095Y-35883904D01*
X199043095Y-35883904D02*
X198947857Y-35836285D01*
X198947857Y-35836285D02*
X198900238Y-35788666D01*
X198900238Y-35788666D02*
X198852619Y-35693428D01*
X145607857Y-68157713D02*
X145560238Y-68110094D01*
X145560238Y-68110094D02*
X145512619Y-68014856D01*
X145512619Y-68014856D02*
X145512619Y-67776761D01*
X145512619Y-67776761D02*
X145560238Y-67681523D01*
X145560238Y-67681523D02*
X145607857Y-67633904D01*
X145607857Y-67633904D02*
X145703095Y-67586285D01*
X145703095Y-67586285D02*
X145798333Y-67586285D01*
X145798333Y-67586285D02*
X145941190Y-67633904D01*
X145941190Y-67633904D02*
X146512619Y-68205332D01*
X146512619Y-68205332D02*
X146512619Y-67586285D01*
X127611619Y-62997476D02*
X127611619Y-63568904D01*
X127611619Y-63283190D02*
X126611619Y-63283190D01*
X126611619Y-63283190D02*
X126754476Y-63378428D01*
X126754476Y-63378428D02*
X126849714Y-63473666D01*
X126849714Y-63473666D02*
X126897333Y-63568904D01*
X126611619Y-62092714D02*
X126611619Y-62568904D01*
X126611619Y-62568904D02*
X127087809Y-62616523D01*
X127087809Y-62616523D02*
X127040190Y-62568904D01*
X127040190Y-62568904D02*
X126992571Y-62473666D01*
X126992571Y-62473666D02*
X126992571Y-62235571D01*
X126992571Y-62235571D02*
X127040190Y-62140333D01*
X127040190Y-62140333D02*
X127087809Y-62092714D01*
X127087809Y-62092714D02*
X127183047Y-62045095D01*
X127183047Y-62045095D02*
X127421142Y-62045095D01*
X127421142Y-62045095D02*
X127516380Y-62092714D01*
X127516380Y-62092714D02*
X127564000Y-62140333D01*
X127564000Y-62140333D02*
X127611619Y-62235571D01*
X127611619Y-62235571D02*
X127611619Y-62473666D01*
X127611619Y-62473666D02*
X127564000Y-62568904D01*
X127564000Y-62568904D02*
X127516380Y-62616523D01*
X145861857Y-45043713D02*
X145814238Y-44996094D01*
X145814238Y-44996094D02*
X145766619Y-44900856D01*
X145766619Y-44900856D02*
X145766619Y-44662761D01*
X145766619Y-44662761D02*
X145814238Y-44567523D01*
X145814238Y-44567523D02*
X145861857Y-44519904D01*
X145861857Y-44519904D02*
X145957095Y-44472285D01*
X145957095Y-44472285D02*
X146052333Y-44472285D01*
X146052333Y-44472285D02*
X146195190Y-44519904D01*
X146195190Y-44519904D02*
X146766619Y-45091332D01*
X146766619Y-45091332D02*
X146766619Y-44472285D01*
X89257619Y-62997476D02*
X89257619Y-63568904D01*
X89257619Y-63283190D02*
X88257619Y-63283190D01*
X88257619Y-63283190D02*
X88400476Y-63378428D01*
X88400476Y-63378428D02*
X88495714Y-63473666D01*
X88495714Y-63473666D02*
X88543333Y-63568904D01*
X88257619Y-62092714D02*
X88257619Y-62568904D01*
X88257619Y-62568904D02*
X88733809Y-62616523D01*
X88733809Y-62616523D02*
X88686190Y-62568904D01*
X88686190Y-62568904D02*
X88638571Y-62473666D01*
X88638571Y-62473666D02*
X88638571Y-62235571D01*
X88638571Y-62235571D02*
X88686190Y-62140333D01*
X88686190Y-62140333D02*
X88733809Y-62092714D01*
X88733809Y-62092714D02*
X88829047Y-62045095D01*
X88829047Y-62045095D02*
X89067142Y-62045095D01*
X89067142Y-62045095D02*
X89162380Y-62092714D01*
X89162380Y-62092714D02*
X89210000Y-62140333D01*
X89210000Y-62140333D02*
X89257619Y-62235571D01*
X89257619Y-62235571D02*
X89257619Y-62473666D01*
X89257619Y-62473666D02*
X89210000Y-62568904D01*
X89210000Y-62568904D02*
X89162380Y-62616523D01*
X192232619Y-80032285D02*
X192232619Y-80603713D01*
X192232619Y-80317999D02*
X191232619Y-80317999D01*
X191232619Y-80317999D02*
X191375476Y-80413237D01*
X191375476Y-80413237D02*
X191470714Y-80508475D01*
X191470714Y-80508475D02*
X191518333Y-80603713D01*
D10*
X145240419Y-76137704D02*
X145954704Y-76137704D01*
X145954704Y-76137704D02*
X146097561Y-76185323D01*
X146097561Y-76185323D02*
X146192800Y-76280561D01*
X146192800Y-76280561D02*
X146240419Y-76423418D01*
X146240419Y-76423418D02*
X146240419Y-76518656D01*
X145573752Y-75232942D02*
X146240419Y-75232942D01*
X145192800Y-75471037D02*
X145907085Y-75709132D01*
X145907085Y-75709132D02*
X145907085Y-75090085D01*
X146335657Y-74947228D02*
X146335657Y-74185323D01*
X146240419Y-73947227D02*
X145240419Y-73947227D01*
X145240419Y-73947227D02*
X145954704Y-73613894D01*
X145954704Y-73613894D02*
X145240419Y-73280561D01*
X145240419Y-73280561D02*
X146240419Y-73280561D01*
X145335657Y-72851989D02*
X145288038Y-72804370D01*
X145288038Y-72804370D02*
X145240419Y-72709132D01*
X145240419Y-72709132D02*
X145240419Y-72471037D01*
X145240419Y-72471037D02*
X145288038Y-72375799D01*
X145288038Y-72375799D02*
X145335657Y-72328180D01*
X145335657Y-72328180D02*
X145430895Y-72280561D01*
X145430895Y-72280561D02*
X145526133Y-72280561D01*
X145526133Y-72280561D02*
X145668990Y-72328180D01*
X145668990Y-72328180D02*
X146240419Y-72899608D01*
X146240419Y-72899608D02*
X146240419Y-72280561D01*
X145240419Y-56020904D02*
X145954704Y-56020904D01*
X145954704Y-56020904D02*
X146097561Y-56068523D01*
X146097561Y-56068523D02*
X146192800Y-56163761D01*
X146192800Y-56163761D02*
X146240419Y-56306618D01*
X146240419Y-56306618D02*
X146240419Y-56401856D01*
X145240419Y-55639951D02*
X145240419Y-55020904D01*
X145240419Y-55020904D02*
X145621371Y-55354237D01*
X145621371Y-55354237D02*
X145621371Y-55211380D01*
X145621371Y-55211380D02*
X145668990Y-55116142D01*
X145668990Y-55116142D02*
X145716609Y-55068523D01*
X145716609Y-55068523D02*
X145811847Y-55020904D01*
X145811847Y-55020904D02*
X146049942Y-55020904D01*
X146049942Y-55020904D02*
X146145180Y-55068523D01*
X146145180Y-55068523D02*
X146192800Y-55116142D01*
X146192800Y-55116142D02*
X146240419Y-55211380D01*
X146240419Y-55211380D02*
X146240419Y-55497094D01*
X146240419Y-55497094D02*
X146192800Y-55592332D01*
X146192800Y-55592332D02*
X146145180Y-55639951D01*
X146335657Y-54830428D02*
X146335657Y-54068523D01*
X146240419Y-53830427D02*
X145240419Y-53830427D01*
X145240419Y-53830427D02*
X145954704Y-53497094D01*
X145954704Y-53497094D02*
X145240419Y-53163761D01*
X145240419Y-53163761D02*
X146240419Y-53163761D01*
X145335657Y-52735189D02*
X145288038Y-52687570D01*
X145288038Y-52687570D02*
X145240419Y-52592332D01*
X145240419Y-52592332D02*
X145240419Y-52354237D01*
X145240419Y-52354237D02*
X145288038Y-52258999D01*
X145288038Y-52258999D02*
X145335657Y-52211380D01*
X145335657Y-52211380D02*
X145430895Y-52163761D01*
X145430895Y-52163761D02*
X145526133Y-52163761D01*
X145526133Y-52163761D02*
X145668990Y-52211380D01*
X145668990Y-52211380D02*
X146240419Y-52782808D01*
X146240419Y-52782808D02*
X146240419Y-52163761D01*
X80572019Y-76594904D02*
X81286304Y-76594904D01*
X81286304Y-76594904D02*
X81429161Y-76642523D01*
X81429161Y-76642523D02*
X81524400Y-76737761D01*
X81524400Y-76737761D02*
X81572019Y-76880618D01*
X81572019Y-76880618D02*
X81572019Y-76975856D01*
X80905352Y-75690142D02*
X81572019Y-75690142D01*
X80524400Y-75928237D02*
X81238685Y-76166332D01*
X81238685Y-76166332D02*
X81238685Y-75547285D01*
X81667257Y-75404428D02*
X81667257Y-74642523D01*
X81572019Y-74404427D02*
X80572019Y-74404427D01*
X80572019Y-74404427D02*
X81286304Y-74071094D01*
X81286304Y-74071094D02*
X80572019Y-73737761D01*
X80572019Y-73737761D02*
X81572019Y-73737761D01*
X81572019Y-72737761D02*
X81572019Y-73309189D01*
X81572019Y-73023475D02*
X80572019Y-73023475D01*
X80572019Y-73023475D02*
X80714876Y-73118713D01*
X80714876Y-73118713D02*
X80810114Y-73213951D01*
X80810114Y-73213951D02*
X80857733Y-73309189D01*
X134750219Y-50763104D02*
X135464504Y-50763104D01*
X135464504Y-50763104D02*
X135607361Y-50810723D01*
X135607361Y-50810723D02*
X135702600Y-50905961D01*
X135702600Y-50905961D02*
X135750219Y-51048818D01*
X135750219Y-51048818D02*
X135750219Y-51144056D01*
X134845457Y-50334532D02*
X134797838Y-50286913D01*
X134797838Y-50286913D02*
X134750219Y-50191675D01*
X134750219Y-50191675D02*
X134750219Y-49953580D01*
X134750219Y-49953580D02*
X134797838Y-49858342D01*
X134797838Y-49858342D02*
X134845457Y-49810723D01*
X134845457Y-49810723D02*
X134940695Y-49763104D01*
X134940695Y-49763104D02*
X135035933Y-49763104D01*
X135035933Y-49763104D02*
X135178790Y-49810723D01*
X135178790Y-49810723D02*
X135750219Y-50382151D01*
X135750219Y-50382151D02*
X135750219Y-49763104D01*
X135845457Y-49572628D02*
X135845457Y-48810723D01*
X135750219Y-48572627D02*
X134750219Y-48572627D01*
X134750219Y-48572627D02*
X135464504Y-48239294D01*
X135464504Y-48239294D02*
X134750219Y-47905961D01*
X134750219Y-47905961D02*
X135750219Y-47905961D01*
X135750219Y-46905961D02*
X135750219Y-47477389D01*
X135750219Y-47191675D02*
X134750219Y-47191675D01*
X134750219Y-47191675D02*
X134893076Y-47286913D01*
X134893076Y-47286913D02*
X134988314Y-47382151D01*
X134988314Y-47382151D02*
X135035933Y-47477389D01*
X134470819Y-73597704D02*
X135185104Y-73597704D01*
X135185104Y-73597704D02*
X135327961Y-73645323D01*
X135327961Y-73645323D02*
X135423200Y-73740561D01*
X135423200Y-73740561D02*
X135470819Y-73883418D01*
X135470819Y-73883418D02*
X135470819Y-73978656D01*
X135470819Y-72597704D02*
X135470819Y-73169132D01*
X135470819Y-72883418D02*
X134470819Y-72883418D01*
X134470819Y-72883418D02*
X134613676Y-72978656D01*
X134613676Y-72978656D02*
X134708914Y-73073894D01*
X134708914Y-73073894D02*
X134756533Y-73169132D01*
X135566057Y-72407228D02*
X135566057Y-71645323D01*
X135470819Y-71407227D02*
X134470819Y-71407227D01*
X134470819Y-71407227D02*
X135185104Y-71073894D01*
X135185104Y-71073894D02*
X134470819Y-70740561D01*
X134470819Y-70740561D02*
X135470819Y-70740561D01*
X135470819Y-69740561D02*
X135470819Y-70311989D01*
X135470819Y-70026275D02*
X134470819Y-70026275D01*
X134470819Y-70026275D02*
X134613676Y-70121513D01*
X134613676Y-70121513D02*
X134708914Y-70216751D01*
X134708914Y-70216751D02*
X134756533Y-70311989D01*
X80419619Y-56173304D02*
X81133904Y-56173304D01*
X81133904Y-56173304D02*
X81276761Y-56220923D01*
X81276761Y-56220923D02*
X81372000Y-56316161D01*
X81372000Y-56316161D02*
X81419619Y-56459018D01*
X81419619Y-56459018D02*
X81419619Y-56554256D01*
X80419619Y-55792351D02*
X80419619Y-55173304D01*
X80419619Y-55173304D02*
X80800571Y-55506637D01*
X80800571Y-55506637D02*
X80800571Y-55363780D01*
X80800571Y-55363780D02*
X80848190Y-55268542D01*
X80848190Y-55268542D02*
X80895809Y-55220923D01*
X80895809Y-55220923D02*
X80991047Y-55173304D01*
X80991047Y-55173304D02*
X81229142Y-55173304D01*
X81229142Y-55173304D02*
X81324380Y-55220923D01*
X81324380Y-55220923D02*
X81372000Y-55268542D01*
X81372000Y-55268542D02*
X81419619Y-55363780D01*
X81419619Y-55363780D02*
X81419619Y-55649494D01*
X81419619Y-55649494D02*
X81372000Y-55744732D01*
X81372000Y-55744732D02*
X81324380Y-55792351D01*
X81514857Y-54982828D02*
X81514857Y-54220923D01*
X81419619Y-53982827D02*
X80419619Y-53982827D01*
X80419619Y-53982827D02*
X81133904Y-53649494D01*
X81133904Y-53649494D02*
X80419619Y-53316161D01*
X80419619Y-53316161D02*
X81419619Y-53316161D01*
X81419619Y-52316161D02*
X81419619Y-52887589D01*
X81419619Y-52601875D02*
X80419619Y-52601875D01*
X80419619Y-52601875D02*
X80562476Y-52697113D01*
X80562476Y-52697113D02*
X80657714Y-52792351D01*
X80657714Y-52792351D02*
X80705333Y-52887589D01*
X199190019Y-49670904D02*
X199904304Y-49670904D01*
X199904304Y-49670904D02*
X200047161Y-49718523D01*
X200047161Y-49718523D02*
X200142400Y-49813761D01*
X200142400Y-49813761D02*
X200190019Y-49956618D01*
X200190019Y-49956618D02*
X200190019Y-50051856D01*
X199285257Y-49242332D02*
X199237638Y-49194713D01*
X199237638Y-49194713D02*
X199190019Y-49099475D01*
X199190019Y-49099475D02*
X199190019Y-48861380D01*
X199190019Y-48861380D02*
X199237638Y-48766142D01*
X199237638Y-48766142D02*
X199285257Y-48718523D01*
X199285257Y-48718523D02*
X199380495Y-48670904D01*
X199380495Y-48670904D02*
X199475733Y-48670904D01*
X199475733Y-48670904D02*
X199618590Y-48718523D01*
X199618590Y-48718523D02*
X200190019Y-49289951D01*
X200190019Y-49289951D02*
X200190019Y-48670904D01*
X200285257Y-48480428D02*
X200285257Y-47718523D01*
X200190019Y-47480427D02*
X199190019Y-47480427D01*
X199190019Y-47480427D02*
X199904304Y-47147094D01*
X199904304Y-47147094D02*
X199190019Y-46813761D01*
X199190019Y-46813761D02*
X200190019Y-46813761D01*
X199285257Y-46385189D02*
X199237638Y-46337570D01*
X199237638Y-46337570D02*
X199190019Y-46242332D01*
X199190019Y-46242332D02*
X199190019Y-46004237D01*
X199190019Y-46004237D02*
X199237638Y-45908999D01*
X199237638Y-45908999D02*
X199285257Y-45861380D01*
X199285257Y-45861380D02*
X199380495Y-45813761D01*
X199380495Y-45813761D02*
X199475733Y-45813761D01*
X199475733Y-45813761D02*
X199618590Y-45861380D01*
X199618590Y-45861380D02*
X200190019Y-46432808D01*
X200190019Y-46432808D02*
X200190019Y-45813761D01*
X199139219Y-73953304D02*
X199853504Y-73953304D01*
X199853504Y-73953304D02*
X199996361Y-74000923D01*
X199996361Y-74000923D02*
X200091600Y-74096161D01*
X200091600Y-74096161D02*
X200139219Y-74239018D01*
X200139219Y-74239018D02*
X200139219Y-74334256D01*
X200139219Y-72953304D02*
X200139219Y-73524732D01*
X200139219Y-73239018D02*
X199139219Y-73239018D01*
X199139219Y-73239018D02*
X199282076Y-73334256D01*
X199282076Y-73334256D02*
X199377314Y-73429494D01*
X199377314Y-73429494D02*
X199424933Y-73524732D01*
X200234457Y-72762828D02*
X200234457Y-72000923D01*
X200139219Y-71762827D02*
X199139219Y-71762827D01*
X199139219Y-71762827D02*
X199853504Y-71429494D01*
X199853504Y-71429494D02*
X199139219Y-71096161D01*
X199139219Y-71096161D02*
X200139219Y-71096161D01*
X199234457Y-70667589D02*
X199186838Y-70619970D01*
X199186838Y-70619970D02*
X199139219Y-70524732D01*
X199139219Y-70524732D02*
X199139219Y-70286637D01*
X199139219Y-70286637D02*
X199186838Y-70191399D01*
X199186838Y-70191399D02*
X199234457Y-70143780D01*
X199234457Y-70143780D02*
X199329695Y-70096161D01*
X199329695Y-70096161D02*
X199424933Y-70096161D01*
X199424933Y-70096161D02*
X199567790Y-70143780D01*
X199567790Y-70143780D02*
X200139219Y-70715208D01*
X200139219Y-70715208D02*
X200139219Y-70096161D01*
D13*
%TO.C,J4_M2*%
X147249600Y-66543400D02*
X147249600Y-81903400D01*
X147249600Y-66543400D02*
X149849600Y-66543400D01*
X147249600Y-81903400D02*
X152449600Y-81903400D01*
X149849600Y-66543400D02*
X149849600Y-69143400D01*
X149849600Y-69143400D02*
X152449600Y-69143400D01*
X151119600Y-66543400D02*
X152449600Y-66543400D01*
X152449600Y-66543400D02*
X152449600Y-67873400D01*
X152449600Y-69143400D02*
X152449600Y-81903400D01*
%TO.C,J3_M2*%
X147258000Y-43667000D02*
X147258000Y-64107000D01*
X147258000Y-43667000D02*
X149858000Y-43667000D01*
X147258000Y-64107000D02*
X152458000Y-64107000D01*
X149858000Y-43667000D02*
X149858000Y-46267000D01*
X149858000Y-46267000D02*
X152458000Y-46267000D01*
X151128000Y-43667000D02*
X152458000Y-43667000D01*
X152458000Y-43667000D02*
X152458000Y-44997000D01*
X152458000Y-46267000D02*
X152458000Y-64107000D01*
%TO.C,J2*%
X95228800Y-91903400D02*
X96288800Y-91903400D01*
X95228800Y-92963400D02*
X95228800Y-91903400D01*
X95228800Y-93963400D02*
X97288800Y-93963400D01*
X95228800Y-96023400D02*
X95228800Y-93963400D01*
X95228800Y-96023400D02*
X115348800Y-96023400D01*
X97288800Y-91903400D02*
X115348800Y-91903400D01*
X97288800Y-93963400D02*
X97288800Y-91903400D01*
X115348800Y-96023400D02*
X115348800Y-91903400D01*
%TO.C,J4_M1*%
X82383000Y-66542000D02*
X82383000Y-81902000D01*
X82383000Y-66542000D02*
X84983000Y-66542000D01*
X82383000Y-81902000D02*
X87583000Y-81902000D01*
X84983000Y-66542000D02*
X84983000Y-69142000D01*
X84983000Y-69142000D02*
X87583000Y-69142000D01*
X86253000Y-66542000D02*
X87583000Y-66542000D01*
X87583000Y-66542000D02*
X87583000Y-67872000D01*
X87583000Y-69142000D02*
X87583000Y-81902000D01*
%TO.C,J2_M1*%
X128098000Y-57713400D02*
X128098000Y-34793400D01*
X128098000Y-60313400D02*
X128098000Y-58983400D01*
X129428000Y-60313400D02*
X128098000Y-60313400D01*
X130698000Y-57713400D02*
X128098000Y-57713400D01*
X130698000Y-60313400D02*
X130698000Y-57713400D01*
X133298000Y-34793400D02*
X128098000Y-34793400D01*
X133298000Y-60313400D02*
X130698000Y-60313400D01*
X133298000Y-60313400D02*
X133298000Y-34793400D01*
%TO.C,J1*%
X162658000Y-92245400D02*
X163718000Y-92245400D01*
X162658000Y-93305400D02*
X162658000Y-92245400D01*
X162658000Y-94305400D02*
X164718000Y-94305400D01*
X162658000Y-96365400D02*
X162658000Y-94305400D01*
X162658000Y-96365400D02*
X182778000Y-96365400D01*
X164718000Y-92245400D02*
X182778000Y-92245400D01*
X164718000Y-94305400D02*
X164718000Y-92245400D01*
X182778000Y-96365400D02*
X182778000Y-92245400D01*
%TO.C,J1_M1*%
X128123400Y-79278000D02*
X128123400Y-61438000D01*
X128123400Y-81878000D02*
X128123400Y-80548000D01*
X129453400Y-81878000D02*
X128123400Y-81878000D01*
X130723400Y-79278000D02*
X128123400Y-79278000D01*
X130723400Y-81878000D02*
X130723400Y-79278000D01*
X133323400Y-61438000D02*
X128123400Y-61438000D01*
X133323400Y-81878000D02*
X130723400Y-81878000D01*
X133323400Y-81878000D02*
X133323400Y-61438000D01*
%TO.C,J3_M1*%
X82398000Y-43697000D02*
X82398000Y-64137000D01*
X82398000Y-43697000D02*
X84998000Y-43697000D01*
X82398000Y-64137000D02*
X87598000Y-64137000D01*
X84998000Y-43697000D02*
X84998000Y-46297000D01*
X84998000Y-46297000D02*
X87598000Y-46297000D01*
X86268000Y-43697000D02*
X87598000Y-43697000D01*
X87598000Y-43697000D02*
X87598000Y-45027000D01*
X87598000Y-46297000D02*
X87598000Y-64137000D01*
%TO.C,J2_M2*%
X192969600Y-57713400D02*
X192969600Y-34793400D01*
X192969600Y-60313400D02*
X192969600Y-58983400D01*
X194299600Y-60313400D02*
X192969600Y-60313400D01*
X195569600Y-57713400D02*
X192969600Y-57713400D01*
X195569600Y-60313400D02*
X195569600Y-57713400D01*
X198169600Y-34793400D02*
X192969600Y-34793400D01*
X198169600Y-60313400D02*
X195569600Y-60313400D01*
X198169600Y-60313400D02*
X198169600Y-34793400D01*
%TO.C,J1_M2*%
X192969600Y-79303400D02*
X192969600Y-61463400D01*
X192969600Y-81903400D02*
X192969600Y-80573400D01*
X194299600Y-81903400D02*
X192969600Y-81903400D01*
X195569600Y-79303400D02*
X192969600Y-79303400D01*
X195569600Y-81903400D02*
X195569600Y-79303400D01*
X198169600Y-61463400D02*
X192969600Y-61463400D01*
X198169600Y-81903400D02*
X195569600Y-81903400D01*
X198169600Y-81903400D02*
X198169600Y-61463400D01*
%TD*%
M02*
